# MagicaVoxel @ Ephtracy

# group
o 

# material
mtllib terrno-2.mtl
usemtl palette

# normals
vn -1 0 0
vn 1 0 0
vn 0 0 1
vn 0 0 -1
vn 0 -1 0
vn 0 1 0

# texcoords
vt 0.958984 0.5
vt 0.974609 0.5
vt 0.978516 0.5
vt 0.982422 0.5
vt 0.990234 0.5

# verts
v -12.5 0 12.5
v -12.5 0 3.5
v -12.5 0 2.5
v -12.5 0 -2.5
v -12.5 0 -3.5
v -12.5 0 -12.5
v -12.5 0.1 12.5
v -12.5 0.1 3.5
v -12.5 0.1 2.5
v -12.5 0.1 -2.5
v -12.5 0.1 -3.5
v -12.5 0.1 -12.5
v -12.5 0.2 3.5
v -12.5 0.2 2.5
v -12.5 0.2 -2.5
v -12.5 0.2 -3.5
v -12.5 0.3 -3.5
v -12.5 0.3 -12.5
v -12.5 0.4 12.5
v -12.5 0.4 3.5
v 2.5 0.1 12.5
v 2.5 0.1 11.6
v 2.5 0.1 11.5
v 2.5 0.1 10.6
v 2.5 0.1 10.5
v 2.5 0.1 9.6
v 2.5 0.1 9.5
v 2.5 0.1 8.6
v 2.5 0.1 8.5
v 2.5 0.1 7.6
v 2.5 0.1 7.5
v 2.5 0.1 6.6
v 2.5 0.1 6.5
v 2.5 0.1 5.6
v 2.5 0.1 5.5
v 2.5 0.1 4.6
v 2.5 0.1 4.5
v 2.5 0.1 3.6
v 2.5 0.1 3.5
v 2.5 0.1 2.5
v 2.5 0.1 -2.5
v 2.5 0.1 -3.4
v 2.5 0.1 -3.5
v 2.5 0.1 -4.4
v 2.5 0.1 -4.5
v 2.5 0.1 -5.4
v 2.5 0.1 -5.5
v 2.5 0.1 -6.4
v 2.5 0.1 -6.5
v 2.5 0.1 -7.4
v 2.5 0.1 -7.5
v 2.5 0.1 -8.4
v 2.5 0.1 -8.5
v 2.5 0.1 -9.4
v 2.5 0.1 -9.5
v 2.5 0.1 -10.4
v 2.5 0.1 -10.5
v 2.5 0.1 -11.4
v 2.5 0.1 -11.5
v 2.5 0.1 -12.5
v 2.5 0.2 12.5
v 2.5 0.2 11.6
v 2.5 0.2 11.5
v 2.5 0.2 10.6
v 2.5 0.2 10.5
v 2.5 0.2 9.6
v 2.5 0.2 9.5
v 2.5 0.2 8.6
v 2.5 0.2 8.5
v 2.5 0.2 7.6
v 2.5 0.2 7.5
v 2.5 0.2 6.6
v 2.5 0.2 6.5
v 2.5 0.2 5.6
v 2.5 0.2 5.5
v 2.5 0.2 4.6
v 2.5 0.2 4.5
v 2.5 0.2 3.6
v 2.5 0.2 3.5
v 2.5 0.2 2.5
v 2.5 0.2 -2.5
v 2.5 0.2 -3.4
v 2.5 0.2 -3.5
v 2.5 0.2 -4.4
v 2.5 0.2 -4.5
v 2.5 0.2 -5.4
v 2.5 0.2 -5.5
v 2.5 0.2 -6.4
v 2.5 0.2 -6.5
v 2.5 0.2 -7.4
v 2.5 0.2 -7.5
v 2.5 0.2 -8.4
v 2.5 0.2 -8.5
v 2.5 0.2 -9.4
v 2.5 0.2 -9.5
v 2.5 0.2 -10.4
v 2.5 0.2 -10.5
v 2.5 0.2 -11.4
v 2.5 0.2 -11.5
v 2.5 0.2 -12.5
v 3.5 0.2 12.5
v 3.5 0.2 11.6
v 3.5 0.2 11.5
v 3.5 0.2 10.6
v 3.5 0.2 10.5
v 3.5 0.2 9.6
v 3.5 0.2 9.5
v 3.5 0.2 8.6
v 3.5 0.2 8.5
v 3.5 0.2 7.6
v 3.5 0.2 7.5
v 3.5 0.2 6.6
v 3.5 0.2 6.5
v 3.5 0.2 5.6
v 3.5 0.2 5.5
v 3.5 0.2 4.6
v 3.5 0.2 4.5
v 3.5 0.2 3.6
v 3.5 0.2 3.5
v 3.5 0.2 -3.5
v 3.5 0.2 -4.4
v 3.5 0.2 -4.5
v 3.5 0.2 -5.4
v 3.5 0.2 -5.5
v 3.5 0.2 -6.4
v 3.5 0.2 -6.5
v 3.5 0.2 -7.4
v 3.5 0.2 -7.5
v 3.5 0.2 -8.4
v 3.5 0.2 -8.5
v 3.5 0.2 -9.4
v 3.5 0.2 -9.5
v 3.5 0.2 -10.4
v 3.5 0.2 -10.5
v 3.5 0.2 -11.4
v 3.5 0.2 -11.5
v 3.5 0.2 -12.5
v 3.5 0.3 -3.5
v 3.5 0.3 -12.5
v 3.5 0.4 12.5
v 3.5 0.4 3.5
v -3.5 0.2 12.5
v -3.5 0.2 11.6
v -3.5 0.2 11.5
v -3.5 0.2 10.6
v -3.5 0.2 10.5
v -3.5 0.2 9.6
v -3.5 0.2 9.5
v -3.5 0.2 8.6
v -3.5 0.2 8.5
v -3.5 0.2 7.6
v -3.5 0.2 7.5
v -3.5 0.2 6.6
v -3.5 0.2 6.5
v -3.5 0.2 5.6
v -3.5 0.2 5.5
v -3.5 0.2 4.6
v -3.5 0.2 4.5
v -3.5 0.2 3.6
v -3.5 0.2 3.5
v -3.5 0.2 -3.5
v -3.5 0.2 -4.4
v -3.5 0.2 -4.5
v -3.5 0.2 -5.4
v -3.5 0.2 -5.5
v -3.5 0.2 -6.4
v -3.5 0.2 -6.5
v -3.5 0.2 -7.4
v -3.5 0.2 -7.5
v -3.5 0.2 -8.4
v -3.5 0.2 -8.5
v -3.5 0.2 -9.4
v -3.5 0.2 -9.5
v -3.5 0.2 -10.4
v -3.5 0.2 -10.5
v -3.5 0.2 -11.4
v -3.5 0.2 -11.5
v -3.5 0.2 -12.5
v -3.5 0.3 -3.5
v -3.5 0.3 -12.5
v -3.5 0.4 12.5
v -3.5 0.4 3.5
v -2.5 0.1 12.5
v -2.5 0.1 11.6
v -2.5 0.1 11.5
v -2.5 0.1 10.6
v -2.5 0.1 10.5
v -2.5 0.1 9.6
v -2.5 0.1 9.5
v -2.5 0.1 8.6
v -2.5 0.1 8.5
v -2.5 0.1 7.6
v -2.5 0.1 7.5
v -2.5 0.1 6.6
v -2.5 0.1 6.5
v -2.5 0.1 5.6
v -2.5 0.1 5.5
v -2.5 0.1 4.6
v -2.5 0.1 4.5
v -2.5 0.1 3.6
v -2.5 0.1 3.5
v -2.5 0.1 2.5
v -2.5 0.1 -2.5
v -2.5 0.1 -3.4
v -2.5 0.1 -3.5
v -2.5 0.1 -4.4
v -2.5 0.1 -4.5
v -2.5 0.1 -5.4
v -2.5 0.1 -5.5
v -2.5 0.1 -6.4
v -2.5 0.1 -6.5
v -2.5 0.1 -7.4
v -2.5 0.1 -7.5
v -2.5 0.1 -8.4
v -2.5 0.1 -8.5
v -2.5 0.1 -9.4
v -2.5 0.1 -9.5
v -2.5 0.1 -10.4
v -2.5 0.1 -10.5
v -2.5 0.1 -11.4
v -2.5 0.1 -11.5
v -2.5 0.1 -12.5
v -2.5 0.2 12.5
v -2.5 0.2 11.6
v -2.5 0.2 11.5
v -2.5 0.2 10.6
v -2.5 0.2 10.5
v -2.5 0.2 9.6
v -2.5 0.2 9.5
v -2.5 0.2 8.6
v -2.5 0.2 8.5
v -2.5 0.2 7.6
v -2.5 0.2 7.5
v -2.5 0.2 6.6
v -2.5 0.2 6.5
v -2.5 0.2 5.6
v -2.5 0.2 5.5
v -2.5 0.2 4.6
v -2.5 0.2 4.5
v -2.5 0.2 3.6
v -2.5 0.2 3.5
v -2.5 0.2 2.5
v -2.5 0.2 -2.5
v -2.5 0.2 -3.4
v -2.5 0.2 -3.5
v -2.5 0.2 -4.4
v -2.5 0.2 -4.5
v -2.5 0.2 -5.4
v -2.5 0.2 -5.5
v -2.5 0.2 -6.4
v -2.5 0.2 -6.5
v -2.5 0.2 -7.4
v -2.5 0.2 -7.5
v -2.5 0.2 -8.4
v -2.5 0.2 -8.5
v -2.5 0.2 -9.4
v -2.5 0.2 -9.5
v -2.5 0.2 -10.4
v -2.5 0.2 -10.5
v -2.5 0.2 -11.4
v -2.5 0.2 -11.5
v -2.5 0.2 -12.5
v 12.5 0 12.5
v 12.5 0 3.5
v 12.5 0 2.5
v 12.5 0 -2.5
v 12.5 0 -3.5
v 12.5 0 -12.5
v 12.5 0.1 12.5
v 12.5 0.1 3.5
v 12.5 0.1 2.5
v 12.5 0.1 -2.5
v 12.5 0.1 -3.5
v 12.5 0.1 -12.5
v 12.5 0.2 3.5
v 12.5 0.2 2.5
v 12.5 0.2 -2.5
v 12.5 0.2 -3.5
v 12.5 0.3 -3.5
v 12.5 0.3 -12.5
v 12.5 0.4 12.5
v 12.5 0.4 3.5
v -12.5 0 12.5
v -12.5 0.1 12.5
v -12.5 0.4 12.5
v -3.5 0 12.5
v -3.5 0.1 12.5
v -3.5 0.2 12.5
v -3.5 0.4 12.5
v -2.5 0 12.5
v -2.5 0.1 12.5
v -2.5 0.2 12.5
v 2.5 0 12.5
v 2.5 0.1 12.5
v 2.5 0.2 12.5
v 3.5 0 12.5
v 3.5 0.1 12.5
v 3.5 0.2 12.5
v 3.5 0.4 12.5
v 12.5 0 12.5
v 12.5 0.1 12.5
v 12.5 0.4 12.5
v -12.5 0.1 -2.5
v -12.5 0.2 -2.5
v -11.5 0.1 -2.5
v -11.5 0.2 -2.5
v -11.4 0.1 -2.5
v -11.4 0.2 -2.5
v -10.5 0.1 -2.5
v -10.5 0.2 -2.5
v -10.4 0.1 -2.5
v -10.4 0.2 -2.5
v -9.5 0.1 -2.5
v -9.5 0.2 -2.5
v -9.4 0.1 -2.5
v -9.4 0.2 -2.5
v -8.5 0.1 -2.5
v -8.5 0.2 -2.5
v -8.4 0.1 -2.5
v -8.4 0.2 -2.5
v -7.5 0.1 -2.5
v -7.5 0.2 -2.5
v -7.4 0.1 -2.5
v -7.4 0.2 -2.5
v -6.5 0.1 -2.5
v -6.5 0.2 -2.5
v -6.4 0.1 -2.5
v -6.4 0.2 -2.5
v -5.5 0.1 -2.5
v -5.5 0.2 -2.5
v -5.4 0.1 -2.5
v -5.4 0.2 -2.5
v -4.5 0.1 -2.5
v -4.5 0.2 -2.5
v -4.4 0.1 -2.5
v -4.4 0.2 -2.5
v -3.6 0.1 -2.5
v -3.6 0.2 -2.5
v -3.5 0.1 -2.5
v -3.5 0.2 -2.5
v -2.5 0.1 -2.5
v -2.5 0.2 -2.5
v 2.5 0.1 -2.5
v 2.5 0.2 -2.5
v 3.5 0.1 -2.5
v 3.5 0.2 -2.5
v 3.6 0.1 -2.5
v 3.6 0.2 -2.5
v 4.4 0.1 -2.5
v 4.4 0.2 -2.5
v 4.5 0.1 -2.5
v 4.5 0.2 -2.5
v 5.4 0.1 -2.5
v 5.4 0.2 -2.5
v 5.5 0.1 -2.5
v 5.5 0.2 -2.5
v 6.4 0.1 -2.5
v 6.4 0.2 -2.5
v 6.5 0.1 -2.5
v 6.5 0.2 -2.5
v 7.4 0.1 -2.5
v 7.4 0.2 -2.5
v 7.5 0.1 -2.5
v 7.5 0.2 -2.5
v 8.4 0.1 -2.5
v 8.4 0.2 -2.5
v 8.5 0.1 -2.5
v 8.5 0.2 -2.5
v 9.4 0.1 -2.5
v 9.4 0.2 -2.5
v 9.5 0.1 -2.5
v 9.5 0.2 -2.5
v 10.4 0.1 -2.5
v 10.4 0.2 -2.5
v 10.5 0.1 -2.5
v 10.5 0.2 -2.5
v 11.4 0.1 -2.5
v 11.4 0.2 -2.5
v 11.5 0.1 -2.5
v 11.5 0.2 -2.5
v 12.5 0.1 -2.5
v 12.5 0.2 -2.5
v -12.5 0.2 -3.5
v -12.5 0.3 -3.5
v -11.5 0.2 -3.5
v -11.4 0.2 -3.5
v -10.5 0.2 -3.5
v -10.4 0.2 -3.5
v -9.5 0.2 -3.5
v -9.4 0.2 -3.5
v -8.5 0.2 -3.5
v -8.4 0.2 -3.5
v -7.5 0.2 -3.5
v -7.4 0.2 -3.5
v -6.5 0.2 -3.5
v -6.4 0.2 -3.5
v -5.5 0.2 -3.5
v -5.4 0.2 -3.5
v -4.5 0.2 -3.5
v -4.4 0.2 -3.5
v -3.6 0.2 -3.5
v -3.5 0.2 -3.5
v -3.5 0.3 -3.5
v 3.5 0.2 -3.5
v 3.5 0.3 -3.5
v 3.6 0.2 -3.5
v 4.4 0.2 -3.5
v 4.5 0.2 -3.5
v 5.4 0.2 -3.5
v 5.5 0.2 -3.5
v 6.4 0.2 -3.5
v 6.5 0.2 -3.5
v 7.4 0.2 -3.5
v 7.5 0.2 -3.5
v 8.4 0.2 -3.5
v 8.5 0.2 -3.5
v 9.4 0.2 -3.5
v 9.5 0.2 -3.5
v 10.4 0.2 -3.5
v 10.5 0.2 -3.5
v 11.4 0.2 -3.5
v 11.5 0.2 -3.5
v 12.5 0.2 -3.5
v 12.5 0.3 -3.5
v -12.5 0.2 3.5
v -12.5 0.4 3.5
v -11.5 0.2 3.5
v -11.4 0.2 3.5
v -10.5 0.2 3.5
v -10.4 0.2 3.5
v -9.5 0.2 3.5
v -9.4 0.2 3.5
v -8.5 0.2 3.5
v -8.4 0.2 3.5
v -7.5 0.2 3.5
v -7.4 0.2 3.5
v -6.5 0.2 3.5
v -6.4 0.2 3.5
v -5.5 0.2 3.5
v -5.4 0.2 3.5
v -4.5 0.2 3.5
v -4.4 0.2 3.5
v -3.5 0.2 3.5
v -3.5 0.4 3.5
v 3.5 0.2 3.5
v 3.5 0.4 3.5
v 4.4 0.2 3.5
v 4.5 0.2 3.5
v 5.4 0.2 3.5
v 5.5 0.2 3.5
v 6.4 0.2 3.5
v 6.5 0.2 3.5
v 7.4 0.2 3.5
v 7.5 0.2 3.5
v 8.4 0.2 3.5
v 8.5 0.2 3.5
v 9.4 0.2 3.5
v 9.5 0.2 3.5
v 10.4 0.2 3.5
v 10.5 0.2 3.5
v 11.4 0.2 3.5
v 11.5 0.2 3.5
v 12.5 0.2 3.5
v 12.5 0.4 3.5
v -12.5 0.1 2.5
v -12.5 0.2 2.5
v -11.5 0.1 2.5
v -11.5 0.2 2.5
v -11.4 0.1 2.5
v -11.4 0.2 2.5
v -10.5 0.1 2.5
v -10.5 0.2 2.5
v -10.4 0.1 2.5
v -10.4 0.2 2.5
v -9.5 0.1 2.5
v -9.5 0.2 2.5
v -9.4 0.1 2.5
v -9.4 0.2 2.5
v -8.5 0.1 2.5
v -8.5 0.2 2.5
v -8.4 0.1 2.5
v -8.4 0.2 2.5
v -7.5 0.1 2.5
v -7.5 0.2 2.5
v -7.4 0.1 2.5
v -7.4 0.2 2.5
v -6.5 0.1 2.5
v -6.5 0.2 2.5
v -6.4 0.1 2.5
v -6.4 0.2 2.5
v -5.5 0.1 2.5
v -5.5 0.2 2.5
v -5.4 0.1 2.5
v -5.4 0.2 2.5
v -4.5 0.1 2.5
v -4.5 0.2 2.5
v -4.4 0.1 2.5
v -4.4 0.2 2.5
v -3.5 0.1 2.5
v -3.5 0.2 2.5
v -3.4 0.1 2.5
v -3.4 0.2 2.5
v -2.5 0.1 2.5
v -2.5 0.2 2.5
v 2.5 0.1 2.5
v 2.5 0.2 2.5
v 3.4 0.1 2.5
v 3.4 0.2 2.5
v 3.5 0.1 2.5
v 3.5 0.2 2.5
v 4.4 0.1 2.5
v 4.4 0.2 2.5
v 4.5 0.1 2.5
v 4.5 0.2 2.5
v 5.4 0.1 2.5
v 5.4 0.2 2.5
v 5.5 0.1 2.5
v 5.5 0.2 2.5
v 6.4 0.1 2.5
v 6.4 0.2 2.5
v 6.5 0.1 2.5
v 6.5 0.2 2.5
v 7.4 0.1 2.5
v 7.4 0.2 2.5
v 7.5 0.1 2.5
v 7.5 0.2 2.5
v 8.4 0.1 2.5
v 8.4 0.2 2.5
v 8.5 0.1 2.5
v 8.5 0.2 2.5
v 9.4 0.1 2.5
v 9.4 0.2 2.5
v 9.5 0.1 2.5
v 9.5 0.2 2.5
v 10.4 0.1 2.5
v 10.4 0.2 2.5
v 10.5 0.1 2.5
v 10.5 0.2 2.5
v 11.4 0.1 2.5
v 11.4 0.2 2.5
v 11.5 0.1 2.5
v 11.5 0.2 2.5
v 12.5 0.1 2.5
v 12.5 0.2 2.5
v -12.5 0 -12.5
v -12.5 0.1 -12.5
v -12.5 0.3 -12.5
v -3.5 0 -12.5
v -3.5 0.1 -12.5
v -3.5 0.2 -12.5
v -3.5 0.3 -12.5
v -2.5 0 -12.5
v -2.5 0.1 -12.5
v -2.5 0.2 -12.5
v 2.5 0 -12.5
v 2.5 0.1 -12.5
v 2.5 0.2 -12.5
v 3.5 0 -12.5
v 3.5 0.1 -12.5
v 3.5 0.2 -12.5
v 3.5 0.3 -12.5
v 12.5 0 -12.5
v 12.5 0.1 -12.5
v 12.5 0.3 -12.5
v -12.5 0 12.5
v -3.5 0 12.5
v -2.5 0 12.5
v 2.5 0 12.5
v 3.5 0 12.5
v 12.5 0 12.5
v -0.1 0 11.5
v 0.0999994 0 11.5
v -0.1 0 10.5
v 0.0999994 0 10.5
v -0.1 0 9.5
v 0.0999994 0 9.5
v -0.1 0 8.5
v 0.0999994 0 8.5
v -0.1 0 7.5
v 0.0999994 0 7.5
v -0.1 0 6.5
v 0.0999994 0 6.5
v -0.1 0 5.5
v 0.0999994 0 5.5
v -0.1 0 4.5
v 0.0999994 0 4.5
v -12.5 0 3.5
v -3.5 0 3.5
v -2.5 0 3.5
v -2.3 0 3.5
v -2 0 3.5
v -1.8 0 3.5
v -1.5 0 3.5
v -1.3 0 3.5
v -1 0 3.5
v -0.8 0 3.5
v -0.5 0 3.5
v -0.3 0 3.5
v -0.1 0 3.5
v 0.0999994 0 3.5
v 0.3 0 3.5
v 0.5 0 3.5
v 0.8 0 3.5
v 1 0 3.5
v 1.3 0 3.5
v 1.5 0 3.5
v 1.8 0 3.5
v 2 0 3.5
v 2.3 0 3.5
v 2.5 0 3.5
v 3.5 0 3.5
v 12.5 0 3.5
v -12.5 0 2.5
v -3.5 0 2.5
v -3.4 0 2.5
v -2.5 0 2.5
v -2.3 0 2.5
v -2 0 2.5
v -1.8 0 2.5
v -1.5 0 2.5
v -1.3 0 2.5
v -1 0 2.5
v -0.8 0 2.5
v -0.5 0 2.5
v -0.3 0 2.5
v -0.1 0 2.5
v 0.0999994 0 2.5
v 0.3 0 2.5
v 0.5 0 2.5
v 0.8 0 2.5
v 1 0 2.5
v 1.3 0 2.5
v 1.5 0 2.5
v 1.8 0 2.5
v 2 0 2.5
v 2.3 0 2.5
v 2.5 0 2.5
v 3.4 0 2.5
v 3.5 0 2.5
v 12.5 0 2.5
v -3.5 0 2.4
v -3.4 0 2.4
v 3.4 0 2.4
v 3.5 0 2.4
v -3.5 0 2.3
v -2.5 0 2.3
v 2.5 0 2.3
v 3.5 0 2.3
v -3.5 0 2
v -2.5 0 2
v 2.5 0 2
v 3.5 0 2
v -3.5 0 1.8
v -2.5 0 1.8
v 2.5 0 1.8
v 3.5 0 1.8
v -3.5 0 1.5
v -2.5 0 1.5
v 2.5 0 1.5
v 3.5 0 1.5
v -3.5 0 1.3
v -2.5 0 1.3
v 2.5 0 1.3
v 3.5 0 1.3
v -3.5 0 1
v -2.5 0 1
v 2.5 0 1
v 3.5 0 1
v -3.5 0 0.8
v -2.5 0 0.8
v 2.5 0 0.8
v 3.5 0 0.8
v -3.5 0 0.5
v -2.5 0 0.5
v 2.5 0 0.5
v 3.5 0 0.5
v -3.5 0 0.3
v -2.5 0 0.3
v 2.5 0 0.3
v 3.5 0 0.3
v -11.5 0 0.1
v -10.5 0 0.1
v -9.5 0 0.1
v -8.5 0 0.1
v -7.5 0 0.1
v -6.5 0 0.1
v -5.5 0 0.1
v -4.5 0 0.1
v 4.5 0 0.1
v 5.5 0 0.1
v 6.5 0 0.1
v 7.5 0 0.1
v 8.5 0 0.1
v 9.5 0 0.1
v 10.5 0 0.1
v 11.5 0 0.1
v -3.5 0 0
v -2.5 0 0
v 2.5 0 0
v 3.5 0 0
v -11.5 0 -0.0999994
v -10.5 0 -0.0999994
v -9.5 0 -0.0999994
v -8.5 0 -0.0999994
v -7.5 0 -0.0999994
v -6.5 0 -0.0999994
v -5.5 0 -0.0999994
v -4.5 0 -0.0999994
v 4.5 0 -0.0999994
v 5.5 0 -0.0999994
v 6.5 0 -0.0999994
v 7.5 0 -0.0999994
v 8.5 0 -0.0999994
v 9.5 0 -0.0999994
v 10.5 0 -0.0999994
v 11.5 0 -0.0999994
v -3.5 0 -0.2
v -2.5 0 -0.2
v 2.5 0 -0.2
v 3.5 0 -0.2
v -3.5 0 -0.5
v -2.5 0 -0.5
v 2.5 0 -0.5
v 3.5 0 -0.5
v -3.5 0 -0.7
v -2.5 0 -0.7
v 2.5 0 -0.7
v 3.5 0 -0.7
v -3.5 0 -1
v -2.5 0 -1
v 2.5 0 -1
v 3.5 0 -1
v -3.5 0 -1.2
v -2.5 0 -1.2
v 2.5 0 -1.2
v 3.5 0 -1.2
v -3.5 0 -1.5
v -2.5 0 -1.5
v 2.5 0 -1.5
v 3.5 0 -1.5
v -3.5 0 -1.7
v -2.5 0 -1.7
v 2.5 0 -1.7
v 3.5 0 -1.7
v -3.5 0 -2
v -2.5 0 -2
v 2.5 0 -2
v 3.5 0 -2
v -3.5 0 -2.2
v -2.5 0 -2.2
v 2.5 0 -2.2
v 3.5 0 -2.2
v -12.5 0 -2.5
v -2.5 0 -2.5
v -2.2 0 -2.5
v -2 0 -2.5
v -1.7 0 -2.5
v -1.5 0 -2.5
v -1.2 0 -2.5
v -1 0 -2.5
v -0.7 0 -2.5
v -0.5 0 -2.5
v -0.1 0 -2.5
v 0.0999994 0 -2.5
v 0.5 0 -2.5
v 0.7 0 -2.5
v 1 0 -2.5
v 1.2 0 -2.5
v 1.5 0 -2.5
v 1.7 0 -2.5
v 2 0 -2.5
v 2.2 0 -2.5
v 2.5 0 -2.5
v 12.5 0 -2.5
v -12.5 0 -3.5
v -3.5 0 -3.5
v -2.2 0 -3.5
v -2 0 -3.5
v -1.7 0 -3.5
v -1.5 0 -3.5
v -1.2 0 -3.5
v -1 0 -3.5
v -0.7 0 -3.5
v -0.5 0 -3.5
v -0.1 0 -3.5
v 0.0999994 0 -3.5
v 0.5 0 -3.5
v 0.7 0 -3.5
v 1 0 -3.5
v 1.2 0 -3.5
v 1.5 0 -3.5
v 1.7 0 -3.5
v 2 0 -3.5
v 2.2 0 -3.5
v 3.5 0 -3.5
v 12.5 0 -3.5
v -0.1 0 -4.5
v 0.0999994 0 -4.5
v -0.1 0 -5.5
v 0.0999994 0 -5.5
v -0.1 0 -6.5
v 0.0999994 0 -6.5
v -0.1 0 -7.5
v 0.0999994 0 -7.5
v -0.1 0 -8.5
v 0.0999994 0 -8.5
v -0.1 0 -9.5
v 0.0999994 0 -9.5
v -0.1 0 -10.5
v 0.0999994 0 -10.5
v -0.1 0 -11.5
v 0.0999994 0 -11.5
v -12.5 0 -12.5
v -3.5 0 -12.5
v -2.5 0 -12.5
v 2.5 0 -12.5
v 3.5 0 -12.5
v 12.5 0 -12.5
v -2.5 0.1 12.5
v 2.5 0.1 12.5
v -2.5 0.1 11.6
v 2.5 0.1 11.6
v -2.5 0.1 11.5
v -0.1 0.1 11.5
v 0.0999994 0.1 11.5
v 2.5 0.1 11.5
v -2.5 0.1 10.6
v 2.5 0.1 10.6
v -2.5 0.1 10.5
v -0.1 0.1 10.5
v 0.0999994 0.1 10.5
v 2.5 0.1 10.5
v -2.5 0.1 9.6
v 2.5 0.1 9.6
v -2.5 0.1 9.5
v -0.1 0.1 9.5
v 0.0999994 0.1 9.5
v 2.5 0.1 9.5
v -2.5 0.1 8.6
v 2.5 0.1 8.6
v -2.5 0.1 8.5
v -0.1 0.1 8.5
v 0.0999994 0.1 8.5
v 2.5 0.1 8.5
v -2.5 0.1 7.6
v 2.5 0.1 7.6
v -2.5 0.1 7.5
v -0.1 0.1 7.5
v 0.0999994 0.1 7.5
v 2.5 0.1 7.5
v -2.5 0.1 6.6
v 2.5 0.1 6.6
v -2.5 0.1 6.5
v -0.1 0.1 6.5
v 0.0999994 0.1 6.5
v 2.5 0.1 6.5
v -2.5 0.1 5.6
v 2.5 0.1 5.6
v -2.5 0.1 5.5
v -0.1 0.1 5.5
v 0.0999994 0.1 5.5
v 2.5 0.1 5.5
v -2.5 0.1 4.6
v 2.5 0.1 4.6
v -2.5 0.1 4.5
v -0.1 0.1 4.5
v 0.0999994 0.1 4.5
v 2.5 0.1 4.5
v -2.5 0.1 3.6
v 2.5 0.1 3.6
v -2.5 0.1 3.5
v -2.3 0.1 3.5
v -2 0.1 3.5
v -1.8 0.1 3.5
v -1.5 0.1 3.5
v -1.3 0.1 3.5
v -1 0.1 3.5
v -0.8 0.1 3.5
v -0.5 0.1 3.5
v -0.3 0.1 3.5
v -0.1 0.1 3.5
v 0.0999994 0.1 3.5
v 0.3 0.1 3.5
v 0.5 0.1 3.5
v 0.8 0.1 3.5
v 1 0.1 3.5
v 1.3 0.1 3.5
v 1.5 0.1 3.5
v 1.8 0.1 3.5
v 2 0.1 3.5
v 2.3 0.1 3.5
v 2.5 0.1 3.5
v -12.5 0.1 2.5
v -11.5 0.1 2.5
v -11.4 0.1 2.5
v -10.5 0.1 2.5
v -10.4 0.1 2.5
v -9.5 0.1 2.5
v -9.4 0.1 2.5
v -8.5 0.1 2.5
v -8.4 0.1 2.5
v -7.5 0.1 2.5
v -7.4 0.1 2.5
v -6.5 0.1 2.5
v -6.4 0.1 2.5
v -5.5 0.1 2.5
v -5.4 0.1 2.5
v -4.5 0.1 2.5
v -4.4 0.1 2.5
v -3.5 0.1 2.5
v -3.4 0.1 2.5
v -2.5 0.1 2.5
v -2.3 0.1 2.5
v -2 0.1 2.5
v -1.8 0.1 2.5
v -1.5 0.1 2.5
v -1.3 0.1 2.5
v -1 0.1 2.5
v -0.8 0.1 2.5
v -0.5 0.1 2.5
v -0.3 0.1 2.5
v -0.1 0.1 2.5
v 0.0999994 0.1 2.5
v 0.3 0.1 2.5
v 0.5 0.1 2.5
v 0.8 0.1 2.5
v 1 0.1 2.5
v 1.3 0.1 2.5
v 1.5 0.1 2.5
v 1.8 0.1 2.5
v 2 0.1 2.5
v 2.3 0.1 2.5
v 2.5 0.1 2.5
v 3.4 0.1 2.5
v 3.5 0.1 2.5
v 4.4 0.1 2.5
v 4.5 0.1 2.5
v 5.4 0.1 2.5
v 5.5 0.1 2.5
v 6.4 0.1 2.5
v 6.5 0.1 2.5
v 7.4 0.1 2.5
v 7.5 0.1 2.5
v 8.4 0.1 2.5
v 8.5 0.1 2.5
v 9.4 0.1 2.5
v 9.5 0.1 2.5
v 10.4 0.1 2.5
v 10.5 0.1 2.5
v 11.4 0.1 2.5
v 11.5 0.1 2.5
v 12.5 0.1 2.5
v -3.5 0.1 2.4
v -3.4 0.1 2.4
v 3.4 0.1 2.4
v 3.5 0.1 2.4
v -3.5 0.1 2.3
v -2.5 0.1 2.3
v 2.5 0.1 2.3
v 3.5 0.1 2.3
v -3.5 0.1 2
v -2.5 0.1 2
v 2.5 0.1 2
v 3.5 0.1 2
v -3.5 0.1 1.8
v -2.5 0.1 1.8
v 2.5 0.1 1.8
v 3.5 0.1 1.8
v -3.5 0.1 1.5
v -2.5 0.1 1.5
v 2.5 0.1 1.5
v 3.5 0.1 1.5
v -3.5 0.1 1.3
v -2.5 0.1 1.3
v 2.5 0.1 1.3
v 3.5 0.1 1.3
v -3.5 0.1 1
v -2.5 0.1 1
v 2.5 0.1 1
v 3.5 0.1 1
v -3.5 0.1 0.8
v -2.5 0.1 0.8
v 2.5 0.1 0.8
v 3.5 0.1 0.8
v -3.5 0.1 0.5
v -2.5 0.1 0.5
v 2.5 0.1 0.5
v 3.5 0.1 0.5
v -3.5 0.1 0.3
v -2.5 0.1 0.3
v 2.5 0.1 0.3
v 3.5 0.1 0.3
v -11.5 0.1 0.1
v -10.5 0.1 0.1
v -9.5 0.1 0.1
v -8.5 0.1 0.1
v -7.5 0.1 0.1
v -6.5 0.1 0.1
v -5.5 0.1 0.1
v -4.5 0.1 0.1
v 4.5 0.1 0.1
v 5.5 0.1 0.1
v 6.5 0.1 0.1
v 7.5 0.1 0.1
v 8.5 0.1 0.1
v 9.5 0.1 0.1
v 10.5 0.1 0.1
v 11.5 0.1 0.1
v -3.5 0.1 0
v -2.5 0.1 0
v 2.5 0.1 0
v 3.5 0.1 0
v -11.5 0.1 -0.0999994
v -10.5 0.1 -0.0999994
v -9.5 0.1 -0.0999994
v -8.5 0.1 -0.0999994
v -7.5 0.1 -0.0999994
v -6.5 0.1 -0.0999994
v -5.5 0.1 -0.0999994
v -4.5 0.1 -0.0999994
v 4.5 0.1 -0.0999994
v 5.5 0.1 -0.0999994
v 6.5 0.1 -0.0999994
v 7.5 0.1 -0.0999994
v 8.5 0.1 -0.0999994
v 9.5 0.1 -0.0999994
v 10.5 0.1 -0.0999994
v 11.5 0.1 -0.0999994
v -3.5 0.1 -0.2
v -2.5 0.1 -0.2
v 2.5 0.1 -0.2
v 3.5 0.1 -0.2
v -3.5 0.1 -0.5
v -2.5 0.1 -0.5
v 2.5 0.1 -0.5
v 3.5 0.1 -0.5
v -3.5 0.1 -0.7
v -2.5 0.1 -0.7
v 2.5 0.1 -0.7
v 3.5 0.1 -0.7
v -3.5 0.1 -1
v -2.5 0.1 -1
v 2.5 0.1 -1
v 3.5 0.1 -1
v -3.5 0.1 -1.2
v -2.5 0.1 -1.2
v 2.5 0.1 -1.2
v 3.5 0.1 -1.2
v -3.5 0.1 -1.5
v -2.5 0.1 -1.5
v 2.5 0.1 -1.5
v 3.5 0.1 -1.5
v -3.5 0.1 -1.7
v -2.5 0.1 -1.7
v 2.5 0.1 -1.7
v 3.5 0.1 -1.7
v -3.5 0.1 -2
v -2.5 0.1 -2
v 2.5 0.1 -2
v 3.5 0.1 -2
v -3.5 0.1 -2.2
v -2.5 0.1 -2.2
v 2.5 0.1 -2.2
v 3.5 0.1 -2.2
v -12.5 0.1 -2.5
v -11.5 0.1 -2.5
v -11.4 0.1 -2.5
v -10.5 0.1 -2.5
v -10.4 0.1 -2.5
v -9.5 0.1 -2.5
v -9.4 0.1 -2.5
v -8.5 0.1 -2.5
v -8.4 0.1 -2.5
v -7.5 0.1 -2.5
v -7.4 0.1 -2.5
v -6.5 0.1 -2.5
v -6.4 0.1 -2.5
v -5.5 0.1 -2.5
v -5.4 0.1 -2.5
v -4.5 0.1 -2.5
v -4.4 0.1 -2.5
v -3.6 0.1 -2.5
v -3.5 0.1 -2.5
v -2.5 0.1 -2.5
v -2.2 0.1 -2.5
v -2 0.1 -2.5
v -1.7 0.1 -2.5
v -1.5 0.1 -2.5
v -1.2 0.1 -2.5
v -1 0.1 -2.5
v -0.7 0.1 -2.5
v -0.5 0.1 -2.5
v -0.1 0.1 -2.5
v 0.0999994 0.1 -2.5
v 0.5 0.1 -2.5
v 0.7 0.1 -2.5
v 1 0.1 -2.5
v 1.2 0.1 -2.5
v 1.5 0.1 -2.5
v 1.7 0.1 -2.5
v 2 0.1 -2.5
v 2.2 0.1 -2.5
v 2.5 0.1 -2.5
v 3.5 0.1 -2.5
v 3.6 0.1 -2.5
v 4.4 0.1 -2.5
v 4.5 0.1 -2.5
v 5.4 0.1 -2.5
v 5.5 0.1 -2.5
v 6.4 0.1 -2.5
v 6.5 0.1 -2.5
v 7.4 0.1 -2.5
v 7.5 0.1 -2.5
v 8.4 0.1 -2.5
v 8.5 0.1 -2.5
v 9.4 0.1 -2.5
v 9.5 0.1 -2.5
v 10.4 0.1 -2.5
v 10.5 0.1 -2.5
v 11.4 0.1 -2.5
v 11.5 0.1 -2.5
v 12.5 0.1 -2.5
v -2.5 0.1 -3.4
v 2.5 0.1 -3.4
v -2.5 0.1 -3.5
v -2.2 0.1 -3.5
v -2 0.1 -3.5
v -1.7 0.1 -3.5
v -1.5 0.1 -3.5
v -1.2 0.1 -3.5
v -1 0.1 -3.5
v -0.7 0.1 -3.5
v -0.5 0.1 -3.5
v -0.1 0.1 -3.5
v 0.0999994 0.1 -3.5
v 0.5 0.1 -3.5
v 0.7 0.1 -3.5
v 1 0.1 -3.5
v 1.2 0.1 -3.5
v 1.5 0.1 -3.5
v 1.7 0.1 -3.5
v 2 0.1 -3.5
v 2.2 0.1 -3.5
v 2.5 0.1 -3.5
v -2.5 0.1 -4.4
v 2.5 0.1 -4.4
v -2.5 0.1 -4.5
v -0.1 0.1 -4.5
v 0.0999994 0.1 -4.5
v 2.5 0.1 -4.5
v -2.5 0.1 -5.4
v 2.5 0.1 -5.4
v -2.5 0.1 -5.5
v -0.1 0.1 -5.5
v 0.0999994 0.1 -5.5
v 2.5 0.1 -5.5
v -2.5 0.1 -6.4
v 2.5 0.1 -6.4
v -2.5 0.1 -6.5
v -0.1 0.1 -6.5
v 0.0999994 0.1 -6.5
v 2.5 0.1 -6.5
v -2.5 0.1 -7.4
v 2.5 0.1 -7.4
v -2.5 0.1 -7.5
v -0.1 0.1 -7.5
v 0.0999994 0.1 -7.5
v 2.5 0.1 -7.5
v -2.5 0.1 -8.4
v 2.5 0.1 -8.4
v -2.5 0.1 -8.5
v -0.1 0.1 -8.5
v 0.0999994 0.1 -8.5
v 2.5 0.1 -8.5
v -2.5 0.1 -9.4
v 2.5 0.1 -9.4
v -2.5 0.1 -9.5
v -0.1 0.1 -9.5
v 0.0999994 0.1 -9.5
v 2.5 0.1 -9.5
v -2.5 0.1 -10.4
v 2.5 0.1 -10.4
v -2.5 0.1 -10.5
v -0.1 0.1 -10.5
v 0.0999994 0.1 -10.5
v 2.5 0.1 -10.5
v -2.5 0.1 -11.4
v 2.5 0.1 -11.4
v -2.5 0.1 -11.5
v -0.1 0.1 -11.5
v 0.0999994 0.1 -11.5
v 2.5 0.1 -11.5
v -2.5 0.1 -12.5
v 2.5 0.1 -12.5
v -3.5 0.2 12.5
v -2.5 0.2 12.5
v 2.5 0.2 12.5
v 3.5 0.2 12.5
v -3.5 0.2 11.6
v -2.5 0.2 11.6
v 2.5 0.2 11.6
v 3.5 0.2 11.6
v -3.5 0.2 11.5
v -2.5 0.2 11.5
v 2.5 0.2 11.5
v 3.5 0.2 11.5
v -3.5 0.2 10.6
v -2.5 0.2 10.6
v 2.5 0.2 10.6
v 3.5 0.2 10.6
v -3.5 0.2 10.5
v -2.5 0.2 10.5
v 2.5 0.2 10.5
v 3.5 0.2 10.5
v -3.5 0.2 9.6
v -2.5 0.2 9.6
v 2.5 0.2 9.6
v 3.5 0.2 9.6
v -3.5 0.2 9.5
v -2.5 0.2 9.5
v 2.5 0.2 9.5
v 3.5 0.2 9.5
v -3.5 0.2 8.6
v -2.5 0.2 8.6
v 2.5 0.2 8.6
v 3.5 0.2 8.6
v -3.5 0.2 8.5
v -2.5 0.2 8.5
v 2.5 0.2 8.5
v 3.5 0.2 8.5
v -3.5 0.2 7.6
v -2.5 0.2 7.6
v 2.5 0.2 7.6
v 3.5 0.2 7.6
v -3.5 0.2 7.5
v -2.5 0.2 7.5
v 2.5 0.2 7.5
v 3.5 0.2 7.5
v -3.5 0.2 6.6
v -2.5 0.2 6.6
v 2.5 0.2 6.6
v 3.5 0.2 6.6
v -3.5 0.2 6.5
v -2.5 0.2 6.5
v 2.5 0.2 6.5
v 3.5 0.2 6.5
v -3.5 0.2 5.6
v -2.5 0.2 5.6
v 2.5 0.2 5.6
v 3.5 0.2 5.6
v -3.5 0.2 5.5
v -2.5 0.2 5.5
v 2.5 0.2 5.5
v 3.5 0.2 5.5
v -3.5 0.2 4.6
v -2.5 0.2 4.6
v 2.5 0.2 4.6
v 3.5 0.2 4.6
v -3.5 0.2 4.5
v -2.5 0.2 4.5
v 2.5 0.2 4.5
v 3.5 0.2 4.5
v -3.5 0.2 3.6
v -2.5 0.2 3.6
v 2.5 0.2 3.6
v 3.5 0.2 3.6
v -12.5 0.2 3.5
v -11.5 0.2 3.5
v -11.4 0.2 3.5
v -10.5 0.2 3.5
v -10.4 0.2 3.5
v -9.5 0.2 3.5
v -9.4 0.2 3.5
v -8.5 0.2 3.5
v -8.4 0.2 3.5
v -7.5 0.2 3.5
v -7.4 0.2 3.5
v -6.5 0.2 3.5
v -6.4 0.2 3.5
v -5.5 0.2 3.5
v -5.4 0.2 3.5
v -4.5 0.2 3.5
v -4.4 0.2 3.5
v -3.5 0.2 3.5
v -3.4 0.2 3.5
v -2.5 0.2 3.5
v 2.5 0.2 3.5
v 3.4 0.2 3.5
v 3.5 0.2 3.5
v 4.4 0.2 3.5
v 4.5 0.2 3.5
v 5.4 0.2 3.5
v 5.5 0.2 3.5
v 6.4 0.2 3.5
v 6.5 0.2 3.5
v 7.4 0.2 3.5
v 7.5 0.2 3.5
v 8.4 0.2 3.5
v 8.5 0.2 3.5
v 9.4 0.2 3.5
v 9.5 0.2 3.5
v 10.4 0.2 3.5
v 10.5 0.2 3.5
v 11.4 0.2 3.5
v 11.5 0.2 3.5
v 12.5 0.2 3.5
v -12.5 0.2 2.5
v -11.5 0.2 2.5
v -11.4 0.2 2.5
v -10.5 0.2 2.5
v -10.4 0.2 2.5
v -9.5 0.2 2.5
v -9.4 0.2 2.5
v -8.5 0.2 2.5
v -8.4 0.2 2.5
v -7.5 0.2 2.5
v -7.4 0.2 2.5
v -6.5 0.2 2.5
v -6.4 0.2 2.5
v -5.5 0.2 2.5
v -5.4 0.2 2.5
v -4.5 0.2 2.5
v -4.4 0.2 2.5
v -3.5 0.2 2.5
v -3.4 0.2 2.5
v -2.5 0.2 2.5
v 2.5 0.2 2.5
v 3.4 0.2 2.5
v 3.5 0.2 2.5
v 4.4 0.2 2.5
v 4.5 0.2 2.5
v 5.4 0.2 2.5
v 5.5 0.2 2.5
v 6.4 0.2 2.5
v 6.5 0.2 2.5
v 7.4 0.2 2.5
v 7.5 0.2 2.5
v 8.4 0.2 2.5
v 8.5 0.2 2.5
v 9.4 0.2 2.5
v 9.5 0.2 2.5
v 10.4 0.2 2.5
v 10.5 0.2 2.5
v 11.4 0.2 2.5
v 11.5 0.2 2.5
v 12.5 0.2 2.5
v -12.5 0.2 -2.5
v -11.5 0.2 -2.5
v -11.4 0.2 -2.5
v -10.5 0.2 -2.5
v -10.4 0.2 -2.5
v -9.5 0.2 -2.5
v -9.4 0.2 -2.5
v -8.5 0.2 -2.5
v -8.4 0.2 -2.5
v -7.5 0.2 -2.5
v -7.4 0.2 -2.5
v -6.5 0.2 -2.5
v -6.4 0.2 -2.5
v -5.5 0.2 -2.5
v -5.4 0.2 -2.5
v -4.5 0.2 -2.5
v -4.4 0.2 -2.5
v -3.6 0.2 -2.5
v -3.5 0.2 -2.5
v -2.5 0.2 -2.5
v 2.5 0.2 -2.5
v 3.5 0.2 -2.5
v 3.6 0.2 -2.5
v 4.4 0.2 -2.5
v 4.5 0.2 -2.5
v 5.4 0.2 -2.5
v 5.5 0.2 -2.5
v 6.4 0.2 -2.5
v 6.5 0.2 -2.5
v 7.4 0.2 -2.5
v 7.5 0.2 -2.5
v 8.4 0.2 -2.5
v 8.5 0.2 -2.5
v 9.4 0.2 -2.5
v 9.5 0.2 -2.5
v 10.4 0.2 -2.5
v 10.5 0.2 -2.5
v 11.4 0.2 -2.5
v 11.5 0.2 -2.5
v 12.5 0.2 -2.5
v -3.5 0.2 -3.4
v -2.5 0.2 -3.4
v 2.5 0.2 -3.4
v 3.5 0.2 -3.4
v -12.5 0.2 -3.5
v -11.5 0.2 -3.5
v -11.4 0.2 -3.5
v -10.5 0.2 -3.5
v -10.4 0.2 -3.5
v -9.5 0.2 -3.5
v -9.4 0.2 -3.5
v -8.5 0.2 -3.5
v -8.4 0.2 -3.5
v -7.5 0.2 -3.5
v -7.4 0.2 -3.5
v -6.5 0.2 -3.5
v -6.4 0.2 -3.5
v -5.5 0.2 -3.5
v -5.4 0.2 -3.5
v -4.5 0.2 -3.5
v -4.4 0.2 -3.5
v -3.6 0.2 -3.5
v -3.5 0.2 -3.5
v -2.5 0.2 -3.5
v 2.5 0.2 -3.5
v 3.5 0.2 -3.5
v 3.6 0.2 -3.5
v 4.4 0.2 -3.5
v 4.5 0.2 -3.5
v 5.4 0.2 -3.5
v 5.5 0.2 -3.5
v 6.4 0.2 -3.5
v 6.5 0.2 -3.5
v 7.4 0.2 -3.5
v 7.5 0.2 -3.5
v 8.4 0.2 -3.5
v 8.5 0.2 -3.5
v 9.4 0.2 -3.5
v 9.5 0.2 -3.5
v 10.4 0.2 -3.5
v 10.5 0.2 -3.5
v 11.4 0.2 -3.5
v 11.5 0.2 -3.5
v 12.5 0.2 -3.5
v -3.5 0.2 -4.4
v -2.5 0.2 -4.4
v 2.5 0.2 -4.4
v 3.5 0.2 -4.4
v -3.5 0.2 -4.5
v -2.5 0.2 -4.5
v 2.5 0.2 -4.5
v 3.5 0.2 -4.5
v -3.5 0.2 -5.4
v -2.5 0.2 -5.4
v 2.5 0.2 -5.4
v 3.5 0.2 -5.4
v -3.5 0.2 -5.5
v -2.5 0.2 -5.5
v 2.5 0.2 -5.5
v 3.5 0.2 -5.5
v -3.5 0.2 -6.4
v -2.5 0.2 -6.4
v 2.5 0.2 -6.4
v 3.5 0.2 -6.4
v -3.5 0.2 -6.5
v -2.5 0.2 -6.5
v 2.5 0.2 -6.5
v 3.5 0.2 -6.5
v -3.5 0.2 -7.4
v -2.5 0.2 -7.4
v 2.5 0.2 -7.4
v 3.5 0.2 -7.4
v -3.5 0.2 -7.5
v -2.5 0.2 -7.5
v 2.5 0.2 -7.5
v 3.5 0.2 -7.5
v -3.5 0.2 -8.4
v -2.5 0.2 -8.4
v 2.5 0.2 -8.4
v 3.5 0.2 -8.4
v -3.5 0.2 -8.5
v -2.5 0.2 -8.5
v 2.5 0.2 -8.5
v 3.5 0.2 -8.5
v -3.5 0.2 -9.4
v -2.5 0.2 -9.4
v 2.5 0.2 -9.4
v 3.5 0.2 -9.4
v -3.5 0.2 -9.5
v -2.5 0.2 -9.5
v 2.5 0.2 -9.5
v 3.5 0.2 -9.5
v -3.5 0.2 -10.4
v -2.5 0.2 -10.4
v 2.5 0.2 -10.4
v 3.5 0.2 -10.4
v -3.5 0.2 -10.5
v -2.5 0.2 -10.5
v 2.5 0.2 -10.5
v 3.5 0.2 -10.5
v -3.5 0.2 -11.4
v -2.5 0.2 -11.4
v 2.5 0.2 -11.4
v 3.5 0.2 -11.4
v -3.5 0.2 -11.5
v -2.5 0.2 -11.5
v 2.5 0.2 -11.5
v 3.5 0.2 -11.5
v -3.5 0.2 -12.5
v -2.5 0.2 -12.5
v 2.5 0.2 -12.5
v 3.5 0.2 -12.5
v -12.5 0.3 -3.5
v -3.5 0.3 -3.5
v 3.5 0.3 -3.5
v 12.5 0.3 -3.5
v -12.5 0.3 -12.5
v -3.5 0.3 -12.5
v 3.5 0.3 -12.5
v 12.5 0.3 -12.5
v -12.5 0.4 12.5
v -3.5 0.4 12.5
v 3.5 0.4 12.5
v 12.5 0.4 12.5
v -12.5 0.4 3.5
v -3.5 0.4 3.5
v 3.5 0.4 3.5
v 12.5 0.4 3.5

# faces
f 7/4/1 2/4/1 1/4/1
f 8/3/1 3/3/1 2/3/1
f 8/4/1 2/4/1 7/4/1
f 9/4/1 4/4/1 3/4/1
f 9/3/1 3/3/1 8/3/1
f 10/3/1 5/3/1 4/3/1
f 10/4/1 4/4/1 9/4/1
f 11/4/1 6/4/1 5/4/1
f 11/3/1 5/3/1 10/3/1
f 12/4/1 6/4/1 11/4/1
f 13/5/1 8/5/1 7/5/1
f 13/3/1 9/3/1 8/3/1
f 14/3/1 9/3/1 13/3/1
f 15/3/1 11/3/1 10/3/1
f 16/5/1 12/5/1 11/5/1
f 16/3/1 11/3/1 15/3/1
f 17/5/1 12/5/1 16/5/1
f 18/5/1 12/5/1 17/5/1
f 19/5/1 13/5/1 7/5/1
f 20/5/1 13/5/1 19/5/1
f 61/3/1 22/3/1 21/3/1
f 62/2/1 23/2/1 22/2/1
f 62/3/1 22/3/1 61/3/1
f 63/3/1 24/3/1 23/3/1
f 63/2/1 23/2/1 62/2/1
f 64/2/1 25/2/1 24/2/1
f 64/3/1 24/3/1 63/3/1
f 65/3/1 26/3/1 25/3/1
f 65/2/1 25/2/1 64/2/1
f 66/2/1 27/2/1 26/2/1
f 66/3/1 26/3/1 65/3/1
f 67/3/1 28/3/1 27/3/1
f 67/2/1 27/2/1 66/2/1
f 68/2/1 29/2/1 28/2/1
f 68/3/1 28/3/1 67/3/1
f 69/3/1 30/3/1 29/3/1
f 69/2/1 29/2/1 68/2/1
f 70/2/1 31/2/1 30/2/1
f 70/3/1 30/3/1 69/3/1
f 71/3/1 32/3/1 31/3/1
f 71/2/1 31/2/1 70/2/1
f 72/2/1 33/2/1 32/2/1
f 72/3/1 32/3/1 71/3/1
f 73/3/1 34/3/1 33/3/1
f 73/2/1 33/2/1 72/2/1
f 74/2/1 35/2/1 34/2/1
f 74/3/1 34/3/1 73/3/1
f 75/3/1 36/3/1 35/3/1
f 75/2/1 35/2/1 74/2/1
f 76/2/1 37/2/1 36/2/1
f 76/3/1 36/3/1 75/3/1
f 77/3/1 38/3/1 37/3/1
f 77/2/1 37/2/1 76/2/1
f 78/2/1 39/2/1 38/2/1
f 78/3/1 38/3/1 77/3/1
f 79/3/1 40/3/1 39/3/1
f 79/2/1 39/2/1 78/2/1
f 80/3/1 40/3/1 79/3/1
f 81/3/1 42/3/1 41/3/1
f 82/2/1 43/2/1 42/2/1
f 82/3/1 42/3/1 81/3/1
f 83/3/1 44/3/1 43/3/1
f 83/2/1 43/2/1 82/2/1
f 84/2/1 45/2/1 44/2/1
f 84/3/1 44/3/1 83/3/1
f 85/3/1 46/3/1 45/3/1
f 85/2/1 45/2/1 84/2/1
f 86/2/1 47/2/1 46/2/1
f 86/3/1 46/3/1 85/3/1
f 87/3/1 48/3/1 47/3/1
f 87/2/1 47/2/1 86/2/1
f 88/2/1 49/2/1 48/2/1
f 88/3/1 48/3/1 87/3/1
f 89/3/1 50/3/1 49/3/1
f 89/2/1 49/2/1 88/2/1
f 90/2/1 51/2/1 50/2/1
f 90/3/1 50/3/1 89/3/1
f 91/3/1 52/3/1 51/3/1
f 91/2/1 51/2/1 90/2/1
f 92/2/1 53/2/1 52/2/1
f 92/3/1 52/3/1 91/3/1
f 93/3/1 54/3/1 53/3/1
f 93/2/1 53/2/1 92/2/1
f 94/2/1 55/2/1 54/2/1
f 94/3/1 54/3/1 93/3/1
f 95/3/1 56/3/1 55/3/1
f 95/2/1 55/2/1 94/2/1
f 96/2/1 57/2/1 56/2/1
f 96/3/1 56/3/1 95/3/1
f 97/3/1 58/3/1 57/3/1
f 97/2/1 57/2/1 96/2/1
f 98/2/1 59/2/1 58/2/1
f 98/3/1 58/3/1 97/3/1
f 99/3/1 60/3/1 59/3/1
f 99/2/1 59/2/1 98/2/1
f 100/3/1 60/3/1 99/3/1
f 138/5/1 121/5/1 120/5/1
f 138/5/1 137/5/1 136/5/1
f 138/5/1 136/5/1 135/5/1
f 138/5/1 135/5/1 134/5/1
f 138/5/1 134/5/1 133/5/1
f 138/5/1 133/5/1 132/5/1
f 138/5/1 132/5/1 131/5/1
f 138/5/1 131/5/1 130/5/1
f 138/5/1 130/5/1 129/5/1
f 138/5/1 129/5/1 128/5/1
f 138/5/1 128/5/1 127/5/1
f 138/5/1 127/5/1 126/5/1
f 138/5/1 126/5/1 125/5/1
f 138/5/1 125/5/1 124/5/1
f 138/5/1 124/5/1 123/5/1
f 138/5/1 123/5/1 122/5/1
f 138/5/1 122/5/1 121/5/1
f 139/5/1 137/5/1 138/5/1
f 140/5/1 102/5/1 101/5/1
f 140/5/1 103/5/1 102/5/1
f 140/5/1 104/5/1 103/5/1
f 140/5/1 119/5/1 118/5/1
f 140/5/1 118/5/1 117/5/1
f 140/5/1 117/5/1 116/5/1
f 140/5/1 116/5/1 115/5/1
f 140/5/1 115/5/1 114/5/1
f 140/5/1 114/5/1 113/5/1
f 140/5/1 113/5/1 112/5/1
f 140/5/1 112/5/1 111/5/1
f 140/5/1 111/5/1 110/5/1
f 140/5/1 110/5/1 109/5/1
f 140/5/1 109/5/1 108/5/1
f 140/5/1 108/5/1 107/5/1
f 140/5/1 107/5/1 106/5/1
f 140/5/1 106/5/1 105/5/1
f 140/5/1 105/5/1 104/5/1
f 141/5/1 119/5/1 140/5/1
f 161/5/2 162/5/2 179/5/2
f 177/5/2 178/5/2 179/5/2
f 176/5/2 177/5/2 179/5/2
f 175/5/2 176/5/2 179/5/2
f 174/5/2 175/5/2 179/5/2
f 173/5/2 174/5/2 179/5/2
f 172/5/2 173/5/2 179/5/2
f 171/5/2 172/5/2 179/5/2
f 170/5/2 171/5/2 179/5/2
f 169/5/2 170/5/2 179/5/2
f 168/5/2 169/5/2 179/5/2
f 167/5/2 168/5/2 179/5/2
f 166/5/2 167/5/2 179/5/2
f 165/5/2 166/5/2 179/5/2
f 164/5/2 165/5/2 179/5/2
f 163/5/2 164/5/2 179/5/2
f 162/5/2 163/5/2 179/5/2
f 179/5/2 178/5/2 180/5/2
f 142/5/2 143/5/2 181/5/2
f 143/5/2 144/5/2 181/5/2
f 144/5/2 145/5/2 181/5/2
f 159/5/2 160/5/2 181/5/2
f 158/5/2 159/5/2 181/5/2
f 157/5/2 158/5/2 181/5/2
f 156/5/2 157/5/2 181/5/2
f 155/5/2 156/5/2 181/5/2
f 154/5/2 155/5/2 181/5/2
f 153/5/2 154/5/2 181/5/2
f 152/5/2 153/5/2 181/5/2
f 151/5/2 152/5/2 181/5/2
f 150/5/2 151/5/2 181/5/2
f 149/5/2 150/5/2 181/5/2
f 148/5/2 149/5/2 181/5/2
f 147/5/2 148/5/2 181/5/2
f 146/5/2 147/5/2 181/5/2
f 145/5/2 146/5/2 181/5/2
f 181/5/2 160/5/2 182/5/2
f 183/3/2 184/3/2 223/3/2
f 184/2/2 185/2/2 224/2/2
f 223/3/2 184/3/2 224/3/2
f 185/3/2 186/3/2 225/3/2
f 224/2/2 185/2/2 225/2/2
f 186/2/2 187/2/2 226/2/2
f 225/3/2 186/3/2 226/3/2
f 187/3/2 188/3/2 227/3/2
f 226/2/2 187/2/2 227/2/2
f 188/2/2 189/2/2 228/2/2
f 227/3/2 188/3/2 228/3/2
f 189/3/2 190/3/2 229/3/2
f 228/2/2 189/2/2 229/2/2
f 190/2/2 191/2/2 230/2/2
f 229/3/2 190/3/2 230/3/2
f 191/3/2 192/3/2 231/3/2
f 230/2/2 191/2/2 231/2/2
f 192/2/2 193/2/2 232/2/2
f 231/3/2 192/3/2 232/3/2
f 193/3/2 194/3/2 233/3/2
f 232/2/2 193/2/2 233/2/2
f 194/2/2 195/2/2 234/2/2
f 233/3/2 194/3/2 234/3/2
f 195/3/2 196/3/2 235/3/2
f 234/2/2 195/2/2 235/2/2
f 196/2/2 197/2/2 236/2/2
f 235/3/2 196/3/2 236/3/2
f 197/3/2 198/3/2 237/3/2
f 236/2/2 197/2/2 237/2/2
f 198/2/2 199/2/2 238/2/2
f 237/3/2 198/3/2 238/3/2
f 199/3/2 200/3/2 239/3/2
f 238/2/2 199/2/2 239/2/2
f 200/2/2 201/2/2 240/2/2
f 239/3/2 200/3/2 240/3/2
f 201/3/2 202/3/2 241/3/2
f 240/2/2 201/2/2 241/2/2
f 241/3/2 202/3/2 242/3/2
f 203/3/2 204/3/2 243/3/2
f 204/2/2 205/2/2 244/2/2
f 243/3/2 204/3/2 244/3/2
f 205/3/2 206/3/2 245/3/2
f 244/2/2 205/2/2 245/2/2
f 206/2/2 207/2/2 246/2/2
f 245/3/2 206/3/2 246/3/2
f 207/3/2 208/3/2 247/3/2
f 246/2/2 207/2/2 247/2/2
f 208/2/2 209/2/2 248/2/2
f 247/3/2 208/3/2 248/3/2
f 209/3/2 210/3/2 249/3/2
f 248/2/2 209/2/2 249/2/2
f 210/2/2 211/2/2 250/2/2
f 249/3/2 210/3/2 250/3/2
f 211/3/2 212/3/2 251/3/2
f 250/2/2 211/2/2 251/2/2
f 212/2/2 213/2/2 252/2/2
f 251/3/2 212/3/2 252/3/2
f 213/3/2 214/3/2 253/3/2
f 252/2/2 213/2/2 253/2/2
f 214/2/2 215/2/2 254/2/2
f 253/3/2 214/3/2 254/3/2
f 215/3/2 216/3/2 255/3/2
f 254/2/2 215/2/2 255/2/2
f 216/2/2 217/2/2 256/2/2
f 255/3/2 216/3/2 256/3/2
f 217/3/2 218/3/2 257/3/2
f 256/2/2 217/2/2 257/2/2
f 218/2/2 219/2/2 258/2/2
f 257/3/2 218/3/2 258/3/2
f 219/3/2 220/3/2 259/3/2
f 258/2/2 219/2/2 259/2/2
f 220/2/2 221/2/2 260/2/2
f 259/3/2 220/3/2 260/3/2
f 221/3/2 222/3/2 261/3/2
f 260/2/2 221/2/2 261/2/2
f 261/3/2 222/3/2 262/3/2
f 263/4/2 264/4/2 269/4/2
f 264/3/2 265/3/2 270/3/2
f 269/4/2 264/4/2 270/4/2
f 265/4/2 266/4/2 271/4/2
f 270/3/2 265/3/2 271/3/2
f 266/3/2 267/3/2 272/3/2
f 271/4/2 266/4/2 272/4/2
f 267/4/2 268/4/2 273/4/2
f 272/3/2 267/3/2 273/3/2
f 273/4/2 268/4/2 274/4/2
f 269/5/2 270/5/2 275/5/2
f 270/3/2 271/3/2 275/3/2
f 275/3/2 271/3/2 276/3/2
f 272/3/2 273/3/2 277/3/2
f 273/5/2 274/5/2 278/5/2
f 277/3/2 273/3/2 278/3/2
f 278/5/2 274/5/2 279/5/2
f 279/5/2 274/5/2 280/5/2
f 269/5/2 275/5/2 281/5/2
f 281/5/2 275/5/2 282/5/2
f 286/4/3 284/4/3 283/4/3
f 287/5/3 285/5/3 284/5/3
f 287/4/3 284/4/3 286/4/3
f 288/5/3 285/5/3 287/5/3
f 289/5/3 285/5/3 288/5/3
f 290/3/3 287/3/3 286/3/3
f 290/3/3 288/3/3 287/3/3
f 291/3/3 288/3/3 290/3/3
f 292/3/3 288/3/3 291/3/3
f 293/4/3 291/4/3 290/4/3
f 294/4/3 291/4/3 293/4/3
f 296/3/3 294/3/3 293/3/3
f 296/3/3 295/3/3 294/3/3
f 297/3/3 295/3/3 296/3/3
f 298/3/3 295/3/3 297/3/3
f 300/4/3 297/4/3 296/4/3
f 301/5/3 298/5/3 297/5/3
f 301/4/3 297/4/3 300/4/3
f 301/5/3 299/5/3 298/5/3
f 302/5/3 299/5/3 301/5/3
f 305/3/3 304/3/3 303/3/3
f 306/3/3 304/3/3 305/3/3
f 307/2/3 306/2/3 305/2/3
f 308/2/3 306/2/3 307/2/3
f 309/3/3 308/3/3 307/3/3
f 310/3/3 308/3/3 309/3/3
f 311/2/3 310/2/3 309/2/3
f 312/2/3 310/2/3 311/2/3
f 313/3/3 312/3/3 311/3/3
f 314/3/3 312/3/3 313/3/3
f 315/2/3 314/2/3 313/2/3
f 316/2/3 314/2/3 315/2/3
f 317/3/3 316/3/3 315/3/3
f 318/3/3 316/3/3 317/3/3
f 319/2/3 318/2/3 317/2/3
f 320/2/3 318/2/3 319/2/3
f 321/3/3 320/3/3 319/3/3
f 322/3/3 320/3/3 321/3/3
f 323/2/3 322/2/3 321/2/3
f 324/2/3 322/2/3 323/2/3
f 325/3/3 324/3/3 323/3/3
f 326/3/3 324/3/3 325/3/3
f 327/2/3 326/2/3 325/2/3
f 328/2/3 326/2/3 327/2/3
f 329/3/3 328/3/3 327/3/3
f 330/3/3 328/3/3 329/3/3
f 331/2/3 330/2/3 329/2/3
f 332/2/3 330/2/3 331/2/3
f 333/3/3 332/3/3 331/3/3
f 334/3/3 332/3/3 333/3/3
f 335/2/3 334/2/3 333/2/3
f 336/2/3 334/2/3 335/2/3
f 337/3/3 336/3/3 335/3/3
f 338/3/3 336/3/3 337/3/3
f 339/2/3 338/2/3 337/2/3
f 340/2/3 338/2/3 339/2/3
f 341/3/3 340/3/3 339/3/3
f 342/3/3 340/3/3 341/3/3
f 345/3/3 344/3/3 343/3/3
f 346/3/3 344/3/3 345/3/3
f 347/2/3 346/2/3 345/2/3
f 348/2/3 346/2/3 347/2/3
f 349/3/3 348/3/3 347/3/3
f 350/3/3 348/3/3 349/3/3
f 351/2/3 350/2/3 349/2/3
f 352/2/3 350/2/3 351/2/3
f 353/3/3 352/3/3 351/3/3
f 354/3/3 352/3/3 353/3/3
f 355/2/3 354/2/3 353/2/3
f 356/2/3 354/2/3 355/2/3
f 357/3/3 356/3/3 355/3/3
f 358/3/3 356/3/3 357/3/3
f 359/2/3 358/2/3 357/2/3
f 360/2/3 358/2/3 359/2/3
f 361/3/3 360/3/3 359/3/3
f 362/3/3 360/3/3 361/3/3
f 363/2/3 362/2/3 361/2/3
f 364/2/3 362/2/3 363/2/3
f 365/3/3 364/3/3 363/3/3
f 366/3/3 364/3/3 365/3/3
f 367/2/3 366/2/3 365/2/3
f 368/2/3 366/2/3 367/2/3
f 369/3/3 368/3/3 367/3/3
f 370/3/3 368/3/3 369/3/3
f 371/2/3 370/2/3 369/2/3
f 372/2/3 370/2/3 371/2/3
f 373/3/3 372/3/3 371/3/3
f 374/3/3 372/3/3 373/3/3
f 375/2/3 374/2/3 373/2/3
f 376/2/3 374/2/3 375/2/3
f 377/3/3 376/3/3 375/3/3
f 378/3/3 376/3/3 377/3/3
f 379/2/3 378/2/3 377/2/3
f 380/2/3 378/2/3 379/2/3
f 381/3/3 380/3/3 379/3/3
f 382/3/3 380/3/3 381/3/3
f 385/5/3 384/5/3 383/5/3
f 386/5/3 384/5/3 385/5/3
f 387/5/3 384/5/3 386/5/3
f 388/5/3 384/5/3 387/5/3
f 389/5/3 384/5/3 388/5/3
f 390/5/3 384/5/3 389/5/3
f 391/5/3 384/5/3 390/5/3
f 392/5/3 384/5/3 391/5/3
f 393/5/3 384/5/3 392/5/3
f 394/5/3 384/5/3 393/5/3
f 395/5/3 384/5/3 394/5/3
f 396/5/3 384/5/3 395/5/3
f 397/5/3 384/5/3 396/5/3
f 398/5/3 384/5/3 397/5/3
f 399/5/3 384/5/3 398/5/3
f 400/5/3 384/5/3 399/5/3
f 401/5/3 384/5/3 400/5/3
f 402/5/3 384/5/3 401/5/3
f 403/5/3 384/5/3 402/5/3
f 406/5/3 405/5/3 404/5/3
f 407/5/3 405/5/3 406/5/3
f 408/5/3 405/5/3 407/5/3
f 409/5/3 405/5/3 408/5/3
f 410/5/3 405/5/3 409/5/3
f 411/5/3 405/5/3 410/5/3
f 412/5/3 405/5/3 411/5/3
f 413/5/3 405/5/3 412/5/3
f 414/5/3 405/5/3 413/5/3
f 415/5/3 405/5/3 414/5/3
f 416/5/3 405/5/3 415/5/3
f 417/5/3 405/5/3 416/5/3
f 418/5/3 405/5/3 417/5/3
f 419/5/3 405/5/3 418/5/3
f 420/5/3 405/5/3 419/5/3
f 421/5/3 405/5/3 420/5/3
f 422/5/3 405/5/3 421/5/3
f 423/5/3 405/5/3 422/5/3
f 424/5/3 405/5/3 423/5/3
f 425/5/4 426/5/4 427/5/4
f 427/5/4 426/5/4 428/5/4
f 428/5/4 426/5/4 429/5/4
f 429/5/4 426/5/4 430/5/4
f 430/5/4 426/5/4 431/5/4
f 431/5/4 426/5/4 432/5/4
f 432/5/4 426/5/4 433/5/4
f 433/5/4 426/5/4 434/5/4
f 434/5/4 426/5/4 435/5/4
f 435/5/4 426/5/4 436/5/4
f 436/5/4 426/5/4 437/5/4
f 437/5/4 426/5/4 438/5/4
f 438/5/4 426/5/4 439/5/4
f 439/5/4 426/5/4 440/5/4
f 440/5/4 426/5/4 441/5/4
f 441/5/4 426/5/4 442/5/4
f 442/5/4 426/5/4 443/5/4
f 443/5/4 426/5/4 444/5/4
f 445/5/4 446/5/4 447/5/4
f 447/5/4 446/5/4 448/5/4
f 448/5/4 446/5/4 449/5/4
f 449/5/4 446/5/4 450/5/4
f 450/5/4 446/5/4 451/5/4
f 451/5/4 446/5/4 452/5/4
f 452/5/4 446/5/4 453/5/4
f 453/5/4 446/5/4 454/5/4
f 454/5/4 446/5/4 455/5/4
f 455/5/4 446/5/4 456/5/4
f 456/5/4 446/5/4 457/5/4
f 457/5/4 446/5/4 458/5/4
f 458/5/4 446/5/4 459/5/4
f 459/5/4 446/5/4 460/5/4
f 460/5/4 446/5/4 461/5/4
f 461/5/4 446/5/4 462/5/4
f 462/5/4 446/5/4 463/5/4
f 463/5/4 446/5/4 464/5/4
f 465/3/4 466/3/4 467/3/4
f 467/3/4 466/3/4 468/3/4
f 467/2/4 468/2/4 469/2/4
f 469/2/4 468/2/4 470/2/4
f 469/3/4 470/3/4 471/3/4
f 471/3/4 470/3/4 472/3/4
f 471/2/4 472/2/4 473/2/4
f 473/2/4 472/2/4 474/2/4
f 473/3/4 474/3/4 475/3/4
f 475/3/4 474/3/4 476/3/4
f 475/2/4 476/2/4 477/2/4
f 477/2/4 476/2/4 478/2/4
f 477/3/4 478/3/4 479/3/4
f 479/3/4 478/3/4 480/3/4
f 479/2/4 480/2/4 481/2/4
f 481/2/4 480/2/4 482/2/4
f 481/3/4 482/3/4 483/3/4
f 483/3/4 482/3/4 484/3/4
f 483/2/4 484/2/4 485/2/4
f 485/2/4 484/2/4 486/2/4
f 485/3/4 486/3/4 487/3/4
f 487/3/4 486/3/4 488/3/4
f 487/2/4 488/2/4 489/2/4
f 489/2/4 488/2/4 490/2/4
f 489/3/4 490/3/4 491/3/4
f 491/3/4 490/3/4 492/3/4
f 491/2/4 492/2/4 493/2/4
f 493/2/4 492/2/4 494/2/4
f 493/3/4 494/3/4 495/3/4
f 495/3/4 494/3/4 496/3/4
f 495/2/4 496/2/4 497/2/4
f 497/2/4 496/2/4 498/2/4
f 497/3/4 498/3/4 499/3/4
f 499/3/4 498/3/4 500/3/4
f 499/2/4 500/2/4 501/2/4
f 501/2/4 500/2/4 502/2/4
f 501/3/4 502/3/4 503/3/4
f 503/3/4 502/3/4 504/3/4
f 505/3/4 506/3/4 507/3/4
f 507/3/4 506/3/4 508/3/4
f 507/2/4 508/2/4 509/2/4
f 509/2/4 508/2/4 510/2/4
f 509/3/4 510/3/4 511/3/4
f 511/3/4 510/3/4 512/3/4
f 511/2/4 512/2/4 513/2/4
f 513/2/4 512/2/4 514/2/4
f 513/3/4 514/3/4 515/3/4
f 515/3/4 514/3/4 516/3/4
f 515/2/4 516/2/4 517/2/4
f 517/2/4 516/2/4 518/2/4
f 517/3/4 518/3/4 519/3/4
f 519/3/4 518/3/4 520/3/4
f 519/2/4 520/2/4 521/2/4
f 521/2/4 520/2/4 522/2/4
f 521/3/4 522/3/4 523/3/4
f 523/3/4 522/3/4 524/3/4
f 523/2/4 524/2/4 525/2/4
f 525/2/4 524/2/4 526/2/4
f 525/3/4 526/3/4 527/3/4
f 527/3/4 526/3/4 528/3/4
f 527/2/4 528/2/4 529/2/4
f 529/2/4 528/2/4 530/2/4
f 529/3/4 530/3/4 531/3/4
f 531/3/4 530/3/4 532/3/4
f 531/2/4 532/2/4 533/2/4
f 533/2/4 532/2/4 534/2/4
f 533/3/4 534/3/4 535/3/4
f 535/3/4 534/3/4 536/3/4
f 535/2/4 536/2/4 537/2/4
f 537/2/4 536/2/4 538/2/4
f 537/3/4 538/3/4 539/3/4
f 539/3/4 538/3/4 540/3/4
f 539/2/4 540/2/4 541/2/4
f 541/2/4 540/2/4 542/2/4
f 541/3/4 542/3/4 543/3/4
f 543/3/4 542/3/4 544/3/4
f 545/4/4 546/4/4 548/4/4
f 546/5/4 547/5/4 549/5/4
f 548/4/4 546/4/4 549/4/4
f 549/5/4 547/5/4 550/5/4
f 550/5/4 547/5/4 551/5/4
f 548/3/4 549/3/4 552/3/4
f 549/3/4 550/3/4 552/3/4
f 552/3/4 550/3/4 553/3/4
f 553/3/4 550/3/4 554/3/4
f 552/4/4 553/4/4 555/4/4
f 555/4/4 553/4/4 556/4/4
f 555/3/4 556/3/4 558/3/4
f 556/3/4 557/3/4 558/3/4
f 558/3/4 557/3/4 559/3/4
f 559/3/4 557/3/4 560/3/4
f 558/4/4 559/4/4 562/4/4
f 559/5/4 560/5/4 563/5/4
f 562/4/4 559/4/4 563/4/4
f 560/5/4 561/5/4 563/5/4
f 563/5/4 561/5/4 564/5/4
f 571/4/5 568/4/5 567/4/5
f 572/4/5 568/4/5 571/4/5
f 573/4/5 571/4/5 567/4/5
f 573/1/5 572/1/5 571/1/5
f 574/4/5 568/4/5 572/4/5
f 574/1/5 572/1/5 573/1/5
f 575/4/5 573/4/5 567/4/5
f 575/4/5 574/4/5 573/4/5
f 576/4/5 568/4/5 574/4/5
f 576/4/5 574/4/5 575/4/5
f 577/4/5 575/4/5 567/4/5
f 577/1/5 576/1/5 575/1/5
f 578/4/5 568/4/5 576/4/5
f 578/1/5 576/1/5 577/1/5
f 579/4/5 577/4/5 567/4/5
f 579/4/5 578/4/5 577/4/5
f 580/4/5 568/4/5 578/4/5
f 580/4/5 578/4/5 579/4/5
f 581/4/5 579/4/5 567/4/5
f 581/1/5 580/1/5 579/1/5
f 582/4/5 568/4/5 580/4/5
f 582/1/5 580/1/5 581/1/5
f 583/4/5 581/4/5 567/4/5
f 583/4/5 582/4/5 581/4/5
f 584/4/5 568/4/5 582/4/5
f 584/4/5 582/4/5 583/4/5
f 585/4/5 583/4/5 567/4/5
f 585/1/5 584/1/5 583/1/5
f 586/4/5 568/4/5 584/4/5
f 586/1/5 584/1/5 585/1/5
f 587/4/5 566/4/5 565/4/5
f 588/3/5 567/3/5 566/3/5
f 588/4/5 566/4/5 587/4/5
f 589/4/5 585/4/5 567/4/5
f 589/3/5 567/3/5 588/3/5
f 589/4/5 586/4/5 585/4/5
f 590/4/5 586/4/5 589/4/5
f 591/4/5 586/4/5 590/4/5
f 592/4/5 586/4/5 591/4/5
f 593/4/5 586/4/5 592/4/5
f 594/4/5 586/4/5 593/4/5
f 595/4/5 586/4/5 594/4/5
f 596/4/5 586/4/5 595/4/5
f 597/4/5 586/4/5 596/4/5
f 598/4/5 586/4/5 597/4/5
f 599/4/5 586/4/5 598/4/5
f 600/4/5 568/4/5 586/4/5
f 600/4/5 586/4/5 599/4/5
f 601/4/5 568/4/5 600/4/5
f 602/4/5 568/4/5 601/4/5
f 603/4/5 568/4/5 602/4/5
f 604/4/5 568/4/5 603/4/5
f 605/4/5 568/4/5 604/4/5
f 606/4/5 568/4/5 605/4/5
f 607/4/5 568/4/5 606/4/5
f 608/4/5 568/4/5 607/4/5
f 609/4/5 568/4/5 608/4/5
f 610/3/5 569/3/5 568/3/5
f 610/4/5 568/4/5 609/4/5
f 611/4/5 570/4/5 569/4/5
f 611/3/5 569/3/5 610/3/5
f 612/4/5 570/4/5 611/4/5
f 613/3/5 588/3/5 587/3/5
f 613/3/5 589/3/5 588/3/5
f 614/3/5 589/3/5 613/3/5
f 615/3/5 589/3/5 614/3/5
f 616/1/5 590/1/5 589/1/5
f 616/3/5 589/3/5 615/3/5
f 617/4/5 591/4/5 590/4/5
f 617/1/5 590/1/5 616/1/5
f 618/1/5 592/1/5 591/1/5
f 618/4/5 591/4/5 617/4/5
f 619/4/5 593/4/5 592/4/5
f 619/1/5 592/1/5 618/1/5
f 620/1/5 594/1/5 593/1/5
f 620/4/5 593/4/5 619/4/5
f 621/4/5 595/4/5 594/4/5
f 621/1/5 594/1/5 620/1/5
f 622/1/5 596/1/5 595/1/5
f 622/4/5 595/4/5 621/4/5
f 623/4/5 597/4/5 596/4/5
f 623/1/5 596/1/5 622/1/5
f 624/1/5 598/1/5 597/1/5
f 624/4/5 597/4/5 623/4/5
f 625/4/5 599/4/5 598/4/5
f 625/1/5 598/1/5 624/1/5
f 626/1/5 600/1/5 599/1/5
f 626/4/5 599/4/5 625/4/5
f 627/4/5 601/4/5 600/4/5
f 627/1/5 600/1/5 626/1/5
f 628/1/5 602/1/5 601/1/5
f 628/4/5 601/4/5 627/4/5
f 629/4/5 603/4/5 602/4/5
f 629/1/5 602/1/5 628/1/5
f 630/1/5 604/1/5 603/1/5
f 630/4/5 603/4/5 629/4/5
f 631/4/5 605/4/5 604/4/5
f 631/1/5 604/1/5 630/1/5
f 632/1/5 606/1/5 605/1/5
f 632/4/5 605/4/5 631/4/5
f 633/4/5 607/4/5 606/4/5
f 633/1/5 606/1/5 632/1/5
f 634/1/5 608/1/5 607/1/5
f 634/4/5 607/4/5 633/4/5
f 635/4/5 609/4/5 608/4/5
f 635/1/5 608/1/5 634/1/5
f 636/1/5 610/1/5 609/1/5
f 636/4/5 609/4/5 635/4/5
f 637/3/5 612/3/5 611/3/5
f 637/1/5 610/1/5 636/1/5
f 637/3/5 611/3/5 610/3/5
f 638/3/5 612/3/5 637/3/5
f 639/3/5 612/3/5 638/3/5
f 640/3/5 612/3/5 639/3/5
f 641/2/5 615/2/5 614/2/5
f 641/4/5 614/4/5 613/4/5
f 642/1/5 616/1/5 615/1/5
f 642/2/5 615/2/5 641/2/5
f 643/1/5 638/1/5 637/1/5
f 643/2/5 639/2/5 638/2/5
f 644/4/5 640/4/5 639/4/5
f 644/2/5 639/2/5 643/2/5
f 645/4/5 641/4/5 613/4/5
f 645/1/5 642/1/5 641/1/5
f 646/4/5 624/4/5 623/4/5
f 646/1/5 642/1/5 645/1/5
f 646/4/5 635/4/5 634/4/5
f 646/4/5 634/4/5 633/4/5
f 646/1/5 616/1/5 642/1/5
f 646/4/5 637/4/5 636/4/5
f 646/4/5 636/4/5 635/4/5
f 646/4/5 617/4/5 616/4/5
f 646/4/5 633/4/5 632/4/5
f 646/4/5 632/4/5 631/4/5
f 646/4/5 631/4/5 630/4/5
f 646/4/5 630/4/5 629/4/5
f 646/4/5 629/4/5 628/4/5
f 646/4/5 628/4/5 627/4/5
f 646/4/5 627/4/5 626/4/5
f 646/4/5 626/4/5 625/4/5
f 646/4/5 625/4/5 624/4/5
f 646/4/5 623/4/5 622/4/5
f 646/4/5 622/4/5 621/4/5
f 646/4/5 621/4/5 620/4/5
f 646/4/5 620/4/5 619/4/5
f 646/4/5 619/4/5 618/4/5
f 646/4/5 618/4/5 617/4/5
f 647/1/5 644/1/5 643/1/5
f 647/4/5 637/4/5 646/4/5
f 647/1/5 643/1/5 637/1/5
f 648/4/5 640/4/5 644/4/5
f 648/1/5 644/1/5 647/1/5
f 649/4/5 645/4/5 613/4/5
f 649/4/5 646/4/5 645/4/5
f 649/4/5 648/4/5 647/4/5
f 649/4/5 647/4/5 646/4/5
f 650/4/5 648/4/5 649/4/5
f 651/4/5 648/4/5 650/4/5
f 652/4/5 640/4/5 648/4/5
f 652/4/5 648/4/5 651/4/5
f 653/4/5 649/4/5 613/4/5
f 653/1/5 650/1/5 649/1/5
f 654/4/5 651/4/5 650/4/5
f 654/1/5 650/1/5 653/1/5
f 655/1/5 652/1/5 651/1/5
f 655/4/5 651/4/5 654/4/5
f 656/4/5 640/4/5 652/4/5
f 656/1/5 652/1/5 655/1/5
f 657/4/5 653/4/5 613/4/5
f 657/4/5 655/4/5 654/4/5
f 657/4/5 656/4/5 655/4/5
f 657/4/5 654/4/5 653/4/5
f 658/4/5 656/4/5 657/4/5
f 659/4/5 656/4/5 658/4/5
f 660/4/5 640/4/5 656/4/5
f 660/4/5 656/4/5 659/4/5
f 661/4/5 657/4/5 613/4/5
f 661/1/5 658/1/5 657/1/5
f 662/4/5 659/4/5 658/4/5
f 662/1/5 658/1/5 661/1/5
f 663/1/5 660/1/5 659/1/5
f 663/4/5 659/4/5 662/4/5
f 664/4/5 640/4/5 660/4/5
f 664/1/5 660/1/5 663/1/5
f 665/4/5 661/4/5 613/4/5
f 665/4/5 663/4/5 662/4/5
f 665/4/5 664/4/5 663/4/5
f 665/4/5 662/4/5 661/4/5
f 666/4/5 664/4/5 665/4/5
f 667/4/5 664/4/5 666/4/5
f 668/4/5 640/4/5 664/4/5
f 668/4/5 664/4/5 667/4/5
f 669/4/5 665/4/5 613/4/5
f 669/1/5 666/1/5 665/1/5
f 670/4/5 667/4/5 666/4/5
f 670/1/5 666/1/5 669/1/5
f 671/1/5 668/1/5 667/1/5
f 671/4/5 667/4/5 670/4/5
f 672/4/5 640/4/5 668/4/5
f 672/1/5 668/1/5 671/1/5
f 673/4/5 669/4/5 613/4/5
f 673/4/5 671/4/5 670/4/5
f 673/4/5 672/4/5 671/4/5
f 673/4/5 670/4/5 669/4/5
f 674/4/5 672/4/5 673/4/5
f 675/4/5 672/4/5 674/4/5
f 676/4/5 640/4/5 672/4/5
f 676/4/5 672/4/5 675/4/5
f 677/4/5 673/4/5 613/4/5
f 677/1/5 674/1/5 673/1/5
f 678/4/5 675/4/5 674/4/5
f 678/1/5 674/1/5 677/1/5
f 679/1/5 676/1/5 675/1/5
f 679/4/5 675/4/5 678/4/5
f 680/4/5 640/4/5 676/4/5
f 680/1/5 676/1/5 679/1/5
f 681/4/5 677/4/5 613/4/5
f 681/4/5 679/4/5 678/4/5
f 681/4/5 680/4/5 679/4/5
f 681/4/5 678/4/5 677/4/5
f 682/4/5 680/4/5 681/4/5
f 683/4/5 680/4/5 682/4/5
f 684/4/5 680/4/5 683/4/5
f 685/4/5 680/4/5 684/4/5
f 686/4/5 680/4/5 685/4/5
f 687/4/5 680/4/5 686/4/5
f 688/4/5 680/4/5 687/4/5
f 689/4/5 640/4/5 680/4/5
f 689/4/5 680/4/5 688/4/5
f 690/4/5 640/4/5 689/4/5
f 691/4/5 640/4/5 690/4/5
f 692/4/5 640/4/5 691/4/5
f 693/4/5 640/4/5 692/4/5
f 694/4/5 640/4/5 693/4/5
f 695/4/5 640/4/5 694/4/5
f 696/4/5 640/4/5 695/4/5
f 697/4/5 689/4/5 688/4/5
f 698/4/5 689/4/5 697/4/5
f 699/4/5 689/4/5 698/4/5
f 700/4/5 689/4/5 699/4/5
f 701/4/5 681/4/5 613/4/5
f 701/1/5 682/1/5 681/1/5
f 702/4/5 683/4/5 682/4/5
f 702/1/5 682/1/5 701/1/5
f 703/1/5 684/1/5 683/1/5
f 703/4/5 683/4/5 702/4/5
f 704/4/5 685/4/5 684/4/5
f 704/1/5 684/1/5 703/1/5
f 705/1/5 686/1/5 685/1/5
f 705/4/5 685/4/5 704/4/5
f 706/4/5 687/4/5 686/4/5
f 706/1/5 686/1/5 705/1/5
f 707/1/5 688/1/5 687/1/5
f 707/4/5 687/4/5 706/4/5
f 708/4/5 697/4/5 688/4/5
f 708/1/5 688/1/5 707/1/5
f 709/4/5 689/4/5 700/4/5
f 709/1/5 690/1/5 689/1/5
f 710/4/5 691/4/5 690/4/5
f 710/1/5 690/1/5 709/1/5
f 711/1/5 692/1/5 691/1/5
f 711/4/5 691/4/5 710/4/5
f 712/4/5 693/4/5 692/4/5
f 712/1/5 692/1/5 711/1/5
f 713/1/5 694/1/5 693/1/5
f 713/4/5 693/4/5 712/4/5
f 714/4/5 695/4/5 694/4/5
f 714/1/5 694/1/5 713/1/5
f 715/1/5 696/1/5 695/1/5
f 715/4/5 695/4/5 714/4/5
f 716/4/5 640/4/5 696/4/5
f 716/1/5 696/1/5 715/1/5
f 717/4/5 706/4/5 705/4/5
f 717/4/5 697/4/5 708/4/5
f 717/4/5 702/4/5 701/4/5
f 717/4/5 703/4/5 702/4/5
f 717/1/5 698/1/5 697/1/5
f 717/4/5 707/4/5 706/4/5
f 717/4/5 704/4/5 703/4/5
f 717/4/5 705/4/5 704/4/5
f 717/4/5 708/4/5 707/4/5
f 718/4/5 699/4/5 698/4/5
f 718/1/5 698/1/5 717/1/5
f 719/1/5 700/1/5 699/1/5
f 719/4/5 699/4/5 718/4/5
f 720/4/5 716/4/5 715/4/5
f 720/1/5 700/1/5 719/1/5
f 720/4/5 714/4/5 713/4/5
f 720/4/5 710/4/5 709/4/5
f 720/4/5 709/4/5 700/4/5
f 720/4/5 711/4/5 710/4/5
f 720/4/5 715/4/5 714/4/5
f 720/4/5 712/4/5 711/4/5
f 720/4/5 713/4/5 712/4/5
f 721/4/5 719/4/5 718/4/5
f 721/4/5 718/4/5 717/4/5
f 721/4/5 720/4/5 719/4/5
f 721/4/5 717/4/5 701/4/5
f 722/4/5 720/4/5 721/4/5
f 723/4/5 720/4/5 722/4/5
f 724/4/5 716/4/5 720/4/5
f 724/4/5 720/4/5 723/4/5
f 725/4/5 721/4/5 701/4/5
f 725/1/5 722/1/5 721/1/5
f 726/4/5 723/4/5 722/4/5
f 726/1/5 722/1/5 725/1/5
f 727/1/5 724/1/5 723/1/5
f 727/4/5 723/4/5 726/4/5
f 728/4/5 716/4/5 724/4/5
f 728/1/5 724/1/5 727/1/5
f 729/4/5 725/4/5 701/4/5
f 729/4/5 727/4/5 726/4/5
f 729/4/5 728/4/5 727/4/5
f 729/4/5 726/4/5 725/4/5
f 730/4/5 728/4/5 729/4/5
f 731/4/5 728/4/5 730/4/5
f 732/4/5 716/4/5 728/4/5
f 732/4/5 728/4/5 731/4/5
f 733/4/5 729/4/5 701/4/5
f 733/1/5 730/1/5 729/1/5
f 734/4/5 731/4/5 730/4/5
f 734/1/5 730/1/5 733/1/5
f 735/1/5 732/1/5 731/1/5
f 735/4/5 731/4/5 734/4/5
f 736/4/5 716/4/5 732/4/5
f 736/1/5 732/1/5 735/1/5
f 737/4/5 733/4/5 701/4/5
f 737/4/5 735/4/5 734/4/5
f 737/4/5 736/4/5 735/4/5
f 737/4/5 734/4/5 733/4/5
f 738/4/5 736/4/5 737/4/5
f 739/4/5 736/4/5 738/4/5
f 740/4/5 716/4/5 736/4/5
f 740/4/5 736/4/5 739/4/5
f 741/4/5 737/4/5 701/4/5
f 741/1/5 738/1/5 737/1/5
f 742/4/5 739/4/5 738/4/5
f 742/1/5 738/1/5 741/1/5
f 743/1/5 740/1/5 739/1/5
f 743/4/5 739/4/5 742/4/5
f 744/4/5 716/4/5 740/4/5
f 744/1/5 740/1/5 743/1/5
f 745/4/5 741/4/5 701/4/5
f 745/4/5 743/4/5 742/4/5
f 745/4/5 744/4/5 743/4/5
f 745/4/5 742/4/5 741/4/5
f 746/4/5 744/4/5 745/4/5
f 747/4/5 744/4/5 746/4/5
f 748/4/5 716/4/5 744/4/5
f 748/4/5 744/4/5 747/4/5
f 749/4/5 745/4/5 701/4/5
f 749/1/5 746/1/5 745/1/5
f 750/4/5 747/4/5 746/4/5
f 750/1/5 746/1/5 749/1/5
f 751/1/5 748/1/5 747/1/5
f 751/4/5 747/4/5 750/4/5
f 752/4/5 716/4/5 748/4/5
f 752/1/5 748/1/5 751/1/5
f 753/4/5 749/4/5 701/4/5
f 753/4/5 701/4/5 613/4/5
f 753/4/5 752/4/5 751/4/5
f 753/4/5 750/4/5 749/4/5
f 753/4/5 751/4/5 750/4/5
f 754/4/5 752/4/5 753/4/5
f 755/4/5 752/4/5 754/4/5
f 756/4/5 752/4/5 755/4/5
f 757/4/5 752/4/5 756/4/5
f 758/4/5 752/4/5 757/4/5
f 759/4/5 752/4/5 758/4/5
f 760/4/5 752/4/5 759/4/5
f 761/4/5 752/4/5 760/4/5
f 762/4/5 752/4/5 761/4/5
f 763/4/5 752/4/5 762/4/5
f 764/4/5 752/4/5 763/4/5
f 765/4/5 752/4/5 764/4/5
f 766/4/5 752/4/5 765/4/5
f 767/4/5 752/4/5 766/4/5
f 768/4/5 752/4/5 767/4/5
f 769/4/5 752/4/5 768/4/5
f 770/4/5 752/4/5 769/4/5
f 771/4/5 752/4/5 770/4/5
f 772/4/5 752/4/5 771/4/5
f 773/4/5 752/4/5 772/4/5
f 774/4/5 640/4/5 716/4/5
f 774/4/5 752/4/5 773/4/5
f 774/4/5 716/4/5 752/4/5
f 775/3/5 754/3/5 753/3/5
f 776/3/5 754/3/5 775/3/5
f 777/4/5 755/4/5 754/4/5
f 777/1/5 756/1/5 755/1/5
f 778/4/5 757/4/5 756/4/5
f 778/1/5 756/1/5 777/1/5
f 779/1/5 758/1/5 757/1/5
f 779/4/5 757/4/5 778/4/5
f 780/4/5 759/4/5 758/4/5
f 780/1/5 758/1/5 779/1/5
f 781/1/5 760/1/5 759/1/5
f 781/4/5 759/4/5 780/4/5
f 782/4/5 761/4/5 760/4/5
f 782/1/5 760/1/5 781/1/5
f 783/1/5 762/1/5 761/1/5
f 783/4/5 761/4/5 782/4/5
f 784/4/5 763/4/5 762/4/5
f 784/1/5 762/1/5 783/1/5
f 785/1/5 764/1/5 763/1/5
f 785/4/5 763/4/5 784/4/5
f 786/4/5 765/4/5 764/4/5
f 786/1/5 764/1/5 785/1/5
f 787/1/5 766/1/5 765/1/5
f 787/4/5 765/4/5 786/4/5
f 788/4/5 767/4/5 766/4/5
f 788/1/5 766/1/5 787/1/5
f 789/1/5 768/1/5 767/1/5
f 789/4/5 767/4/5 788/4/5
f 790/4/5 769/4/5 768/4/5
f 790/1/5 768/1/5 789/1/5
f 791/1/5 770/1/5 769/1/5
f 791/4/5 769/4/5 790/4/5
f 792/4/5 771/4/5 770/4/5
f 792/1/5 770/1/5 791/1/5
f 793/1/5 772/1/5 771/1/5
f 793/4/5 771/4/5 792/4/5
f 794/4/5 773/4/5 772/4/5
f 794/1/5 772/1/5 793/1/5
f 795/3/5 774/3/5 773/3/5
f 796/3/5 774/3/5 795/3/5
f 797/4/5 793/4/5 792/4/5
f 797/4/5 792/4/5 791/4/5
f 797/4/5 778/4/5 777/4/5
f 797/4/5 779/4/5 778/4/5
f 797/4/5 794/4/5 793/4/5
f 797/4/5 780/4/5 779/4/5
f 797/4/5 781/4/5 780/4/5
f 797/4/5 791/4/5 790/4/5
f 797/4/5 790/4/5 789/4/5
f 797/4/5 789/4/5 788/4/5
f 797/4/5 788/4/5 787/4/5
f 797/4/5 787/4/5 786/4/5
f 797/4/5 786/4/5 785/4/5
f 797/4/5 785/4/5 784/4/5
f 797/4/5 784/4/5 783/4/5
f 797/4/5 783/4/5 782/4/5
f 797/4/5 782/4/5 781/4/5
f 798/4/5 794/4/5 797/4/5
f 799/4/5 797/4/5 777/4/5
f 799/1/5 798/1/5 797/1/5
f 800/4/5 794/4/5 798/4/5
f 800/1/5 798/1/5 799/1/5
f 801/4/5 799/4/5 777/4/5
f 801/4/5 800/4/5 799/4/5
f 802/4/5 794/4/5 800/4/5
f 802/4/5 800/4/5 801/4/5
f 803/4/5 801/4/5 777/4/5
f 803/1/5 802/1/5 801/1/5
f 804/4/5 794/4/5 802/4/5
f 804/1/5 802/1/5 803/1/5
f 805/4/5 803/4/5 777/4/5
f 805/4/5 804/4/5 803/4/5
f 806/4/5 794/4/5 804/4/5
f 806/4/5 804/4/5 805/4/5
f 807/4/5 805/4/5 777/4/5
f 807/1/5 806/1/5 805/1/5
f 808/4/5 794/4/5 806/4/5
f 808/1/5 806/1/5 807/1/5
f 809/4/5 807/4/5 777/4/5
f 809/4/5 808/4/5 807/4/5
f 810/4/5 794/4/5 808/4/5
f 810/4/5 808/4/5 809/4/5
f 811/4/5 809/4/5 777/4/5
f 811/1/5 810/1/5 809/1/5
f 812/4/5 794/4/5 810/4/5
f 812/1/5 810/1/5 811/1/5
f 813/4/5 776/4/5 775/4/5
f 814/3/5 754/3/5 776/3/5
f 814/4/5 776/4/5 813/4/5
f 815/4/5 777/4/5 754/4/5
f 815/3/5 754/3/5 814/3/5
f 815/4/5 811/4/5 777/4/5
f 815/4/5 812/4/5 811/4/5
f 816/4/5 794/4/5 812/4/5
f 816/4/5 812/4/5 815/4/5
f 816/3/5 795/3/5 773/3/5
f 816/4/5 773/4/5 794/4/5
f 817/4/5 796/4/5 795/4/5
f 817/3/5 795/3/5 816/3/5
f 818/4/5 796/4/5 817/4/5
f 819/4/6 820/4/6 821/4/6
f 821/4/6 820/4/6 822/4/6
f 821/4/6 822/4/6 823/4/6
f 823/4/6 822/4/6 824/4/6
f 824/4/6 822/4/6 825/4/6
f 825/4/6 822/4/6 826/4/6
f 823/4/6 824/4/6 827/4/6
f 825/4/6 826/4/6 828/4/6
f 827/4/6 824/4/6 829/4/6
f 824/1/6 825/1/6 830/1/6
f 829/4/6 824/4/6 830/4/6
f 825/4/6 828/4/6 831/4/6
f 830/1/6 825/1/6 831/1/6
f 831/4/6 828/4/6 832/4/6
f 829/4/6 830/4/6 833/4/6
f 830/4/6 831/4/6 833/4/6
f 831/4/6 832/4/6 833/4/6
f 833/4/6 832/4/6 834/4/6
f 833/4/6 834/4/6 835/4/6
f 835/4/6 834/4/6 836/4/6
f 836/4/6 834/4/6 837/4/6
f 837/4/6 834/4/6 838/4/6
f 835/4/6 836/4/6 839/4/6
f 837/4/6 838/4/6 840/4/6
f 839/4/6 836/4/6 841/4/6
f 836/1/6 837/1/6 842/1/6
f 841/4/6 836/4/6 842/4/6
f 837/4/6 840/4/6 843/4/6
f 842/1/6 837/1/6 843/1/6
f 843/4/6 840/4/6 844/4/6
f 841/4/6 842/4/6 845/4/6
f 842/4/6 843/4/6 845/4/6
f 843/4/6 844/4/6 845/4/6
f 845/4/6 844/4/6 846/4/6
f 845/4/6 846/4/6 847/4/6
f 847/4/6 846/4/6 848/4/6
f 848/4/6 846/4/6 849/4/6
f 849/4/6 846/4/6 850/4/6
f 847/4/6 848/4/6 851/4/6
f 849/4/6 850/4/6 852/4/6
f 851/4/6 848/4/6 853/4/6
f 848/1/6 849/1/6 854/1/6
f 853/4/6 848/4/6 854/4/6
f 849/4/6 852/4/6 855/4/6
f 854/1/6 849/1/6 855/1/6
f 855/4/6 852/4/6 856/4/6
f 853/4/6 854/4/6 857/4/6
f 854/4/6 855/4/6 857/4/6
f 855/4/6 856/4/6 857/4/6
f 857/4/6 856/4/6 858/4/6
f 857/4/6 858/4/6 859/4/6
f 859/4/6 858/4/6 860/4/6
f 860/4/6 858/4/6 861/4/6
f 861/4/6 858/4/6 862/4/6
f 859/4/6 860/4/6 863/4/6
f 861/4/6 862/4/6 864/4/6
f 863/4/6 860/4/6 865/4/6
f 860/1/6 861/1/6 866/1/6
f 865/4/6 860/4/6 866/4/6
f 861/4/6 864/4/6 867/4/6
f 866/1/6 861/1/6 867/1/6
f 867/4/6 864/4/6 868/4/6
f 865/4/6 866/4/6 869/4/6
f 866/4/6 867/4/6 869/4/6
f 867/4/6 868/4/6 869/4/6
f 869/4/6 868/4/6 870/4/6
f 869/4/6 870/4/6 871/4/6
f 871/4/6 870/4/6 872/4/6
f 872/4/6 870/4/6 873/4/6
f 873/4/6 870/4/6 874/4/6
f 874/4/6 870/4/6 875/4/6
f 875/4/6 870/4/6 876/4/6
f 876/4/6 870/4/6 877/4/6
f 877/4/6 870/4/6 878/4/6
f 878/4/6 870/4/6 879/4/6
f 879/4/6 870/4/6 880/4/6
f 880/4/6 870/4/6 881/4/6
f 881/4/6 870/4/6 882/4/6
f 882/4/6 870/4/6 883/4/6
f 883/4/6 870/4/6 884/4/6
f 884/4/6 870/4/6 885/4/6
f 885/4/6 870/4/6 886/4/6
f 886/4/6 870/4/6 887/4/6
f 887/4/6 870/4/6 888/4/6
f 888/4/6 870/4/6 889/4/6
f 889/4/6 870/4/6 890/4/6
f 890/4/6 870/4/6 891/4/6
f 891/4/6 870/4/6 892/4/6
f 871/1/6 872/1/6 912/1/6
f 872/4/6 873/4/6 913/4/6
f 912/1/6 872/1/6 913/1/6
f 873/1/6 874/1/6 914/1/6
f 913/4/6 873/4/6 914/4/6
f 874/4/6 875/4/6 915/4/6
f 914/1/6 874/1/6 915/1/6
f 875/1/6 876/1/6 916/1/6
f 915/4/6 875/4/6 916/4/6
f 876/4/6 877/4/6 917/4/6
f 916/1/6 876/1/6 917/1/6
f 877/1/6 878/1/6 918/1/6
f 917/4/6 877/4/6 918/4/6
f 878/4/6 879/4/6 919/4/6
f 918/1/6 878/1/6 919/1/6
f 879/1/6 880/1/6 920/1/6
f 919/4/6 879/4/6 920/4/6
f 880/4/6 881/4/6 921/4/6
f 920/1/6 880/1/6 921/1/6
f 881/1/6 882/1/6 922/1/6
f 921/4/6 881/4/6 922/4/6
f 882/4/6 883/4/6 923/4/6
f 922/1/6 882/1/6 923/1/6
f 883/1/6 884/1/6 924/1/6
f 923/4/6 883/4/6 924/4/6
f 884/4/6 885/4/6 925/4/6
f 924/1/6 884/1/6 925/1/6
f 885/1/6 886/1/6 926/1/6
f 925/4/6 885/4/6 926/4/6
f 886/4/6 887/4/6 927/4/6
f 926/1/6 886/1/6 927/1/6
f 887/1/6 888/1/6 928/1/6
f 927/4/6 887/4/6 928/4/6
f 888/4/6 889/4/6 929/4/6
f 928/1/6 888/1/6 929/1/6
f 889/1/6 890/1/6 930/1/6
f 929/4/6 889/4/6 930/4/6
f 890/4/6 891/4/6 931/4/6
f 930/1/6 890/1/6 931/1/6
f 891/1/6 892/1/6 932/1/6
f 931/4/6 891/4/6 932/4/6
f 932/1/6 892/1/6 933/1/6
f 909/4/6 910/4/6 953/4/6
f 908/4/6 909/4/6 953/4/6
f 907/4/6 908/4/6 953/4/6
f 906/4/6 907/4/6 953/4/6
f 905/4/6 906/4/6 953/4/6
f 904/4/6 905/4/6 953/4/6
f 903/4/6 904/4/6 953/4/6
f 902/4/6 903/4/6 953/4/6
f 901/4/6 902/4/6 953/4/6
f 900/4/6 901/4/6 953/4/6
f 899/4/6 900/4/6 953/4/6
f 898/4/6 899/4/6 953/4/6
f 897/4/6 898/4/6 953/4/6
f 896/4/6 897/4/6 953/4/6
f 910/2/6 911/2/6 953/2/6
f 895/4/6 896/4/6 953/4/6
f 893/4/6 894/4/6 953/4/6
f 894/4/6 895/4/6 953/4/6
f 911/1/6 912/1/6 954/1/6
f 953/2/6 911/2/6 954/2/6
f 934/2/6 935/2/6 955/2/6
f 933/1/6 934/1/6 955/1/6
f 951/4/6 952/4/6 956/4/6
f 955/2/6 935/2/6 956/2/6
f 950/4/6 951/4/6 956/4/6
f 949/4/6 950/4/6 956/4/6
f 948/4/6 949/4/6 956/4/6
f 935/4/6 936/4/6 956/4/6
f 936/4/6 937/4/6 956/4/6
f 947/4/6 948/4/6 956/4/6
f 946/4/6 947/4/6 956/4/6
f 945/4/6 946/4/6 956/4/6
f 944/4/6 945/4/6 956/4/6
f 943/4/6 944/4/6 956/4/6
f 942/4/6 943/4/6 956/4/6
f 941/4/6 942/4/6 956/4/6
f 940/4/6 941/4/6 956/4/6
f 939/4/6 940/4/6 956/4/6
f 938/4/6 939/4/6 956/4/6
f 937/4/6 938/4/6 956/4/6
f 953/1/6 954/1/6 957/1/6
f 893/4/6 953/4/6 957/4/6
f 932/4/6 933/4/6 958/4/6
f 957/1/6 954/1/6 958/1/6
f 931/4/6 932/4/6 958/4/6
f 918/4/6 919/4/6 958/4/6
f 917/4/6 918/4/6 958/4/6
f 916/4/6 917/4/6 958/4/6
f 915/4/6 916/4/6 958/4/6
f 914/4/6 915/4/6 958/4/6
f 913/4/6 914/4/6 958/4/6
f 912/4/6 913/4/6 958/4/6
f 954/1/6 912/1/6 958/1/6
f 919/4/6 920/4/6 958/4/6
f 930/4/6 931/4/6 958/4/6
f 920/4/6 921/4/6 958/4/6
f 929/4/6 930/4/6 958/4/6
f 921/4/6 922/4/6 958/4/6
f 928/4/6 929/4/6 958/4/6
f 922/4/6 923/4/6 958/4/6
f 927/4/6 928/4/6 958/4/6
f 923/4/6 924/4/6 958/4/6
f 926/4/6 927/4/6 958/4/6
f 924/4/6 925/4/6 958/4/6
f 925/4/6 926/4/6 958/4/6
f 955/1/6 956/1/6 959/1/6
f 958/4/6 933/4/6 959/4/6
f 933/1/6 955/1/6 959/1/6
f 956/4/6 952/4/6 960/4/6
f 959/1/6 956/1/6 960/1/6
f 893/4/6 957/4/6 961/4/6
f 957/4/6 958/4/6 961/4/6
f 959/4/6 960/4/6 961/4/6
f 958/4/6 959/4/6 961/4/6
f 961/4/6 960/4/6 962/4/6
f 962/4/6 960/4/6 963/4/6
f 960/4/6 952/4/6 964/4/6
f 963/4/6 960/4/6 964/4/6
f 893/4/6 961/4/6 965/4/6
f 961/1/6 962/1/6 965/1/6
f 962/4/6 963/4/6 966/4/6
f 965/1/6 962/1/6 966/1/6
f 963/1/6 964/1/6 967/1/6
f 966/4/6 963/4/6 967/4/6
f 964/4/6 952/4/6 968/4/6
f 967/1/6 964/1/6 968/1/6
f 893/4/6 965/4/6 969/4/6
f 966/4/6 967/4/6 969/4/6
f 967/4/6 968/4/6 969/4/6
f 965/4/6 966/4/6 969/4/6
f 969/4/6 968/4/6 970/4/6
f 970/4/6 968/4/6 971/4/6
f 968/4/6 952/4/6 972/4/6
f 971/4/6 968/4/6 972/4/6
f 893/4/6 969/4/6 973/4/6
f 969/1/6 970/1/6 973/1/6
f 970/4/6 971/4/6 974/4/6
f 973/1/6 970/1/6 974/1/6
f 971/1/6 972/1/6 975/1/6
f 974/4/6 971/4/6 975/4/6
f 972/4/6 952/4/6 976/4/6
f 975/1/6 972/1/6 976/1/6
f 893/4/6 973/4/6 977/4/6
f 974/4/6 975/4/6 977/4/6
f 975/4/6 976/4/6 977/4/6
f 973/4/6 974/4/6 977/4/6
f 977/4/6 976/4/6 978/4/6
f 978/4/6 976/4/6 979/4/6
f 976/4/6 952/4/6 980/4/6
f 979/4/6 976/4/6 980/4/6
f 893/4/6 977/4/6 981/4/6
f 977/1/6 978/1/6 981/1/6
f 978/4/6 979/4/6 982/4/6
f 981/1/6 978/1/6 982/1/6
f 979/1/6 980/1/6 983/1/6
f 982/4/6 979/4/6 983/4/6
f 980/4/6 952/4/6 984/4/6
f 983/1/6 980/1/6 984/1/6
f 893/4/6 981/4/6 985/4/6
f 982/4/6 983/4/6 985/4/6
f 983/4/6 984/4/6 985/4/6
f 981/4/6 982/4/6 985/4/6
f 985/4/6 984/4/6 986/4/6
f 986/4/6 984/4/6 987/4/6
f 984/4/6 952/4/6 988/4/6
f 987/4/6 984/4/6 988/4/6
f 893/4/6 985/4/6 989/4/6
f 985/1/6 986/1/6 989/1/6
f 986/4/6 987/4/6 990/4/6
f 989/1/6 986/1/6 990/1/6
f 987/1/6 988/1/6 991/1/6
f 990/4/6 987/4/6 991/4/6
f 988/4/6 952/4/6 992/4/6
f 991/1/6 988/1/6 992/1/6
f 893/4/6 989/4/6 993/4/6
f 990/4/6 991/4/6 993/4/6
f 991/4/6 992/4/6 993/4/6
f 989/4/6 990/4/6 993/4/6
f 993/4/6 992/4/6 994/4/6
f 994/4/6 992/4/6 995/4/6
f 995/4/6 992/4/6 996/4/6
f 996/4/6 992/4/6 997/4/6
f 997/4/6 992/4/6 998/4/6
f 998/4/6 992/4/6 999/4/6
f 999/4/6 992/4/6 1000/4/6
f 992/4/6 952/4/6 1001/4/6
f 1000/4/6 992/4/6 1001/4/6
f 1001/4/6 952/4/6 1002/4/6
f 1002/4/6 952/4/6 1003/4/6
f 1003/4/6 952/4/6 1004/4/6
f 1004/4/6 952/4/6 1005/4/6
f 1005/4/6 952/4/6 1006/4/6
f 1006/4/6 952/4/6 1007/4/6
f 1007/4/6 952/4/6 1008/4/6
f 1000/4/6 1001/4/6 1009/4/6
f 1009/4/6 1001/4/6 1010/4/6
f 1010/4/6 1001/4/6 1011/4/6
f 1011/4/6 1001/4/6 1012/4/6
f 893/4/6 993/4/6 1013/4/6
f 993/1/6 994/1/6 1013/1/6
f 994/4/6 995/4/6 1014/4/6
f 1013/1/6 994/1/6 1014/1/6
f 995/1/6 996/1/6 1015/1/6
f 1014/4/6 995/4/6 1015/4/6
f 996/4/6 997/4/6 1016/4/6
f 1015/1/6 996/1/6 1016/1/6
f 997/1/6 998/1/6 1017/1/6
f 1016/4/6 997/4/6 1017/4/6
f 998/4/6 999/4/6 1018/4/6
f 1017/1/6 998/1/6 1018/1/6
f 999/1/6 1000/1/6 1019/1/6
f 1018/4/6 999/4/6 1019/4/6
f 1000/4/6 1009/4/6 1020/4/6
f 1019/1/6 1000/1/6 1020/1/6
f 1012/4/6 1001/4/6 1021/4/6
f 1001/1/6 1002/1/6 1021/1/6
f 1002/4/6 1003/4/6 1022/4/6
f 1021/1/6 1002/1/6 1022/1/6
f 1003/1/6 1004/1/6 1023/1/6
f 1022/4/6 1003/4/6 1023/4/6
f 1004/4/6 1005/4/6 1024/4/6
f 1023/1/6 1004/1/6 1024/1/6
f 1005/1/6 1006/1/6 1025/1/6
f 1024/4/6 1005/4/6 1025/4/6
f 1006/4/6 1007/4/6 1026/4/6
f 1025/1/6 1006/1/6 1026/1/6
f 1007/1/6 1008/1/6 1027/1/6
f 1026/4/6 1007/4/6 1027/4/6
f 1008/4/6 952/4/6 1028/4/6
f 1027/1/6 1008/1/6 1028/1/6
f 1017/4/6 1018/4/6 1029/4/6
f 1020/4/6 1009/4/6 1029/4/6
f 1013/4/6 1014/4/6 1029/4/6
f 1014/4/6 1015/4/6 1029/4/6
f 1009/1/6 1010/1/6 1029/1/6
f 1018/4/6 1019/4/6 1029/4/6
f 1015/4/6 1016/4/6 1029/4/6
f 1016/4/6 1017/4/6 1029/4/6
f 1019/4/6 1020/4/6 1029/4/6
f 1010/4/6 1011/4/6 1030/4/6
f 1029/1/6 1010/1/6 1030/1/6
f 1011/1/6 1012/1/6 1031/1/6
f 1030/4/6 1011/4/6 1031/4/6
f 1027/4/6 1028/4/6 1032/4/6
f 1031/1/6 1012/1/6 1032/1/6
f 1025/4/6 1026/4/6 1032/4/6
f 1021/4/6 1022/4/6 1032/4/6
f 1012/4/6 1021/4/6 1032/4/6
f 1022/4/6 1023/4/6 1032/4/6
f 1026/4/6 1027/4/6 1032/4/6
f 1023/4/6 1024/4/6 1032/4/6
f 1024/4/6 1025/4/6 1032/4/6
f 1030/4/6 1031/4/6 1033/4/6
f 1029/4/6 1030/4/6 1033/4/6
f 1031/4/6 1032/4/6 1033/4/6
f 1013/4/6 1029/4/6 1033/4/6
f 1033/4/6 1032/4/6 1034/4/6
f 1034/4/6 1032/4/6 1035/4/6
f 1032/4/6 1028/4/6 1036/4/6
f 1035/4/6 1032/4/6 1036/4/6
f 1013/4/6 1033/4/6 1037/4/6
f 1033/1/6 1034/1/6 1037/1/6
f 1034/4/6 1035/4/6 1038/4/6
f 1037/1/6 1034/1/6 1038/1/6
f 1035/1/6 1036/1/6 1039/1/6
f 1038/4/6 1035/4/6 1039/4/6
f 1036/4/6 1028/4/6 1040/4/6
f 1039/1/6 1036/1/6 1040/1/6
f 1013/4/6 1037/4/6 1041/4/6
f 1038/4/6 1039/4/6 1041/4/6
f 1039/4/6 1040/4/6 1041/4/6
f 1037/4/6 1038/4/6 1041/4/6
f 1041/4/6 1040/4/6 1042/4/6
f 1042/4/6 1040/4/6 1043/4/6
f 1040/4/6 1028/4/6 1044/4/6
f 1043/4/6 1040/4/6 1044/4/6
f 1013/4/6 1041/4/6 1045/4/6
f 1041/1/6 1042/1/6 1045/1/6
f 1042/4/6 1043/4/6 1046/4/6
f 1045/1/6 1042/1/6 1046/1/6
f 1043/1/6 1044/1/6 1047/1/6
f 1046/4/6 1043/4/6 1047/4/6
f 1044/4/6 1028/4/6 1048/4/6
f 1047/1/6 1044/1/6 1048/1/6
f 1013/4/6 1045/4/6 1049/4/6
f 1046/4/6 1047/4/6 1049/4/6
f 1047/4/6 1048/4/6 1049/4/6
f 1045/4/6 1046/4/6 1049/4/6
f 1049/4/6 1048/4/6 1050/4/6
f 1050/4/6 1048/4/6 1051/4/6
f 1048/4/6 1028/4/6 1052/4/6
f 1051/4/6 1048/4/6 1052/4/6
f 1013/4/6 1049/4/6 1053/4/6
f 1049/1/6 1050/1/6 1053/1/6
f 1050/4/6 1051/4/6 1054/4/6
f 1053/1/6 1050/1/6 1054/1/6
f 1051/1/6 1052/1/6 1055/1/6
f 1054/4/6 1051/4/6 1055/4/6
f 1052/4/6 1028/4/6 1056/4/6
f 1055/1/6 1052/1/6 1056/1/6
f 1013/4/6 1053/4/6 1057/4/6
f 1054/4/6 1055/4/6 1057/4/6
f 1055/4/6 1056/4/6 1057/4/6
f 1053/4/6 1054/4/6 1057/4/6
f 1057/4/6 1056/4/6 1058/4/6
f 1058/4/6 1056/4/6 1059/4/6
f 1056/4/6 1028/4/6 1060/4/6
f 1059/4/6 1056/4/6 1060/4/6
f 1013/4/6 1057/4/6 1061/4/6
f 1057/1/6 1058/1/6 1061/1/6
f 1058/4/6 1059/4/6 1062/4/6
f 1061/1/6 1058/1/6 1062/1/6
f 1059/1/6 1060/1/6 1063/1/6
f 1062/4/6 1059/4/6 1063/4/6
f 1060/4/6 1028/4/6 1064/4/6
f 1063/1/6 1060/1/6 1064/1/6
f 1013/4/6 1061/4/6 1065/4/6
f 893/4/6 1013/4/6 1065/4/6
f 1063/4/6 1064/4/6 1065/4/6
f 1061/4/6 1062/4/6 1065/4/6
f 1062/4/6 1063/4/6 1065/4/6
f 1065/4/6 1064/4/6 1066/4/6
f 1066/4/6 1064/4/6 1067/4/6
f 1067/4/6 1064/4/6 1068/4/6
f 1068/4/6 1064/4/6 1069/4/6
f 1069/4/6 1064/4/6 1070/4/6
f 1070/4/6 1064/4/6 1071/4/6
f 1071/4/6 1064/4/6 1072/4/6
f 1072/4/6 1064/4/6 1073/4/6
f 1073/4/6 1064/4/6 1074/4/6
f 1074/4/6 1064/4/6 1075/4/6
f 1075/4/6 1064/4/6 1076/4/6
f 1076/4/6 1064/4/6 1077/4/6
f 1077/4/6 1064/4/6 1078/4/6
f 1078/4/6 1064/4/6 1079/4/6
f 1079/4/6 1064/4/6 1080/4/6
f 1080/4/6 1064/4/6 1081/4/6
f 1081/4/6 1064/4/6 1082/4/6
f 1082/4/6 1064/4/6 1083/4/6
f 1083/4/6 1064/4/6 1084/4/6
f 1084/4/6 1064/4/6 1085/4/6
f 1085/4/6 1064/4/6 1086/4/6
f 1086/4/6 1064/4/6 1087/4/6
f 1087/4/6 1064/4/6 1088/4/6
f 1088/4/6 1064/4/6 1089/4/6
f 1089/4/6 1064/4/6 1090/4/6
f 1090/4/6 1064/4/6 1091/4/6
f 1091/4/6 1064/4/6 1092/4/6
f 1092/4/6 1064/4/6 1093/4/6
f 1093/4/6 1064/4/6 1094/4/6
f 1094/4/6 1064/4/6 1095/4/6
f 1095/4/6 1064/4/6 1096/4/6
f 1096/4/6 1064/4/6 1097/4/6
f 1097/4/6 1064/4/6 1098/4/6
f 1098/4/6 1064/4/6 1099/4/6
f 1099/4/6 1064/4/6 1100/4/6
f 1100/4/6 1064/4/6 1101/4/6
f 1101/4/6 1064/4/6 1102/4/6
f 1102/4/6 1064/4/6 1103/4/6
f 1064/4/6 1028/4/6 1104/4/6
f 1103/4/6 1064/4/6 1104/4/6
f 1104/4/6 1028/4/6 1105/4/6
f 1105/4/6 1028/4/6 1106/4/6
f 1106/4/6 1028/4/6 1107/4/6
f 1107/4/6 1028/4/6 1108/4/6
f 1108/4/6 1028/4/6 1109/4/6
f 1109/4/6 1028/4/6 1110/4/6
f 1110/4/6 1028/4/6 1111/4/6
f 1111/4/6 1028/4/6 1112/4/6
f 1112/4/6 1028/4/6 1113/4/6
f 1113/4/6 1028/4/6 1114/4/6
f 1114/4/6 1028/4/6 1115/4/6
f 1115/4/6 1028/4/6 1116/4/6
f 1116/4/6 1028/4/6 1117/4/6
f 1117/4/6 1028/4/6 1118/4/6
f 1118/4/6 1028/4/6 1119/4/6
f 1119/4/6 1028/4/6 1120/4/6
f 1028/4/6 952/4/6 1121/4/6
f 1120/4/6 1028/4/6 1121/4/6
f 1121/4/6 952/4/6 1122/4/6
f 1084/4/6 1085/4/6 1123/4/6
f 1102/4/6 1103/4/6 1124/4/6
f 1123/4/6 1085/4/6 1125/4/6
f 1085/1/6 1086/1/6 1126/1/6
f 1125/4/6 1085/4/6 1126/4/6
f 1086/4/6 1087/4/6 1127/4/6
f 1126/1/6 1086/1/6 1127/1/6
f 1087/1/6 1088/1/6 1128/1/6
f 1127/4/6 1087/4/6 1128/4/6
f 1088/4/6 1089/4/6 1129/4/6
f 1128/1/6 1088/1/6 1129/1/6
f 1089/1/6 1090/1/6 1130/1/6
f 1129/4/6 1089/4/6 1130/4/6
f 1090/4/6 1091/4/6 1131/4/6
f 1130/1/6 1090/1/6 1131/1/6
f 1091/1/6 1092/1/6 1132/1/6
f 1131/4/6 1091/4/6 1132/4/6
f 1092/4/6 1093/4/6 1133/4/6
f 1132/1/6 1092/1/6 1133/1/6
f 1093/1/6 1094/1/6 1134/1/6
f 1133/4/6 1093/4/6 1134/4/6
f 1094/4/6 1095/4/6 1135/4/6
f 1134/1/6 1094/1/6 1135/1/6
f 1095/1/6 1096/1/6 1136/1/6
f 1135/4/6 1095/4/6 1136/4/6
f 1096/4/6 1097/4/6 1137/4/6
f 1136/1/6 1096/1/6 1137/1/6
f 1097/1/6 1098/1/6 1138/1/6
f 1137/4/6 1097/4/6 1138/4/6
f 1098/4/6 1099/4/6 1139/4/6
f 1138/1/6 1098/1/6 1139/1/6
f 1099/1/6 1100/1/6 1140/1/6
f 1139/4/6 1099/4/6 1140/4/6
f 1100/4/6 1101/4/6 1141/4/6
f 1140/1/6 1100/1/6 1141/1/6
f 1101/1/6 1102/1/6 1142/1/6
f 1141/4/6 1101/4/6 1142/4/6
f 1102/4/6 1124/4/6 1143/4/6
f 1142/1/6 1102/1/6 1143/1/6
f 1143/4/6 1124/4/6 1144/4/6
f 1140/4/6 1141/4/6 1145/4/6
f 1139/4/6 1140/4/6 1145/4/6
f 1143/4/6 1144/4/6 1145/4/6
f 1142/4/6 1143/4/6 1145/4/6
f 1141/4/6 1142/4/6 1145/4/6
f 1138/4/6 1139/4/6 1145/4/6
f 1137/4/6 1138/4/6 1145/4/6
f 1125/4/6 1126/4/6 1145/4/6
f 1126/4/6 1127/4/6 1145/4/6
f 1127/4/6 1128/4/6 1145/4/6
f 1128/4/6 1129/4/6 1145/4/6
f 1129/4/6 1130/4/6 1145/4/6
f 1130/4/6 1131/4/6 1145/4/6
f 1131/4/6 1132/4/6 1145/4/6
f 1132/4/6 1133/4/6 1145/4/6
f 1133/4/6 1134/4/6 1145/4/6
f 1134/4/6 1135/4/6 1145/4/6
f 1135/4/6 1136/4/6 1145/4/6
f 1136/4/6 1137/4/6 1145/4/6
f 1145/4/6 1144/4/6 1146/4/6
f 1145/4/6 1146/4/6 1147/4/6
f 1147/4/6 1146/4/6 1148/4/6
f 1148/4/6 1146/4/6 1149/4/6
f 1149/4/6 1146/4/6 1150/4/6
f 1147/4/6 1148/4/6 1151/4/6
f 1149/4/6 1150/4/6 1152/4/6
f 1151/4/6 1148/4/6 1153/4/6
f 1148/1/6 1149/1/6 1154/1/6
f 1153/4/6 1148/4/6 1154/4/6
f 1149/4/6 1152/4/6 1155/4/6
f 1154/1/6 1149/1/6 1155/1/6
f 1155/4/6 1152/4/6 1156/4/6
f 1153/4/6 1154/4/6 1157/4/6
f 1154/4/6 1155/4/6 1157/4/6
f 1155/4/6 1156/4/6 1157/4/6
f 1157/4/6 1156/4/6 1158/4/6
f 1157/4/6 1158/4/6 1159/4/6
f 1159/4/6 1158/4/6 1160/4/6
f 1160/4/6 1158/4/6 1161/4/6
f 1161/4/6 1158/4/6 1162/4/6
f 1159/4/6 1160/4/6 1163/4/6
f 1161/4/6 1162/4/6 1164/4/6
f 1163/4/6 1160/4/6 1165/4/6
f 1160/1/6 1161/1/6 1166/1/6
f 1165/4/6 1160/4/6 1166/4/6
f 1161/4/6 1164/4/6 1167/4/6
f 1166/1/6 1161/1/6 1167/1/6
f 1167/4/6 1164/4/6 1168/4/6
f 1165/4/6 1166/4/6 1169/4/6
f 1166/4/6 1167/4/6 1169/4/6
f 1167/4/6 1168/4/6 1169/4/6
f 1169/4/6 1168/4/6 1170/4/6
f 1169/4/6 1170/4/6 1171/4/6
f 1171/4/6 1170/4/6 1172/4/6
f 1172/4/6 1170/4/6 1173/4/6
f 1173/4/6 1170/4/6 1174/4/6
f 1171/4/6 1172/4/6 1175/4/6
f 1173/4/6 1174/4/6 1176/4/6
f 1175/4/6 1172/4/6 1177/4/6
f 1172/1/6 1173/1/6 1178/1/6
f 1177/4/6 1172/4/6 1178/4/6
f 1173/4/6 1176/4/6 1179/4/6
f 1178/1/6 1173/1/6 1179/1/6
f 1179/4/6 1176/4/6 1180/4/6
f 1177/4/6 1178/4/6 1181/4/6
f 1178/4/6 1179/4/6 1181/4/6
f 1179/4/6 1180/4/6 1181/4/6
f 1181/4/6 1180/4/6 1182/4/6
f 1181/4/6 1182/4/6 1183/4/6
f 1183/4/6 1182/4/6 1184/4/6
f 1184/4/6 1182/4/6 1185/4/6
f 1185/4/6 1182/4/6 1186/4/6
f 1183/4/6 1184/4/6 1187/4/6
f 1185/4/6 1186/4/6 1188/4/6
f 1187/4/6 1184/4/6 1189/4/6
f 1184/1/6 1185/1/6 1190/1/6
f 1189/4/6 1184/4/6 1190/4/6
f 1185/4/6 1188/4/6 1191/4/6
f 1190/1/6 1185/1/6 1191/1/6
f 1191/4/6 1188/4/6 1192/4/6
f 1189/4/6 1190/4/6 1193/4/6
f 1190/4/6 1191/4/6 1193/4/6
f 1191/4/6 1192/4/6 1193/4/6
f 1193/4/6 1192/4/6 1194/4/6
f 1195/3/6 1196/3/6 1199/3/6
f 1199/3/6 1196/3/6 1200/3/6
f 1197/3/6 1198/3/6 1201/3/6
f 1201/3/6 1198/3/6 1202/3/6
f 1199/2/6 1200/2/6 1203/2/6
f 1203/2/6 1200/2/6 1204/2/6
f 1201/2/6 1202/2/6 1205/2/6
f 1205/2/6 1202/2/6 1206/2/6
f 1203/3/6 1204/3/6 1207/3/6
f 1207/3/6 1204/3/6 1208/3/6
f 1205/3/6 1206/3/6 1209/3/6
f 1209/3/6 1206/3/6 1210/3/6
f 1207/2/6 1208/2/6 1211/2/6
f 1211/2/6 1208/2/6 1212/2/6
f 1209/2/6 1210/2/6 1213/2/6
f 1213/2/6 1210/2/6 1214/2/6
f 1211/3/6 1212/3/6 1215/3/6
f 1215/3/6 1212/3/6 1216/3/6
f 1213/3/6 1214/3/6 1217/3/6
f 1217/3/6 1214/3/6 1218/3/6
f 1215/2/6 1216/2/6 1219/2/6
f 1219/2/6 1216/2/6 1220/2/6
f 1217/2/6 1218/2/6 1221/2/6
f 1221/2/6 1218/2/6 1222/2/6
f 1219/3/6 1220/3/6 1223/3/6
f 1223/3/6 1220/3/6 1224/3/6
f 1221/3/6 1222/3/6 1225/3/6
f 1225/3/6 1222/3/6 1226/3/6
f 1223/2/6 1224/2/6 1227/2/6
f 1227/2/6 1224/2/6 1228/2/6
f 1225/2/6 1226/2/6 1229/2/6
f 1229/2/6 1226/2/6 1230/2/6
f 1227/3/6 1228/3/6 1231/3/6
f 1231/3/6 1228/3/6 1232/3/6
f 1229/3/6 1230/3/6 1233/3/6
f 1233/3/6 1230/3/6 1234/3/6
f 1231/2/6 1232/2/6 1235/2/6
f 1235/2/6 1232/2/6 1236/2/6
f 1233/2/6 1234/2/6 1237/2/6
f 1237/2/6 1234/2/6 1238/2/6
f 1235/3/6 1236/3/6 1239/3/6
f 1239/3/6 1236/3/6 1240/3/6
f 1237/3/6 1238/3/6 1241/3/6
f 1241/3/6 1238/3/6 1242/3/6
f 1239/2/6 1240/2/6 1243/2/6
f 1243/2/6 1240/2/6 1244/2/6
f 1241/2/6 1242/2/6 1245/2/6
f 1245/2/6 1242/2/6 1246/2/6
f 1243/3/6 1244/3/6 1247/3/6
f 1247/3/6 1244/3/6 1248/3/6
f 1245/3/6 1246/3/6 1249/3/6
f 1249/3/6 1246/3/6 1250/3/6
f 1247/2/6 1248/2/6 1251/2/6
f 1251/2/6 1248/2/6 1252/2/6
f 1249/2/6 1250/2/6 1253/2/6
f 1253/2/6 1250/2/6 1254/2/6
f 1251/3/6 1252/3/6 1255/3/6
f 1255/3/6 1252/3/6 1256/3/6
f 1253/3/6 1254/3/6 1257/3/6
f 1257/3/6 1254/3/6 1258/3/6
f 1255/2/6 1256/2/6 1259/2/6
f 1259/2/6 1256/2/6 1260/2/6
f 1257/2/6 1258/2/6 1261/2/6
f 1261/2/6 1258/2/6 1262/2/6
f 1259/3/6 1260/3/6 1263/3/6
f 1263/3/6 1260/3/6 1264/3/6
f 1261/3/6 1262/3/6 1265/3/6
f 1265/3/6 1262/3/6 1266/3/6
f 1263/2/6 1264/2/6 1284/2/6
f 1284/2/6 1264/2/6 1285/2/6
f 1285/2/6 1264/2/6 1286/2/6
f 1265/2/6 1266/2/6 1287/2/6
f 1287/2/6 1266/2/6 1288/2/6
f 1288/2/6 1266/2/6 1289/2/6
f 1267/3/6 1268/3/6 1307/3/6
f 1268/2/6 1269/2/6 1308/2/6
f 1307/3/6 1268/3/6 1308/3/6
f 1269/3/6 1270/3/6 1309/3/6
f 1308/2/6 1269/2/6 1309/2/6
f 1270/2/6 1271/2/6 1310/2/6
f 1309/3/6 1270/3/6 1310/3/6
f 1271/3/6 1272/3/6 1311/3/6
f 1310/2/6 1271/2/6 1311/2/6
f 1272/2/6 1273/2/6 1312/2/6
f 1311/3/6 1272/3/6 1312/3/6
f 1273/3/6 1274/3/6 1313/3/6
f 1312/2/6 1273/2/6 1313/2/6
f 1274/2/6 1275/2/6 1314/2/6
f 1313/3/6 1274/3/6 1314/3/6
f 1275/3/6 1276/3/6 1315/3/6
f 1314/2/6 1275/2/6 1315/2/6
f 1276/2/6 1277/2/6 1316/2/6
f 1315/3/6 1276/3/6 1316/3/6
f 1277/3/6 1278/3/6 1317/3/6
f 1316/2/6 1277/2/6 1317/2/6
f 1278/2/6 1279/2/6 1318/2/6
f 1317/3/6 1278/3/6 1318/3/6
f 1279/3/6 1280/3/6 1319/3/6
f 1318/2/6 1279/2/6 1319/2/6
f 1280/2/6 1281/2/6 1320/2/6
f 1319/3/6 1280/3/6 1320/3/6
f 1281/3/6 1282/3/6 1321/3/6
f 1320/2/6 1281/2/6 1321/2/6
f 1282/2/6 1283/2/6 1322/2/6
f 1321/3/6 1282/3/6 1322/3/6
f 1283/3/6 1284/3/6 1323/3/6
f 1322/2/6 1283/2/6 1323/2/6
f 1284/2/6 1285/2/6 1324/2/6
f 1323/3/6 1284/3/6 1324/3/6
f 1285/3/6 1286/3/6 1325/3/6
f 1324/2/6 1285/2/6 1325/2/6
f 1325/3/6 1286/3/6 1326/3/6
f 1287/3/6 1288/3/6 1327/3/6
f 1288/2/6 1289/2/6 1328/2/6
f 1327/3/6 1288/3/6 1328/3/6
f 1289/3/6 1290/3/6 1329/3/6
f 1328/2/6 1289/2/6 1329/2/6
f 1290/2/6 1291/2/6 1330/2/6
f 1329/3/6 1290/3/6 1330/3/6
f 1291/3/6 1292/3/6 1331/3/6
f 1330/2/6 1291/2/6 1331/2/6
f 1292/2/6 1293/2/6 1332/2/6
f 1331/3/6 1292/3/6 1332/3/6
f 1293/3/6 1294/3/6 1333/3/6
f 1332/2/6 1293/2/6 1333/2/6
f 1294/2/6 1295/2/6 1334/2/6
f 1333/3/6 1294/3/6 1334/3/6
f 1295/3/6 1296/3/6 1335/3/6
f 1334/2/6 1295/2/6 1335/2/6
f 1296/2/6 1297/2/6 1336/2/6
f 1335/3/6 1296/3/6 1336/3/6
f 1297/3/6 1298/3/6 1337/3/6
f 1336/2/6 1297/2/6 1337/2/6
f 1298/2/6 1299/2/6 1338/2/6
f 1337/3/6 1298/3/6 1338/3/6
f 1299/3/6 1300/3/6 1339/3/6
f 1338/2/6 1299/2/6 1339/2/6
f 1300/2/6 1301/2/6 1340/2/6
f 1339/3/6 1300/3/6 1340/3/6
f 1301/3/6 1302/3/6 1341/3/6
f 1340/2/6 1301/2/6 1341/2/6
f 1302/2/6 1303/2/6 1342/2/6
f 1341/3/6 1302/3/6 1342/3/6
f 1303/3/6 1304/3/6 1343/3/6
f 1342/2/6 1303/2/6 1343/2/6
f 1304/2/6 1305/2/6 1344/2/6
f 1343/3/6 1304/3/6 1344/3/6
f 1305/3/6 1306/3/6 1345/3/6
f 1344/2/6 1305/2/6 1345/2/6
f 1345/3/6 1306/3/6 1346/3/6
f 1364/2/6 1365/2/6 1387/2/6
f 1365/3/6 1366/3/6 1387/3/6
f 1387/3/6 1366/3/6 1388/3/6
f 1367/3/6 1368/3/6 1389/3/6
f 1368/2/6 1369/2/6 1390/2/6
f 1389/3/6 1368/3/6 1390/3/6
f 1347/3/6 1348/3/6 1391/3/6
f 1348/2/6 1349/2/6 1392/2/6
f 1391/3/6 1348/3/6 1392/3/6
f 1349/3/6 1350/3/6 1393/3/6
f 1392/2/6 1349/2/6 1393/2/6
f 1350/2/6 1351/2/6 1394/2/6
f 1393/3/6 1350/3/6 1394/3/6
f 1351/3/6 1352/3/6 1395/3/6
f 1394/2/6 1351/2/6 1395/2/6
f 1352/2/6 1353/2/6 1396/2/6
f 1395/3/6 1352/3/6 1396/3/6
f 1353/3/6 1354/3/6 1397/3/6
f 1396/2/6 1353/2/6 1397/2/6
f 1354/2/6 1355/2/6 1398/2/6
f 1397/3/6 1354/3/6 1398/3/6
f 1355/3/6 1356/3/6 1399/3/6
f 1398/2/6 1355/2/6 1399/2/6
f 1356/2/6 1357/2/6 1400/2/6
f 1399/3/6 1356/3/6 1400/3/6
f 1357/3/6 1358/3/6 1401/3/6
f 1400/2/6 1357/2/6 1401/2/6
f 1358/2/6 1359/2/6 1402/2/6
f 1401/3/6 1358/3/6 1402/3/6
f 1359/3/6 1360/3/6 1403/3/6
f 1402/2/6 1359/2/6 1403/2/6
f 1360/2/6 1361/2/6 1404/2/6
f 1403/3/6 1360/3/6 1404/3/6
f 1361/3/6 1362/3/6 1405/3/6
f 1404/2/6 1361/2/6 1405/2/6
f 1362/2/6 1363/2/6 1406/2/6
f 1405/3/6 1362/3/6 1406/3/6
f 1363/3/6 1364/3/6 1407/3/6
f 1406/2/6 1363/2/6 1407/2/6
f 1387/2/6 1388/2/6 1408/2/6
f 1407/3/6 1364/3/6 1408/3/6
f 1364/2/6 1387/2/6 1408/2/6
f 1408/2/6 1388/2/6 1409/2/6
f 1409/2/6 1388/2/6 1410/2/6
f 1389/2/6 1390/2/6 1411/2/6
f 1390/2/6 1369/2/6 1412/2/6
f 1411/2/6 1390/2/6 1412/2/6
f 1369/3/6 1370/3/6 1413/3/6
f 1412/2/6 1369/2/6 1413/2/6
f 1370/2/6 1371/2/6 1414/2/6
f 1413/3/6 1370/3/6 1414/3/6
f 1371/3/6 1372/3/6 1415/3/6
f 1414/2/6 1371/2/6 1415/2/6
f 1372/2/6 1373/2/6 1416/2/6
f 1415/3/6 1372/3/6 1416/3/6
f 1373/3/6 1374/3/6 1417/3/6
f 1416/2/6 1373/2/6 1417/2/6
f 1374/2/6 1375/2/6 1418/2/6
f 1417/3/6 1374/3/6 1418/3/6
f 1375/3/6 1376/3/6 1419/3/6
f 1418/2/6 1375/2/6 1419/2/6
f 1376/2/6 1377/2/6 1420/2/6
f 1419/3/6 1376/3/6 1420/3/6
f 1377/3/6 1378/3/6 1421/3/6
f 1420/2/6 1377/2/6 1421/2/6
f 1378/2/6 1379/2/6 1422/2/6
f 1421/3/6 1378/3/6 1422/3/6
f 1379/3/6 1380/3/6 1423/3/6
f 1422/2/6 1379/2/6 1423/2/6
f 1380/2/6 1381/2/6 1424/2/6
f 1423/3/6 1380/3/6 1424/3/6
f 1381/3/6 1382/3/6 1425/3/6
f 1424/2/6 1381/2/6 1425/2/6
f 1382/2/6 1383/2/6 1426/2/6
f 1425/3/6 1382/3/6 1426/3/6
f 1383/3/6 1384/3/6 1427/3/6
f 1426/2/6 1383/2/6 1427/2/6
f 1384/2/6 1385/2/6 1428/2/6
f 1427/3/6 1384/3/6 1428/3/6
f 1385/3/6 1386/3/6 1429/3/6
f 1428/2/6 1385/2/6 1429/2/6
f 1429/3/6 1386/3/6 1430/3/6
f 1409/3/6 1410/3/6 1431/3/6
f 1431/3/6 1410/3/6 1432/3/6
f 1411/3/6 1412/3/6 1433/3/6
f 1433/3/6 1412/3/6 1434/3/6
f 1431/2/6 1432/2/6 1435/2/6
f 1435/2/6 1432/2/6 1436/2/6
f 1433/2/6 1434/2/6 1437/2/6
f 1437/2/6 1434/2/6 1438/2/6
f 1435/3/6 1436/3/6 1439/3/6
f 1439/3/6 1436/3/6 1440/3/6
f 1437/3/6 1438/3/6 1441/3/6
f 1441/3/6 1438/3/6 1442/3/6
f 1439/2/6 1440/2/6 1443/2/6
f 1443/2/6 1440/2/6 1444/2/6
f 1441/2/6 1442/2/6 1445/2/6
f 1445/2/6 1442/2/6 1446/2/6
f 1443/3/6 1444/3/6 1447/3/6
f 1447/3/6 1444/3/6 1448/3/6
f 1445/3/6 1446/3/6 1449/3/6
f 1449/3/6 1446/3/6 1450/3/6
f 1447/2/6 1448/2/6 1451/2/6
f 1451/2/6 1448/2/6 1452/2/6
f 1449/2/6 1450/2/6 1453/2/6
f 1453/2/6 1450/2/6 1454/2/6
f 1451/3/6 1452/3/6 1455/3/6
f 1455/3/6 1452/3/6 1456/3/6
f 1453/3/6 1454/3/6 1457/3/6
f 1457/3/6 1454/3/6 1458/3/6
f 1455/2/6 1456/2/6 1459/2/6
f 1459/2/6 1456/2/6 1460/2/6
f 1457/2/6 1458/2/6 1461/2/6
f 1461/2/6 1458/2/6 1462/2/6
f 1459/3/6 1460/3/6 1463/3/6
f 1463/3/6 1460/3/6 1464/3/6
f 1461/3/6 1462/3/6 1465/3/6
f 1465/3/6 1462/3/6 1466/3/6
f 1463/2/6 1464/2/6 1467/2/6
f 1467/2/6 1464/2/6 1468/2/6
f 1465/2/6 1466/2/6 1469/2/6
f 1469/2/6 1466/2/6 1470/2/6
f 1467/3/6 1468/3/6 1471/3/6
f 1471/3/6 1468/3/6 1472/3/6
f 1469/3/6 1470/3/6 1473/3/6
f 1473/3/6 1470/3/6 1474/3/6
f 1471/2/6 1472/2/6 1475/2/6
f 1475/2/6 1472/2/6 1476/2/6
f 1473/2/6 1474/2/6 1477/2/6
f 1477/2/6 1474/2/6 1478/2/6
f 1475/3/6 1476/3/6 1479/3/6
f 1479/3/6 1476/3/6 1480/3/6
f 1477/3/6 1478/3/6 1481/3/6
f 1481/3/6 1478/3/6 1482/3/6
f 1479/2/6 1480/2/6 1483/2/6
f 1483/2/6 1480/2/6 1484/2/6
f 1481/2/6 1482/2/6 1485/2/6
f 1485/2/6 1482/2/6 1486/2/6
f 1483/3/6 1484/3/6 1487/3/6
f 1487/3/6 1484/3/6 1488/3/6
f 1485/3/6 1486/3/6 1489/3/6
f 1489/3/6 1486/3/6 1490/3/6
f 1487/2/6 1488/2/6 1491/2/6
f 1491/2/6 1488/2/6 1492/2/6
f 1489/2/6 1490/2/6 1493/2/6
f 1493/2/6 1490/2/6 1494/2/6
f 1491/3/6 1492/3/6 1495/3/6
f 1495/3/6 1492/3/6 1496/3/6
f 1493/3/6 1494/3/6 1497/3/6
f 1497/3/6 1494/3/6 1498/3/6
f 1499/5/6 1500/5/6 1503/5/6
f 1503/5/6 1500/5/6 1504/5/6
f 1501/5/6 1502/5/6 1505/5/6
f 1505/5/6 1502/5/6 1506/5/6
f 1507/5/6 1508/5/6 1511/5/6
f 1511/5/6 1508/5/6 1512/5/6
f 1509/5/6 1510/5/6 1513/5/6
f 1513/5/6 1510/5/6 1514/5/6
