# MagicaVoxel @ Ephtracy

# group
o 

# material
mtllib escopet-2.mtl
usemtl palette

# normals
vn -1 0 0
vn 1 0 0
vn 0 0 1
vn 0 0 -1
vn 0 -1 0
vn 0 1 0

# texcoords
vt 0.982422 0.5
vt 0.986328 0.5
vt 0.994141 0.5

# verts
v -1.3 2.1 -0.7
v -1.3 2.1 -0.8
v -1.3 2.4 2.2
v -1.3 2.4 2.1
v -1.3 2.4 -0.7
v -1.3 2.4 -0.8
v -1.3 2.4 -3
v -1.3 3 2.2
v -1.3 3 2.1
v -1.3 3 -0.7
v -1.3 3 -0.8
v -1.3 3 -3
v -1.3 3.1 -0.7
v -1.3 3.1 -0.8
v -1.2 2.1 2.2
v -1.2 2.1 2.1
v -1.2 2.1 -0.7
v -1.2 2.1 -0.8
v -1.2 2.1 -3
v -1.2 2.4 2.2
v -1.2 2.4 2.1
v -1.2 2.4 -0.7
v -1.2 2.4 -0.8
v -1.2 2.4 -3
v -1.2 3 2.2
v -1.2 3 2.1
v -1.2 3 -0.7
v -1.2 3 -0.8
v -1.2 3 -3
v -1.2 3.1 2.2
v -1.2 3.1 2.1
v -1.2 3.1 -0.7
v -1.2 3.1 -0.8
v -1.2 3.1 -3
v -1.2 3.2 -0.7
v -1.2 3.2 -0.8
v -1.1 1.8 -0.7
v -1.1 1.8 -0.8
v -1.1 2.1 -0.7
v -1.1 2.1 -0.8
v -1.1 2.3 -3
v -1.1 2.3 -4.1
v -1.1 2.8 -3
v -1.1 2.8 -4.1
v -1 1.9 2.2
v -1 1.9 2.1
v -1 1.9 -0.7
v -1 1.9 -0.8
v -1 1.9 -3
v -1 2.1 2.2
v -1 2.1 2.1
v -1 2.1 -0.7
v -1 2.1 -0.8
v -1 2.1 -3
v -1 2.2 -3
v -1 2.2 -4.1
v -1 2.3 -3
v -1 2.3 -4.1
v -1 2.8 -3
v -1 2.8 -4.1
v -1 2.9 -3
v -1 2.9 -4.1
v -1 3.1 2.2
v -1 3.1 2.1
v -1 3.1 -0.7
v -1 3.1 -0.8
v -1 3.1 -3
v -1 3.2 2.2
v -1 3.2 2.1
v -1 3.2 -0.7
v -1 3.2 -0.8
v -1 3.2 -3
v -1 3.3 -0.7
v -1 3.3 -0.8
v -0.9 2.1 -3
v -0.9 2.1 -4.1
v -0.9 2.2 -3
v -0.9 2.2 -4.1
v -0.9 2.9 -3
v -0.9 2.9 -4.1
v -0.9 3 -3
v -0.9 3 -4.1
v -0.6 1.3 -0.7
v -0.6 1.3 -0.8
v -0.6 1.8 -0.7
v -0.6 1.8 -0.8
v -0.5 1.3 2.2
v -0.5 1.3 2.1
v -0.5 1.3 -0.7
v -0.5 1.3 -0.8
v -0.5 1.3 -1.9
v -0.5 1.8 2.1
v -0.5 1.8 -0.7
v -0.5 1.8 -0.8
v -0.5 1.8 -1.9
v -0.5 1.8 -3
v -0.5 1.9 2.2
v -0.5 1.9 2.1
v -0.5 1.9 -0.7
v -0.5 1.9 -0.8
v -0.5 1.9 -3
v -0.5 2.2 -3.9
v -0.5 2.2 -4.1
v -0.5 2.3 -3.9
v -0.5 2.3 -4.1
v -0.5 2.8 -3.9
v -0.5 2.8 -4.1
v -0.5 2.9 -3.9
v -0.5 2.9 -4.1
v -0.4 1.2 -0.7
v -0.4 1.2 -0.8
v -0.4 1.3 -0.7
v -0.4 1.3 -0.8
v -0.4 2.1 2.2
v -0.4 2.1 2.1
v -0.4 2.2 2.2
v -0.4 2.2 2.1
v -0.4 2.3 -3.9
v -0.4 2.3 -4.1
v -0.4 2.4 -3.9
v -0.4 2.4 -4.1
v -0.4 2.7 -3.9
v -0.4 2.7 -4.1
v -0.4 2.8 -3.9
v -0.4 2.8 -4.1
v -0.4 2.9 2.2
v -0.4 2.9 2.1
v -0.4 3 2.2
v -0.4 3 2.1
v -0.3 1.1 -0.7
v -0.3 1.1 -0.8
v -0.3 1.2 2.2
v -0.3 1.2 2.1
v -0.3 1.2 -0.7
v -0.3 1.2 -0.8
v -0.3 1.2 -1.9
v -0.3 1.3 2.2
v -0.3 1.3 2.1
v -0.3 1.3 -0.7
v -0.3 1.3 -0.8
v -0.3 1.3 -1.9
v -0.3 2.2 2.2
v -0.3 2.2 2.1
v -0.3 2.3 2.2
v -0.3 2.3 2.1
v -0.3 2.4 -3.9
v -0.3 2.4 -4.1
v -0.3 2.7 -3.9
v -0.3 2.7 -4.1
v -0.3 2.8 2.2
v -0.3 2.8 2.1
v -0.3 2.9 2.2
v -0.3 2.9 2.1
v -0.3 3.1 -2.6
v -0.3 3.1 -2.7
v -0.3 3.4 -2.6
v -0.3 3.4 -2.7
v -0.2 1.1 2.2
v -0.2 1.1 2.1
v -0.2 1.1 -0.7
v -0.2 1.1 -0.8
v -0.2 1.1 -1.9
v -0.2 1.2 2.2
v -0.2 1.2 2.1
v -0.2 1.2 -0.7
v -0.2 1.2 -0.8
v -0.2 1.2 -1.9
v -0.2 2.3 2.2
v -0.2 2.3 2.1
v -0.2 2.7 2.2
v -0.2 2.7 2.1
v -0.2 2.8 2.2
v -0.2 2.8 2.1
v -0.2 3 -2.7
v -0.2 3 -2.8
v -0.2 3.4 -2.7
v -0.2 3.5 -2.7
v -0.2 3.5 -2.8
v 0.0999999 2 -1.9
v 0.0999999 2 -3
v 0.0999999 2.2 -1.9
v 0.0999999 2.2 -3
v 0.0999999 2.7 2.2
v 0.0999999 2.7 2.1
v 0.0999999 2.7 -0.7
v 0.0999999 2.7 -0.8
v 0.0999999 2.7 -2.5
v 0.0999999 2.7 -2.8
v 0.0999999 2.7 -3
v 0.0999999 2.8 -0.7
v 0.0999999 2.8 -0.8
v 0.0999999 2.8 -2.5
v 0.0999999 2.8 -2.6
v 0.0999999 2.9 2.2
v 0.0999999 2.9 2.1
v 0.0999999 2.9 -0.7
v 0.0999999 2.9 -0.8
v 0.0999999 2.9 -2.6
v 0.0999999 2.9 -2.8
v 0.0999999 2.9 -3
v 0.0999999 3 -0.7
v 0.0999999 3 -0.8
v 0.0999999 3.2 -2.7
v 0.0999999 3.2 -2.8
v 0.0999999 3.5 -2.7
v 0.0999999 3.5 -2.8
v 0.2 1.9 -1.9
v 0.2 1.9 -3
v 0.2 2 -1.9
v 0.2 2 -3
v 0.2 2.3 -3
v 0.2 2.3 -4.1
v 0.2 2.8 -3
v 0.2 2.8 -4.1
v 0.2 2.9 2.2
v 0.2 2.9 2.1
v 0.2 2.9 -0.7
v 0.2 2.9 -0.8
v 0.2 2.9 -2.7
v 0.2 2.9 -2.8
v 0.2 2.9 -3
v 0.2 3 2.2
v 0.2 3 2.1
v 0.2 3 -0.7
v 0.2 3 -0.8
v 0.2 3 -2.6
v 0.2 3 -2.7
v 0.2 3 -2.8
v 0.2 3 -3
v 0.2 3.1 -0.7
v 0.2 3.1 -0.8
v 0.2 3.4 -2.6
v 0.2 3.4 -2.7
v 0.3 1.8 -1.9
v 0.3 1.8 -3
v 0.3 1.9 -1.9
v 0.3 1.9 -3
v 0.3 2.2 -3
v 0.3 2.2 -4.1
v 0.3 2.3 -3
v 0.3 2.3 -4.1
v 0.3 2.8 -3
v 0.3 2.8 -4.1
v 0.3 2.9 -3
v 0.3 2.9 -4.1
v 0.3 3 2.2
v 0.3 3 2.1
v 0.3 3 -0.7
v 0.3 3 -0.8
v 0.3 3 -2.6
v 0.3 3 -2.7
v 0.3 3 -3
v 0.3 3.1 2.2
v 0.3 3.1 2.1
v 0.3 3.1 -0.7
v 0.3 3.1 -0.8
v 0.3 3.1 -2.6
v 0.3 3.1 -2.7
v 0.3 3.1 -3
v 0.3 3.2 -0.7
v 0.3 3.2 -0.8
v 0.4 2.1 -3
v 0.4 2.1 -4.1
v 0.4 2.2 -3
v 0.4 2.2 -4.1
v 0.4 2.9 -3
v 0.4 2.9 -4.1
v 0.4 3 -3
v 0.4 3 -4.1
v 0.5 3.1 2.2
v 0.5 3.1 2.1
v 0.5 3.1 -0.7
v 0.5 3.1 -0.8
v 0.5 3.1 -3
v 0.5 3.2 2.2
v 0.5 3.2 2.1
v 0.5 3.2 -0.7
v 0.5 3.2 -0.8
v 0.5 3.2 -3
v 0.5 3.3 -0.7
v 0.5 3.3 -0.8
v 0.8 2.2 -3.9
v 0.8 2.2 -4.1
v 0.8 2.3 -3.9
v 0.8 2.3 -4.1
v 0.8 2.8 -3.9
v 0.8 2.8 -4.1
v 0.8 2.9 -3.9
v 0.8 2.9 -4.1
v 0.9 2.1 2.2
v 0.9 2.1 2.1
v 0.9 2.2 2.2
v 0.9 2.2 2.1
v 0.9 2.3 -3.9
v 0.9 2.3 -4.1
v 0.9 2.4 -3.9
v 0.9 2.4 -4.1
v 0.9 2.7 -3.9
v 0.9 2.7 -4.1
v 0.9 2.8 -3.9
v 0.9 2.8 -4.1
v 0.9 2.9 2.2
v 0.9 2.9 2.1
v 0.9 3 2.2
v 0.9 3 2.1
v 1 2.2 2.2
v 1 2.2 2.1
v 1 2.3 2.2
v 1 2.3 2.1
v 1 2.4 -3.9
v 1 2.4 -4.1
v 1 2.7 -3.9
v 1 2.7 -4.1
v 1 2.8 2.2
v 1 2.8 2.1
v 1 2.9 2.2
v 1 2.9 2.1
v 1.1 2.3 2.2
v 1.1 2.3 2.1
v 1.1 2.4 2.2
v 1.1 2.4 2.1
v 1.1 2.8 2.2
v 1.1 2.8 2.1
v -1.1 2.3 2.2
v -1.1 2.3 2.1
v -1.1 2.4 2.2
v -1.1 2.4 2.1
v -1.1 2.8 2.2
v -1.1 2.8 2.1
v -1 2.2 2.2
v -1 2.2 2.1
v -1 2.3 2.2
v -1 2.3 2.1
v -1 2.4 -3.9
v -1 2.4 -4.1
v -1 2.7 -3.9
v -1 2.7 -4.1
v -1 2.8 2.2
v -1 2.8 2.1
v -1 2.9 2.2
v -1 2.9 2.1
v -0.9 2.1 2.2
v -0.9 2.1 2.1
v -0.9 2.2 2.2
v -0.9 2.2 2.1
v -0.9 2.3 -3.9
v -0.9 2.3 -4.1
v -0.9 2.4 -3.9
v -0.9 2.4 -4.1
v -0.9 2.7 -3.9
v -0.9 2.7 -4.1
v -0.9 2.8 -3.9
v -0.9 2.8 -4.1
v -0.9 2.9 2.2
v -0.9 2.9 2.1
v -0.9 3 2.2
v -0.9 3 2.1
v -0.8 2.2 -3.9
v -0.8 2.2 -4.1
v -0.8 2.3 -3.9
v -0.8 2.3 -4.1
v -0.8 2.8 -3.9
v -0.8 2.8 -4.1
v -0.8 2.9 -3.9
v -0.8 2.9 -4.1
v -0.5 3.1 2.2
v -0.5 3.1 2.1
v -0.5 3.1 -0.7
v -0.5 3.1 -0.8
v -0.5 3.1 -3
v -0.5 3.2 2.2
v -0.5 3.2 2.1
v -0.5 3.2 -0.7
v -0.5 3.2 -0.8
v -0.5 3.2 -3
v -0.5 3.3 -0.7
v -0.5 3.3 -0.8
v -0.4 2.1 -3
v -0.4 2.1 -4.1
v -0.4 2.2 -3
v -0.4 2.2 -4.1
v -0.4 2.9 -3
v -0.4 2.9 -4.1
v -0.4 3 -3
v -0.4 3 -4.1
v -0.3 1.8 -1.9
v -0.3 1.8 -3
v -0.3 1.9 -1.9
v -0.3 1.9 -3
v -0.3 2.2 -3
v -0.3 2.2 -4.1
v -0.3 2.3 -3
v -0.3 2.3 -4.1
v -0.3 2.8 -3
v -0.3 2.8 -4.1
v -0.3 2.9 -3
v -0.3 2.9 -4.1
v -0.3 3 2.2
v -0.3 3 2.1
v -0.3 3 -0.7
v -0.3 3 -0.8
v -0.3 3 -2.6
v -0.3 3 -2.7
v -0.3 3 -3
v -0.3 3.1 2.2
v -0.3 3.1 2.1
v -0.3 3.1 -0.7
v -0.3 3.1 -0.8
v -0.3 3.1 -2.6
v -0.3 3.1 -2.7
v -0.3 3.1 -3
v -0.3 3.2 -0.7
v -0.3 3.2 -0.8
v -0.2 1.9 -1.9
v -0.2 1.9 -3
v -0.2 2 -1.9
v -0.2 2 -3
v -0.2 2.3 -3
v -0.2 2.3 -4.1
v -0.2 2.8 -3
v -0.2 2.8 -4.1
v -0.2 2.9 2.2
v -0.2 2.9 2.1
v -0.2 2.9 -0.7
v -0.2 2.9 -0.8
v -0.2 2.9 -2.7
v -0.2 2.9 -2.8
v -0.2 2.9 -3
v -0.2 3 2.2
v -0.2 3 2.1
v -0.2 3 -0.7
v -0.2 3 -0.8
v -0.2 3 -2.6
v -0.2 3 -2.7
v -0.2 3 -2.8
v -0.2 3 -3
v -0.2 3.1 -0.7
v -0.2 3.1 -0.8
v -0.2 3.4 -2.6
v -0.2 3.4 -2.7
v -0.1 2 -1.9
v -0.1 2 -3
v -0.1 2.2 -1.9
v -0.1 2.2 -3
v -0.1 2.7 2.2
v -0.1 2.7 2.1
v -0.1 2.7 -0.7
v -0.1 2.7 -0.8
v -0.1 2.7 -2.5
v -0.1 2.7 -2.8
v -0.1 2.7 -3
v -0.1 2.8 -0.7
v -0.1 2.8 -0.8
v -0.1 2.8 -2.5
v -0.1 2.8 -2.6
v -0.1 2.9 2.2
v -0.1 2.9 2.1
v -0.1 2.9 -0.7
v -0.1 2.9 -0.8
v -0.1 2.9 -2.6
v -0.1 2.9 -2.8
v -0.1 2.9 -3
v -0.1 3 -0.7
v -0.1 3 -0.8
v -0.1 3.2 -2.7
v -0.1 3.2 -2.8
v -0.1 3.5 -2.7
v -0.1 3.5 -2.8
v 0.2 1.1 2.2
v 0.2 1.1 2.1
v 0.2 1.1 -0.7
v 0.2 1.1 -0.8
v 0.2 1.1 -1.9
v 0.2 1.2 2.2
v 0.2 1.2 2.1
v 0.2 1.2 -0.7
v 0.2 1.2 -0.8
v 0.2 1.2 -1.9
v 0.2 2.3 2.2
v 0.2 2.3 2.1
v 0.2 2.7 2.2
v 0.2 2.7 2.1
v 0.2 2.8 2.2
v 0.2 2.8 2.1
v 0.2 3 -2.7
v 0.2 3 -2.8
v 0.2 3.4 -2.7
v 0.2 3.5 -2.7
v 0.2 3.5 -2.8
v 0.3 1.1 -0.7
v 0.3 1.1 -0.8
v 0.3 1.2 2.2
v 0.3 1.2 2.1
v 0.3 1.2 -0.7
v 0.3 1.2 -0.8
v 0.3 1.2 -1.9
v 0.3 1.3 2.2
v 0.3 1.3 2.1
v 0.3 1.3 -0.7
v 0.3 1.3 -0.8
v 0.3 1.3 -1.9
v 0.3 2.2 2.2
v 0.3 2.2 2.1
v 0.3 2.3 2.2
v 0.3 2.3 2.1
v 0.3 2.4 -3.9
v 0.3 2.4 -4.1
v 0.3 2.7 -3.9
v 0.3 2.7 -4.1
v 0.3 2.8 2.2
v 0.3 2.8 2.1
v 0.3 2.9 2.2
v 0.3 2.9 2.1
v 0.3 3.1 -2.6
v 0.3 3.1 -2.7
v 0.3 3.4 -2.6
v 0.3 3.4 -2.7
v 0.4 1.2 -0.7
v 0.4 1.2 -0.8
v 0.4 1.3 -0.7
v 0.4 1.3 -0.8
v 0.4 2.1 2.2
v 0.4 2.1 2.1
v 0.4 2.2 2.2
v 0.4 2.2 2.1
v 0.4 2.3 -3.9
v 0.4 2.3 -4.1
v 0.4 2.4 -3.9
v 0.4 2.4 -4.1
v 0.4 2.7 -3.9
v 0.4 2.7 -4.1
v 0.4 2.8 -3.9
v 0.4 2.8 -4.1
v 0.4 2.9 2.2
v 0.4 2.9 2.1
v 0.4 3 2.2
v 0.4 3 2.1
v 0.5 1.3 2.2
v 0.5 1.3 2.1
v 0.5 1.3 -0.7
v 0.5 1.3 -0.8
v 0.5 1.3 -1.9
v 0.5 1.8 2.1
v 0.5 1.8 -0.7
v 0.5 1.8 -0.8
v 0.5 1.8 -1.9
v 0.5 1.8 -3
v 0.5 1.9 2.2
v 0.5 1.9 2.1
v 0.5 1.9 -0.7
v 0.5 1.9 -0.8
v 0.5 1.9 -3
v 0.5 2.2 -3.9
v 0.5 2.2 -4.1
v 0.5 2.3 -3.9
v 0.5 2.3 -4.1
v 0.5 2.8 -3.9
v 0.5 2.8 -4.1
v 0.5 2.9 -3.9
v 0.5 2.9 -4.1
v 0.6 1.3 -0.7
v 0.6 1.3 -0.8
v 0.6 1.8 -0.7
v 0.6 1.8 -0.8
v 0.9 2.1 -3
v 0.9 2.1 -4.1
v 0.9 2.2 -3
v 0.9 2.2 -4.1
v 0.9 2.9 -3
v 0.9 2.9 -4.1
v 0.9 3 -3
v 0.9 3 -4.1
v 1 1.9 2.2
v 1 1.9 2.1
v 1 1.9 -0.7
v 1 1.9 -0.8
v 1 1.9 -3
v 1 2.1 2.2
v 1 2.1 2.1
v 1 2.1 -0.7
v 1 2.1 -0.8
v 1 2.1 -3
v 1 2.2 -3
v 1 2.2 -4.1
v 1 2.3 -3
v 1 2.3 -4.1
v 1 2.8 -3
v 1 2.8 -4.1
v 1 2.9 -3
v 1 2.9 -4.1
v 1 3.1 2.2
v 1 3.1 2.1
v 1 3.1 -0.7
v 1 3.1 -0.8
v 1 3.1 -3
v 1 3.2 2.2
v 1 3.2 2.1
v 1 3.2 -0.7
v 1 3.2 -0.8
v 1 3.2 -3
v 1 3.3 -0.7
v 1 3.3 -0.8
v 1.1 1.8 -0.7
v 1.1 1.8 -0.8
v 1.1 2.1 -0.7
v 1.1 2.1 -0.8
v 1.1 2.3 -3
v 1.1 2.3 -4.1
v 1.1 2.8 -3
v 1.1 2.8 -4.1
v 1.2 2.1 2.2
v 1.2 2.1 2.1
v 1.2 2.1 -0.7
v 1.2 2.1 -0.8
v 1.2 2.1 -3
v 1.2 2.4 2.2
v 1.2 2.4 2.1
v 1.2 2.4 -0.7
v 1.2 2.4 -0.8
v 1.2 2.4 -3
v 1.2 3 2.2
v 1.2 3 2.1
v 1.2 3 -0.7
v 1.2 3 -0.8
v 1.2 3 -3
v 1.2 3.1 2.2
v 1.2 3.1 2.1
v 1.2 3.1 -0.7
v 1.2 3.1 -0.8
v 1.2 3.1 -3
v 1.2 3.2 -0.7
v 1.2 3.2 -0.8
v 1.3 2.1 -0.7
v 1.3 2.1 -0.8
v 1.3 2.4 2.2
v 1.3 2.4 2.1
v 1.3 2.4 -0.7
v 1.3 2.4 -0.8
v 1.3 2.4 -3
v 1.3 3 2.2
v 1.3 3 2.1
v 1.3 3 -0.7
v 1.3 3 -0.8
v 1.3 3 -3
v 1.3 3.1 -0.7
v 1.3 3.1 -0.8
v -1.3 2.4 2.2
v -1.3 3 2.2
v -1.2 2.1 2.2
v -1.2 2.4 2.2
v -1.2 3 2.2
v -1.2 3.1 2.2
v -1.1 2.2 2.2
v -1.1 2.3 2.2
v -1.1 2.4 2.2
v -1.1 2.8 2.2
v -1 1.9 2.2
v -1 2.1 2.2
v -1 2.2 2.2
v -1 2.3 2.2
v -1 2.8 2.2
v -1 2.9 2.2
v -1 3 2.2
v -1 3.1 2.2
v -1 3.2 2.2
v -0.9 2 2.2
v -0.9 2.1 2.2
v -0.9 2.2 2.2
v -0.9 2.9 2.2
v -0.9 3 2.2
v -0.5 1.3 2.2
v -0.5 1.9 2.2
v -0.5 2 2.2
v -0.5 3 2.2
v -0.5 3.1 2.2
v -0.5 3.2 2.2
v -0.4 1.4 2.2
v -0.4 1.8 2.2
v -0.4 1.9 2.2
v -0.4 2.1 2.2
v -0.4 2.2 2.2
v -0.4 2.9 2.2
v -0.4 3 2.2
v -0.3 1.2 2.2
v -0.3 1.3 2.2
v -0.3 1.4 2.2
v -0.3 1.8 2.2
v -0.3 1.9 2.2
v -0.3 2.2 2.2
v -0.3 2.3 2.2
v -0.3 2.8 2.2
v -0.3 2.9 2.2
v -0.3 3 2.2
v -0.3 3.1 2.2
v -0.2 1.1 2.2
v -0.2 1.2 2.2
v -0.2 1.3 2.2
v -0.2 1.9 2.2
v -0.2 2 2.2
v -0.2 2.3 2.2
v -0.2 2.7 2.2
v -0.2 2.8 2.2
v -0.2 2.9 2.2
v -0.2 3 2.2
v -0.1 2 2.2
v -0.1 2.2 2.2
v -0.1 2.6 2.2
v -0.1 2.7 2.2
v -0.1 2.9 2.2
v 0.0999999 2 2.2
v 0.0999999 2.2 2.2
v 0.0999999 2.6 2.2
v 0.0999999 2.7 2.2
v 0.0999999 2.9 2.2
v 0.2 1.1 2.2
v 0.2 1.2 2.2
v 0.2 1.3 2.2
v 0.2 1.9 2.2
v 0.2 2 2.2
v 0.2 2.3 2.2
v 0.2 2.7 2.2
v 0.2 2.8 2.2
v 0.2 2.9 2.2
v 0.2 3 2.2
v 0.3 1.2 2.2
v 0.3 1.3 2.2
v 0.3 1.4 2.2
v 0.3 1.8 2.2
v 0.3 1.9 2.2
v 0.3 2.2 2.2
v 0.3 2.3 2.2
v 0.3 2.8 2.2
v 0.3 2.9 2.2
v 0.3 3 2.2
v 0.3 3.1 2.2
v 0.4 1.4 2.2
v 0.4 1.8 2.2
v 0.4 1.9 2.2
v 0.4 2.1 2.2
v 0.4 2.2 2.2
v 0.4 2.9 2.2
v 0.4 3 2.2
v 0.5 1.3 2.2
v 0.5 1.9 2.2
v 0.5 2 2.2
v 0.5 3 2.2
v 0.5 3.1 2.2
v 0.5 3.2 2.2
v 0.9 2 2.2
v 0.9 2.1 2.2
v 0.9 2.2 2.2
v 0.9 2.9 2.2
v 0.9 3 2.2
v 1 1.9 2.2
v 1 2.1 2.2
v 1 2.2 2.2
v 1 2.3 2.2
v 1 2.8 2.2
v 1 2.9 2.2
v 1 3 2.2
v 1 3.1 2.2
v 1 3.2 2.2
v 1.1 2.2 2.2
v 1.1 2.3 2.2
v 1.1 2.4 2.2
v 1.1 2.8 2.2
v 1.2 2.1 2.2
v 1.2 2.4 2.2
v 1.2 3 2.2
v 1.2 3.1 2.2
v 1.3 2.4 2.2
v 1.3 3 2.2
v -1.1 2.3 2.1
v -1.1 2.4 2.1
v -1.1 2.8 2.1
v -1 2.2 2.1
v -1 2.3 2.1
v -1 2.8 2.1
v -1 2.9 2.1
v -0.9 2.1 2.1
v -0.9 2.2 2.1
v -0.9 2.9 2.1
v -0.9 3 2.1
v -0.5 3 2.1
v -0.4 2.1 2.1
v -0.4 2.2 2.1
v -0.4 2.9 2.1
v -0.4 3 2.1
v -0.3 2.2 2.1
v -0.3 2.3 2.1
v -0.3 2.8 2.1
v -0.3 2.9 2.1
v -0.2 2.3 2.1
v -0.2 2.7 2.1
v -0.2 2.8 2.1
v 0.2 2.3 2.1
v 0.2 2.7 2.1
v 0.2 2.8 2.1
v 0.3 2.2 2.1
v 0.3 2.3 2.1
v 0.3 2.8 2.1
v 0.3 2.9 2.1
v 0.4 2.1 2.1
v 0.4 2.2 2.1
v 0.4 2.9 2.1
v 0.4 3 2.1
v 0.5 3 2.1
v 0.9 2.1 2.1
v 0.9 2.2 2.1
v 0.9 2.9 2.1
v 0.9 3 2.1
v 1 2.2 2.1
v 1 2.3 2.1
v 1 2.8 2.1
v 1 2.9 2.1
v 1.1 2.3 2.1
v 1.1 2.4 2.1
v 1.1 2.8 2.1
v -1.3 2.1 -0.7
v -1.3 2.4 -0.7
v -1.3 3 -0.7
v -1.3 3.1 -0.7
v -1.2 2.1 -0.7
v -1.2 2.4 -0.7
v -1.2 3 -0.7
v -1.2 3.1 -0.7
v -1.2 3.2 -0.7
v -1.1 1.8 -0.7
v -1.1 2.1 -0.7
v -1 1.9 -0.7
v -1 2.1 -0.7
v -1 3.1 -0.7
v -1 3.2 -0.7
v -1 3.3 -0.7
v -0.6 1.3 -0.7
v -0.6 1.8 -0.7
v -0.5 1.3 -0.7
v -0.5 1.8 -0.7
v -0.5 1.9 -0.7
v -0.5 3.1 -0.7
v -0.5 3.2 -0.7
v -0.5 3.3 -0.7
v -0.4 1.2 -0.7
v -0.4 1.3 -0.7
v -0.3 1.1 -0.7
v -0.3 1.2 -0.7
v -0.3 1.3 -0.7
v -0.3 3 -0.7
v -0.3 3.1 -0.7
v -0.3 3.2 -0.7
v -0.2 1.1 -0.7
v -0.2 1.2 -0.7
v -0.2 2.9 -0.7
v -0.2 3 -0.7
v -0.2 3.1 -0.7
v -0.1 2.7 -0.7
v -0.1 2.8 -0.7
v -0.1 2.9 -0.7
v -0.1 3 -0.7
v 0.0999999 2.7 -0.7
v 0.0999999 2.8 -0.7
v 0.0999999 2.9 -0.7
v 0.0999999 3 -0.7
v 0.2 1.1 -0.7
v 0.2 1.2 -0.7
v 0.2 2.9 -0.7
v 0.2 3 -0.7
v 0.2 3.1 -0.7
v 0.3 1.1 -0.7
v 0.3 1.2 -0.7
v 0.3 1.3 -0.7
v 0.3 3 -0.7
v 0.3 3.1 -0.7
v 0.3 3.2 -0.7
v 0.4 1.2 -0.7
v 0.4 1.3 -0.7
v 0.5 1.3 -0.7
v 0.5 1.8 -0.7
v 0.5 1.9 -0.7
v 0.5 3.1 -0.7
v 0.5 3.2 -0.7
v 0.5 3.3 -0.7
v 0.6 1.3 -0.7
v 0.6 1.8 -0.7
v 1 1.9 -0.7
v 1 2.1 -0.7
v 1 3.1 -0.7
v 1 3.2 -0.7
v 1 3.3 -0.7
v 1.1 1.8 -0.7
v 1.1 2.1 -0.7
v 1.2 2.1 -0.7
v 1.2 2.4 -0.7
v 1.2 3 -0.7
v 1.2 3.1 -0.7
v 1.2 3.2 -0.7
v 1.3 2.1 -0.7
v 1.3 2.4 -0.7
v 1.3 3 -0.7
v 1.3 3.1 -0.7
v -0.1 2.7 -2.5
v -0.1 2.8 -2.5
v 0.0999999 2.7 -2.5
v 0.0999999 2.8 -2.5
v -0.3 3 -2.6
v -0.3 3.1 -2.6
v -0.3 3.4 -2.6
v -0.2 3 -2.6
v -0.2 3.4 -2.6
v -0.1 2.8 -2.6
v -0.1 2.9 -2.6
v 0.0999999 2.8 -2.6
v 0.0999999 2.9 -2.6
v 0.2 3 -2.6
v 0.2 3.4 -2.6
v 0.3 3 -2.6
v 0.3 3.1 -2.6
v 0.3 3.4 -2.6
v -0.2 2.9 -2.7
v -0.2 3 -2.7
v -0.2 3.4 -2.7
v -0.2 3.5 -2.7
v -0.1 2.9 -2.7
v -0.1 3.2 -2.7
v -0.1 3.5 -2.7
v 0.0999999 2.9 -2.7
v 0.0999999 3.2 -2.7
v 0.0999999 3.5 -2.7
v 0.2 2.9 -2.7
v 0.2 3 -2.7
v 0.2 3.4 -2.7
v 0.2 3.5 -2.7
v -1.3 2.1 -0.8
v -1.3 2.4 -0.8
v -1.3 3 -0.8
v -1.3 3.1 -0.8
v -1.2 2.1 -0.8
v -1.2 2.4 -0.8
v -1.2 3 -0.8
v -1.2 3.1 -0.8
v -1.2 3.2 -0.8
v -1.1 1.8 -0.8
v -1.1 2.1 -0.8
v -1 1.9 -0.8
v -1 2.1 -0.8
v -1 3.1 -0.8
v -1 3.2 -0.8
v -1 3.3 -0.8
v -0.6 1.3 -0.8
v -0.6 1.8 -0.8
v -0.5 1.3 -0.8
v -0.5 1.8 -0.8
v -0.5 1.9 -0.8
v -0.5 3.1 -0.8
v -0.5 3.2 -0.8
v -0.5 3.3 -0.8
v -0.4 1.2 -0.8
v -0.4 1.3 -0.8
v -0.3 1.1 -0.8
v -0.3 1.2 -0.8
v -0.3 1.3 -0.8
v -0.3 3 -0.8
v -0.3 3.1 -0.8
v -0.3 3.2 -0.8
v -0.2 1.1 -0.8
v -0.2 1.2 -0.8
v -0.2 2.9 -0.8
v -0.2 3 -0.8
v -0.2 3.1 -0.8
v -0.1 2.7 -0.8
v -0.1 2.8 -0.8
v -0.1 2.9 -0.8
v -0.1 3 -0.8
v 0.0999999 2.7 -0.8
v 0.0999999 2.8 -0.8
v 0.0999999 2.9 -0.8
v 0.0999999 3 -0.8
v 0.2 1.1 -0.8
v 0.2 1.2 -0.8
v 0.2 2.9 -0.8
v 0.2 3 -0.8
v 0.2 3.1 -0.8
v 0.3 1.1 -0.8
v 0.3 1.2 -0.8
v 0.3 1.3 -0.8
v 0.3 3 -0.8
v 0.3 3.1 -0.8
v 0.3 3.2 -0.8
v 0.4 1.2 -0.8
v 0.4 1.3 -0.8
v 0.5 1.3 -0.8
v 0.5 1.8 -0.8
v 0.5 1.9 -0.8
v 0.5 3.1 -0.8
v 0.5 3.2 -0.8
v 0.5 3.3 -0.8
v 0.6 1.3 -0.8
v 0.6 1.8 -0.8
v 1 1.9 -0.8
v 1 2.1 -0.8
v 1 3.1 -0.8
v 1 3.2 -0.8
v 1 3.3 -0.8
v 1.1 1.8 -0.8
v 1.1 2.1 -0.8
v 1.2 2.1 -0.8
v 1.2 2.4 -0.8
v 1.2 3 -0.8
v 1.2 3.1 -0.8
v 1.2 3.2 -0.8
v 1.3 2.1 -0.8
v 1.3 2.4 -0.8
v 1.3 3 -0.8
v 1.3 3.1 -0.8
v -0.5 1.3 -1.9
v -0.5 1.8 -1.9
v -0.3 1.2 -1.9
v -0.3 1.3 -1.9
v -0.3 1.8 -1.9
v -0.3 1.9 -1.9
v -0.2 1.1 -1.9
v -0.2 1.2 -1.9
v -0.2 1.9 -1.9
v -0.2 2 -1.9
v -0.1 2 -1.9
v -0.1 2.2 -1.9
v 0.0999999 2 -1.9
v 0.0999999 2.2 -1.9
v 0.2 1.1 -1.9
v 0.2 1.2 -1.9
v 0.2 1.9 -1.9
v 0.2 2 -1.9
v 0.3 1.2 -1.9
v 0.3 1.3 -1.9
v 0.3 1.8 -1.9
v 0.3 1.9 -1.9
v 0.5 1.3 -1.9
v 0.5 1.8 -1.9
v -0.3 3 -2.7
v -0.3 3.1 -2.7
v -0.3 3.4 -2.7
v -0.2 3 -2.7
v -0.2 3.4 -2.7
v 0.2 3 -2.7
v 0.2 3.4 -2.7
v 0.3 3 -2.7
v 0.3 3.1 -2.7
v 0.3 3.4 -2.7
v -0.2 2.9 -2.8
v -0.2 3 -2.8
v -0.2 3.5 -2.8
v -0.1 2.7 -2.8
v -0.1 2.9 -2.8
v -0.1 3.2 -2.8
v -0.1 3.5 -2.8
v 0.0999999 2.7 -2.8
v 0.0999999 2.9 -2.8
v 0.0999999 3.2 -2.8
v 0.0999999 3.5 -2.8
v 0.2 2.9 -2.8
v 0.2 3 -2.8
v 0.2 3.5 -2.8
v -1.3 2.4 -3
v -1.3 3 -3
v -1.2 2.1 -3
v -1.2 2.4 -3
v -1.2 3 -3
v -1.2 3.1 -3
v -1.1 2.3 -3
v -1.1 2.8 -3
v -1 1.9 -3
v -1 2.1 -3
v -1 2.2 -3
v -1 2.3 -3
v -1 2.8 -3
v -1 2.9 -3
v -1 3.1 -3
v -1 3.2 -3
v -0.9 2.1 -3
v -0.9 2.2 -3
v -0.9 2.9 -3
v -0.9 3 -3
v -0.5 1.8 -3
v -0.5 1.9 -3
v -0.5 3.1 -3
v -0.5 3.2 -3
v -0.4 2.1 -3
v -0.4 2.2 -3
v -0.4 2.9 -3
v -0.4 3 -3
v -0.3 1.8 -3
v -0.3 1.9 -3
v -0.3 2.2 -3
v -0.3 2.3 -3
v -0.3 2.8 -3
v -0.3 2.9 -3
v -0.3 3 -3
v -0.3 3.1 -3
v -0.2 1.9 -3
v -0.2 2 -3
v -0.2 2.3 -3
v -0.2 2.8 -3
v -0.2 2.9 -3
v -0.2 3 -3
v -0.1 2 -3
v -0.1 2.2 -3
v -0.1 2.7 -3
v -0.1 2.9 -3
v 0.0999999 2 -3
v 0.0999999 2.2 -3
v 0.0999999 2.7 -3
v 0.0999999 2.9 -3
v 0.2 1.9 -3
v 0.2 2 -3
v 0.2 2.3 -3
v 0.2 2.8 -3
v 0.2 2.9 -3
v 0.2 3 -3
v 0.3 1.8 -3
v 0.3 1.9 -3
v 0.3 2.2 -3
v 0.3 2.3 -3
v 0.3 2.8 -3
v 0.3 2.9 -3
v 0.3 3 -3
v 0.3 3.1 -3
v 0.4 2.1 -3
v 0.4 2.2 -3
v 0.4 2.9 -3
v 0.4 3 -3
v 0.5 1.8 -3
v 0.5 1.9 -3
v 0.5 3.1 -3
v 0.5 3.2 -3
v 0.9 2.1 -3
v 0.9 2.2 -3
v 0.9 2.9 -3
v 0.9 3 -3
v 1 1.9 -3
v 1 2.1 -3
v 1 2.2 -3
v 1 2.3 -3
v 1 2.8 -3
v 1 2.9 -3
v 1 3.1 -3
v 1 3.2 -3
v 1.1 2.3 -3
v 1.1 2.8 -3
v 1.2 2.1 -3
v 1.2 2.4 -3
v 1.2 3 -3
v 1.2 3.1 -3
v 1.3 2.4 -3
v 1.3 3 -3
v -1 2.4 -3.9
v -1 2.7 -3.9
v -0.9 2.3 -3.9
v -0.9 2.4 -3.9
v -0.9 2.7 -3.9
v -0.9 2.8 -3.9
v -0.8 2.2 -3.9
v -0.8 2.3 -3.9
v -0.8 2.8 -3.9
v -0.8 2.9 -3.9
v -0.5 2.2 -3.9
v -0.5 2.3 -3.9
v -0.5 2.8 -3.9
v -0.5 2.9 -3.9
v -0.4 2.3 -3.9
v -0.4 2.4 -3.9
v -0.4 2.7 -3.9
v -0.4 2.8 -3.9
v -0.3 2.4 -3.9
v -0.3 2.7 -3.9
v 0.3 2.4 -3.9
v 0.3 2.7 -3.9
v 0.4 2.3 -3.9
v 0.4 2.4 -3.9
v 0.4 2.7 -3.9
v 0.4 2.8 -3.9
v 0.5 2.2 -3.9
v 0.5 2.3 -3.9
v 0.5 2.8 -3.9
v 0.5 2.9 -3.9
v 0.8 2.2 -3.9
v 0.8 2.3 -3.9
v 0.8 2.8 -3.9
v 0.8 2.9 -3.9
v 0.9 2.3 -3.9
v 0.9 2.4 -3.9
v 0.9 2.7 -3.9
v 0.9 2.8 -3.9
v 1 2.4 -3.9
v 1 2.7 -3.9
v -1.1 2.3 -4.1
v -1.1 2.8 -4.1
v -1 2.2 -4.1
v -1 2.3 -4.1
v -1 2.4 -4.1
v -1 2.7 -4.1
v -1 2.8 -4.1
v -1 2.9 -4.1
v -0.9 2.1 -4.1
v -0.9 2.2 -4.1
v -0.9 2.3 -4.1
v -0.9 2.4 -4.1
v -0.9 2.7 -4.1
v -0.9 2.8 -4.1
v -0.9 2.9 -4.1
v -0.9 3 -4.1
v -0.8 2.2 -4.1
v -0.8 2.3 -4.1
v -0.8 2.8 -4.1
v -0.8 2.9 -4.1
v -0.5 2.2 -4.1
v -0.5 2.3 -4.1
v -0.5 2.8 -4.1
v -0.5 2.9 -4.1
v -0.4 2.1 -4.1
v -0.4 2.2 -4.1
v -0.4 2.3 -4.1
v -0.4 2.4 -4.1
v -0.4 2.7 -4.1
v -0.4 2.8 -4.1
v -0.4 2.9 -4.1
v -0.4 3 -4.1
v -0.3 2.2 -4.1
v -0.3 2.3 -4.1
v -0.3 2.4 -4.1
v -0.3 2.7 -4.1
v -0.3 2.8 -4.1
v -0.3 2.9 -4.1
v -0.2 2.3 -4.1
v -0.2 2.8 -4.1
v 0.2 2.3 -4.1
v 0.2 2.8 -4.1
v 0.3 2.2 -4.1
v 0.3 2.3 -4.1
v 0.3 2.4 -4.1
v 0.3 2.7 -4.1
v 0.3 2.8 -4.1
v 0.3 2.9 -4.1
v 0.4 2.1 -4.1
v 0.4 2.2 -4.1
v 0.4 2.3 -4.1
v 0.4 2.4 -4.1
v 0.4 2.7 -4.1
v 0.4 2.8 -4.1
v 0.4 2.9 -4.1
v 0.4 3 -4.1
v 0.5 2.2 -4.1
v 0.5 2.3 -4.1
v 0.5 2.8 -4.1
v 0.5 2.9 -4.1
v 0.8 2.2 -4.1
v 0.8 2.3 -4.1
v 0.8 2.8 -4.1
v 0.8 2.9 -4.1
v 0.9 2.1 -4.1
v 0.9 2.2 -4.1
v 0.9 2.3 -4.1
v 0.9 2.4 -4.1
v 0.9 2.7 -4.1
v 0.9 2.8 -4.1
v 0.9 2.9 -4.1
v 0.9 3 -4.1
v 1 2.2 -4.1
v 1 2.3 -4.1
v 1 2.4 -4.1
v 1 2.7 -4.1
v 1 2.8 -4.1
v 1 2.9 -4.1
v 1.1 2.3 -4.1
v 1.1 2.8 -4.1
v -0.2 1.1 2.2
v 0.2 1.1 2.2
v -0.2 1.1 2.1
v 0.2 1.1 2.1
v -0.3 1.1 -0.7
v -0.2 1.1 -0.7
v 0.2 1.1 -0.7
v 0.3 1.1 -0.7
v -0.3 1.1 -0.8
v -0.2 1.1 -0.8
v 0.2 1.1 -0.8
v 0.3 1.1 -0.8
v -0.2 1.1 -1.9
v 0.2 1.1 -1.9
v -0.3 1.2 2.2
v -0.2 1.2 2.2
v 0.2 1.2 2.2
v 0.3 1.2 2.2
v -0.3 1.2 2.1
v -0.2 1.2 2.1
v 0.2 1.2 2.1
v 0.3 1.2 2.1
v -0.4 1.2 -0.7
v -0.3 1.2 -0.7
v -0.2 1.2 -0.7
v 0.2 1.2 -0.7
v 0.3 1.2 -0.7
v 0.4 1.2 -0.7
v -0.4 1.2 -0.8
v -0.3 1.2 -0.8
v -0.2 1.2 -0.8
v 0.2 1.2 -0.8
v 0.3 1.2 -0.8
v 0.4 1.2 -0.8
v -0.3 1.2 -1.9
v -0.2 1.2 -1.9
v 0.2 1.2 -1.9
v 0.3 1.2 -1.9
v -0.5 1.3 2.2
v -0.3 1.3 2.2
v 0.3 1.3 2.2
v 0.5 1.3 2.2
v -0.5 1.3 2.1
v -0.3 1.3 2.1
v 0.3 1.3 2.1
v 0.5 1.3 2.1
v -0.6 1.3 -0.7
v -0.5 1.3 -0.7
v -0.4 1.3 -0.7
v -0.3 1.3 -0.7
v 0.3 1.3 -0.7
v 0.4 1.3 -0.7
v 0.5 1.3 -0.7
v 0.6 1.3 -0.7
v -0.6 1.3 -0.8
v -0.5 1.3 -0.8
v -0.4 1.3 -0.8
v -0.3 1.3 -0.8
v 0.3 1.3 -0.8
v 0.4 1.3 -0.8
v 0.5 1.3 -0.8
v 0.6 1.3 -0.8
v -0.5 1.3 -1.9
v -0.3 1.3 -1.9
v 0.3 1.3 -1.9
v 0.5 1.3 -1.9
v -1.1 1.8 -0.7
v -0.6 1.8 -0.7
v 0.6 1.8 -0.7
v 1.1 1.8 -0.7
v -1.1 1.8 -0.8
v -0.6 1.8 -0.8
v 0.6 1.8 -0.8
v 1.1 1.8 -0.8
v -0.5 1.8 -1.9
v -0.3 1.8 -1.9
v 0.3 1.8 -1.9
v 0.5 1.8 -1.9
v -0.5 1.8 -3
v -0.3 1.8 -3
v 0.3 1.8 -3
v 0.5 1.8 -3
v -1 1.9 2.2
v -0.5 1.9 2.2
v 0.5 1.9 2.2
v 1 1.9 2.2
v -1 1.9 2.1
v -0.5 1.9 2.1
v 0.5 1.9 2.1
v 1 1.9 2.1
v -1 1.9 -0.7
v -0.5 1.9 -0.7
v 0.5 1.9 -0.7
v 1 1.9 -0.7
v -1 1.9 -0.8
v -0.5 1.9 -0.8
v 0.5 1.9 -0.8
v 1 1.9 -0.8
v -0.3 1.9 -1.9
v -0.2 1.9 -1.9
v 0.2 1.9 -1.9
v 0.3 1.9 -1.9
v -1 1.9 -3
v -0.5 1.9 -3
v -0.3 1.9 -3
v -0.2 1.9 -3
v 0.2 1.9 -3
v 0.3 1.9 -3
v 0.5 1.9 -3
v 1 1.9 -3
v -0.2 2 -1.9
v -0.1 2 -1.9
v 0.0999999 2 -1.9
v 0.2 2 -1.9
v -0.2 2 -3
v -0.1 2 -3
v 0.0999999 2 -3
v 0.2 2 -3
v -1.2 2.1 2.2
v -1 2.1 2.2
v 1 2.1 2.2
v 1.2 2.1 2.2
v -1.2 2.1 2.1
v -1 2.1 2.1
v 1 2.1 2.1
v 1.2 2.1 2.1
v -1.3 2.1 -0.7
v -1.2 2.1 -0.7
v -1.1 2.1 -0.7
v -1 2.1 -0.7
v 1 2.1 -0.7
v 1.1 2.1 -0.7
v 1.2 2.1 -0.7
v 1.3 2.1 -0.7
v -1.3 2.1 -0.8
v -1.2 2.1 -0.8
v -1.1 2.1 -0.8
v -1 2.1 -0.8
v 1 2.1 -0.8
v 1.1 2.1 -0.8
v 1.2 2.1 -0.8
v 1.3 2.1 -0.8
v -1.2 2.1 -3
v -1 2.1 -3
v -0.9 2.1 -3
v -0.4 2.1 -3
v 0.4 2.1 -3
v 0.9 2.1 -3
v 1 2.1 -3
v 1.2 2.1 -3
v -0.9 2.1 -4.1
v -0.4 2.1 -4.1
v 0.4 2.1 -4.1
v 0.9 2.1 -4.1
v -0.1 2.2 -1.9
v 0.0999999 2.2 -1.9
v -1 2.2 -3
v -0.9 2.2 -3
v -0.4 2.2 -3
v -0.3 2.2 -3
v -0.1 2.2 -3
v 0.0999999 2.2 -3
v 0.3 2.2 -3
v 0.4 2.2 -3
v 0.9 2.2 -3
v 1 2.2 -3
v -1 2.2 -4.1
v -0.9 2.2 -4.1
v -0.4 2.2 -4.1
v -0.3 2.2 -4.1
v 0.3 2.2 -4.1
v 0.4 2.2 -4.1
v 0.9 2.2 -4.1
v 1 2.2 -4.1
v -1.1 2.3 -3
v -1 2.3 -3
v -0.3 2.3 -3
v -0.2 2.3 -3
v 0.2 2.3 -3
v 0.3 2.3 -3
v 1 2.3 -3
v 1.1 2.3 -3
v -1.1 2.3 -4.1
v -1 2.3 -4.1
v -0.3 2.3 -4.1
v -0.2 2.3 -4.1
v 0.2 2.3 -4.1
v 0.3 2.3 -4.1
v 1 2.3 -4.1
v 1.1 2.3 -4.1
v -1.3 2.4 2.2
v -1.2 2.4 2.2
v 1.2 2.4 2.2
v 1.3 2.4 2.2
v -1.3 2.4 2.1
v -1.2 2.4 2.1
v 1.2 2.4 2.1
v 1.3 2.4 2.1
v -1.3 2.4 -0.7
v -1.2 2.4 -0.7
v 1.2 2.4 -0.7
v 1.3 2.4 -0.7
v -1.3 2.4 -0.8
v -1.2 2.4 -0.8
v 1.2 2.4 -0.8
v 1.3 2.4 -0.8
v -1.3 2.4 -3
v -1.2 2.4 -3
v 1.2 2.4 -3
v 1.3 2.4 -3
v -1 2.7 -3.9
v -0.9 2.7 -3.9
v -0.4 2.7 -3.9
v -0.3 2.7 -3.9
v 0.3 2.7 -3.9
v 0.4 2.7 -3.9
v 0.9 2.7 -3.9
v 1 2.7 -3.9
v -1 2.7 -4.1
v -0.9 2.7 -4.1
v -0.4 2.7 -4.1
v -0.3 2.7 -4.1
v 0.3 2.7 -4.1
v 0.4 2.7 -4.1
v 0.9 2.7 -4.1
v 1 2.7 -4.1
v -1.1 2.8 2.2
v -1 2.8 2.2
v -0.3 2.8 2.2
v -0.2 2.8 2.2
v 0.2 2.8 2.2
v 0.3 2.8 2.2
v 1 2.8 2.2
v 1.1 2.8 2.2
v -1.1 2.8 2.1
v -1 2.8 2.1
v -0.3 2.8 2.1
v -0.2 2.8 2.1
v 0.2 2.8 2.1
v 0.3 2.8 2.1
v 1 2.8 2.1
v 1.1 2.8 2.1
v -0.9 2.8 -3.9
v -0.8 2.8 -3.9
v -0.5 2.8 -3.9
v -0.4 2.8 -3.9
v 0.4 2.8 -3.9
v 0.5 2.8 -3.9
v 0.8 2.8 -3.9
v 0.9 2.8 -3.9
v -0.9 2.8 -4.1
v -0.8 2.8 -4.1
v -0.5 2.8 -4.1
v -0.4 2.8 -4.1
v 0.4 2.8 -4.1
v 0.5 2.8 -4.1
v 0.8 2.8 -4.1
v 0.9 2.8 -4.1
v -1 2.9 2.2
v -0.9 2.9 2.2
v -0.4 2.9 2.2
v -0.3 2.9 2.2
v 0.3 2.9 2.2
v 0.4 2.9 2.2
v 0.9 2.9 2.2
v 1 2.9 2.2
v -1 2.9 2.1
v -0.9 2.9 2.1
v -0.4 2.9 2.1
v -0.3 2.9 2.1
v 0.3 2.9 2.1
v 0.4 2.9 2.1
v 0.9 2.9 2.1
v 1 2.9 2.1
v -0.8 2.9 -3.9
v -0.5 2.9 -3.9
v 0.5 2.9 -3.9
v 0.8 2.9 -3.9
v -0.8 2.9 -4.1
v -0.5 2.9 -4.1
v 0.5 2.9 -4.1
v 0.8 2.9 -4.1
v -0.9 3 2.2
v -0.5 3 2.2
v -0.4 3 2.2
v 0.4 3 2.2
v 0.5 3 2.2
v 0.9 3 2.2
v -0.9 3 2.1
v -0.5 3 2.1
v -0.4 3 2.1
v 0.4 3 2.1
v 0.5 3 2.1
v 0.9 3 2.1
v -0.9 2.1 2.2
v -0.4 2.1 2.2
v 0.4 2.1 2.2
v 0.9 2.1 2.2
v -0.9 2.1 2.1
v -0.4 2.1 2.1
v 0.4 2.1 2.1
v 0.9 2.1 2.1
v -1 2.2 2.2
v -0.9 2.2 2.2
v -0.4 2.2 2.2
v -0.3 2.2 2.2
v 0.3 2.2 2.2
v 0.4 2.2 2.2
v 0.9 2.2 2.2
v 1 2.2 2.2
v -1 2.2 2.1
v -0.9 2.2 2.1
v -0.4 2.2 2.1
v -0.3 2.2 2.1
v 0.3 2.2 2.1
v 0.4 2.2 2.1
v 0.9 2.2 2.1
v 1 2.2 2.1
v -0.8 2.2 -3.9
v -0.5 2.2 -3.9
v 0.5 2.2 -3.9
v 0.8 2.2 -3.9
v -0.8 2.2 -4.1
v -0.5 2.2 -4.1
v 0.5 2.2 -4.1
v 0.8 2.2 -4.1
v -1.1 2.3 2.2
v -1 2.3 2.2
v -0.3 2.3 2.2
v -0.2 2.3 2.2
v 0.2 2.3 2.2
v 0.3 2.3 2.2
v 1 2.3 2.2
v 1.1 2.3 2.2
v -1.1 2.3 2.1
v -1 2.3 2.1
v -0.3 2.3 2.1
v -0.2 2.3 2.1
v 0.2 2.3 2.1
v 0.3 2.3 2.1
v 1 2.3 2.1
v 1.1 2.3 2.1
v -0.9 2.3 -3.9
v -0.8 2.3 -3.9
v -0.5 2.3 -3.9
v -0.4 2.3 -3.9
v 0.4 2.3 -3.9
v 0.5 2.3 -3.9
v 0.8 2.3 -3.9
v 0.9 2.3 -3.9
v -0.9 2.3 -4.1
v -0.8 2.3 -4.1
v -0.5 2.3 -4.1
v -0.4 2.3 -4.1
v 0.4 2.3 -4.1
v 0.5 2.3 -4.1
v 0.8 2.3 -4.1
v 0.9 2.3 -4.1
v -1 2.4 -3.9
v -0.9 2.4 -3.9
v -0.4 2.4 -3.9
v -0.3 2.4 -3.9
v 0.3 2.4 -3.9
v 0.4 2.4 -3.9
v 0.9 2.4 -3.9
v 1 2.4 -3.9
v -1 2.4 -4.1
v -0.9 2.4 -4.1
v -0.4 2.4 -4.1
v -0.3 2.4 -4.1
v 0.3 2.4 -4.1
v 0.4 2.4 -4.1
v 0.9 2.4 -4.1
v 1 2.4 -4.1
v -0.1 2.7 2.2
v 0.0999999 2.7 2.2
v -0.1 2.7 2.1
v 0.0999999 2.7 2.1
v -0.1 2.7 -0.7
v 0.0999999 2.7 -0.7
v -0.1 2.7 -0.8
v 0.0999999 2.7 -0.8
v -0.1 2.7 -2.5
v 0.0999999 2.7 -2.5
v -0.1 2.7 -2.8
v 0.0999999 2.7 -2.8
v -0.1 2.7 -3
v 0.0999999 2.7 -3
v -0.1 2.8 -0.7
v 0.0999999 2.8 -0.7
v -0.1 2.8 -0.8
v 0.0999999 2.8 -0.8
v -0.1 2.8 -2.5
v 0.0999999 2.8 -2.5
v -0.1 2.8 -2.6
v 0.0999999 2.8 -2.6
v -1.1 2.8 -3
v -1 2.8 -3
v -0.3 2.8 -3
v -0.2 2.8 -3
v 0.2 2.8 -3
v 0.3 2.8 -3
v 1 2.8 -3
v 1.1 2.8 -3
v -1.1 2.8 -4.1
v -1 2.8 -4.1
v -0.3 2.8 -4.1
v -0.2 2.8 -4.1
v 0.2 2.8 -4.1
v 0.3 2.8 -4.1
v 1 2.8 -4.1
v 1.1 2.8 -4.1
v -0.2 2.9 2.2
v -0.1 2.9 2.2
v 0.0999999 2.9 2.2
v 0.2 2.9 2.2
v -0.2 2.9 2.1
v -0.1 2.9 2.1
v 0.0999999 2.9 2.1
v 0.2 2.9 2.1
v -0.2 2.9 -0.7
v -0.1 2.9 -0.7
v 0.0999999 2.9 -0.7
v 0.2 2.9 -0.7
v -0.2 2.9 -0.8
v -0.1 2.9 -0.8
v 0.0999999 2.9 -0.8
v 0.2 2.9 -0.8
v -0.1 2.9 -2.6
v 0.0999999 2.9 -2.6
v -0.2 2.9 -2.7
v -0.1 2.9 -2.7
v 0.0999999 2.9 -2.7
v 0.2 2.9 -2.7
v -0.2 2.9 -2.8
v -0.1 2.9 -2.8
v 0.0999999 2.9 -2.8
v 0.2 2.9 -2.8
v -1 2.9 -3
v -0.9 2.9 -3
v -0.4 2.9 -3
v -0.3 2.9 -3
v -0.2 2.9 -3
v -0.1 2.9 -3
v 0.0999999 2.9 -3
v 0.2 2.9 -3
v 0.3 2.9 -3
v 0.4 2.9 -3
v 0.9 2.9 -3
v 1 2.9 -3
v -1 2.9 -4.1
v -0.9 2.9 -4.1
v -0.4 2.9 -4.1
v -0.3 2.9 -4.1
v 0.3 2.9 -4.1
v 0.4 2.9 -4.1
v 0.9 2.9 -4.1
v 1 2.9 -4.1
v -1.3 3 2.2
v -1.2 3 2.2
v -0.3 3 2.2
v -0.2 3 2.2
v 0.2 3 2.2
v 0.3 3 2.2
v 1.2 3 2.2
v 1.3 3 2.2
v -1.3 3 2.1
v -1.2 3 2.1
v -0.3 3 2.1
v -0.2 3 2.1
v 0.2 3 2.1
v 0.3 3 2.1
v 1.2 3 2.1
v 1.3 3 2.1
v -1.3 3 -0.7
v -1.2 3 -0.7
v -0.3 3 -0.7
v -0.2 3 -0.7
v -0.1 3 -0.7
v 0.0999999 3 -0.7
v 0.2 3 -0.7
v 0.3 3 -0.7
v 1.2 3 -0.7
v 1.3 3 -0.7
v -1.3 3 -0.8
v -1.2 3 -0.8
v -0.3 3 -0.8
v -0.2 3 -0.8
v -0.1 3 -0.8
v 0.0999999 3 -0.8
v 0.2 3 -0.8
v 0.3 3 -0.8
v 1.2 3 -0.8
v 1.3 3 -0.8
v -0.3 3 -2.6
v -0.2 3 -2.6
v 0.2 3 -2.6
v 0.3 3 -2.6
v -0.3 3 -2.7
v -0.2 3 -2.7
v 0.2 3 -2.7
v 0.3 3 -2.7
v -0.2 3 -2.8
v 0.2 3 -2.8
v -1.3 3 -3
v -1.2 3 -3
v -0.9 3 -3
v -0.4 3 -3
v -0.3 3 -3
v -0.2 3 -3
v 0.2 3 -3
v 0.3 3 -3
v 0.4 3 -3
v 0.9 3 -3
v 1.2 3 -3
v 1.3 3 -3
v -0.9 3 -4.1
v -0.4 3 -4.1
v 0.4 3 -4.1
v 0.9 3 -4.1
v -1.2 3.1 2.2
v -1 3.1 2.2
v -0.5 3.1 2.2
v -0.3 3.1 2.2
v 0.3 3.1 2.2
v 0.5 3.1 2.2
v 1 3.1 2.2
v 1.2 3.1 2.2
v -1.2 3.1 2.1
v -1 3.1 2.1
v -0.5 3.1 2.1
v -0.3 3.1 2.1
v 0.3 3.1 2.1
v 0.5 3.1 2.1
v 1 3.1 2.1
v 1.2 3.1 2.1
v -1.3 3.1 -0.7
v -1.2 3.1 -0.7
v -1 3.1 -0.7
v -0.5 3.1 -0.7
v -0.3 3.1 -0.7
v -0.2 3.1 -0.7
v 0.2 3.1 -0.7
v 0.3 3.1 -0.7
v 0.5 3.1 -0.7
v 1 3.1 -0.7
v 1.2 3.1 -0.7
v 1.3 3.1 -0.7
v -1.3 3.1 -0.8
v -1.2 3.1 -0.8
v -1 3.1 -0.8
v -0.5 3.1 -0.8
v -0.3 3.1 -0.8
v -0.2 3.1 -0.8
v 0.2 3.1 -0.8
v 0.3 3.1 -0.8
v 0.5 3.1 -0.8
v 1 3.1 -0.8
v 1.2 3.1 -0.8
v 1.3 3.1 -0.8
v -0.3 3.1 -2.6
v 0.3 3.1 -2.6
v -0.3 3.1 -2.7
v 0.3 3.1 -2.7
v -1.2 3.1 -3
v -1 3.1 -3
v -0.5 3.1 -3
v -0.3 3.1 -3
v 0.3 3.1 -3
v 0.5 3.1 -3
v 1 3.1 -3
v 1.2 3.1 -3
v -1 3.2 2.2
v -0.5 3.2 2.2
v 0.5 3.2 2.2
v 1 3.2 2.2
v -1 3.2 2.1
v -0.5 3.2 2.1
v 0.5 3.2 2.1
v 1 3.2 2.1
v -1.2 3.2 -0.7
v -1 3.2 -0.7
v -0.5 3.2 -0.7
v -0.3 3.2 -0.7
v 0.3 3.2 -0.7
v 0.5 3.2 -0.7
v 1 3.2 -0.7
v 1.2 3.2 -0.7
v -1.2 3.2 -0.8
v -1 3.2 -0.8
v -0.5 3.2 -0.8
v -0.3 3.2 -0.8
v 0.3 3.2 -0.8
v 0.5 3.2 -0.8
v 1 3.2 -0.8
v 1.2 3.2 -0.8
v -0.1 3.2 -2.7
v 0.0999999 3.2 -2.7
v -0.1 3.2 -2.8
v 0.0999999 3.2 -2.8
v -1 3.2 -3
v -0.5 3.2 -3
v 0.5 3.2 -3
v 1 3.2 -3
v -1 3.3 -0.7
v -0.5 3.3 -0.7
v 0.5 3.3 -0.7
v 1 3.3 -0.7
v -1 3.3 -0.8
v -0.5 3.3 -0.8
v 0.5 3.3 -0.8
v 1 3.3 -0.8
v -0.3 3.4 -2.6
v -0.2 3.4 -2.6
v 0.2 3.4 -2.6
v 0.3 3.4 -2.6
v -0.3 3.4 -2.7
v -0.2 3.4 -2.7
v 0.2 3.4 -2.7
v 0.3 3.4 -2.7
v -0.2 3.5 -2.7
v -0.1 3.5 -2.7
v 0.0999999 3.5 -2.7
v 0.2 3.5 -2.7
v -0.2 3.5 -2.8
v -0.1 3.5 -2.8
v 0.0999999 3.5 -2.8
v 0.2 3.5 -2.8

# faces
f 5/3/1 2/3/1 1/3/1
f 6/3/1 2/3/1 5/3/1
f 8/3/1 4/3/1 3/3/1
f 9/1/1 5/1/1 4/1/1
f 9/3/1 4/3/1 8/3/1
f 10/3/1 6/3/1 5/3/1
f 10/1/1 5/1/1 9/1/1
f 11/1/1 7/1/1 6/1/1
f 11/3/1 6/3/1 10/3/1
f 12/1/1 7/1/1 11/1/1
f 13/3/1 11/3/1 10/3/1
f 14/3/1 11/3/1 13/3/1
f 20/3/1 16/3/1 15/3/1
f 21/1/1 17/1/1 16/1/1
f 21/3/1 16/3/1 20/3/1
f 22/1/1 17/1/1 21/1/1
f 23/1/1 19/1/1 18/1/1
f 24/1/1 19/1/1 23/1/1
f 30/3/1 26/3/1 25/3/1
f 31/1/1 27/1/1 26/1/1
f 31/3/1 26/3/1 30/3/1
f 32/1/1 27/1/1 31/1/1
f 33/1/1 29/1/1 28/1/1
f 34/1/1 29/1/1 33/1/1
f 35/3/1 33/3/1 32/3/1
f 36/3/1 33/3/1 35/3/1
f 39/3/1 38/3/1 37/3/1
f 40/3/1 38/3/1 39/3/1
f 43/2/1 42/2/1 41/2/1
f 44/2/1 42/2/1 43/2/1
f 50/3/1 46/3/1 45/3/1
f 51/1/1 47/1/1 46/1/1
f 51/3/1 46/3/1 50/3/1
f 52/1/1 47/1/1 51/1/1
f 53/1/1 49/1/1 48/1/1
f 54/1/1 49/1/1 53/1/1
f 57/2/1 56/2/1 55/2/1
f 58/2/1 56/2/1 57/2/1
f 61/2/1 60/2/1 59/2/1
f 62/2/1 60/2/1 61/2/1
f 68/3/1 64/3/1 63/3/1
f 69/1/1 65/1/1 64/1/1
f 69/3/1 64/3/1 68/3/1
f 70/1/1 65/1/1 69/1/1
f 71/1/1 67/1/1 66/1/1
f 72/1/1 67/1/1 71/1/1
f 73/3/1 71/3/1 70/3/1
f 74/3/1 71/3/1 73/3/1
f 77/2/1 76/2/1 75/2/1
f 78/2/1 76/2/1 77/2/1
f 81/2/1 80/2/1 79/2/1
f 82/2/1 80/2/1 81/2/1
f 85/3/1 84/3/1 83/3/1
f 86/3/1 84/3/1 85/3/1
f 92/3/1 88/3/1 87/3/1
f 92/2/1 89/2/1 88/2/1
f 93/2/1 89/2/1 92/2/1
f 94/2/1 91/2/1 90/2/1
f 95/2/1 91/2/1 94/2/1
f 97/3/1 92/3/1 87/3/1
f 98/1/1 93/1/1 92/1/1
f 98/3/1 92/3/1 97/3/1
f 99/1/1 93/1/1 98/1/1
f 100/1/1 96/1/1 95/1/1
f 100/1/1 95/1/1 94/1/1
f 101/1/1 96/1/1 100/1/1
f 104/2/1 103/2/1 102/2/1
f 105/2/1 103/2/1 104/2/1
f 108/2/1 107/2/1 106/2/1
f 109/2/1 107/2/1 108/2/1
f 112/3/1 111/3/1 110/3/1
f 113/3/1 111/3/1 112/3/1
f 116/1/1 115/1/1 114/1/1
f 117/1/1 115/1/1 116/1/1
f 120/2/1 119/2/1 118/2/1
f 121/2/1 119/2/1 120/2/1
f 124/2/1 123/2/1 122/2/1
f 125/2/1 123/2/1 124/2/1
f 128/1/1 127/1/1 126/1/1
f 129/1/1 127/1/1 128/1/1
f 134/3/1 131/3/1 130/3/1
f 135/3/1 131/3/1 134/3/1
f 137/3/1 133/3/1 132/3/1
f 138/2/1 134/2/1 133/2/1
f 138/3/1 133/3/1 137/3/1
f 139/2/1 134/2/1 138/2/1
f 140/2/1 136/2/1 135/2/1
f 141/2/1 136/2/1 140/2/1
f 144/1/1 143/1/1 142/1/1
f 145/1/1 143/1/1 144/1/1
f 148/2/1 147/2/1 146/2/1
f 149/2/1 147/2/1 148/2/1
f 152/1/1 151/1/1 150/1/1
f 153/1/1 151/1/1 152/1/1
f 156/2/1 155/2/1 154/2/1
f 157/2/1 155/2/1 156/2/1
f 163/3/1 159/3/1 158/3/1
f 164/2/1 160/2/1 159/2/1
f 164/3/1 159/3/1 163/3/1
f 165/2/1 160/2/1 164/2/1
f 166/2/1 162/2/1 161/2/1
f 167/2/1 162/2/1 166/2/1
f 170/1/1 169/1/1 168/1/1
f 171/1/1 169/1/1 170/1/1
f 172/3/1 171/3/1 170/3/1
f 173/3/1 171/3/1 172/3/1
f 176/2/1 175/2/1 174/2/1
f 177/2/1 175/2/1 176/2/1
f 178/2/1 175/2/1 177/2/1
f 181/1/1 180/1/1 179/1/1
f 182/1/1 180/1/1 181/1/1
f 190/1/1 185/1/1 184/1/1
f 191/1/1 187/1/1 186/1/1
f 192/1/1 187/1/1 191/1/1
f 194/3/1 184/3/1 183/3/1
f 195/1/1 190/1/1 184/1/1
f 195/3/1 184/3/1 194/3/1
f 196/3/1 191/3/1 190/3/1
f 196/1/1 190/1/1 195/1/1
f 197/1/1 193/1/1 192/1/1
f 197/3/1 191/3/1 196/3/1
f 197/1/1 192/1/1 191/1/1
f 198/1/1 193/1/1 197/1/1
f 199/1/1 189/1/1 188/1/1
f 200/1/1 189/1/1 199/1/1
f 201/3/1 197/3/1 196/3/1
f 202/3/1 197/3/1 201/3/1
f 205/2/1 204/2/1 203/2/1
f 206/2/1 204/2/1 205/2/1
f 209/1/1 208/1/1 207/1/1
f 210/1/1 208/1/1 209/1/1
f 213/2/1 212/2/1 211/2/1
f 214/2/1 212/2/1 213/2/1
f 222/3/1 216/3/1 215/3/1
f 223/1/1 217/1/1 216/1/1
f 223/3/1 216/3/1 222/3/1
f 224/1/1 217/1/1 223/1/1
f 225/1/1 219/1/1 218/1/1
f 226/1/1 219/1/1 225/1/1
f 227/1/1 219/1/1 226/1/1
f 228/1/1 221/1/1 220/1/1
f 229/1/1 221/1/1 228/1/1
f 230/3/1 225/3/1 224/3/1
f 231/3/1 225/3/1 230/3/1
f 232/2/1 227/2/1 226/2/1
f 233/2/1 227/2/1 232/2/1
f 236/1/1 235/1/1 234/1/1
f 237/1/1 235/1/1 236/1/1
f 240/2/1 239/2/1 238/2/1
f 241/2/1 239/2/1 240/2/1
f 244/2/1 243/2/1 242/2/1
f 245/2/1 243/2/1 244/2/1
f 253/3/1 247/3/1 246/3/1
f 254/1/1 248/1/1 247/1/1
f 254/3/1 247/3/1 253/3/1
f 255/1/1 248/1/1 254/1/1
f 256/1/1 250/1/1 249/1/1
f 257/1/1 250/1/1 256/1/1
f 258/1/1 252/1/1 251/1/1
f 259/1/1 252/1/1 258/1/1
f 260/3/1 256/3/1 255/3/1
f 261/3/1 256/3/1 260/3/1
f 264/2/1 263/2/1 262/2/1
f 265/2/1 263/2/1 264/2/1
f 268/2/1 267/2/1 266/2/1
f 269/2/1 267/2/1 268/2/1
f 275/3/1 271/3/1 270/3/1
f 276/1/1 272/1/1 271/1/1
f 276/3/1 271/3/1 275/3/1
f 277/1/1 272/1/1 276/1/1
f 278/1/1 274/1/1 273/1/1
f 279/1/1 274/1/1 278/1/1
f 280/3/1 278/3/1 277/3/1
f 281/3/1 278/3/1 280/3/1
f 284/2/1 283/2/1 282/2/1
f 285/2/1 283/2/1 284/2/1
f 288/2/1 287/2/1 286/2/1
f 289/2/1 287/2/1 288/2/1
f 292/1/1 291/1/1 290/1/1
f 293/1/1 291/1/1 292/1/1
f 296/2/1 295/2/1 294/2/1
f 297/2/1 295/2/1 296/2/1
f 300/2/1 299/2/1 298/2/1
f 301/2/1 299/2/1 300/2/1
f 304/1/1 303/1/1 302/1/1
f 305/1/1 303/1/1 304/1/1
f 308/1/1 307/1/1 306/1/1
f 309/1/1 307/1/1 308/1/1
f 312/2/1 311/2/1 310/2/1
f 313/2/1 311/2/1 312/2/1
f 316/1/1 315/1/1 314/1/1
f 317/1/1 315/1/1 316/1/1
f 320/3/1 319/3/1 318/3/1
f 321/3/1 319/3/1 320/3/1
f 322/1/1 321/1/1 320/1/1
f 323/1/1 321/1/1 322/1/1
f 324/3/2 325/3/2 326/3/2
f 326/3/2 325/3/2 327/3/2
f 326/1/2 327/1/2 328/1/2
f 328/1/2 327/1/2 329/1/2
f 330/1/2 331/1/2 332/1/2
f 332/1/2 331/1/2 333/1/2
f 334/2/2 335/2/2 336/2/2
f 336/2/2 335/2/2 337/2/2
f 338/1/2 339/1/2 340/1/2
f 340/1/2 339/1/2 341/1/2
f 342/1/2 343/1/2 344/1/2
f 344/1/2 343/1/2 345/1/2
f 346/2/2 347/2/2 348/2/2
f 348/2/2 347/2/2 349/2/2
f 350/2/2 351/2/2 352/2/2
f 352/2/2 351/2/2 353/2/2
f 354/1/2 355/1/2 356/1/2
f 356/1/2 355/1/2 357/1/2
f 358/2/2 359/2/2 360/2/2
f 360/2/2 359/2/2 361/2/2
f 362/2/2 363/2/2 364/2/2
f 364/2/2 363/2/2 365/2/2
f 366/3/2 367/3/2 371/3/2
f 367/1/2 368/1/2 372/1/2
f 371/3/2 367/3/2 372/3/2
f 372/1/2 368/1/2 373/1/2
f 369/1/2 370/1/2 374/1/2
f 374/1/2 370/1/2 375/1/2
f 373/3/2 374/3/2 376/3/2
f 376/3/2 374/3/2 377/3/2
f 378/2/2 379/2/2 380/2/2
f 380/2/2 379/2/2 381/2/2
f 382/2/2 383/2/2 384/2/2
f 384/2/2 383/2/2 385/2/2
f 386/1/2 387/1/2 388/1/2
f 388/1/2 387/1/2 389/1/2
f 390/2/2 391/2/2 392/2/2
f 392/2/2 391/2/2 393/2/2
f 394/2/2 395/2/2 396/2/2
f 396/2/2 395/2/2 397/2/2
f 398/3/2 399/3/2 405/3/2
f 399/1/2 400/1/2 406/1/2
f 405/3/2 399/3/2 406/3/2
f 406/1/2 400/1/2 407/1/2
f 401/1/2 402/1/2 408/1/2
f 408/1/2 402/1/2 409/1/2
f 403/1/2 404/1/2 410/1/2
f 410/1/2 404/1/2 411/1/2
f 407/3/2 408/3/2 412/3/2
f 412/3/2 408/3/2 413/3/2
f 414/1/2 415/1/2 416/1/2
f 416/1/2 415/1/2 417/1/2
f 418/2/2 419/2/2 420/2/2
f 420/2/2 419/2/2 421/2/2
f 422/3/2 423/3/2 429/3/2
f 423/1/2 424/1/2 430/1/2
f 429/3/2 423/3/2 430/3/2
f 430/1/2 424/1/2 431/1/2
f 425/1/2 426/1/2 432/1/2
f 432/1/2 426/1/2 433/1/2
f 433/1/2 426/1/2 434/1/2
f 427/1/2 428/1/2 435/1/2
f 435/1/2 428/1/2 436/1/2
f 431/3/2 432/3/2 437/3/2
f 437/3/2 432/3/2 438/3/2
f 433/2/2 434/2/2 439/2/2
f 439/2/2 434/2/2 440/2/2
f 441/1/2 442/1/2 443/1/2
f 443/1/2 442/1/2 444/1/2
f 446/1/2 447/1/2 452/1/2
f 448/1/2 449/1/2 453/1/2
f 453/1/2 449/1/2 454/1/2
f 445/3/2 446/3/2 456/3/2
f 446/1/2 452/1/2 457/1/2
f 456/3/2 446/3/2 457/3/2
f 452/3/2 453/3/2 458/3/2
f 457/1/2 452/1/2 458/1/2
f 454/1/2 455/1/2 459/1/2
f 458/3/2 453/3/2 459/3/2
f 453/1/2 454/1/2 459/1/2
f 459/1/2 455/1/2 460/1/2
f 450/1/2 451/1/2 461/1/2
f 461/1/2 451/1/2 462/1/2
f 458/3/2 459/3/2 463/3/2
f 463/3/2 459/3/2 464/3/2
f 465/2/2 466/2/2 467/2/2
f 467/2/2 466/2/2 468/2/2
f 469/3/2 470/3/2 474/3/2
f 470/2/2 471/2/2 475/2/2
f 474/3/2 470/3/2 475/3/2
f 475/2/2 471/2/2 476/2/2
f 472/2/2 473/2/2 477/2/2
f 477/2/2 473/2/2 478/2/2
f 479/1/2 480/1/2 481/1/2
f 481/1/2 480/1/2 482/1/2
f 481/3/2 482/3/2 483/3/2
f 483/3/2 482/3/2 484/3/2
f 485/2/2 486/2/2 487/2/2
f 487/2/2 486/2/2 488/2/2
f 488/2/2 486/2/2 489/2/2
f 490/3/2 491/3/2 494/3/2
f 494/3/2 491/3/2 495/3/2
f 492/3/2 493/3/2 497/3/2
f 493/2/2 494/2/2 498/2/2
f 497/3/2 493/3/2 498/3/2
f 498/2/2 494/2/2 499/2/2
f 495/2/2 496/2/2 500/2/2
f 500/2/2 496/2/2 501/2/2
f 502/1/2 503/1/2 504/1/2
f 504/1/2 503/1/2 505/1/2
f 506/2/2 507/2/2 508/2/2
f 508/2/2 507/2/2 509/2/2
f 510/1/2 511/1/2 512/1/2
f 512/1/2 511/1/2 513/1/2
f 514/2/2 515/2/2 516/2/2
f 516/2/2 515/2/2 517/2/2
f 518/3/2 519/3/2 520/3/2
f 520/3/2 519/3/2 521/3/2
f 522/1/2 523/1/2 524/1/2
f 524/1/2 523/1/2 525/1/2
f 526/2/2 527/2/2 528/2/2
f 528/2/2 527/2/2 529/2/2
f 530/2/2 531/2/2 532/2/2
f 532/2/2 531/2/2 533/2/2
f 534/1/2 535/1/2 536/1/2
f 536/1/2 535/1/2 537/1/2
f 538/3/2 539/3/2 543/3/2
f 539/2/2 540/2/2 543/2/2
f 543/2/2 540/2/2 544/2/2
f 541/2/2 542/2/2 545/2/2
f 545/2/2 542/2/2 546/2/2
f 538/3/2 543/3/2 548/3/2
f 543/1/2 544/1/2 549/1/2
f 548/3/2 543/3/2 549/3/2
f 549/1/2 544/1/2 550/1/2
f 546/1/2 547/1/2 551/1/2
f 545/1/2 546/1/2 551/1/2
f 551/1/2 547/1/2 552/1/2
f 553/2/2 554/2/2 555/2/2
f 555/2/2 554/2/2 556/2/2
f 557/2/2 558/2/2 559/2/2
f 559/2/2 558/2/2 560/2/2
f 561/3/2 562/3/2 563/3/2
f 563/3/2 562/3/2 564/3/2
f 565/2/2 566/2/2 567/2/2
f 567/2/2 566/2/2 568/2/2
f 569/2/2 570/2/2 571/2/2
f 571/2/2 570/2/2 572/2/2
f 573/3/2 574/3/2 578/3/2
f 574/1/2 575/1/2 579/1/2
f 578/3/2 574/3/2 579/3/2
f 579/1/2 575/1/2 580/1/2
f 576/1/2 577/1/2 581/1/2
f 581/1/2 577/1/2 582/1/2
f 583/2/2 584/2/2 585/2/2
f 585/2/2 584/2/2 586/2/2
f 587/2/2 588/2/2 589/2/2
f 589/2/2 588/2/2 590/2/2
f 591/3/2 592/3/2 596/3/2
f 592/1/2 593/1/2 597/1/2
f 596/3/2 592/3/2 597/3/2
f 597/1/2 593/1/2 598/1/2
f 594/1/2 595/1/2 599/1/2
f 599/1/2 595/1/2 600/1/2
f 598/3/2 599/3/2 601/3/2
f 601/3/2 599/3/2 602/3/2
f 603/3/2 604/3/2 605/3/2
f 605/3/2 604/3/2 606/3/2
f 607/2/2 608/2/2 609/2/2
f 609/2/2 608/2/2 610/2/2
f 611/3/2 612/3/2 616/3/2
f 612/1/2 613/1/2 617/1/2
f 616/3/2 612/3/2 617/3/2
f 617/1/2 613/1/2 618/1/2
f 614/1/2 615/1/2 619/1/2
f 619/1/2 615/1/2 620/1/2
f 621/3/2 622/3/2 626/3/2
f 622/1/2 623/1/2 627/1/2
f 626/3/2 622/3/2 627/3/2
f 627/1/2 623/1/2 628/1/2
f 624/1/2 625/1/2 629/1/2
f 629/1/2 625/1/2 630/1/2
f 628/3/2 629/3/2 631/3/2
f 631/3/2 629/3/2 632/3/2
f 633/3/2 634/3/2 637/3/2
f 637/3/2 634/3/2 638/3/2
f 635/3/2 636/3/2 640/3/2
f 636/1/2 637/1/2 641/1/2
f 640/3/2 636/3/2 641/3/2
f 637/3/2 638/3/2 642/3/2
f 641/1/2 637/1/2 642/1/2
f 638/1/2 639/1/2 643/1/2
f 642/3/2 638/3/2 643/3/2
f 643/1/2 639/1/2 644/1/2
f 642/3/2 643/3/2 645/3/2
f 645/3/2 643/3/2 646/3/2
f 650/3/3 648/3/3 647/3/3
f 651/3/3 648/3/3 650/3/3
f 653/3/3 650/3/3 649/3/3
f 654/3/3 650/3/3 653/3/3
f 655/1/3 651/1/3 650/1/3
f 655/3/3 650/3/3 654/3/3
f 656/1/3 651/1/3 655/1/3
f 658/3/3 653/3/3 649/3/3
f 659/1/3 654/1/3 653/1/3
f 659/3/3 653/3/3 658/3/3
f 660/1/3 654/1/3 659/1/3
f 661/1/3 651/1/3 656/1/3
f 662/1/3 651/1/3 661/1/3
f 663/3/3 652/3/3 651/3/3
f 663/1/3 651/1/3 662/1/3
f 664/3/3 652/3/3 663/3/3
f 666/3/3 658/3/3 657/3/3
f 667/1/3 659/1/3 658/1/3
f 667/3/3 658/3/3 666/3/3
f 668/1/3 659/1/3 667/1/3
f 669/1/3 664/1/3 663/1/3
f 669/1/3 663/1/3 662/1/3
f 670/1/3 664/1/3 669/1/3
f 672/3/3 666/3/3 657/3/3
f 673/1/3 667/1/3 666/1/3
f 673/3/3 666/3/3 672/3/3
f 674/1/3 664/1/3 670/1/3
f 675/3/3 665/3/3 664/3/3
f 675/1/3 664/1/3 674/1/3
f 676/3/3 665/3/3 675/3/3
f 677/3/3 672/3/3 671/3/3
f 678/3/3 672/3/3 677/3/3
f 679/1/3 673/1/3 672/1/3
f 679/3/3 672/3/3 678/3/3
f 680/1/3 667/1/3 673/1/3
f 680/1/3 673/1/3 679/1/3
f 683/3/3 675/3/3 674/3/3
f 685/3/3 677/3/3 671/3/3
f 686/2/3 678/2/3 677/2/3
f 686/3/3 677/3/3 685/3/3
f 687/1/3 679/1/3 678/1/3
f 687/2/3 678/2/3 686/2/3
f 687/1/3 681/1/3 680/1/3
f 687/1/3 680/1/3 679/1/3
f 688/1/3 681/1/3 687/1/3
f 689/1/3 681/1/3 688/1/3
f 692/1/3 683/1/3 682/1/3
f 693/3/3 675/3/3 683/3/3
f 693/1/3 683/1/3 692/1/3
f 694/3/3 675/3/3 693/3/3
f 696/3/3 685/3/3 684/3/3
f 697/2/3 686/2/3 685/2/3
f 697/2/3 687/2/3 686/2/3
f 697/3/3 685/3/3 696/3/3
f 697/2/3 688/2/3 687/2/3
f 698/1/3 690/1/3 689/1/3
f 698/2/3 688/2/3 697/2/3
f 698/1/3 689/1/3 688/1/3
f 699/1/3 690/1/3 698/1/3
f 700/1/3 690/1/3 699/1/3
f 702/1/3 692/1/3 691/1/3
f 703/3/3 693/3/3 692/3/3
f 703/1/3 692/1/3 702/1/3
f 704/3/3 693/3/3 703/3/3
f 705/2/3 697/2/3 696/2/3
f 705/1/3 701/1/3 700/1/3
f 705/2/3 698/2/3 697/2/3
f 705/2/3 699/2/3 698/2/3
f 705/1/3 700/1/3 699/1/3
f 706/1/3 701/1/3 705/1/3
f 707/1/3 701/1/3 706/1/3
f 708/3/3 703/3/3 702/3/3
f 708/1/3 701/1/3 707/1/3
f 708/3/3 702/3/3 701/3/3
f 709/3/3 703/3/3 708/3/3
f 710/2/3 706/2/3 705/2/3
f 710/2/3 705/2/3 696/2/3
f 711/1/3 707/1/3 706/1/3
f 711/2/3 706/2/3 710/2/3
f 712/3/3 708/3/3 707/3/3
f 712/1/3 707/1/3 711/1/3
f 713/3/3 708/3/3 712/3/3
f 715/3/3 696/3/3 695/3/3
f 716/2/3 710/2/3 696/2/3
f 716/3/3 696/3/3 715/3/3
f 717/2/3 710/2/3 716/2/3
f 718/2/3 710/2/3 717/2/3
f 719/1/3 711/1/3 710/1/3
f 719/2/3 710/2/3 718/2/3
f 719/1/3 712/1/3 711/1/3
f 719/1/3 713/1/3 712/1/3
f 720/1/3 713/1/3 719/1/3
f 721/3/3 714/3/3 713/3/3
f 721/1/3 713/1/3 720/1/3
f 722/3/3 714/3/3 721/3/3
f 723/3/3 714/3/3 722/3/3
f 725/3/3 717/3/3 716/3/3
f 726/2/3 718/2/3 717/2/3
f 726/3/3 717/3/3 725/3/3
f 727/2/3 718/2/3 726/2/3
f 728/2/3 718/2/3 727/2/3
f 729/1/3 720/1/3 719/1/3
f 729/2/3 718/2/3 728/2/3
f 729/1/3 719/1/3 718/1/3
f 730/1/3 720/1/3 729/1/3
f 731/1/3 720/1/3 730/1/3
f 732/1/3 723/1/3 722/1/3
f 733/3/3 724/3/3 723/3/3
f 733/1/3 723/1/3 732/1/3
f 734/3/3 724/3/3 733/3/3
f 736/2/3 728/2/3 727/2/3
f 736/3/3 727/3/3 726/3/3
f 737/1/3 730/1/3 729/1/3
f 737/2/3 728/2/3 736/2/3
f 737/1/3 729/1/3 728/1/3
f 738/1/3 730/1/3 737/1/3
f 739/1/3 730/1/3 738/1/3
f 740/1/3 730/1/3 739/1/3
f 741/1/3 734/1/3 733/1/3
f 742/3/3 735/3/3 734/3/3
f 742/1/3 734/1/3 741/1/3
f 743/3/3 736/3/3 726/3/3
f 743/3/3 737/3/3 736/3/3
f 743/3/3 738/3/3 737/3/3
f 744/1/3 739/1/3 738/1/3
f 744/3/3 738/3/3 743/3/3
f 745/1/3 739/1/3 744/1/3
f 746/3/3 735/3/3 742/3/3
f 747/3/3 735/3/3 746/3/3
f 749/1/3 739/1/3 745/1/3
f 749/3/3 745/3/3 744/3/3
f 750/1/3 739/1/3 749/1/3
f 753/1/3 747/1/3 746/1/3
f 754/3/3 749/3/3 744/3/3
f 754/3/3 750/3/3 749/3/3
f 755/1/3 751/1/3 750/1/3
f 755/3/3 750/3/3 754/3/3
f 756/1/3 751/1/3 755/1/3
f 759/1/3 753/1/3 752/1/3
f 760/1/3 747/1/3 753/1/3
f 760/1/3 753/1/3 759/1/3
f 761/3/3 748/3/3 747/3/3
f 761/1/3 747/1/3 760/1/3
f 762/3/3 748/3/3 761/3/3
f 763/1/3 757/1/3 756/1/3
f 763/3/3 756/3/3 755/3/3
f 764/1/3 757/1/3 763/1/3
f 766/1/3 760/1/3 759/1/3
f 766/1/3 759/1/3 758/1/3
f 767/3/3 765/3/3 764/3/3
f 767/3/3 764/3/3 763/3/3
f 767/3/3 763/3/3 755/3/3
f 768/1/3 766/1/3 765/1/3
f 768/3/3 765/3/3 767/3/3
f 769/1/3 760/1/3 766/1/3
f 769/1/3 766/1/3 768/1/3
f 769/3/3 761/3/3 760/3/3
f 770/3/3 761/3/3 769/3/3
f 771/3/3 769/3/3 768/3/3
f 772/3/3 769/3/3 771/3/3
f 777/1/3 774/1/3 773/1/3
f 777/1/3 775/1/3 774/1/3
f 778/1/3 775/1/3 777/1/3
f 781/1/3 777/1/3 776/1/3
f 781/1/3 779/1/3 778/1/3
f 781/1/3 778/1/3 777/1/3
f 782/1/3 779/1/3 781/1/3
f 784/1/3 781/1/3 780/1/3
f 784/1/3 783/1/3 782/1/3
f 784/1/3 782/1/3 781/1/3
f 785/1/3 784/1/3 780/1/3
f 786/1/3 784/1/3 785/1/3
f 787/1/3 784/1/3 786/1/3
f 788/1/3 784/1/3 787/1/3
f 789/1/3 787/1/3 786/1/3
f 790/1/3 787/1/3 789/1/3
f 791/1/3 787/1/3 790/1/3
f 792/1/3 787/1/3 791/1/3
f 793/1/3 791/1/3 790/1/3
f 794/1/3 791/1/3 793/1/3
f 795/1/3 791/1/3 794/1/3
f 800/1/3 797/1/3 796/1/3
f 800/1/3 798/1/3 797/1/3
f 801/1/3 798/1/3 800/1/3
f 804/1/3 801/1/3 800/1/3
f 804/1/3 802/1/3 801/1/3
f 804/1/3 800/1/3 799/1/3
f 805/1/3 802/1/3 804/1/3
f 807/1/3 805/1/3 804/1/3
f 807/1/3 806/1/3 805/1/3
f 807/1/3 804/1/3 803/1/3
f 808/1/3 807/1/3 803/1/3
f 809/1/3 807/1/3 808/1/3
f 810/1/3 807/1/3 809/1/3
f 811/1/3 807/1/3 810/1/3
f 812/1/3 810/1/3 809/1/3
f 813/1/3 810/1/3 812/1/3
f 814/1/3 810/1/3 813/1/3
f 815/1/3 810/1/3 814/1/3
f 816/1/3 814/1/3 813/1/3
f 817/1/3 814/1/3 816/1/3
f 818/1/3 814/1/3 817/1/3
f 823/3/3 820/3/3 819/3/3
f 824/3/3 820/3/3 823/3/3
f 825/3/3 822/3/3 821/3/3
f 826/3/3 822/3/3 825/3/3
f 830/3/3 829/3/3 828/3/3
f 831/3/3 829/3/3 830/3/3
f 832/3/3 827/3/3 826/3/3
f 833/3/3 827/3/3 832/3/3
f 836/3/3 830/3/3 828/3/3
f 837/3/3 836/3/3 835/3/3
f 838/3/3 830/3/3 836/3/3
f 838/3/3 836/3/3 837/3/3
f 839/3/3 830/3/3 838/3/3
f 841/3/3 834/3/3 833/3/3
f 842/3/3 834/3/3 841/3/3
f 846/3/3 844/3/3 843/3/3
f 847/3/3 844/3/3 846/3/3
f 849/3/3 841/3/3 840/3/3
f 850/3/3 841/3/3 849/3/3
f 851/3/3 846/3/3 845/3/3
f 852/3/3 846/3/3 851/3/3
f 854/3/3 849/3/3 848/3/3
f 855/3/3 849/3/3 854/3/3
f 858/3/3 854/3/3 853/3/3
f 859/3/3 854/3/3 858/3/3
f 860/3/3 857/3/3 856/3/3
f 861/3/3 857/3/3 860/3/3
f 866/3/3 863/3/3 862/3/3
f 867/3/3 863/3/3 866/3/3
f 869/3/3 865/3/3 864/3/3
f 870/3/3 865/3/3 869/3/3
f 872/3/3 868/3/3 867/3/3
f 873/3/3 868/3/3 872/3/3
f 875/3/3 871/3/3 870/3/3
f 876/3/3 871/3/3 875/3/3
f 880/3/3 874/3/3 873/3/3
f 881/3/3 874/3/3 880/3/3
f 883/3/3 879/3/3 878/3/3
f 883/3/3 878/3/3 877/3/3
f 884/3/3 879/3/3 883/3/3
f 885/3/3 879/3/3 884/3/3
f 888/3/3 882/3/3 881/3/3
f 889/3/3 882/3/3 888/3/3
f 890/3/3 886/3/3 885/3/3
f 890/3/3 885/3/3 884/3/3
f 891/3/3 886/3/3 890/3/3
f 895/3/3 888/3/3 887/3/3
f 896/3/3 888/3/3 895/3/3
f 897/3/3 893/3/3 892/3/3
f 898/3/3 893/3/3 897/3/3
f 899/3/3 895/3/3 894/3/3
f 900/3/3 895/3/3 899/3/3
f 903/2/3 902/2/3 901/2/3
f 904/2/3 902/2/3 903/2/3
f 908/2/3 906/2/3 905/2/3
f 908/2/3 907/2/3 906/2/3
f 909/2/3 907/2/3 908/2/3
f 912/2/3 911/2/3 910/2/3
f 913/2/3 911/2/3 912/2/3
f 916/2/3 915/2/3 914/2/3
f 917/2/3 915/2/3 916/2/3
f 918/2/3 915/2/3 917/2/3
f 923/2/3 920/2/3 919/2/3
f 923/2/3 922/2/3 921/2/3
f 923/2/3 921/2/3 920/2/3
f 924/2/3 922/2/3 923/2/3
f 925/2/3 922/2/3 924/2/3
f 926/2/3 924/2/3 923/2/3
f 927/2/3 924/2/3 926/2/3
f 929/2/3 927/2/3 926/2/3
f 929/2/3 928/2/3 927/2/3
f 930/2/3 928/2/3 929/2/3
f 931/2/3 928/2/3 930/2/3
f 932/2/3 928/2/3 931/2/3
f 933/3/4 934/3/4 937/3/4
f 937/3/4 934/3/4 938/3/4
f 935/3/4 936/3/4 939/3/4
f 939/3/4 936/3/4 940/3/4
f 942/3/4 943/3/4 944/3/4
f 944/3/4 943/3/4 945/3/4
f 940/3/4 941/3/4 946/3/4
f 946/3/4 941/3/4 947/3/4
f 942/3/4 944/3/4 950/3/4
f 949/3/4 950/3/4 951/3/4
f 950/3/4 944/3/4 952/3/4
f 951/3/4 950/3/4 952/3/4
f 952/3/4 944/3/4 953/3/4
f 947/3/4 948/3/4 955/3/4
f 955/3/4 948/3/4 956/3/4
f 957/3/4 958/3/4 960/3/4
f 960/3/4 958/3/4 961/3/4
f 954/3/4 955/3/4 963/3/4
f 963/3/4 955/3/4 964/3/4
f 959/3/4 960/3/4 965/3/4
f 965/3/4 960/3/4 966/3/4
f 962/3/4 963/3/4 968/3/4
f 968/3/4 963/3/4 969/3/4
f 967/3/4 968/3/4 972/3/4
f 972/3/4 968/3/4 973/3/4
f 970/3/4 971/3/4 974/3/4
f 974/3/4 971/3/4 975/3/4
f 976/3/4 977/3/4 980/3/4
f 980/3/4 977/3/4 981/3/4
f 978/3/4 979/3/4 983/3/4
f 983/3/4 979/3/4 984/3/4
f 981/3/4 982/3/4 986/3/4
f 986/3/4 982/3/4 987/3/4
f 984/3/4 985/3/4 989/3/4
f 989/3/4 985/3/4 990/3/4
f 987/3/4 988/3/4 994/3/4
f 994/3/4 988/3/4 995/3/4
f 992/3/4 993/3/4 997/3/4
f 991/3/4 992/3/4 997/3/4
f 997/3/4 993/3/4 998/3/4
f 998/3/4 993/3/4 999/3/4
f 995/3/4 996/3/4 1002/3/4
f 1002/3/4 996/3/4 1003/3/4
f 999/3/4 1000/3/4 1004/3/4
f 998/3/4 999/3/4 1004/3/4
f 1004/3/4 1000/3/4 1005/3/4
f 1001/3/4 1002/3/4 1009/3/4
f 1009/3/4 1002/3/4 1010/3/4
f 1006/3/4 1007/3/4 1011/3/4
f 1011/3/4 1007/3/4 1012/3/4
f 1008/3/4 1009/3/4 1013/3/4
f 1013/3/4 1009/3/4 1014/3/4
f 1015/2/4 1016/2/4 1018/2/4
f 1018/2/4 1016/2/4 1019/2/4
f 1017/2/4 1018/2/4 1022/2/4
f 1019/2/4 1020/2/4 1022/2/4
f 1018/2/4 1019/2/4 1022/2/4
f 1022/2/4 1020/2/4 1023/2/4
f 1021/2/4 1022/2/4 1025/2/4
f 1023/2/4 1024/2/4 1025/2/4
f 1022/2/4 1023/2/4 1025/2/4
f 1021/2/4 1025/2/4 1027/2/4
f 1025/2/4 1026/2/4 1027/2/4
f 1027/2/4 1026/2/4 1028/2/4
f 1021/2/4 1027/2/4 1029/2/4
f 1029/2/4 1027/2/4 1030/2/4
f 1030/2/4 1027/2/4 1031/2/4
f 1031/2/4 1027/2/4 1032/2/4
f 1030/2/4 1031/2/4 1033/2/4
f 1033/2/4 1031/2/4 1034/2/4
f 1034/2/4 1031/2/4 1035/2/4
f 1035/2/4 1031/2/4 1036/2/4
f 1034/2/4 1035/2/4 1037/2/4
f 1037/2/4 1035/2/4 1038/2/4
f 1039/2/4 1040/2/4 1042/2/4
f 1040/2/4 1041/2/4 1042/2/4
f 1042/2/4 1041/2/4 1043/2/4
f 1044/2/4 1045/2/4 1046/2/4
f 1046/2/4 1045/2/4 1047/2/4
f 1047/2/4 1045/2/4 1048/2/4
f 1049/2/4 1050/2/4 1053/2/4
f 1050/2/4 1051/2/4 1053/2/4
f 1053/2/4 1051/2/4 1054/2/4
f 1054/2/4 1051/2/4 1055/2/4
f 1052/2/4 1053/2/4 1056/2/4
f 1053/2/4 1054/2/4 1056/2/4
f 1056/2/4 1054/2/4 1057/2/4
f 1057/2/4 1054/2/4 1058/2/4
f 1058/2/4 1059/2/4 1060/2/4
f 1057/2/4 1058/2/4 1060/2/4
f 1060/2/4 1059/2/4 1061/2/4
f 1061/2/4 1059/2/4 1062/2/4
f 1063/1/4 1064/1/4 1066/1/4
f 1066/1/4 1064/1/4 1067/1/4
f 1065/1/4 1066/1/4 1069/1/4
f 1067/1/4 1068/1/4 1069/1/4
f 1066/1/4 1067/1/4 1069/1/4
f 1069/1/4 1068/1/4 1070/1/4
f 1065/1/4 1069/1/4 1072/1/4
f 1072/1/4 1069/1/4 1073/1/4
f 1073/1/4 1069/1/4 1074/1/4
f 1070/1/4 1068/1/4 1075/1/4
f 1075/1/4 1068/1/4 1076/1/4
f 1076/1/4 1068/1/4 1077/1/4
f 1071/1/4 1072/1/4 1079/1/4
f 1072/1/4 1073/1/4 1079/1/4
f 1079/1/4 1073/1/4 1080/1/4
f 1077/1/4 1078/1/4 1081/1/4
f 1076/1/4 1077/1/4 1081/1/4
f 1081/1/4 1078/1/4 1082/1/4
f 1071/1/4 1079/1/4 1084/1/4
f 1082/1/4 1078/1/4 1085/1/4
f 1085/1/4 1078/1/4 1086/1/4
f 1083/1/4 1084/1/4 1087/1/4
f 1084/1/4 1079/1/4 1087/1/4
f 1082/1/4 1085/1/4 1090/1/4
f 1087/1/4 1088/1/4 1091/1/4
f 1083/1/4 1087/1/4 1091/1/4
f 1091/1/4 1088/1/4 1092/1/4
f 1092/1/4 1088/1/4 1093/1/4
f 1089/1/4 1090/1/4 1096/1/4
f 1090/1/4 1085/1/4 1097/1/4
f 1096/1/4 1090/1/4 1097/1/4
f 1097/1/4 1085/1/4 1098/1/4
f 1093/1/4 1094/1/4 1099/1/4
f 1092/1/4 1093/1/4 1099/1/4
f 1099/1/4 1094/1/4 1100/1/4
f 1100/1/4 1094/1/4 1101/1/4
f 1095/1/4 1096/1/4 1102/1/4
f 1096/1/4 1097/1/4 1102/1/4
f 1102/1/4 1097/1/4 1103/1/4
f 1103/1/4 1097/1/4 1104/1/4
f 1100/1/4 1101/1/4 1105/1/4
f 1102/1/4 1103/1/4 1105/1/4
f 1101/1/4 1102/1/4 1105/1/4
f 1105/1/4 1103/1/4 1106/1/4
f 1106/1/4 1103/1/4 1107/1/4
f 1107/1/4 1103/1/4 1108/1/4
f 1106/1/4 1107/1/4 1110/1/4
f 1110/1/4 1107/1/4 1111/1/4
f 1109/1/4 1110/1/4 1114/1/4
f 1111/1/4 1112/1/4 1114/1/4
f 1110/1/4 1111/1/4 1114/1/4
f 1114/1/4 1112/1/4 1115/1/4
f 1115/1/4 1112/1/4 1116/1/4
f 1116/1/4 1112/1/4 1117/1/4
f 1113/1/4 1114/1/4 1120/1/4
f 1114/1/4 1115/1/4 1120/1/4
f 1120/1/4 1115/1/4 1121/1/4
f 1121/1/4 1115/1/4 1122/1/4
f 1116/1/4 1117/1/4 1123/1/4
f 1117/1/4 1118/1/4 1123/1/4
f 1123/1/4 1118/1/4 1124/1/4
f 1124/1/4 1118/1/4 1125/1/4
f 1120/1/4 1121/1/4 1127/1/4
f 1119/1/4 1120/1/4 1127/1/4
f 1127/1/4 1121/1/4 1128/1/4
f 1124/1/4 1125/1/4 1129/1/4
f 1125/1/4 1126/1/4 1129/1/4
f 1129/1/4 1126/1/4 1130/1/4
f 1119/1/4 1127/1/4 1131/1/4
f 1131/1/4 1127/1/4 1132/1/4
f 1130/1/4 1126/1/4 1133/1/4
f 1132/1/4 1127/1/4 1135/1/4
f 1130/1/4 1133/1/4 1138/1/4
f 1133/1/4 1134/1/4 1138/1/4
f 1135/1/4 1136/1/4 1139/1/4
f 1132/1/4 1135/1/4 1139/1/4
f 1139/1/4 1136/1/4 1140/1/4
f 1140/1/4 1136/1/4 1141/1/4
f 1137/1/4 1138/1/4 1144/1/4
f 1138/1/4 1134/1/4 1145/1/4
f 1144/1/4 1138/1/4 1145/1/4
f 1145/1/4 1134/1/4 1146/1/4
f 1141/1/4 1142/1/4 1147/1/4
f 1140/1/4 1141/1/4 1147/1/4
f 1143/1/4 1144/1/4 1148/1/4
f 1144/1/4 1145/1/4 1148/1/4
f 1140/1/4 1147/1/4 1149/1/4
f 1147/1/4 1148/1/4 1149/1/4
f 1149/1/4 1148/1/4 1150/1/4
f 1148/1/4 1145/1/4 1151/1/4
f 1150/1/4 1148/1/4 1151/1/4
f 1151/1/4 1145/1/4 1152/1/4
f 1150/1/4 1151/1/4 1153/1/4
f 1153/1/4 1151/1/4 1154/1/4
f 1155/3/4 1156/3/4 1158/3/4
f 1158/3/4 1156/3/4 1159/3/4
f 1157/3/4 1158/3/4 1162/3/4
f 1159/3/4 1160/3/4 1162/3/4
f 1158/3/4 1159/3/4 1162/3/4
f 1162/3/4 1160/3/4 1163/3/4
f 1161/3/4 1162/3/4 1165/3/4
f 1163/3/4 1164/3/4 1165/3/4
f 1162/3/4 1163/3/4 1165/3/4
f 1165/3/4 1164/3/4 1166/3/4
f 1166/3/4 1164/3/4 1167/3/4
f 1167/3/4 1164/3/4 1168/3/4
f 1166/3/4 1167/3/4 1169/3/4
f 1169/3/4 1167/3/4 1170/3/4
f 1170/3/4 1167/3/4 1171/3/4
f 1171/3/4 1167/3/4 1172/3/4
f 1170/3/4 1171/3/4 1173/3/4
f 1173/3/4 1171/3/4 1174/3/4
f 1175/3/4 1176/3/4 1178/3/4
f 1178/3/4 1176/3/4 1179/3/4
f 1178/3/4 1179/3/4 1182/3/4
f 1179/3/4 1180/3/4 1182/3/4
f 1177/3/4 1178/3/4 1182/3/4
f 1182/3/4 1180/3/4 1183/3/4
f 1182/3/4 1183/3/4 1185/3/4
f 1183/3/4 1184/3/4 1185/3/4
f 1181/3/4 1182/3/4 1185/3/4
f 1185/3/4 1184/3/4 1186/3/4
f 1186/3/4 1184/3/4 1187/3/4
f 1187/3/4 1184/3/4 1188/3/4
f 1186/3/4 1187/3/4 1189/3/4
f 1189/3/4 1187/3/4 1190/3/4
f 1190/3/4 1187/3/4 1191/3/4
f 1191/3/4 1187/3/4 1192/3/4
f 1190/3/4 1191/3/4 1193/3/4
f 1193/3/4 1191/3/4 1194/3/4
f 1195/2/4 1196/2/4 1198/2/4
f 1198/2/4 1196/2/4 1199/2/4
f 1199/2/4 1196/2/4 1200/2/4
f 1200/2/4 1196/2/4 1201/2/4
f 1197/2/4 1198/2/4 1204/2/4
f 1198/2/4 1199/2/4 1204/2/4
f 1204/2/4 1199/2/4 1205/2/4
f 1205/2/4 1199/2/4 1206/2/4
f 1200/2/4 1201/2/4 1207/2/4
f 1201/2/4 1202/2/4 1207/2/4
f 1207/2/4 1202/2/4 1208/2/4
f 1208/2/4 1202/2/4 1209/2/4
f 1204/2/4 1205/2/4 1211/2/4
f 1203/2/4 1204/2/4 1211/2/4
f 1211/2/4 1205/2/4 1212/2/4
f 1209/2/4 1210/2/4 1213/2/4
f 1208/2/4 1209/2/4 1213/2/4
f 1213/2/4 1210/2/4 1214/2/4
f 1203/2/4 1211/2/4 1215/2/4
f 1214/2/4 1210/2/4 1218/2/4
f 1215/2/4 1216/2/4 1219/2/4
f 1203/2/4 1215/2/4 1219/2/4
f 1219/2/4 1216/2/4 1220/2/4
f 1220/2/4 1216/2/4 1221/2/4
f 1217/2/4 1218/2/4 1224/2/4
f 1218/2/4 1210/2/4 1225/2/4
f 1224/2/4 1218/2/4 1225/2/4
f 1225/2/4 1210/2/4 1226/2/4
f 1221/2/4 1222/2/4 1227/2/4
f 1220/2/4 1221/2/4 1227/2/4
f 1227/2/4 1222/2/4 1228/2/4
f 1228/2/4 1222/2/4 1229/2/4
f 1223/2/4 1224/2/4 1230/2/4
f 1224/2/4 1225/2/4 1230/2/4
f 1230/2/4 1225/2/4 1231/2/4
f 1231/2/4 1225/2/4 1232/2/4
f 1228/2/4 1229/2/4 1233/2/4
f 1230/2/4 1231/2/4 1233/2/4
f 1229/2/4 1230/2/4 1233/2/4
f 1233/2/4 1231/2/4 1234/2/4
f 1235/2/4 1236/2/4 1238/2/4
f 1238/2/4 1236/2/4 1239/2/4
f 1239/2/4 1236/2/4 1240/2/4
f 1240/2/4 1236/2/4 1241/2/4
f 1237/2/4 1238/2/4 1244/2/4
f 1238/2/4 1239/2/4 1244/2/4
f 1244/2/4 1239/2/4 1245/2/4
f 1245/2/4 1239/2/4 1246/2/4
f 1240/2/4 1241/2/4 1247/2/4
f 1241/2/4 1242/2/4 1247/2/4
f 1247/2/4 1242/2/4 1248/2/4
f 1248/2/4 1242/2/4 1249/2/4
f 1244/2/4 1245/2/4 1251/2/4
f 1243/2/4 1244/2/4 1251/2/4
f 1251/2/4 1245/2/4 1252/2/4
f 1248/2/4 1249/2/4 1253/2/4
f 1249/2/4 1250/2/4 1253/2/4
f 1253/2/4 1250/2/4 1254/2/4
f 1243/2/4 1251/2/4 1255/2/4
f 1254/2/4 1250/2/4 1258/2/4
f 1255/2/4 1256/2/4 1259/2/4
f 1243/2/4 1255/2/4 1259/2/4
f 1259/2/4 1256/2/4 1260/2/4
f 1260/2/4 1256/2/4 1261/2/4
f 1257/2/4 1258/2/4 1264/2/4
f 1258/2/4 1250/2/4 1265/2/4
f 1264/2/4 1258/2/4 1265/2/4
f 1265/2/4 1250/2/4 1266/2/4
f 1261/2/4 1262/2/4 1267/2/4
f 1260/2/4 1261/2/4 1267/2/4
f 1267/2/4 1262/2/4 1268/2/4
f 1268/2/4 1262/2/4 1269/2/4
f 1263/2/4 1264/2/4 1270/2/4
f 1264/2/4 1265/2/4 1270/2/4
f 1270/2/4 1265/2/4 1271/2/4
f 1271/2/4 1265/2/4 1272/2/4
f 1268/2/4 1269/2/4 1273/2/4
f 1270/2/4 1271/2/4 1273/2/4
f 1269/2/4 1270/2/4 1273/2/4
f 1273/2/4 1271/2/4 1274/2/4
f 1277/3/5 1276/3/5 1275/3/5
f 1278/3/5 1276/3/5 1277/3/5
f 1280/2/5 1278/2/5 1277/2/5
f 1281/2/5 1278/2/5 1280/2/5
f 1283/3/5 1281/3/5 1280/3/5
f 1283/3/5 1282/3/5 1281/3/5
f 1283/3/5 1280/3/5 1279/3/5
f 1284/3/5 1282/3/5 1283/3/5
f 1285/3/5 1282/3/5 1284/3/5
f 1286/3/5 1282/3/5 1285/3/5
f 1287/2/5 1285/2/5 1284/2/5
f 1288/2/5 1285/2/5 1287/2/5
f 1293/3/5 1290/3/5 1289/3/5
f 1294/3/5 1290/3/5 1293/3/5
f 1295/3/5 1292/3/5 1291/3/5
f 1296/3/5 1292/3/5 1295/3/5
f 1298/2/5 1294/2/5 1293/2/5
f 1299/2/5 1294/2/5 1298/2/5
f 1300/2/5 1296/2/5 1295/2/5
f 1301/2/5 1296/2/5 1300/2/5
f 1303/3/5 1298/3/5 1297/3/5
f 1304/3/5 1298/3/5 1303/3/5
f 1307/3/5 1302/3/5 1301/3/5
f 1308/3/5 1302/3/5 1307/3/5
f 1309/2/5 1305/2/5 1304/2/5
f 1310/2/5 1305/2/5 1309/2/5
f 1311/2/5 1307/2/5 1306/2/5
f 1312/2/5 1307/2/5 1311/2/5
f 1317/3/5 1314/3/5 1313/3/5
f 1318/3/5 1314/3/5 1317/3/5
f 1319/3/5 1316/3/5 1315/3/5
f 1320/3/5 1316/3/5 1319/3/5
f 1322/2/5 1318/2/5 1317/2/5
f 1323/2/5 1318/2/5 1322/2/5
f 1324/2/5 1318/2/5 1323/2/5
f 1325/2/5 1320/2/5 1319/2/5
f 1326/2/5 1320/2/5 1325/2/5
f 1327/2/5 1320/2/5 1326/2/5
f 1329/3/5 1322/3/5 1321/3/5
f 1329/3/5 1323/3/5 1322/3/5
f 1330/3/5 1323/3/5 1329/3/5
f 1331/3/5 1323/3/5 1330/3/5
f 1334/3/5 1327/3/5 1326/3/5
f 1334/3/5 1328/3/5 1327/3/5
f 1335/3/5 1328/3/5 1334/3/5
f 1336/3/5 1328/3/5 1335/3/5
f 1337/2/5 1332/2/5 1331/2/5
f 1337/2/5 1331/2/5 1330/2/5
f 1338/2/5 1332/2/5 1337/2/5
f 1339/2/5 1335/2/5 1334/2/5
f 1339/2/5 1334/2/5 1333/2/5
f 1340/2/5 1335/2/5 1339/2/5
f 1345/3/5 1342/3/5 1341/3/5
f 1346/3/5 1342/3/5 1345/3/5
f 1347/3/5 1344/3/5 1343/3/5
f 1348/3/5 1344/3/5 1347/3/5
f 1353/1/5 1350/1/5 1349/1/5
f 1354/1/5 1350/1/5 1353/1/5
f 1355/1/5 1352/1/5 1351/1/5
f 1356/1/5 1352/1/5 1355/1/5
f 1361/3/5 1358/3/5 1357/3/5
f 1362/3/5 1358/3/5 1361/3/5
f 1363/3/5 1360/3/5 1359/3/5
f 1364/3/5 1360/3/5 1363/3/5
f 1365/1/5 1362/1/5 1361/1/5
f 1366/1/5 1362/1/5 1365/1/5
f 1367/1/5 1364/1/5 1363/1/5
f 1368/1/5 1364/1/5 1367/1/5
f 1377/1/5 1370/1/5 1369/1/5
f 1378/1/5 1370/1/5 1377/1/5
f 1379/1/5 1374/1/5 1373/1/5
f 1380/1/5 1374/1/5 1379/1/5
f 1381/1/5 1376/1/5 1375/1/5
f 1382/1/5 1376/1/5 1381/1/5
f 1383/1/5 1372/1/5 1371/1/5
f 1384/1/5 1372/1/5 1383/1/5
f 1389/1/5 1386/1/5 1385/1/5
f 1390/1/5 1386/1/5 1389/1/5
f 1391/1/5 1388/1/5 1387/1/5
f 1392/1/5 1388/1/5 1391/1/5
f 1397/3/5 1394/3/5 1393/3/5
f 1398/3/5 1394/3/5 1397/3/5
f 1399/3/5 1396/3/5 1395/3/5
f 1400/3/5 1396/3/5 1399/3/5
f 1402/1/5 1398/1/5 1397/1/5
f 1403/1/5 1398/1/5 1402/1/5
f 1404/1/5 1398/1/5 1403/1/5
f 1405/1/5 1400/1/5 1399/1/5
f 1406/1/5 1400/1/5 1405/1/5
f 1407/1/5 1400/1/5 1406/1/5
f 1409/3/5 1402/3/5 1401/3/5
f 1409/3/5 1403/3/5 1402/3/5
f 1410/3/5 1403/3/5 1409/3/5
f 1411/3/5 1403/3/5 1410/3/5
f 1414/3/5 1407/3/5 1406/3/5
f 1414/3/5 1408/3/5 1407/3/5
f 1415/3/5 1408/3/5 1414/3/5
f 1416/3/5 1408/3/5 1415/3/5
f 1417/1/5 1412/1/5 1411/1/5
f 1417/1/5 1411/1/5 1410/1/5
f 1418/1/5 1412/1/5 1417/1/5
f 1423/1/5 1415/1/5 1414/1/5
f 1423/1/5 1414/1/5 1413/1/5
f 1424/1/5 1415/1/5 1423/1/5
f 1425/2/5 1420/2/5 1419/2/5
f 1426/2/5 1420/2/5 1425/2/5
f 1427/2/5 1422/2/5 1421/2/5
f 1428/2/5 1422/2/5 1427/2/5
f 1435/1/5 1430/1/5 1429/1/5
f 1436/1/5 1430/1/5 1435/1/5
f 1441/2/5 1432/2/5 1431/2/5
f 1442/2/5 1432/2/5 1441/2/5
f 1443/2/5 1434/2/5 1433/2/5
f 1444/2/5 1434/2/5 1443/2/5
f 1445/2/5 1438/2/5 1437/2/5
f 1446/2/5 1438/2/5 1445/2/5
f 1447/2/5 1440/2/5 1439/2/5
f 1448/2/5 1440/2/5 1447/2/5
f 1457/2/5 1450/2/5 1449/2/5
f 1458/2/5 1450/2/5 1457/2/5
f 1459/2/5 1452/2/5 1451/2/5
f 1460/2/5 1452/2/5 1459/2/5
f 1461/2/5 1454/2/5 1453/2/5
f 1462/2/5 1454/2/5 1461/2/5
f 1463/2/5 1456/2/5 1455/2/5
f 1464/2/5 1456/2/5 1463/2/5
f 1469/3/5 1466/3/5 1465/3/5
f 1470/3/5 1466/3/5 1469/3/5
f 1471/3/5 1468/3/5 1467/3/5
f 1472/3/5 1468/3/5 1471/3/5
f 1473/1/5 1470/1/5 1469/1/5
f 1474/1/5 1470/1/5 1473/1/5
f 1475/1/5 1472/1/5 1471/1/5
f 1476/1/5 1472/1/5 1475/1/5
f 1481/1/5 1478/1/5 1477/1/5
f 1482/1/5 1478/1/5 1481/1/5
f 1483/1/5 1480/1/5 1479/1/5
f 1484/1/5 1480/1/5 1483/1/5
f 1493/2/5 1486/2/5 1485/2/5
f 1494/2/5 1486/2/5 1493/2/5
f 1495/2/5 1488/2/5 1487/2/5
f 1496/2/5 1488/2/5 1495/2/5
f 1497/2/5 1490/2/5 1489/2/5
f 1498/2/5 1490/2/5 1497/2/5
f 1499/2/5 1492/2/5 1491/2/5
f 1500/2/5 1492/2/5 1499/2/5
f 1509/1/5 1502/1/5 1501/1/5
f 1510/1/5 1502/1/5 1509/1/5
f 1511/1/5 1504/1/5 1503/1/5
f 1512/1/5 1504/1/5 1511/1/5
f 1513/1/5 1506/1/5 1505/1/5
f 1514/1/5 1506/1/5 1513/1/5
f 1515/1/5 1508/1/5 1507/1/5
f 1516/1/5 1508/1/5 1515/1/5
f 1525/2/5 1518/2/5 1517/2/5
f 1526/2/5 1518/2/5 1525/2/5
f 1527/2/5 1520/2/5 1519/2/5
f 1528/2/5 1520/2/5 1527/2/5
f 1529/2/5 1522/2/5 1521/2/5
f 1530/2/5 1522/2/5 1529/2/5
f 1531/2/5 1524/2/5 1523/2/5
f 1532/2/5 1524/2/5 1531/2/5
f 1541/1/5 1534/1/5 1533/1/5
f 1542/1/5 1534/1/5 1541/1/5
f 1543/1/5 1536/1/5 1535/1/5
f 1544/1/5 1536/1/5 1543/1/5
f 1545/1/5 1538/1/5 1537/1/5
f 1546/1/5 1538/1/5 1545/1/5
f 1547/1/5 1540/1/5 1539/1/5
f 1548/1/5 1540/1/5 1547/1/5
f 1553/2/5 1550/2/5 1549/2/5
f 1554/2/5 1550/2/5 1553/2/5
f 1555/2/5 1552/2/5 1551/2/5
f 1556/2/5 1552/2/5 1555/2/5
f 1563/1/5 1558/1/5 1557/1/5
f 1564/3/5 1559/3/5 1558/3/5
f 1564/1/5 1558/1/5 1563/1/5
f 1565/3/5 1559/3/5 1564/3/5
f 1566/3/5 1561/3/5 1560/3/5
f 1567/1/5 1562/1/5 1561/1/5
f 1567/3/5 1561/3/5 1566/3/5
f 1568/1/5 1562/1/5 1567/1/5
f 1569/1/6 1570/1/6 1573/1/6
f 1573/1/6 1570/1/6 1574/1/6
f 1571/1/6 1572/1/6 1575/1/6
f 1575/1/6 1572/1/6 1576/1/6
f 1577/1/6 1578/1/6 1585/1/6
f 1585/1/6 1578/1/6 1586/1/6
f 1579/1/6 1580/1/6 1587/1/6
f 1587/1/6 1580/1/6 1588/1/6
f 1581/1/6 1582/1/6 1589/1/6
f 1589/1/6 1582/1/6 1590/1/6
f 1583/1/6 1584/1/6 1591/1/6
f 1591/1/6 1584/1/6 1592/1/6
f 1593/2/6 1594/2/6 1597/2/6
f 1597/2/6 1594/2/6 1598/2/6
f 1595/2/6 1596/2/6 1599/2/6
f 1599/2/6 1596/2/6 1600/2/6
f 1601/1/6 1602/1/6 1609/1/6
f 1609/1/6 1602/1/6 1610/1/6
f 1603/1/6 1604/1/6 1611/1/6
f 1611/1/6 1604/1/6 1612/1/6
f 1605/1/6 1606/1/6 1613/1/6
f 1613/1/6 1606/1/6 1614/1/6
f 1607/1/6 1608/1/6 1615/1/6
f 1615/1/6 1608/1/6 1616/1/6
f 1617/2/6 1618/2/6 1625/2/6
f 1625/2/6 1618/2/6 1626/2/6
f 1619/2/6 1620/2/6 1627/2/6
f 1627/2/6 1620/2/6 1628/2/6
f 1621/2/6 1622/2/6 1629/2/6
f 1629/2/6 1622/2/6 1630/2/6
f 1623/2/6 1624/2/6 1631/2/6
f 1631/2/6 1624/2/6 1632/2/6
f 1633/2/6 1634/2/6 1641/2/6
f 1641/2/6 1634/2/6 1642/2/6
f 1635/2/6 1636/2/6 1643/2/6
f 1643/2/6 1636/2/6 1644/2/6
f 1637/2/6 1638/2/6 1645/2/6
f 1645/2/6 1638/2/6 1646/2/6
f 1639/2/6 1640/2/6 1647/2/6
f 1647/2/6 1640/2/6 1648/2/6
f 1649/3/6 1650/3/6 1651/3/6
f 1651/3/6 1650/3/6 1652/3/6
f 1651/1/6 1652/1/6 1653/1/6
f 1653/1/6 1652/1/6 1654/1/6
f 1655/1/6 1656/1/6 1657/1/6
f 1657/1/6 1656/1/6 1658/1/6
f 1659/1/6 1660/1/6 1661/1/6
f 1661/1/6 1660/1/6 1662/1/6
f 1663/3/6 1664/3/6 1665/3/6
f 1665/3/6 1664/3/6 1666/3/6
f 1667/2/6 1668/2/6 1669/2/6
f 1669/2/6 1668/2/6 1670/2/6
f 1671/2/6 1672/2/6 1679/2/6
f 1679/2/6 1672/2/6 1680/2/6
f 1673/2/6 1674/2/6 1681/2/6
f 1681/2/6 1674/2/6 1682/2/6
f 1675/2/6 1676/2/6 1683/2/6
f 1683/2/6 1676/2/6 1684/2/6
f 1677/2/6 1678/2/6 1685/2/6
f 1685/2/6 1678/2/6 1686/2/6
f 1687/3/6 1688/3/6 1691/3/6
f 1691/3/6 1688/3/6 1692/3/6
f 1689/3/6 1690/3/6 1693/3/6
f 1693/3/6 1690/3/6 1694/3/6
f 1691/1/6 1692/1/6 1695/1/6
f 1695/1/6 1692/1/6 1696/1/6
f 1693/1/6 1694/1/6 1697/1/6
f 1697/1/6 1694/1/6 1698/1/6
f 1699/1/6 1700/1/6 1703/1/6
f 1701/1/6 1702/1/6 1704/1/6
f 1699/1/6 1703/1/6 1705/1/6
f 1703/2/6 1704/2/6 1706/2/6
f 1705/1/6 1703/1/6 1706/1/6
f 1704/1/6 1702/1/6 1707/1/6
f 1706/2/6 1704/2/6 1707/2/6
f 1707/1/6 1702/1/6 1708/1/6
f 1709/1/6 1710/1/6 1717/1/6
f 1717/1/6 1710/1/6 1718/1/6
f 1711/1/6 1712/1/6 1719/1/6
f 1719/1/6 1712/1/6 1720/1/6
f 1713/2/6 1714/2/6 1725/2/6
f 1725/2/6 1714/2/6 1726/2/6
f 1715/2/6 1716/2/6 1727/2/6
f 1727/2/6 1716/2/6 1728/2/6
f 1721/2/6 1722/2/6 1729/2/6
f 1729/2/6 1722/2/6 1730/2/6
f 1723/2/6 1724/2/6 1731/2/6
f 1731/2/6 1724/2/6 1732/2/6
f 1733/3/6 1734/3/6 1741/3/6
f 1741/3/6 1734/3/6 1742/3/6
f 1735/3/6 1736/3/6 1743/3/6
f 1743/3/6 1736/3/6 1744/3/6
f 1737/3/6 1738/3/6 1745/3/6
f 1745/3/6 1738/3/6 1746/3/6
f 1739/3/6 1740/3/6 1747/3/6
f 1747/3/6 1740/3/6 1748/3/6
f 1741/1/6 1742/1/6 1749/1/6
f 1749/1/6 1742/1/6 1750/1/6
f 1743/1/6 1744/1/6 1751/1/6
f 1751/1/6 1744/1/6 1752/1/6
f 1745/1/6 1746/1/6 1755/1/6
f 1755/1/6 1746/1/6 1756/1/6
f 1747/1/6 1748/1/6 1757/1/6
f 1757/1/6 1748/1/6 1758/1/6
f 1752/3/6 1753/3/6 1762/3/6
f 1762/3/6 1753/3/6 1763/3/6
f 1754/3/6 1755/3/6 1764/3/6
f 1764/3/6 1755/3/6 1765/3/6
f 1761/1/6 1762/1/6 1769/1/6
f 1769/1/6 1762/1/6 1770/1/6
f 1765/1/6 1766/1/6 1771/1/6
f 1771/1/6 1766/1/6 1772/1/6
f 1773/1/6 1774/1/6 1777/1/6
f 1775/1/6 1776/1/6 1778/1/6
f 1759/1/6 1760/1/6 1779/1/6
f 1779/1/6 1760/1/6 1780/1/6
f 1773/1/6 1777/1/6 1783/1/6
f 1783/1/6 1777/1/6 1784/1/6
f 1778/1/6 1776/1/6 1785/1/6
f 1785/1/6 1776/1/6 1786/1/6
f 1767/1/6 1768/1/6 1789/1/6
f 1789/1/6 1768/1/6 1790/1/6
f 1781/2/6 1782/2/6 1791/2/6
f 1791/2/6 1782/2/6 1792/2/6
f 1787/2/6 1788/2/6 1793/2/6
f 1793/2/6 1788/2/6 1794/2/6
f 1795/3/6 1796/3/6 1803/3/6
f 1803/3/6 1796/3/6 1804/3/6
f 1797/3/6 1798/3/6 1805/3/6
f 1805/3/6 1798/3/6 1806/3/6
f 1799/3/6 1800/3/6 1807/3/6
f 1807/3/6 1800/3/6 1808/3/6
f 1801/3/6 1802/3/6 1809/3/6
f 1809/3/6 1802/3/6 1810/3/6
f 1803/1/6 1804/1/6 1812/1/6
f 1812/1/6 1804/1/6 1813/1/6
f 1805/1/6 1806/1/6 1814/1/6
f 1814/1/6 1806/1/6 1815/1/6
f 1807/1/6 1808/1/6 1818/1/6
f 1818/1/6 1808/1/6 1819/1/6
f 1809/1/6 1810/1/6 1820/1/6
f 1820/1/6 1810/1/6 1821/1/6
f 1811/3/6 1812/3/6 1823/3/6
f 1823/3/6 1812/3/6 1824/3/6
f 1815/3/6 1816/3/6 1827/3/6
f 1827/3/6 1816/3/6 1828/3/6
f 1817/3/6 1818/3/6 1829/3/6
f 1829/3/6 1818/3/6 1830/3/6
f 1821/3/6 1822/3/6 1833/3/6
f 1833/3/6 1822/3/6 1834/3/6
f 1826/1/6 1827/1/6 1835/1/6
f 1830/1/6 1831/1/6 1836/1/6
f 1826/1/6 1835/1/6 1837/1/6
f 1836/1/6 1831/1/6 1838/1/6
f 1824/1/6 1825/1/6 1839/1/6
f 1839/1/6 1825/1/6 1840/1/6
f 1826/1/6 1837/1/6 1841/1/6
f 1841/1/6 1837/1/6 1842/1/6
f 1838/1/6 1831/1/6 1843/1/6
f 1843/1/6 1831/1/6 1844/1/6
f 1832/1/6 1833/1/6 1845/1/6
f 1845/1/6 1833/1/6 1846/1/6
f 1847/3/6 1848/3/6 1851/3/6
f 1851/3/6 1848/3/6 1852/3/6
f 1849/3/6 1850/3/6 1853/3/6
f 1853/3/6 1850/3/6 1854/3/6
f 1851/1/6 1852/1/6 1856/1/6
f 1856/1/6 1852/1/6 1857/1/6
f 1853/1/6 1854/1/6 1860/1/6
f 1860/1/6 1854/1/6 1861/1/6
f 1855/3/6 1856/3/6 1863/3/6
f 1863/3/6 1856/3/6 1864/3/6
f 1857/3/6 1858/3/6 1865/3/6
f 1865/3/6 1858/3/6 1866/3/6
f 1859/3/6 1860/3/6 1867/3/6
f 1867/3/6 1860/3/6 1868/3/6
f 1861/3/6 1862/3/6 1869/3/6
f 1869/3/6 1862/3/6 1870/3/6
f 1871/2/6 1872/2/6 1873/2/6
f 1873/2/6 1872/2/6 1874/2/6
f 1864/1/6 1865/1/6 1875/1/6
f 1875/1/6 1865/1/6 1876/1/6
f 1868/1/6 1869/1/6 1877/1/6
f 1877/1/6 1869/1/6 1878/1/6
f 1879/3/6 1880/3/6 1883/3/6
f 1883/3/6 1880/3/6 1884/3/6
f 1881/3/6 1882/3/6 1885/3/6
f 1885/3/6 1882/3/6 1886/3/6
f 1887/2/6 1888/2/6 1891/2/6
f 1891/2/6 1888/2/6 1892/2/6
f 1889/2/6 1890/2/6 1893/2/6
f 1893/2/6 1890/2/6 1894/2/6
f 1895/2/6 1896/2/6 1899/2/6
f 1899/2/6 1896/2/6 1900/2/6
f 1897/2/6 1898/2/6 1901/2/6
f 1901/2/6 1898/2/6 1902/2/6
