# MagicaVoxel @ Ephtracy

# group
o 

# material
mtllib escopet-1.mtl
usemtl palette

# normals
vn -1 0 0
vn 1 0 0
vn 0 0 1
vn 0 0 -1
vn 0 -1 0
vn 0 1 0

# texcoords
vt 0.0136719 0.5
vt 0.841797 0.5

# verts
v -1.1 2.3 2.3
v -1.1 2.3 2.2
v -1.1 2.3 1.2
v -1.1 2.3 0.9
v -1.1 2.4 2.2
v -1.1 2.4 1.2
v -1.1 2.7 2.2
v -1.1 2.7 1.2
v -1.1 2.8 2.3
v -1.1 2.8 2.2
v -1.1 2.8 1.2
v -1.1 2.8 0.9
v -1 2.2 2.3
v -1 2.2 2.2
v -1 2.2 1.2
v -1 2.2 0.9
v -1 2.3 2.3
v -1 2.3 2.2
v -1 2.3 1.2
v -1 2.3 0.9
v -1 2.4 2.2
v -1 2.4 1.2
v -1 2.7 2.2
v -1 2.7 1.2
v -1 2.8 2.3
v -1 2.8 2.2
v -1 2.8 1.2
v -1 2.8 0.9
v -1 2.9 2.3
v -1 2.9 2.2
v -1 2.9 1.2
v -1 2.9 0.9
v -0.9 2.1 2.3
v -0.9 2.1 2.2
v -0.9 2.1 1.2
v -0.9 2.1 0.9
v -0.9 2.2 2.3
v -0.9 2.2 2.2
v -0.9 2.2 1.2
v -0.9 2.2 0.9
v -0.9 2.3 2.2
v -0.9 2.3 1.2
v -0.9 2.8 2.2
v -0.9 2.8 1.2
v -0.9 2.9 2.3
v -0.9 2.9 2.2
v -0.9 2.9 1.2
v -0.9 2.9 0.9
v -0.9 3 2.3
v -0.9 3 2.2
v -0.9 3 1.2
v -0.9 3 0.9
v -0.4 2.2 2.3
v -0.4 2.2 2.2
v -0.4 2.3 2.3
v -0.4 2.3 2.2
v -0.4 2.8 2.3
v -0.4 2.8 2.2
v -0.4 2.9 2.3
v -0.4 2.9 2.2
v -0.3 2.3 2.3
v -0.3 2.3 2.2
v -0.3 2.8 2.3
v -0.3 2.8 2.2
v 0.2 2.3 2.3
v 0.2 2.3 2.2
v 0.2 2.3 1.2
v 0.2 2.3 0.9
v 0.2 2.4 2.2
v 0.2 2.4 1.2
v 0.2 2.7 2.2
v 0.2 2.7 1.2
v 0.2 2.8 2.3
v 0.2 2.8 2.2
v 0.2 2.8 1.2
v 0.2 2.8 0.9
v 0.3 2.2 2.3
v 0.3 2.2 2.2
v 0.3 2.2 1.2
v 0.3 2.2 0.9
v 0.3 2.3 2.3
v 0.3 2.3 2.2
v 0.3 2.3 1.2
v 0.3 2.3 0.9
v 0.3 2.4 2.2
v 0.3 2.4 1.2
v 0.3 2.7 2.2
v 0.3 2.7 1.2
v 0.3 2.8 2.3
v 0.3 2.8 2.2
v 0.3 2.8 1.2
v 0.3 2.8 0.9
v 0.3 2.9 2.3
v 0.3 2.9 2.2
v 0.3 2.9 1.2
v 0.3 2.9 0.9
v 0.4 2.1 2.3
v 0.4 2.1 2.2
v 0.4 2.1 1.2
v 0.4 2.1 0.9
v 0.4 2.2 2.3
v 0.4 2.2 2.2
v 0.4 2.2 1.2
v 0.4 2.2 0.9
v 0.4 2.3 2.2
v 0.4 2.3 1.2
v 0.4 2.8 2.2
v 0.4 2.8 1.2
v 0.4 2.9 2.3
v 0.4 2.9 2.2
v 0.4 2.9 1.2
v 0.4 2.9 0.9
v 0.4 3 2.3
v 0.4 3 2.2
v 0.4 3 1.2
v 0.4 3 0.9
v 0.9 2.2 2.3
v 0.9 2.2 2.2
v 0.9 2.3 2.3
v 0.9 2.3 2.2
v 0.9 2.8 2.3
v 0.9 2.8 2.2
v 0.9 2.9 2.3
v 0.9 2.9 2.2
v 1 2.3 2.3
v 1 2.3 2.2
v 1 2.8 2.3
v 1 2.8 2.2
v -1 2.3 2.3
v -1 2.3 2.2
v -1 2.8 2.3
v -1 2.8 2.2
v -0.9 2.2 2.3
v -0.9 2.2 2.2
v -0.9 2.3 2.3
v -0.9 2.3 2.2
v -0.9 2.8 2.3
v -0.9 2.8 2.2
v -0.9 2.9 2.3
v -0.9 2.9 2.2
v -0.4 2.1 2.3
v -0.4 2.1 2.2
v -0.4 2.1 1.2
v -0.4 2.1 0.9
v -0.4 2.2 2.3
v -0.4 2.2 2.2
v -0.4 2.2 1.2
v -0.4 2.2 0.9
v -0.4 2.3 2.2
v -0.4 2.3 1.2
v -0.4 2.8 2.2
v -0.4 2.8 1.2
v -0.4 2.9 2.3
v -0.4 2.9 2.2
v -0.4 2.9 1.2
v -0.4 2.9 0.9
v -0.4 3 2.3
v -0.4 3 2.2
v -0.4 3 1.2
v -0.4 3 0.9
v -0.3 2.2 2.3
v -0.3 2.2 2.2
v -0.3 2.2 1.2
v -0.3 2.2 0.9
v -0.3 2.3 2.3
v -0.3 2.3 2.2
v -0.3 2.3 1.2
v -0.3 2.3 0.9
v -0.3 2.4 2.2
v -0.3 2.4 1.2
v -0.3 2.7 2.2
v -0.3 2.7 1.2
v -0.3 2.8 2.3
v -0.3 2.8 2.2
v -0.3 2.8 1.2
v -0.3 2.8 0.9
v -0.3 2.9 2.3
v -0.3 2.9 2.2
v -0.3 2.9 1.2
v -0.3 2.9 0.9
v -0.2 2.3 2.3
v -0.2 2.3 2.2
v -0.2 2.3 1.2
v -0.2 2.3 0.9
v -0.2 2.4 2.2
v -0.2 2.4 1.2
v -0.2 2.7 2.2
v -0.2 2.7 1.2
v -0.2 2.8 2.3
v -0.2 2.8 2.2
v -0.2 2.8 1.2
v -0.2 2.8 0.9
v 0.3 2.3 2.3
v 0.3 2.3 2.2
v 0.3 2.8 2.3
v 0.3 2.8 2.2
v 0.4 2.2 2.3
v 0.4 2.2 2.2
v 0.4 2.3 2.3
v 0.4 2.3 2.2
v 0.4 2.8 2.3
v 0.4 2.8 2.2
v 0.4 2.9 2.3
v 0.4 2.9 2.2
v 0.9 2.1 2.3
v 0.9 2.1 2.2
v 0.9 2.1 1.2
v 0.9 2.1 0.9
v 0.9 2.2 2.3
v 0.9 2.2 2.2
v 0.9 2.2 1.2
v 0.9 2.2 0.9
v 0.9 2.3 2.2
v 0.9 2.3 1.2
v 0.9 2.8 2.2
v 0.9 2.8 1.2
v 0.9 2.9 2.3
v 0.9 2.9 2.2
v 0.9 2.9 1.2
v 0.9 2.9 0.9
v 0.9 3 2.3
v 0.9 3 2.2
v 0.9 3 1.2
v 0.9 3 0.9
v 1 2.2 2.3
v 1 2.2 2.2
v 1 2.2 1.2
v 1 2.2 0.9
v 1 2.3 2.3
v 1 2.3 2.2
v 1 2.3 1.2
v 1 2.3 0.9
v 1 2.4 2.2
v 1 2.4 1.2
v 1 2.7 2.2
v 1 2.7 1.2
v 1 2.8 2.3
v 1 2.8 2.2
v 1 2.8 1.2
v 1 2.8 0.9
v 1 2.9 2.3
v 1 2.9 2.2
v 1 2.9 1.2
v 1 2.9 0.9
v 1.1 2.3 2.3
v 1.1 2.3 2.2
v 1.1 2.3 1.2
v 1.1 2.3 0.9
v 1.1 2.4 2.2
v 1.1 2.4 1.2
v 1.1 2.7 2.2
v 1.1 2.7 1.2
v 1.1 2.8 2.3
v 1.1 2.8 2.2
v 1.1 2.8 1.2
v 1.1 2.8 0.9
v -1.1 2.3 2.3
v -1.1 2.8 2.3
v -1 2.2 2.3
v -1 2.3 2.3
v -1 2.8 2.3
v -1 2.9 2.3
v -0.9 2.1 2.3
v -0.9 2.2 2.3
v -0.9 2.3 2.3
v -0.9 2.8 2.3
v -0.9 2.9 2.3
v -0.9 3 2.3
v -0.4 2.1 2.3
v -0.4 2.2 2.3
v -0.4 2.3 2.3
v -0.4 2.8 2.3
v -0.4 2.9 2.3
v -0.4 3 2.3
v -0.3 2.2 2.3
v -0.3 2.3 2.3
v -0.3 2.8 2.3
v -0.3 2.9 2.3
v -0.2 2.3 2.3
v -0.2 2.8 2.3
v 0.2 2.3 2.3
v 0.2 2.8 2.3
v 0.3 2.2 2.3
v 0.3 2.3 2.3
v 0.3 2.8 2.3
v 0.3 2.9 2.3
v 0.4 2.1 2.3
v 0.4 2.2 2.3
v 0.4 2.3 2.3
v 0.4 2.8 2.3
v 0.4 2.9 2.3
v 0.4 3 2.3
v 0.9 2.1 2.3
v 0.9 2.2 2.3
v 0.9 2.3 2.3
v 0.9 2.8 2.3
v 0.9 2.9 2.3
v 0.9 3 2.3
v 1 2.2 2.3
v 1 2.3 2.3
v 1 2.8 2.3
v 1 2.9 2.3
v 1.1 2.3 2.3
v 1.1 2.8 2.3
v -1 2.3 2.2
v -1 2.8 2.2
v -0.9 2.2 2.2
v -0.9 2.3 2.2
v -0.9 2.8 2.2
v -0.9 2.9 2.2
v -0.4 2.2 2.2
v -0.4 2.3 2.2
v -0.4 2.8 2.2
v -0.4 2.9 2.2
v -0.3 2.3 2.2
v -0.3 2.8 2.2
v 0.3 2.3 2.2
v 0.3 2.8 2.2
v 0.4 2.2 2.2
v 0.4 2.3 2.2
v 0.4 2.8 2.2
v 0.4 2.9 2.2
v 0.9 2.2 2.2
v 0.9 2.3 2.2
v 0.9 2.8 2.2
v 0.9 2.9 2.2
v 1 2.3 2.2
v 1 2.8 2.2
v -1.1 2.3 1.2
v -1.1 2.4 1.2
v -1.1 2.7 1.2
v -1.1 2.8 1.2
v -1 2.2 1.2
v -1 2.3 1.2
v -1 2.4 1.2
v -1 2.7 1.2
v -1 2.8 1.2
v -1 2.9 1.2
v -0.9 2.1 1.2
v -0.9 2.2 1.2
v -0.9 2.3 1.2
v -0.9 2.8 1.2
v -0.9 2.9 1.2
v -0.9 3 1.2
v -0.4 2.1 1.2
v -0.4 2.2 1.2
v -0.4 2.3 1.2
v -0.4 2.8 1.2
v -0.4 2.9 1.2
v -0.4 3 1.2
v -0.3 2.2 1.2
v -0.3 2.3 1.2
v -0.3 2.4 1.2
v -0.3 2.7 1.2
v -0.3 2.8 1.2
v -0.3 2.9 1.2
v -0.2 2.3 1.2
v -0.2 2.4 1.2
v -0.2 2.7 1.2
v -0.2 2.8 1.2
v 0.2 2.3 1.2
v 0.2 2.4 1.2
v 0.2 2.7 1.2
v 0.2 2.8 1.2
v 0.3 2.2 1.2
v 0.3 2.3 1.2
v 0.3 2.4 1.2
v 0.3 2.7 1.2
v 0.3 2.8 1.2
v 0.3 2.9 1.2
v 0.4 2.1 1.2
v 0.4 2.2 1.2
v 0.4 2.3 1.2
v 0.4 2.8 1.2
v 0.4 2.9 1.2
v 0.4 3 1.2
v 0.9 2.1 1.2
v 0.9 2.2 1.2
v 0.9 2.3 1.2
v 0.9 2.8 1.2
v 0.9 2.9 1.2
v 0.9 3 1.2
v 1 2.2 1.2
v 1 2.3 1.2
v 1 2.4 1.2
v 1 2.7 1.2
v 1 2.8 1.2
v 1 2.9 1.2
v 1.1 2.3 1.2
v 1.1 2.4 1.2
v 1.1 2.7 1.2
v 1.1 2.8 1.2
v -1.1 2.3 2.2
v -1.1 2.4 2.2
v -1.1 2.7 2.2
v -1.1 2.8 2.2
v -1 2.2 2.2
v -1 2.3 2.2
v -1 2.4 2.2
v -1 2.7 2.2
v -1 2.8 2.2
v -1 2.9 2.2
v -0.9 2.1 2.2
v -0.9 2.2 2.2
v -0.9 2.3 2.2
v -0.9 2.8 2.2
v -0.9 2.9 2.2
v -0.9 3 2.2
v -0.4 2.1 2.2
v -0.4 2.2 2.2
v -0.4 2.3 2.2
v -0.4 2.8 2.2
v -0.4 2.9 2.2
v -0.4 3 2.2
v -0.3 2.2 2.2
v -0.3 2.3 2.2
v -0.3 2.4 2.2
v -0.3 2.7 2.2
v -0.3 2.8 2.2
v -0.3 2.9 2.2
v -0.2 2.3 2.2
v -0.2 2.4 2.2
v -0.2 2.7 2.2
v -0.2 2.8 2.2
v 0.2 2.3 2.2
v 0.2 2.4 2.2
v 0.2 2.7 2.2
v 0.2 2.8 2.2
v 0.3 2.2 2.2
v 0.3 2.3 2.2
v 0.3 2.4 2.2
v 0.3 2.7 2.2
v 0.3 2.8 2.2
v 0.3 2.9 2.2
v 0.4 2.1 2.2
v 0.4 2.2 2.2
v 0.4 2.3 2.2
v 0.4 2.8 2.2
v 0.4 2.9 2.2
v 0.4 3 2.2
v 0.9 2.1 2.2
v 0.9 2.2 2.2
v 0.9 2.3 2.2
v 0.9 2.8 2.2
v 0.9 2.9 2.2
v 0.9 3 2.2
v 1 2.2 2.2
v 1 2.3 2.2
v 1 2.4 2.2
v 1 2.7 2.2
v 1 2.8 2.2
v 1 2.9 2.2
v 1.1 2.3 2.2
v 1.1 2.4 2.2
v 1.1 2.7 2.2
v 1.1 2.8 2.2
v -1.1 2.3 0.9
v -1.1 2.8 0.9
v -1 2.2 0.9
v -1 2.3 0.9
v -1 2.8 0.9
v -1 2.9 0.9
v -0.9 2.1 0.9
v -0.9 2.2 0.9
v -0.9 2.9 0.9
v -0.9 3 0.9
v -0.4 2.1 0.9
v -0.4 2.2 0.9
v -0.4 2.9 0.9
v -0.4 3 0.9
v -0.3 2.2 0.9
v -0.3 2.3 0.9
v -0.3 2.8 0.9
v -0.3 2.9 0.9
v -0.2 2.3 0.9
v -0.2 2.8 0.9
v 0.2 2.3 0.9
v 0.2 2.8 0.9
v 0.3 2.2 0.9
v 0.3 2.3 0.9
v 0.3 2.8 0.9
v 0.3 2.9 0.9
v 0.4 2.1 0.9
v 0.4 2.2 0.9
v 0.4 2.9 0.9
v 0.4 3 0.9
v 0.9 2.1 0.9
v 0.9 2.2 0.9
v 0.9 2.9 0.9
v 0.9 3 0.9
v 1 2.2 0.9
v 1 2.3 0.9
v 1 2.8 0.9
v 1 2.9 0.9
v 1.1 2.3 0.9
v 1.1 2.8 0.9
v -0.9 2.1 2.3
v -0.4 2.1 2.3
v 0.4 2.1 2.3
v 0.9 2.1 2.3
v -0.9 2.1 2.2
v -0.4 2.1 2.2
v 0.4 2.1 2.2
v 0.9 2.1 2.2
v -0.9 2.1 1.2
v -0.4 2.1 1.2
v 0.4 2.1 1.2
v 0.9 2.1 1.2
v -0.9 2.1 0.9
v -0.4 2.1 0.9
v 0.4 2.1 0.9
v 0.9 2.1 0.9
v -1 2.2 2.3
v -0.9 2.2 2.3
v -0.4 2.2 2.3
v -0.3 2.2 2.3
v 0.3 2.2 2.3
v 0.4 2.2 2.3
v 0.9 2.2 2.3
v 1 2.2 2.3
v -1 2.2 2.2
v -0.9 2.2 2.2
v -0.4 2.2 2.2
v -0.3 2.2 2.2
v 0.3 2.2 2.2
v 0.4 2.2 2.2
v 0.9 2.2 2.2
v 1 2.2 2.2
v -1 2.2 1.2
v -0.9 2.2 1.2
v -0.4 2.2 1.2
v -0.3 2.2 1.2
v 0.3 2.2 1.2
v 0.4 2.2 1.2
v 0.9 2.2 1.2
v 1 2.2 1.2
v -1 2.2 0.9
v -0.9 2.2 0.9
v -0.4 2.2 0.9
v -0.3 2.2 0.9
v 0.3 2.2 0.9
v 0.4 2.2 0.9
v 0.9 2.2 0.9
v 1 2.2 0.9
v -1.1 2.3 2.3
v -1 2.3 2.3
v -0.3 2.3 2.3
v -0.2 2.3 2.3
v 0.2 2.3 2.3
v 0.3 2.3 2.3
v 1 2.3 2.3
v 1.1 2.3 2.3
v -1.1 2.3 2.2
v -1 2.3 2.2
v -0.9 2.3 2.2
v -0.4 2.3 2.2
v -0.3 2.3 2.2
v -0.2 2.3 2.2
v 0.2 2.3 2.2
v 0.3 2.3 2.2
v 0.4 2.3 2.2
v 0.9 2.3 2.2
v 1 2.3 2.2
v 1.1 2.3 2.2
v -1.1 2.3 1.2
v -1 2.3 1.2
v -0.9 2.3 1.2
v -0.4 2.3 1.2
v -0.3 2.3 1.2
v -0.2 2.3 1.2
v 0.2 2.3 1.2
v 0.3 2.3 1.2
v 0.4 2.3 1.2
v 0.9 2.3 1.2
v 1 2.3 1.2
v 1.1 2.3 1.2
v -1.1 2.3 0.9
v -1 2.3 0.9
v -0.3 2.3 0.9
v -0.2 2.3 0.9
v 0.2 2.3 0.9
v 0.3 2.3 0.9
v 1 2.3 0.9
v 1.1 2.3 0.9
v -1.1 2.4 2.2
v -1 2.4 2.2
v -0.3 2.4 2.2
v -0.2 2.4 2.2
v 0.2 2.4 2.2
v 0.3 2.4 2.2
v 1 2.4 2.2
v 1.1 2.4 2.2
v -1.1 2.4 1.2
v -1 2.4 1.2
v -0.3 2.4 1.2
v -0.2 2.4 1.2
v 0.2 2.4 1.2
v 0.3 2.4 1.2
v 1 2.4 1.2
v 1.1 2.4 1.2
v -1 2.8 2.3
v -0.9 2.8 2.3
v -0.4 2.8 2.3
v -0.3 2.8 2.3
v 0.3 2.8 2.3
v 0.4 2.8 2.3
v 0.9 2.8 2.3
v 1 2.8 2.3
v -1 2.8 2.2
v -0.9 2.8 2.2
v -0.4 2.8 2.2
v -0.3 2.8 2.2
v 0.3 2.8 2.2
v 0.4 2.8 2.2
v 0.9 2.8 2.2
v 1 2.8 2.2
v -0.9 2.9 2.3
v -0.4 2.9 2.3
v 0.4 2.9 2.3
v 0.9 2.9 2.3
v -0.9 2.9 2.2
v -0.4 2.9 2.2
v 0.4 2.9 2.2
v 0.9 2.9 2.2
v -0.9 2.2 2.3
v -0.4 2.2 2.3
v 0.4 2.2 2.3
v 0.9 2.2 2.3
v -0.9 2.2 2.2
v -0.4 2.2 2.2
v 0.4 2.2 2.2
v 0.9 2.2 2.2
v -1 2.3 2.3
v -0.9 2.3 2.3
v -0.4 2.3 2.3
v -0.3 2.3 2.3
v 0.3 2.3 2.3
v 0.4 2.3 2.3
v 0.9 2.3 2.3
v 1 2.3 2.3
v -1 2.3 2.2
v -0.9 2.3 2.2
v -0.4 2.3 2.2
v -0.3 2.3 2.2
v 0.3 2.3 2.2
v 0.4 2.3 2.2
v 0.9 2.3 2.2
v 1 2.3 2.2
v -1.1 2.7 2.2
v -1 2.7 2.2
v -0.3 2.7 2.2
v -0.2 2.7 2.2
v 0.2 2.7 2.2
v 0.3 2.7 2.2
v 1 2.7 2.2
v 1.1 2.7 2.2
v -1.1 2.7 1.2
v -1 2.7 1.2
v -0.3 2.7 1.2
v -0.2 2.7 1.2
v 0.2 2.7 1.2
v 0.3 2.7 1.2
v 1 2.7 1.2
v 1.1 2.7 1.2
v -1.1 2.8 2.3
v -1 2.8 2.3
v -0.3 2.8 2.3
v -0.2 2.8 2.3
v 0.2 2.8 2.3
v 0.3 2.8 2.3
v 1 2.8 2.3
v 1.1 2.8 2.3
v -1.1 2.8 2.2
v -1 2.8 2.2
v -0.9 2.8 2.2
v -0.4 2.8 2.2
v -0.3 2.8 2.2
v -0.2 2.8 2.2
v 0.2 2.8 2.2
v 0.3 2.8 2.2
v 0.4 2.8 2.2
v 0.9 2.8 2.2
v 1 2.8 2.2
v 1.1 2.8 2.2
v -1.1 2.8 1.2
v -1 2.8 1.2
v -0.9 2.8 1.2
v -0.4 2.8 1.2
v -0.3 2.8 1.2
v -0.2 2.8 1.2
v 0.2 2.8 1.2
v 0.3 2.8 1.2
v 0.4 2.8 1.2
v 0.9 2.8 1.2
v 1 2.8 1.2
v 1.1 2.8 1.2
v -1.1 2.8 0.9
v -1 2.8 0.9
v -0.3 2.8 0.9
v -0.2 2.8 0.9
v 0.2 2.8 0.9
v 0.3 2.8 0.9
v 1 2.8 0.9
v 1.1 2.8 0.9
v -1 2.9 2.3
v -0.9 2.9 2.3
v -0.4 2.9 2.3
v -0.3 2.9 2.3
v 0.3 2.9 2.3
v 0.4 2.9 2.3
v 0.9 2.9 2.3
v 1 2.9 2.3
v -1 2.9 2.2
v -0.9 2.9 2.2
v -0.4 2.9 2.2
v -0.3 2.9 2.2
v 0.3 2.9 2.2
v 0.4 2.9 2.2
v 0.9 2.9 2.2
v 1 2.9 2.2
v -1 2.9 1.2
v -0.9 2.9 1.2
v -0.4 2.9 1.2
v -0.3 2.9 1.2
v 0.3 2.9 1.2
v 0.4 2.9 1.2
v 0.9 2.9 1.2
v 1 2.9 1.2
v -1 2.9 0.9
v -0.9 2.9 0.9
v -0.4 2.9 0.9
v -0.3 2.9 0.9
v 0.3 2.9 0.9
v 0.4 2.9 0.9
v 0.9 2.9 0.9
v 1 2.9 0.9
v -0.9 3 2.3
v -0.4 3 2.3
v 0.4 3 2.3
v 0.9 3 2.3
v -0.9 3 2.2
v -0.4 3 2.2
v 0.4 3 2.2
v 0.9 3 2.2
v -0.9 3 1.2
v -0.4 3 1.2
v 0.4 3 1.2
v 0.9 3 1.2
v -0.9 3 0.9
v -0.4 3 0.9
v 0.4 3 0.9
v 0.9 3 0.9

# faces
f 5/1/1 2/1/1 1/1/1
f 6/1/1 4/1/1 3/1/1
f 7/1/1 5/1/1 1/1/1
f 7/2/1 6/2/1 5/2/1
f 8/1/1 4/1/1 6/1/1
f 8/2/1 6/2/1 7/2/1
f 9/1/1 7/1/1 1/1/1
f 10/1/1 7/1/1 9/1/1
f 11/1/1 4/1/1 8/1/1
f 12/1/1 4/1/1 11/1/1
f 17/1/1 14/1/1 13/1/1
f 18/1/1 14/1/1 17/1/1
f 19/1/1 16/1/1 15/1/1
f 20/1/1 16/1/1 19/1/1
f 21/2/1 19/2/1 18/2/1
f 22/2/1 19/2/1 21/2/1
f 26/2/1 24/2/1 23/2/1
f 27/2/1 24/2/1 26/2/1
f 29/1/1 26/1/1 25/1/1
f 30/1/1 26/1/1 29/1/1
f 31/1/1 28/1/1 27/1/1
f 32/1/1 28/1/1 31/1/1
f 37/1/1 34/1/1 33/1/1
f 38/1/1 34/1/1 37/1/1
f 39/1/1 36/1/1 35/1/1
f 40/1/1 36/1/1 39/1/1
f 41/2/1 39/2/1 38/2/1
f 42/2/1 39/2/1 41/2/1
f 46/2/1 44/2/1 43/2/1
f 47/2/1 44/2/1 46/2/1
f 49/1/1 46/1/1 45/1/1
f 50/1/1 46/1/1 49/1/1
f 51/1/1 48/1/1 47/1/1
f 52/1/1 48/1/1 51/1/1
f 55/1/1 54/1/1 53/1/1
f 56/1/1 54/1/1 55/1/1
f 59/1/1 58/1/1 57/1/1
f 60/1/1 58/1/1 59/1/1
f 63/1/1 62/1/1 61/1/1
f 64/1/1 62/1/1 63/1/1
f 69/1/1 66/1/1 65/1/1
f 70/1/1 68/1/1 67/1/1
f 71/1/1 69/1/1 65/1/1
f 71/2/1 70/2/1 69/2/1
f 72/1/1 68/1/1 70/1/1
f 72/2/1 70/2/1 71/2/1
f 73/1/1 71/1/1 65/1/1
f 74/1/1 71/1/1 73/1/1
f 75/1/1 68/1/1 72/1/1
f 76/1/1 68/1/1 75/1/1
f 81/1/1 78/1/1 77/1/1
f 82/1/1 78/1/1 81/1/1
f 83/1/1 80/1/1 79/1/1
f 84/1/1 80/1/1 83/1/1
f 85/2/1 83/2/1 82/2/1
f 86/2/1 83/2/1 85/2/1
f 90/2/1 88/2/1 87/2/1
f 91/2/1 88/2/1 90/2/1
f 93/1/1 90/1/1 89/1/1
f 94/1/1 90/1/1 93/1/1
f 95/1/1 92/1/1 91/1/1
f 96/1/1 92/1/1 95/1/1
f 101/1/1 98/1/1 97/1/1
f 102/1/1 98/1/1 101/1/1
f 103/1/1 100/1/1 99/1/1
f 104/1/1 100/1/1 103/1/1
f 105/2/1 103/2/1 102/2/1
f 106/2/1 103/2/1 105/2/1
f 110/2/1 108/2/1 107/2/1
f 111/2/1 108/2/1 110/2/1
f 113/1/1 110/1/1 109/1/1
f 114/1/1 110/1/1 113/1/1
f 115/1/1 112/1/1 111/1/1
f 116/1/1 112/1/1 115/1/1
f 119/1/1 118/1/1 117/1/1
f 120/1/1 118/1/1 119/1/1
f 123/1/1 122/1/1 121/1/1
f 124/1/1 122/1/1 123/1/1
f 127/1/1 126/1/1 125/1/1
f 128/1/1 126/1/1 127/1/1
f 129/1/2 130/1/2 131/1/2
f 131/1/2 130/1/2 132/1/2
f 133/1/2 134/1/2 135/1/2
f 135/1/2 134/1/2 136/1/2
f 137/1/2 138/1/2 139/1/2
f 139/1/2 138/1/2 140/1/2
f 141/1/2 142/1/2 145/1/2
f 145/1/2 142/1/2 146/1/2
f 143/1/2 144/1/2 147/1/2
f 147/1/2 144/1/2 148/1/2
f 146/2/2 147/2/2 149/2/2
f 149/2/2 147/2/2 150/2/2
f 151/2/2 152/2/2 154/2/2
f 154/2/2 152/2/2 155/2/2
f 153/1/2 154/1/2 157/1/2
f 157/1/2 154/1/2 158/1/2
f 155/1/2 156/1/2 159/1/2
f 159/1/2 156/1/2 160/1/2
f 161/1/2 162/1/2 165/1/2
f 165/1/2 162/1/2 166/1/2
f 163/1/2 164/1/2 167/1/2
f 167/1/2 164/1/2 168/1/2
f 166/2/2 167/2/2 169/2/2
f 169/2/2 167/2/2 170/2/2
f 171/2/2 172/2/2 174/2/2
f 174/2/2 172/2/2 175/2/2
f 173/1/2 174/1/2 177/1/2
f 177/1/2 174/1/2 178/1/2
f 175/1/2 176/1/2 179/1/2
f 179/1/2 176/1/2 180/1/2
f 181/1/2 182/1/2 185/1/2
f 183/1/2 184/1/2 186/1/2
f 181/1/2 185/1/2 187/1/2
f 185/2/2 186/2/2 187/2/2
f 186/1/2 184/1/2 188/1/2
f 187/2/2 186/2/2 188/2/2
f 181/1/2 187/1/2 189/1/2
f 189/1/2 187/1/2 190/1/2
f 188/1/2 184/1/2 191/1/2
f 191/1/2 184/1/2 192/1/2
f 193/1/2 194/1/2 195/1/2
f 195/1/2 194/1/2 196/1/2
f 197/1/2 198/1/2 199/1/2
f 199/1/2 198/1/2 200/1/2
f 201/1/2 202/1/2 203/1/2
f 203/1/2 202/1/2 204/1/2
f 205/1/2 206/1/2 209/1/2
f 209/1/2 206/1/2 210/1/2
f 207/1/2 208/1/2 211/1/2
f 211/1/2 208/1/2 212/1/2
f 210/2/2 211/2/2 213/2/2
f 213/2/2 211/2/2 214/2/2
f 215/2/2 216/2/2 218/2/2
f 218/2/2 216/2/2 219/2/2
f 217/1/2 218/1/2 221/1/2
f 221/1/2 218/1/2 222/1/2
f 219/1/2 220/1/2 223/1/2
f 223/1/2 220/1/2 224/1/2
f 225/1/2 226/1/2 229/1/2
f 229/1/2 226/1/2 230/1/2
f 227/1/2 228/1/2 231/1/2
f 231/1/2 228/1/2 232/1/2
f 230/2/2 231/2/2 233/2/2
f 233/2/2 231/2/2 234/2/2
f 235/2/2 236/2/2 238/2/2
f 238/2/2 236/2/2 239/2/2
f 237/1/2 238/1/2 241/1/2
f 241/1/2 238/1/2 242/1/2
f 239/1/2 240/1/2 243/1/2
f 243/1/2 240/1/2 244/1/2
f 245/1/2 246/1/2 249/1/2
f 247/1/2 248/1/2 250/1/2
f 245/1/2 249/1/2 251/1/2
f 249/2/2 250/2/2 251/2/2
f 250/1/2 248/1/2 252/1/2
f 251/2/2 250/2/2 252/2/2
f 245/1/2 251/1/2 253/1/2
f 253/1/2 251/1/2 254/1/2
f 252/1/2 248/1/2 255/1/2
f 255/1/2 248/1/2 256/1/2
f 260/1/3 258/1/3 257/1/3
f 261/1/3 258/1/3 260/1/3
f 264/1/3 260/1/3 259/1/3
f 265/1/3 260/1/3 264/1/3
f 266/1/3 262/1/3 261/1/3
f 267/1/3 262/1/3 266/1/3
f 269/1/3 264/1/3 263/1/3
f 270/1/3 264/1/3 269/1/3
f 273/1/3 268/1/3 267/1/3
f 274/1/3 268/1/3 273/1/3
f 275/1/3 271/1/3 270/1/3
f 276/1/3 271/1/3 275/1/3
f 277/1/3 273/1/3 272/1/3
f 278/1/3 273/1/3 277/1/3
f 279/1/3 277/1/3 276/1/3
f 280/1/3 277/1/3 279/1/3
f 284/1/3 282/1/3 281/1/3
f 285/1/3 282/1/3 284/1/3
f 288/1/3 284/1/3 283/1/3
f 289/1/3 284/1/3 288/1/3
f 290/1/3 286/1/3 285/1/3
f 291/1/3 286/1/3 290/1/3
f 293/1/3 288/1/3 287/1/3
f 294/1/3 288/1/3 293/1/3
f 297/1/3 292/1/3 291/1/3
f 298/1/3 292/1/3 297/1/3
f 299/1/3 295/1/3 294/1/3
f 300/1/3 295/1/3 299/1/3
f 301/1/3 297/1/3 296/1/3
f 302/1/3 297/1/3 301/1/3
f 303/1/3 301/1/3 300/1/3
f 304/1/3 301/1/3 303/1/3
f 308/2/3 306/2/3 305/2/3
f 309/2/3 306/2/3 308/2/3
f 311/2/3 308/2/3 307/2/3
f 311/2/3 310/2/3 309/2/3
f 311/2/3 309/2/3 308/2/3
f 312/2/3 310/2/3 311/2/3
f 313/2/3 310/2/3 312/2/3
f 314/2/3 310/2/3 313/2/3
f 315/2/3 313/2/3 312/2/3
f 316/2/3 313/2/3 315/2/3
f 320/2/3 318/2/3 317/2/3
f 321/2/3 318/2/3 320/2/3
f 323/2/3 321/2/3 320/2/3
f 323/2/3 322/2/3 321/2/3
f 323/2/3 320/2/3 319/2/3
f 324/2/3 322/2/3 323/2/3
f 325/2/3 322/2/3 324/2/3
f 326/2/3 322/2/3 325/2/3
f 327/2/3 325/2/3 324/2/3
f 328/2/3 325/2/3 327/2/3
f 334/1/3 330/1/3 329/1/3
f 335/1/3 330/1/3 334/1/3
f 336/1/3 332/1/3 331/1/3
f 337/1/3 332/1/3 336/1/3
f 340/1/3 334/1/3 333/1/3
f 341/1/3 334/1/3 340/1/3
f 342/1/3 338/1/3 337/1/3
f 343/1/3 338/1/3 342/1/3
f 345/1/3 340/1/3 339/1/3
f 346/1/3 340/1/3 345/1/3
f 349/1/3 344/1/3 343/1/3
f 350/1/3 344/1/3 349/1/3
f 351/1/3 347/1/3 346/1/3
f 352/1/3 347/1/3 351/1/3
f 355/1/3 349/1/3 348/1/3
f 356/1/3 349/1/3 355/1/3
f 357/1/3 353/1/3 352/1/3
f 358/1/3 353/1/3 357/1/3
f 359/1/3 355/1/3 354/1/3
f 360/1/3 355/1/3 359/1/3
f 366/1/3 362/1/3 361/1/3
f 367/1/3 362/1/3 366/1/3
f 368/1/3 364/1/3 363/1/3
f 369/1/3 364/1/3 368/1/3
f 372/1/3 366/1/3 365/1/3
f 373/1/3 366/1/3 372/1/3
f 374/1/3 370/1/3 369/1/3
f 375/1/3 370/1/3 374/1/3
f 377/1/3 372/1/3 371/1/3
f 378/1/3 372/1/3 377/1/3
f 381/1/3 376/1/3 375/1/3
f 382/1/3 376/1/3 381/1/3
f 383/1/3 379/1/3 378/1/3
f 384/1/3 379/1/3 383/1/3
f 387/1/3 381/1/3 380/1/3
f 388/1/3 381/1/3 387/1/3
f 389/1/3 385/1/3 384/1/3
f 390/1/3 385/1/3 389/1/3
f 391/1/3 387/1/3 386/1/3
f 392/1/3 387/1/3 391/1/3
f 393/1/4 394/1/4 398/1/4
f 398/1/4 394/1/4 399/1/4
f 395/1/4 396/1/4 400/1/4
f 400/1/4 396/1/4 401/1/4
f 397/1/4 398/1/4 404/1/4
f 404/1/4 398/1/4 405/1/4
f 401/1/4 402/1/4 406/1/4
f 406/1/4 402/1/4 407/1/4
f 403/1/4 404/1/4 409/1/4
f 409/1/4 404/1/4 410/1/4
f 407/1/4 408/1/4 413/1/4
f 413/1/4 408/1/4 414/1/4
f 410/1/4 411/1/4 415/1/4
f 415/1/4 411/1/4 416/1/4
f 412/1/4 413/1/4 419/1/4
f 419/1/4 413/1/4 420/1/4
f 416/1/4 417/1/4 421/1/4
f 421/1/4 417/1/4 422/1/4
f 418/1/4 419/1/4 423/1/4
f 423/1/4 419/1/4 424/1/4
f 425/1/4 426/1/4 430/1/4
f 430/1/4 426/1/4 431/1/4
f 427/1/4 428/1/4 432/1/4
f 432/1/4 428/1/4 433/1/4
f 429/1/4 430/1/4 436/1/4
f 436/1/4 430/1/4 437/1/4
f 433/1/4 434/1/4 438/1/4
f 438/1/4 434/1/4 439/1/4
f 435/1/4 436/1/4 441/1/4
f 441/1/4 436/1/4 442/1/4
f 439/1/4 440/1/4 445/1/4
f 445/1/4 440/1/4 446/1/4
f 442/1/4 443/1/4 447/1/4
f 447/1/4 443/1/4 448/1/4
f 444/1/4 445/1/4 451/1/4
f 451/1/4 445/1/4 452/1/4
f 448/1/4 449/1/4 453/1/4
f 453/1/4 449/1/4 454/1/4
f 450/1/4 451/1/4 455/1/4
f 455/1/4 451/1/4 456/1/4
f 457/1/4 458/1/4 460/1/4
f 460/1/4 458/1/4 461/1/4
f 459/1/4 460/1/4 464/1/4
f 461/1/4 462/1/4 464/1/4
f 460/1/4 461/1/4 464/1/4
f 464/1/4 462/1/4 465/1/4
f 463/1/4 464/1/4 467/1/4
f 465/1/4 466/1/4 467/1/4
f 464/1/4 465/1/4 467/1/4
f 467/1/4 466/1/4 468/1/4
f 468/1/4 466/1/4 469/1/4
f 469/1/4 466/1/4 470/1/4
f 468/1/4 469/1/4 471/1/4
f 471/1/4 469/1/4 472/1/4
f 472/1/4 469/1/4 473/1/4
f 473/1/4 469/1/4 474/1/4
f 472/1/4 473/1/4 475/1/4
f 475/1/4 473/1/4 476/1/4
f 477/1/4 478/1/4 480/1/4
f 480/1/4 478/1/4 481/1/4
f 480/1/4 481/1/4 484/1/4
f 481/1/4 482/1/4 484/1/4
f 479/1/4 480/1/4 484/1/4
f 484/1/4 482/1/4 485/1/4
f 484/1/4 485/1/4 487/1/4
f 485/1/4 486/1/4 487/1/4
f 483/1/4 484/1/4 487/1/4
f 487/1/4 486/1/4 488/1/4
f 488/1/4 486/1/4 489/1/4
f 489/1/4 486/1/4 490/1/4
f 488/1/4 489/1/4 491/1/4
f 491/1/4 489/1/4 492/1/4
f 492/1/4 489/1/4 493/1/4
f 493/1/4 489/1/4 494/1/4
f 492/1/4 493/1/4 495/1/4
f 495/1/4 493/1/4 496/1/4
f 501/1/5 498/1/5 497/1/5
f 502/1/5 498/1/5 501/1/5
f 503/1/5 500/1/5 499/1/5
f 504/1/5 500/1/5 503/1/5
f 509/1/5 506/1/5 505/1/5
f 510/1/5 506/1/5 509/1/5
f 511/1/5 508/1/5 507/1/5
f 512/1/5 508/1/5 511/1/5
f 521/1/5 514/1/5 513/1/5
f 522/1/5 514/1/5 521/1/5
f 523/1/5 516/1/5 515/1/5
f 524/1/5 516/1/5 523/1/5
f 525/1/5 518/1/5 517/1/5
f 526/1/5 518/1/5 525/1/5
f 527/1/5 520/1/5 519/1/5
f 528/1/5 520/1/5 527/1/5
f 530/2/5 523/2/5 522/2/5
f 531/2/5 523/2/5 530/2/5
f 534/2/5 527/2/5 526/2/5
f 535/2/5 527/2/5 534/2/5
f 537/1/5 530/1/5 529/1/5
f 538/1/5 530/1/5 537/1/5
f 539/1/5 532/1/5 531/1/5
f 540/1/5 532/1/5 539/1/5
f 541/1/5 534/1/5 533/1/5
f 542/1/5 534/1/5 541/1/5
f 543/1/5 536/1/5 535/1/5
f 544/1/5 536/1/5 543/1/5
f 553/1/5 546/1/5 545/1/5
f 554/1/5 546/1/5 553/1/5
f 557/1/5 548/1/5 547/1/5
f 558/1/5 548/1/5 557/1/5
f 559/1/5 550/1/5 549/1/5
f 560/1/5 550/1/5 559/1/5
f 563/1/5 552/1/5 551/1/5
f 564/1/5 552/1/5 563/1/5
f 566/2/5 555/2/5 554/2/5
f 567/2/5 555/2/5 566/2/5
f 568/2/5 557/2/5 556/2/5
f 569/2/5 557/2/5 568/2/5
f 572/2/5 561/2/5 560/2/5
f 573/2/5 561/2/5 572/2/5
f 574/2/5 563/2/5 562/2/5
f 575/2/5 563/2/5 574/2/5
f 577/1/5 566/1/5 565/1/5
f 578/1/5 566/1/5 577/1/5
f 579/1/5 570/1/5 569/1/5
f 580/1/5 570/1/5 579/1/5
f 581/1/5 572/1/5 571/1/5
f 582/1/5 572/1/5 581/1/5
f 583/1/5 576/1/5 575/1/5
f 584/1/5 576/1/5 583/1/5
f 593/2/5 586/2/5 585/2/5
f 594/2/5 586/2/5 593/2/5
f 595/2/5 588/2/5 587/2/5
f 596/2/5 588/2/5 595/2/5
f 597/2/5 590/2/5 589/2/5
f 598/2/5 590/2/5 597/2/5
f 599/2/5 592/2/5 591/2/5
f 600/2/5 592/2/5 599/2/5
f 609/1/5 602/1/5 601/1/5
f 610/1/5 602/1/5 609/1/5
f 611/1/5 604/1/5 603/1/5
f 612/1/5 604/1/5 611/1/5
f 613/1/5 606/1/5 605/1/5
f 614/1/5 606/1/5 613/1/5
f 615/1/5 608/1/5 607/1/5
f 616/1/5 608/1/5 615/1/5
f 621/1/5 618/1/5 617/1/5
f 622/1/5 618/1/5 621/1/5
f 623/1/5 620/1/5 619/1/5
f 624/1/5 620/1/5 623/1/5
f 625/1/6 626/1/6 629/1/6
f 629/1/6 626/1/6 630/1/6
f 627/1/6 628/1/6 631/1/6
f 631/1/6 628/1/6 632/1/6
f 633/1/6 634/1/6 641/1/6
f 641/1/6 634/1/6 642/1/6
f 635/1/6 636/1/6 643/1/6
f 643/1/6 636/1/6 644/1/6
f 637/1/6 638/1/6 645/1/6
f 645/1/6 638/1/6 646/1/6
f 639/1/6 640/1/6 647/1/6
f 647/1/6 640/1/6 648/1/6
f 649/2/6 650/2/6 657/2/6
f 657/2/6 650/2/6 658/2/6
f 651/2/6 652/2/6 659/2/6
f 659/2/6 652/2/6 660/2/6
f 653/2/6 654/2/6 661/2/6
f 661/2/6 654/2/6 662/2/6
f 655/2/6 656/2/6 663/2/6
f 663/2/6 656/2/6 664/2/6
f 665/1/6 666/1/6 673/1/6
f 673/1/6 666/1/6 674/1/6
f 667/1/6 668/1/6 677/1/6
f 677/1/6 668/1/6 678/1/6
f 669/1/6 670/1/6 679/1/6
f 679/1/6 670/1/6 680/1/6
f 671/1/6 672/1/6 683/1/6
f 683/1/6 672/1/6 684/1/6
f 674/2/6 675/2/6 686/2/6
f 686/2/6 675/2/6 687/2/6
f 676/2/6 677/2/6 688/2/6
f 688/2/6 677/2/6 689/2/6
f 680/2/6 681/2/6 692/2/6
f 692/2/6 681/2/6 693/2/6
f 682/2/6 683/2/6 694/2/6
f 694/2/6 683/2/6 695/2/6
f 685/1/6 686/1/6 697/1/6
f 697/1/6 686/1/6 698/1/6
f 689/1/6 690/1/6 699/1/6
f 699/1/6 690/1/6 700/1/6
f 691/1/6 692/1/6 701/1/6
f 701/1/6 692/1/6 702/1/6
f 695/1/6 696/1/6 703/1/6
f 703/1/6 696/1/6 704/1/6
f 705/1/6 706/1/6 713/1/6
f 713/1/6 706/1/6 714/1/6
f 707/1/6 708/1/6 715/1/6
f 715/1/6 708/1/6 716/1/6
f 709/1/6 710/1/6 717/1/6
f 717/1/6 710/1/6 718/1/6
f 711/1/6 712/1/6 719/1/6
f 719/1/6 712/1/6 720/1/6
f 714/2/6 715/2/6 722/2/6
f 722/2/6 715/2/6 723/2/6
f 718/2/6 719/2/6 726/2/6
f 726/2/6 719/2/6 727/2/6
f 721/1/6 722/1/6 729/1/6
f 729/1/6 722/1/6 730/1/6
f 723/1/6 724/1/6 731/1/6
f 731/1/6 724/1/6 732/1/6
f 725/1/6 726/1/6 733/1/6
f 733/1/6 726/1/6 734/1/6
f 727/1/6 728/1/6 735/1/6
f 735/1/6 728/1/6 736/1/6
f 737/1/6 738/1/6 741/1/6
f 741/1/6 738/1/6 742/1/6
f 739/1/6 740/1/6 743/1/6
f 743/1/6 740/1/6 744/1/6
f 745/1/6 746/1/6 749/1/6
f 749/1/6 746/1/6 750/1/6
f 747/1/6 748/1/6 751/1/6
f 751/1/6 748/1/6 752/1/6
