# MagicaVoxel @ Ephtracy

# group
o 

# material
mtllib hitler-2.mtl
usemtl palette

# normals
vn -1 0 0
vn 1 0 0
vn 0 0 1
vn 0 0 -1
vn 0 -1 0
vn 0 1 0

# texcoords
vt 0.970703 0.5
vt 0.974609 0.5
vt 0.978516 0.5
vt 0.982422 0.5
vt 0.986328 0.5

# verts
v 0.8 2.6 -0.1
v 0.8 2.6 -0.2
v 0.8 2.9 -0.1
v 0.8 2.9 -0.2
v 0.9 2.6 -0.2
v 0.9 2.6 -0.6
v 0.9 2.9 -0.2
v 0.9 2.9 -0.6
v 2.5 2.5 0
v 2.5 2.5 -0.3
v 2.5 2.6 -0.1
v 2.5 2.6 -0.3
v 2.5 2.8 0
v 2.5 2.8 -0.1
v 2.8 2.5 0
v 2.8 2.5 -0.3
v 2.8 2.6 -0.3
v 2.8 2.6 -0.6
v 2.8 2.8 0
v 2.8 2.8 -0.1
v 2.8 2.9 -0.1
v 2.8 2.9 -0.6
v 2.5 2.5 0
v 2.5 2.8 0
v 2.8 2.5 0
v 2.8 2.8 0
v 0.8 2.6 -0.1
v 0.8 2.9 -0.1
v 1.2 2.6 -0.1
v 1.2 2.9 -0.1
v 1.3 2.8 -0.1
v 1.3 2.9 -0.1
v 1.5 2.8 -0.1
v 1.5 2.9 -0.1
v 1.7 2.8 -0.1
v 1.7 2.9 -0.1
v 1.8 2.8 -0.1
v 1.8 2.9 -0.1
v 1.9 2.6 -0.1
v 1.9 2.9 -0.1
v 2.2 2.6 -0.1
v 2.2 2.9 -0.1
v 2.5 2.6 -0.1
v 2.5 2.8 -0.1
v 2.8 2.8 -0.1
v 2.8 2.9 -0.1
v 0.8 2.6 -0.2
v 0.8 2.9 -0.2
v 0.9 2.6 -0.2
v 0.9 2.9 -0.2
v 2.5 2.5 -0.3
v 2.5 2.6 -0.3
v 2.8 2.5 -0.3
v 2.8 2.6 -0.3
v 0.9 2.6 -0.6
v 0.9 2.9 -0.6
v 1.2 2.6 -0.6
v 1.2 2.9 -0.6
v 1.3 2.8 -0.6
v 1.3 2.9 -0.6
v 1.4 2.8 -0.6
v 1.4 2.9 -0.6
v 1.6 2.8 -0.6
v 1.6 2.9 -0.6
v 1.8 2.8 -0.6
v 1.8 2.9 -0.6
v 1.9 2.6 -0.6
v 1.9 2.9 -0.6
v 2.2 2.6 -0.6
v 2.2 2.9 -0.6
v 2.8 2.6 -0.6
v 2.8 2.9 -0.6
v 2.5 2.5 0
v 2.8 2.5 0
v 2.5 2.5 -0.3
v 2.8 2.5 -0.3
v 0.8 2.6 -0.1
v 1.2 2.6 -0.1
v 1.9 2.6 -0.1
v 2.2 2.6 -0.1
v 2.5 2.6 -0.1
v 0.8 2.6 -0.2
v 0.9 2.6 -0.2
v 2.5 2.6 -0.3
v 2.8 2.6 -0.3
v 0.9 2.6 -0.6
v 1.2 2.6 -0.6
v 1.9 2.6 -0.6
v 2.2 2.6 -0.6
v 2.8 2.6 -0.6
v 2.5 2.8 0
v 2.8 2.8 0
v 2.5 2.8 -0.1
v 2.8 2.8 -0.1
v 0.8 2.9 -0.1
v 1.2 2.9 -0.1
v 1.3 2.9 -0.1
v 1.5 2.9 -0.1
v 1.7 2.9 -0.1
v 1.8 2.9 -0.1
v 1.9 2.9 -0.1
v 2.2 2.9 -0.1
v 2.8 2.9 -0.1
v 0.8 2.9 -0.2
v 0.9 2.9 -0.2
v 1.3 2.9 -0.2
v 1.4 2.9 -0.2
v 1.6 2.9 -0.2
v 1.7 2.9 -0.2
v 1.4 2.9 -0.3
v 1.5 2.9 -0.3
v 1.6 2.9 -0.3
v 1.8 2.9 -0.3
v 1.3 2.9 -0.4
v 1.5 2.9 -0.4
v 1.6 2.9 -0.4
v 1.7 2.9 -0.4
v 1.4 2.9 -0.5
v 1.5 2.9 -0.5
v 1.7 2.9 -0.5
v 1.8 2.9 -0.5
v 0.9 2.9 -0.6
v 1.2 2.9 -0.6
v 1.3 2.9 -0.6
v 1.4 2.9 -0.6
v 1.6 2.9 -0.6
v 1.8 2.9 -0.6
v 1.9 2.9 -0.6
v 2.2 2.9 -0.6
v 2.8 2.9 -0.6

# faces
f 3/3/1 2/3/1 1/3/1
f 4/3/1 2/3/1 3/3/1
f 7/3/1 6/3/1 5/3/1
f 8/3/1 6/3/1 7/3/1
f 11/4/1 10/4/1 9/4/1
f 12/4/1 10/4/1 11/4/1
f 13/4/1 11/4/1 9/4/1
f 14/4/1 11/4/1 13/4/1
f 15/4/2 16/4/2 17/4/2
f 15/4/2 17/4/2 19/4/2
f 17/4/2 18/4/2 19/4/2
f 19/4/2 18/4/2 20/4/2
f 20/4/2 18/4/2 21/4/2
f 21/4/2 18/4/2 22/4/2
f 25/4/3 24/4/3 23/4/3
f 26/4/3 24/4/3 25/4/3
f 29/3/3 28/3/3 27/3/3
f 30/3/3 28/3/3 29/3/3
f 31/5/3 30/5/3 29/5/3
f 32/5/3 30/5/3 31/5/3
f 33/5/3 31/5/3 29/5/3
f 33/2/3 32/2/3 31/2/3
f 34/2/3 32/2/3 33/2/3
f 35/5/3 33/5/3 29/5/3
f 35/1/3 34/1/3 33/1/3
f 36/1/3 34/1/3 35/1/3
f 37/5/3 35/5/3 29/5/3
f 37/2/3 36/2/3 35/2/3
f 38/2/3 36/2/3 37/2/3
f 39/5/3 37/5/3 29/5/3
f 39/5/3 38/5/3 37/5/3
f 40/5/3 38/5/3 39/5/3
f 41/3/3 40/3/3 39/3/3
f 42/3/3 40/3/3 41/3/3
f 43/4/3 42/4/3 41/4/3
f 44/4/3 42/4/3 43/4/3
f 45/4/3 42/4/3 44/4/3
f 46/4/3 42/4/3 45/4/3
f 47/3/4 48/3/4 49/3/4
f 49/3/4 48/3/4 50/3/4
f 51/4/4 52/4/4 53/4/4
f 53/4/4 52/4/4 54/4/4
f 55/3/4 56/3/4 57/3/4
f 57/3/4 56/3/4 58/3/4
f 57/5/4 58/5/4 59/5/4
f 59/5/4 58/5/4 60/5/4
f 57/5/4 59/5/4 61/5/4
f 59/2/4 60/2/4 61/2/4
f 61/2/4 60/2/4 62/2/4
f 57/5/4 61/5/4 63/5/4
f 61/1/4 62/1/4 63/1/4
f 63/1/4 62/1/4 64/1/4
f 57/5/4 63/5/4 65/5/4
f 63/2/4 64/2/4 65/2/4
f 65/2/4 64/2/4 66/2/4
f 57/5/4 65/5/4 67/5/4
f 65/5/4 66/5/4 67/5/4
f 67/5/4 66/5/4 68/5/4
f 67/3/4 68/3/4 69/3/4
f 69/3/4 68/3/4 70/3/4
f 69/4/4 70/4/4 71/4/4
f 71/4/4 70/4/4 72/4/4
f 75/4/5 74/4/5 73/4/5
f 76/4/5 74/4/5 75/4/5
f 82/3/5 78/3/5 77/3/5
f 83/3/5 78/3/5 82/3/5
f 84/4/5 81/4/5 80/4/5
f 86/3/5 78/3/5 83/3/5
f 87/5/5 79/5/5 78/5/5
f 87/3/5 78/3/5 86/3/5
f 88/3/5 80/3/5 79/3/5
f 88/5/5 79/5/5 87/5/5
f 89/4/5 85/4/5 84/4/5
f 89/3/5 80/3/5 88/3/5
f 89/4/5 84/4/5 80/4/5
f 90/4/5 85/4/5 89/4/5
f 91/4/6 92/4/6 93/4/6
f 93/4/6 92/4/6 94/4/6
f 95/3/6 96/3/6 104/3/6
f 104/3/6 96/3/6 105/3/6
f 96/5/6 97/5/6 106/5/6
f 97/2/6 98/2/6 106/2/6
f 106/2/6 98/2/6 107/2/6
f 98/1/6 99/1/6 108/1/6
f 99/2/6 100/2/6 109/2/6
f 108/1/6 99/1/6 109/1/6
f 107/2/6 98/2/6 110/2/6
f 106/1/6 107/1/6 110/1/6
f 98/1/6 108/1/6 111/1/6
f 110/2/6 98/2/6 111/2/6
f 108/2/6 109/2/6 112/2/6
f 111/1/6 108/1/6 112/1/6
f 109/2/6 100/2/6 113/2/6
f 112/2/6 109/2/6 113/2/6
f 100/5/6 101/5/6 113/5/6
f 111/1/6 112/1/6 114/1/6
f 110/1/6 111/1/6 114/1/6
f 112/1/6 113/1/6 114/1/6
f 106/1/6 110/1/6 114/1/6
f 96/5/6 106/5/6 114/5/6
f 114/1/6 113/1/6 115/1/6
f 115/1/6 113/1/6 116/1/6
f 116/1/6 113/1/6 117/1/6
f 114/2/6 115/2/6 118/2/6
f 115/1/6 116/1/6 119/1/6
f 118/2/6 115/2/6 119/2/6
f 117/1/6 113/1/6 120/1/6
f 116/2/6 117/2/6 120/2/6
f 113/5/6 101/5/6 121/5/6
f 120/1/6 113/1/6 121/1/6
f 105/3/6 96/3/6 122/3/6
f 96/5/6 114/5/6 123/5/6
f 122/3/6 96/3/6 123/3/6
f 114/2/6 118/2/6 124/2/6
f 123/5/6 114/5/6 124/5/6
f 118/1/6 119/1/6 125/1/6
f 124/2/6 118/2/6 125/2/6
f 116/2/6 120/2/6 126/2/6
f 125/1/6 119/1/6 126/1/6
f 119/1/6 116/1/6 126/1/6
f 120/2/6 121/2/6 126/2/6
f 121/5/6 101/5/6 127/5/6
f 126/2/6 121/2/6 127/2/6
f 101/3/6 102/3/6 128/3/6
f 127/5/6 101/5/6 128/5/6
f 102/4/6 103/4/6 129/4/6
f 128/3/6 102/3/6 129/3/6
f 129/4/6 103/4/6 130/4/6
