# MagicaVoxel @ Ephtracy

# group
o 

# material
mtllib casa1-1.mtl
usemtl palette

# normals
vn -1 0 0
vn 1 0 0
vn 0 0 1
vn 0 0 -1
vn 0 -1 0
vn 0 1 0

# texcoords
vt 0.00195312 0.5
vt 0.00585938 0.5
vt 0.00976562 0.5
vt 0.0136719 0.5
vt 0.0175781 0.5
vt 0.0214844 0.5
vt 0.0253906 0.5
vt 0.873047 0.5

# verts
v -1.7 1 1
v -1.7 1 -1
v -1.7 1.1 1
v -1.7 1.1 -1
v -1.5 1.1 1
v -1.5 1.1 -1
v -1.5 1.2 1
v -1.5 1.2 -1
v -1.5 1.9 -0.8
v -1.5 1.9 -1.2
v -1.5 2 -0.8
v -1.5 2 -1.2
v -1.4 1.7 -0.9
v -1.4 1.7 -1.2
v -1.4 1.9 -0.9
v -1.4 1.9 -1.2
v -1.4 1.9 -1.3
v -1.4 2 -1.2
v -1.4 2 -1.3
v -1.3 1.9 1.2
v -1.3 1.9 -0.8
v -1.3 2 1.2
v -1.3 2 -0.8
v -1.2 1.2 1
v -1.2 1.2 -1
v -1.2 1.3 1
v -1.2 1.3 -1
v -1.2 1.8 1.2
v -1.2 1.8 -0.9
v -1.2 1.9 1.3
v -1.2 1.9 1.2
v -1.2 1.9 -0.9
v -1.2 2 1.3
v -1.2 2 1.2
v -1.2 2 1
v -1.2 2.1 1.2
v -1.2 2.1 1
v -1.1 0.1 -0.1
v -1.1 0.1 -1
v -1.1 0.2 -0.1
v -1.1 0.2 -1
v -1.1 0.9 0.9
v -1.1 0.9 -0.1
v -1.1 1 0.9
v -1.1 1 -1
v -1.1 1.7 -1.2
v -1.1 1.7 -1.3
v -1.1 1.9 -1.2
v -1.1 1.9 -1.3
v -1.1 1.9 -1.4
v -1.1 2 -1.3
v -1.1 2 -1.4
v -1 0.1 0.9
v -1 0.1 -0.1
v -1 0.1 -1
v -1 0.1 -1.3
v -1 0.2 0.9
v -1 0.2 -0.1
v -1 0.2 -1
v -1 1 -1
v -1 1.1 -1
v -1 1.1 -1.1
v -1 1.1 -1.3
v -1 1.2 -1
v -1 1.2 -1.1
v -1 1.3 0.9
v -1 1.3 0.8
v -1 1.3 -0.8
v -1 1.3 -1
v -1 1.4 0.7
v -1 1.4 -0.7
v -1 1.7 0.7
v -1 1.7 -0.7
v -1 1.7 -1
v -1 1.8 0.9
v -1 1.8 0.8
v -1 1.8 -0.8
v -1 1.8 -1
v -0.9 1.1 -1.1
v -0.9 1.1 -1.3
v -0.9 1.2 1
v -0.9 1.2 0.9
v -0.9 1.2 -1
v -0.9 1.2 -1.1
v -0.9 1.2 -1.3
v -0.9 1.3 1
v -0.9 1.3 0.9
v -0.9 1.3 -1
v -0.9 1.3 -1.1
v -0.9 2.7 0.5
v -0.9 2.7 -0.5
v -0.9 2.8 0.5
v -0.9 2.8 -0.5
v -0.8 0.1 -1.3
v -0.8 0.1 -1.4
v -0.8 0.2 0.6
v -0.8 0.2 -0.1
v -0.8 0.2 -1.3
v -0.8 0.2 -1.4
v -0.8 0.9 0.6
v -0.8 0.9 -0.1
v -0.8 1 -1.3
v -0.8 1 -1.4
v -0.8 1.3 -1
v -0.8 1.3 -1.1
v -0.8 1.4 -1
v -0.8 1.4 -1.1
v -0.8 2.7 0.6
v -0.8 2.7 0.5
v -0.8 2.7 -0.5
v -0.8 2.7 -0.6
v -0.8 2.8 0.6
v -0.8 2.8 0.5
v -0.8 2.8 -0.5
v -0.8 2.8 -0.6
v -0.7 0.2 0.7
v -0.7 0.2 0.6
v -0.7 0.9 0.7
v -0.7 0.9 0.6
v -0.7 1.3 1
v -0.7 1.3 0.9
v -0.7 1.4 1
v -0.7 1.4 0.9
v -0.7 1.4 -1
v -0.7 1.4 -1.1
v -0.7 1.5 -1
v -0.7 1.5 -1.1
v -0.7 1.7 0.8
v -0.7 1.7 -0.6
v -0.7 1.9 0.7
v -0.7 1.9 -0.5
v -0.7 2 0.6
v -0.7 2 -0.4
v -0.7 2.6 0.6
v -0.7 2.6 -0.4
v -0.7 2.7 0.7
v -0.7 2.7 0.6
v -0.7 2.7 -0.5
v -0.7 2.7 -0.6
v -0.7 2.7 -0.8
v -0.7 2.8 0.8
v -0.7 2.8 0.6
v -0.7 2.8 -0.6
v -0.7 2.8 -0.8
v -0.7 2.9 0.8
v -0.7 2.9 -0.8
v -0.6 1.5 -1
v -0.6 1.5 -1.1
v -0.6 1.6 -1
v -0.6 1.6 -1.1
v -0.6 2.7 0.9
v -0.6 2.7 0.8
v -0.6 2.7 -0.8
v -0.6 2.7 -0.9
v -0.6 2.8 0.9
v -0.6 2.8 0.8
v -0.6 2.8 -0.8
v -0.6 2.8 -0.9
v -0.6 2.9 0.9
v -0.6 2.9 0.8
v -0.6 2.9 -0.8
v -0.6 2.9 -0.9
v -0.6 3 0.8
v -0.6 3 -0.8
v -0.5 1.4 1
v -0.5 1.4 0.9
v -0.5 1.5 1
v -0.5 1.5 0.9
v -0.5 1.6 -1
v -0.5 1.6 -1.1
v -0.5 1.7 -1
v -0.5 1.7 -1.1
v -0.4 1.7 -1
v -0.4 1.7 -1.1
v -0.4 1.8 -1
v -0.4 1.8 -1.1
v -0.4 2.7 1
v -0.4 2.7 0.9
v -0.4 2.7 -0.9
v -0.4 2.7 -1
v -0.4 2.8 1
v -0.4 2.8 0.9
v -0.4 2.8 -0.9
v -0.4 2.8 -1
v -0.3 1.5 1
v -0.3 1.5 0.9
v -0.3 1.6 1
v -0.3 1.6 0.9
v -0.3 1.7 -0.5
v -0.3 1.7 -0.6
v -0.3 1.8 -1
v -0.3 1.8 -1.1
v -0.3 1.9 -1
v -0.3 1.9 -1.1
v -0.3 2.4 -0.5
v -0.3 2.4 -0.6
v -0.3 3 -0.1
v -0.3 3 -0.2
v -0.3 3.1 -0.1
v -0.3 3.1 -0.2
v -0.2 1.1 -1
v -0.2 1.1 -1.2
v -0.2 1.8 -1
v -0.2 1.8 -1.1
v -0.2 1.9 -1.2
v -0.2 1.9 -1.3
v -0.2 2 -1.1
v -0.2 2 -1.2
v -0.2 2 -1.3
v -0.2 3 -0.2
v -0.2 3 -0.3
v -0.2 3.1 -0.2
v -0.2 3.1 -0.3
v -0.0999999 1.6 1
v -0.0999999 1.6 0.9
v -0.0999999 1.7 1
v -0.0999999 1.7 0.9
v -0.0999999 2 1.3
v -0.0999999 2 1.2
v -0.0999999 2.1 1.3
v -0.0999999 2.1 1.2
v -0.0999999 2.7 1.1
v -0.0999999 2.7 1
v -0.0999999 2.7 -1
v -0.0999999 2.7 -1.1
v -0.0999999 2.8 1.1
v -0.0999999 2.8 1
v -0.0999999 2.8 -1
v -0.0999999 2.8 -1.1
v 1.19209e-07 0.1 1.6
v 1.19209e-07 0.1 0.9
v 1.19209e-07 0.2 0.9
v 1.19209e-07 0.2 0.8
v 1.19209e-07 0.2 0.7
v 1.19209e-07 0.9 0.9
v 1.19209e-07 0.9 0.8
v 1.19209e-07 0.9 0.7
v 1.19209e-07 1.6 1
v 1.19209e-07 1.6 0.9
v 1.19209e-07 1.7 1.6
v 1.19209e-07 1.7 1
v 1.19209e-07 2.8 -0.1
v 1.19209e-07 2.8 -0.4
v 1.19209e-07 3 -0.1
v 1.19209e-07 3 -0.3
v 1.19209e-07 3.1 -0.3
v 1.19209e-07 3.1 -0.4
v 0.1 2.8 0.2
v 0.1 2.8 -0.1
v 0.1 3.1 0.2
v 0.1 3.1 -0.1
v 0.2 3.1 0.0999999
v 0.2 3.1 -0.2
v 0.2 3.4 0.0999999
v 0.2 3.4 -0.2
v 0.3 0.1 1.7
v 0.3 0.1 1.6
v 0.3 0.2 1.7
v 0.3 0.2 1.6
v 0.3 3 0.3
v 0.3 3 0.2
v 0.3 3.1 0.3
v 0.3 3.1 0.2
v 0.4 2.1 -0.6
v 0.4 2.1 -0.8
v 0.4 2.6 -0.6
v 0.4 2.6 -0.8
v 0.6 0.1 -1
v 0.6 0.1 -1.1
v 0.6 0.2 -1
v 0.6 0.2 -1.1
v 0.6 1.3 -1.1
v 0.6 1.3 -1.2
v 0.6 1.7 -1.1
v 0.6 1.7 -1.2
v 0.7 0.1 -1.1
v 0.7 0.1 -1.2
v 0.7 0.2 -1.1
v 0.7 0.2 -1.2
v 0.8 0.1 -1.2
v 0.8 0.1 -1.3
v 0.8 0.2 1.6
v 0.8 0.2 1.5
v 0.8 0.2 1.4
v 0.8 0.2 -1.2
v 0.8 0.2 -1.3
v 0.8 0.3 1.4
v 0.8 0.3 1.3
v 0.8 1.2 1.6
v 0.8 1.2 1.5
v 0.8 1.2 1.3
v 0.8 2.2 -0.6
v 0.8 2.2 -0.7
v 0.8 2.2 -0.8
v 0.8 2.3 -0.6
v 0.8 2.3 -0.7
v 0.8 2.3 -0.8
v 0.8 2.4 -0.6
v 0.8 2.4 -0.7
v 0.8 2.4 -0.8
v 0.8 2.5 -0.6
v 0.8 2.5 -0.8
v 0.9 1.5 1.5
v 0.9 1.5 1.1
v 0.9 1.7 1.5
v 0.9 1.7 1.1
v 0.9 3 1
v 0.9 3 -0.9
v 0.9 3.1 1
v 0.9 3.1 -0.9
v 1 0.2 -0.7
v 1 0.2 -1
v 1 0.9 -0.7
v 1 0.9 -1
v 1 1.7 1
v 1 1.7 0.8
v 1 1.7 -0.6
v 1 1.7 -0.8
v 1 1.8 1
v 1 1.8 0.9
v 1 1.8 -0.8
v 1 1.9 0.9
v 1 1.9 -0.8
v 1 1.9 -0.9
v 1 2 1
v 1 2 0.9
v 1 2.1 1
v 1 2.7 0.9
v 1 2.7 0.8
v 1 2.7 -0.6
v 1 2.7 -0.7
v 1 2.7 -0.8
v 1 2.7 -0.9
v 1 2.8 0.9
v 1 2.8 -0.7
v 1 2.8 -0.8
v 1 2.8 -0.9
v 1 3 1.1
v 1 3 1
v 1 3 -0.9
v 1 3 -1
v 1 3.1 1.1
v 1 3.1 1
v 1 3.1 -0.9
v 1 3.1 -1
v 1 3.2 0.8
v 1 3.2 0.7
v 1 3.2 -0.7
v 1 3.2 -0.8
v 1 3.3 0.6
v 1 3.3 -0.6
v 1 3.4 0.4
v 1 3.4 0.3
v 1 3.4 0.0999999
v 1 3.4 -0.1
v 1 3.4 -0.3
v 1 3.4 -0.4
v 1 3.5 0.2
v 1 3.5 0.0999999
v 1 3.5 -0.1
v 1 3.5 -0.2
v 1 3.6 0.3
v 1 3.6 0.2
v 1 3.6 0.0999999
v 1 3.6 -0.1
v 1 3.6 -0.2
v 1 3.6 -0.3
v 1 3.7 0.3
v 1 3.7 0.2
v 1 3.7 0.0999999
v 1 3.7 -0.1
v 1 3.7 -0.2
v 1 3.7 -0.3
v 1 3.8 0.4
v 1 3.8 0.3
v 1 3.8 0.2
v 1 3.8 0.0999999
v 1 3.8 -0.1
v 1 3.8 -0.2
v 1 3.8 -0.3
v 1 3.8 -0.4
v 1 3.9 0.6
v 1 3.9 0.3
v 1 3.9 0.2
v 1 3.9 -0.2
v 1 3.9 -0.3
v 1 3.9 -0.6
v 1 4 0.7
v 1 4 -0.7
v 1 4.1 0.8
v 1 4.1 -0.8
v 1.1 3.1 0.8
v 1.1 3.1 -0.8
v 1.1 3.2 0.8
v 1.1 3.2 0.7
v 1.1 3.2 -0.7
v 1.1 3.2 -0.8
v 1.2 0.6 -1
v 1.2 0.6 -1.8
v 1.2 0.7 -1
v 1.2 0.7 -1.7
v 1.2 0.8 -1.1
v 1.2 0.8 -1.2
v 1.2 0.8 -1.3
v 1.2 0.8 -1.4
v 1.2 0.8 -1.5
v 1.2 0.8 -1.6
v 1.2 0.9 -1.2
v 1.2 0.9 -1.3
v 1.2 0.9 -1.4
v 1.2 0.9 -1.5
v 1.2 1 -1.2
v 1.2 1 -1.3
v 1.2 1 -1.4
v 1.2 1 -1.5
v 1.2 1.1 -1.2
v 1.2 1.1 -1.3
v 1.2 1.1 -1.4
v 1.2 1.1 -1.5
v 1.2 1.2 -1.2
v 1.2 1.2 -1.3
v 1.2 1.3 -1.2
v 1.2 1.3 -1.3
v 1.2 1.3 -1.5
v 1.2 1.3 -1.6
v 1.2 1.4 -1.1
v 1.2 1.4 -1.3
v 1.2 1.4 -1.4
v 1.2 1.4 -1.5
v 1.2 1.4 -1.6
v 1.2 1.5 -1.2
v 1.2 1.5 -1.3
v 1.2 1.5 -1.4
v 1.2 1.5 -1.5
v 1.2 1.6 -1.1
v 1.2 1.6 -1.2
v 1.2 1.6 -1.3
v 1.2 1.6 -1.4
v 1.2 1.6 -1.5
v 1.2 1.7 -1.2
v 1.2 1.7 -1.3
v 1.2 1.7 -1.4
v 1.2 1.7 -1.5
v 1.2 1.8 -1
v 1.2 1.8 -1.4
v 1.2 1.8 -1.5
v 1.2 1.9 -1.3
v 1.2 1.9 -1.4
v 1.2 1.9 -1.5
v 1.2 2 -1.2
v 1.2 2 -1.3
v 1.2 2 -1.4
v 1.2 2 -1.5
v 1.2 2.1 -1.2
v 1.2 2.1 -1.3
v 1.2 2.1 -1.4
v 1.2 2.1 -1.5
v 1.2 2.2 -1.1
v 1.2 2.2 -1.3
v 1.2 2.2 -1.4
v 1.2 2.2 -1.5
v 1.2 2.3 -0.9
v 1.2 2.3 -1
v 1.2 2.3 -1.1
v 1.2 2.3 -1.5
v 1.2 2.3 -1.6
v 1.2 2.4 -0.9
v 1.2 2.4 -1.7
v 1.2 2.5 -0.9
v 1.2 2.5 -1.8
v 1.4 0.2 1.1
v 1.4 0.2 1
v 1.4 1.8 1.1
v 1.4 1.8 1
v 1.4 1.9 1.1
v 1.4 1.9 1
v 1.4 3 1.2
v 1.4 3 1.1
v 1.4 3 1
v 1.4 3.1 1.2
v 1.4 3.1 1.1
v -1.1 1.7 -0.9
v -1.1 1.7 -1
v -1.1 1.8 -0.9
v -1.1 1.8 -1
v -1 1 1
v -1 1 0.9
v -1 1.1 1
v -1 1.1 0.9
v -1 1.2 1
v -1 1.2 0.9
v -1 1.3 1
v -1 1.3 0.9
v -0.9 1.1 1
v -0.9 1.1 0.9
v -0.9 1.2 1
v -0.9 1.2 0.9
v -0.9 1.7 0.9
v -0.9 1.7 0.8
v -0.9 1.7 -0.8
v -0.9 1.8 0.9
v -0.9 1.8 0.8
v -0.9 1.8 -0.8
v -0.9 1.9 0.9
v -0.9 1.9 -0.8
v -0.9 2 0.9
v -0.9 2 -0.8
v -0.8 1.2 -1
v -0.8 1.2 -1.1
v -0.8 1.3 -1
v -0.8 1.3 -1.1
v -0.8 1.7 -1
v -0.8 1.7 -1.3
v -0.8 1.8 -1
v -0.8 1.9 -0.8
v -0.8 1.9 -0.9
v -0.8 1.9 -1
v -0.8 1.9 -1.1
v -0.8 1.9 -1.3
v -0.8 1.9 -1.4
v -0.8 2 -0.8
v -0.8 2 -0.9
v -0.8 2 -1.1
v -0.8 2 -1.3
v -0.8 2 -1.4
v -0.7 1.2 1
v -0.7 1.2 0.9
v -0.7 1.3 1
v -0.7 1.3 0.9
v -0.7 1.3 -1
v -0.7 1.3 -1.1
v -0.7 1.4 -1
v -0.7 1.4 -1.1
v -0.6 1.4 -1
v -0.6 1.4 -1.1
v -0.6 1.5 -1
v -0.6 1.5 -1.1
v -0.5 1.3 1
v -0.5 1.3 0.9
v -0.5 1.4 1
v -0.5 1.4 0.9
v -0.5 1.5 -1
v -0.5 1.5 -1.1
v -0.5 1.6 -1
v -0.5 1.6 -1.1
v -0.5 1.7 -0.5
v -0.5 1.7 -0.6
v -0.5 2.4 -0.5
v -0.5 2.4 -0.6
v -0.5 2.8 0.7
v -0.5 2.8 -0.7
v -0.5 3 0.7
v -0.5 3 -0.7
v -0.4 0.1 -1.3
v -0.4 0.1 -1.4
v -0.4 0.2 -1.3
v -0.4 0.2 -1.4
v -0.4 1 -1.3
v -0.4 1 -1.4
v -0.4 1.6 -1
v -0.4 1.6 -1.1
v -0.4 1.7 -1
v -0.4 1.7 -1.1
v -0.3 1.1 -1
v -0.3 1.1 -1.3
v -0.3 1.2 -1
v -0.3 1.2 -1.3
v -0.3 1.4 1
v -0.3 1.4 0.9
v -0.3 1.5 1
v -0.3 1.5 0.9
v -0.3 1.7 -1
v -0.3 1.7 -1.1
v -0.3 1.8 1.2
v -0.3 1.8 1.1
v -0.3 1.8 -1
v -0.3 1.8 -1.1
v -0.3 1.9 1.2
v -0.3 1.9 1.1
v -0.2 0.1 -1
v -0.2 0.1 -1.3
v -0.2 0.2 -1
v -0.2 1.1 -1
v -0.2 1.1 -1.2
v -0.2 1.1 -1.3
v -0.0999999 1.5 1
v -0.0999999 1.5 0.9
v -0.0999999 1.6 1
v -0.0999999 1.6 0.9
v -0.0999999 1.9 1.3
v -0.0999999 1.9 1.2
v -0.0999999 2 1.3
v -0.0999999 2 1.2
v 1.19209e-07 1.3 -1.1
v 1.19209e-07 1.3 -1.2
v 1.19209e-07 1.7 -1.1
v 1.19209e-07 1.7 -1.2
v 0.1 1.5 1.5
v 0.1 1.5 1.1
v 0.1 1.7 1.5
v 0.1 1.7 1.1
v 0.3 0.2 1.6
v 0.3 0.2 1.5
v 0.3 0.2 1.4
v 0.3 0.3 1.4
v 0.3 0.3 1.3
v 0.3 1.2 1.6
v 0.3 1.2 1.5
v 0.3 1.2 1.3
v 0.5 2.2 -0.6
v 0.5 2.2 -0.7
v 0.5 2.2 -0.8
v 0.5 2.3 -0.6
v 0.5 2.3 -0.7
v 0.5 2.3 -0.8
v 0.5 2.4 -0.6
v 0.5 2.4 -0.7
v 0.5 2.4 -0.8
v 0.5 2.5 -0.6
v 0.5 2.5 -0.8
v 0.5 2.8 0.2
v 0.5 2.8 -0.4
v 0.5 3 0.3
v 0.5 3 0.2
v 0.5 3.1 0.3
v 0.5 3.1 0.0999999
v 0.5 3.1 -0.2
v 0.5 3.1 -0.4
v 0.5 3.4 0.0999999
v 0.5 3.4 -0.2
v 0.7 0.2 -0.7
v 0.7 0.2 -1
v 0.7 0.9 -0.7
v 0.7 0.9 -1
v 0.7 2.7 1.1
v 0.7 2.7 1
v 0.7 2.7 -1
v 0.7 2.7 -1.1
v 0.7 2.8 1.1
v 0.7 2.8 1
v 0.7 2.8 -1
v 0.7 2.8 -1.1
v 0.8 0.1 1.7
v 0.8 0.1 1.6
v 0.8 0.2 1.7
v 0.8 0.2 1.6
v 0.8 1.1 -1
v 0.8 1.1 -1.2
v 0.8 1.8 -1
v 0.8 1.9 -0.9
v 0.8 1.9 -1
v 0.8 1.9 -1.2
v 0.8 1.9 -1.3
v 0.8 2 -0.9
v 0.8 2 -1
v 0.8 2 -1.2
v 0.8 2 -1.3
v 0.8 2.7 1
v 0.8 2.7 0.9
v 0.8 2.7 -0.9
v 0.8 2.7 -1
v 0.8 2.8 1
v 0.8 2.8 0.9
v 0.8 2.8 0.8
v 0.8 2.8 0.7
v 0.8 2.8 -0.7
v 0.8 2.8 -0.8
v 0.8 2.8 -0.9
v 0.8 2.8 -1
v 0.8 2.9 0.9
v 0.8 2.9 0.8
v 0.8 2.9 -0.8
v 0.8 2.9 -0.9
v 0.8 3 0.8
v 0.8 3 0.7
v 0.8 3 -0.7
v 0.8 3 -0.8
v 0.9 0.1 -1.2
v 0.9 0.1 -1.3
v 0.9 0.2 -1.2
v 0.9 0.2 -1.3
v 0.9 1.8 -0.9
v 0.9 1.8 -1
v 0.9 1.9 -0.9
v 0.9 1.9 -1
v 0.9 1.9 -1.2
v 0.9 2 -1
v 0.9 2 -1.2
v 0.9 2.1 -0.6
v 0.9 2.1 -0.8
v 0.9 2.6 -0.6
v 0.9 2.6 -0.8
v 0.9 2.7 -0.7
v 0.9 2.7 -0.8
v 0.9 2.8 -0.7
v 0.9 2.8 -0.8
v 1 0.1 1.6
v 1 0.1 1
v 1 0.1 -1.1
v 1 0.1 -1.2
v 1 0.2 1
v 1 0.2 -1.1
v 1 0.2 -1.2
v 1 1.7 1.6
v 1 1.7 1
v 1 1.8 1.1
v 1 1.8 1
v 1 1.8 0.9
v 1 1.9 1.2
v 1 1.9 1.1
v 1 1.9 1
v 1 1.9 0.9
v 1 2 1.3
v 1 2 1.2
v 1 2.1 1.3
v 1 2.1 1.2
v 1 2.1 1
v 1.1 0.1 -1
v 1.1 0.1 -1.1
v 1.1 0.2 -1
v 1.1 0.2 -1.1
v 1.2 3.1 0.8
v 1.2 3.1 -0.8
v 1.2 4.1 0.8
v 1.2 4.1 -0.8
v 1.3 0.6 -1
v 1.3 0.6 -1.8
v 1.3 0.7 -1
v 1.3 0.7 -1.7
v 1.3 0.8 -1.1
v 1.3 0.8 -1.2
v 1.3 0.8 -1.3
v 1.3 0.8 -1.4
v 1.3 0.8 -1.5
v 1.3 0.8 -1.6
v 1.3 0.9 -1.2
v 1.3 0.9 -1.3
v 1.3 0.9 -1.4
v 1.3 0.9 -1.5
v 1.3 1 -1.2
v 1.3 1 -1.3
v 1.3 1 -1.4
v 1.3 1 -1.5
v 1.3 1.1 -1.2
v 1.3 1.1 -1.3
v 1.3 1.1 -1.4
v 1.3 1.1 -1.5
v 1.3 1.2 -1.2
v 1.3 1.2 -1.3
v 1.3 1.3 -1.2
v 1.3 1.3 -1.3
v 1.3 1.3 -1.5
v 1.3 1.3 -1.6
v 1.3 1.4 -1.1
v 1.3 1.4 -1.3
v 1.3 1.4 -1.4
v 1.3 1.4 -1.5
v 1.3 1.4 -1.6
v 1.3 1.5 -1.2
v 1.3 1.5 -1.3
v 1.3 1.5 -1.4
v 1.3 1.5 -1.5
v 1.3 1.6 -1.1
v 1.3 1.6 -1.2
v 1.3 1.6 -1.3
v 1.3 1.6 -1.4
v 1.3 1.6 -1.5
v 1.3 1.7 -1.2
v 1.3 1.7 -1.3
v 1.3 1.7 -1.4
v 1.3 1.7 -1.5
v 1.3 1.8 0.9
v 1.3 1.8 -0.9
v 1.3 1.8 -1
v 1.3 1.8 -1.4
v 1.3 1.8 -1.5
v 1.3 1.9 0.9
v 1.3 1.9 -0.9
v 1.3 1.9 -1.3
v 1.3 1.9 -1.4
v 1.3 1.9 -1.5
v 1.3 2 -1.2
v 1.3 2 -1.3
v 1.3 2 -1.4
v 1.3 2 -1.5
v 1.3 2.1 -1.2
v 1.3 2.1 -1.3
v 1.3 2.1 -1.4
v 1.3 2.1 -1.5
v 1.3 2.2 -1.1
v 1.3 2.2 -1.3
v 1.3 2.2 -1.4
v 1.3 2.2 -1.5
v 1.3 2.3 -0.9
v 1.3 2.3 -1
v 1.3 2.3 -1.1
v 1.3 2.3 -1.5
v 1.3 2.3 -1.6
v 1.3 2.4 -0.9
v 1.3 2.4 -1.7
v 1.3 2.5 -0.9
v 1.3 2.5 -1.8
v 1.4 0.1 1
v 1.4 0.1 -1
v 1.4 0.2 1
v 1.4 0.2 -1
v 1.7 0.2 1.1
v 1.7 0.2 -1
v 1.7 1.8 1.1
v 1.7 1.8 -1
v 1.7 1.9 1.1
v 1.7 1.9 -0.9
v 1.7 3 1.2
v 1.7 3 1.1
v 1.7 3 -0.9
v 1.7 3 -1
v 1.7 3.1 1.2
v 1.7 3.1 1.1
v 1.7 3.1 -0.9
v 1.7 3.1 -1
v 1.8 3 1.1
v 1.8 3 -0.9
v 1.8 3.1 1.1
v 1.8 3.1 -0.9
v 0.3 0.1 1.7
v 0.3 0.2 1.7
v 0.8 0.1 1.7
v 0.8 0.2 1.7
v 1.19209e-07 0.1 1.6
v 1.19209e-07 1.7 1.6
v 0.3 0.1 1.6
v 0.3 0.2 1.6
v 0.3 1.2 1.6
v 0.3 1.3 1.6
v 0.8 0.1 1.6
v 0.8 0.2 1.6
v 0.8 1.2 1.6
v 0.8 1.3 1.6
v 1 0.1 1.6
v 1 1.7 1.6
v 0.3 0.2 1.4
v 0.3 0.3 1.4
v 0.8 0.2 1.4
v 0.8 0.3 1.4
v -1.2 1.9 1.3
v -1.2 2 1.3
v -0.0999999 1.9 1.3
v -0.0999999 2 1.3
v -0.0999999 2.1 1.3
v 0.3 0.3 1.3
v 0.3 1.2 1.3
v 0.8 0.3 1.3
v 0.8 1.2 1.3
v 1 2 1.3
v 1 2.1 1.3
v -1.3 1.9 1.2
v -1.3 2 1.2
v -1.2 1.8 1.2
v -1.2 1.9 1.2
v -1.2 2 1.2
v -1.2 2.1 1.2
v -0.3 1.8 1.2
v -0.3 1.9 1.2
v -0.0999999 1.9 1.2
v -0.0999999 2 1.2
v -0.0999999 2.1 1.2
v 1 1.9 1.2
v 1 2 1.2
v 1.4 3 1.2
v 1.4 3.1 1.2
v 1.7 3 1.2
v 1.7 3.1 1.2
v -0.3 1.8 1.1
v -0.3 1.9 1.1
v -0.0999999 2.7 1.1
v -0.0999999 2.8 1.1
v 0.1 1.5 1.1
v 0.1 1.7 1.1
v 0.7 2.7 1.1
v 0.7 2.8 1.1
v 0.9 1.5 1.1
v 0.9 1.7 1.1
v 1 1.8 1.1
v 1 1.9 1.1
v 1 3 1.1
v 1 3.1 1.1
v 1.4 0.2 1.1
v 1.4 1.8 1.1
v 1.4 1.9 1.1
v 1.4 3 1.1
v 1.4 3.1 1.1
v 1.7 0.2 1.1
v 1.7 1.8 1.1
v 1.7 1.9 1.1
v 1.7 3 1.1
v 1.7 3.1 1.1
v 1.8 3 1.1
v 1.8 3.1 1.1
v -1.7 1 1
v -1.7 1.1 1
v -1.5 1.1 1
v -1.5 1.2 1
v -1.2 1.2 1
v -1.2 1.3 1
v -1 1 1
v -1 1.1 1
v -1 1.2 1
v -1 1.3 1
v -0.9 1.1 1
v -0.9 1.2 1
v -0.9 1.3 1
v -0.7 1.2 1
v -0.7 1.3 1
v -0.7 1.4 1
v -0.5 1.3 1
v -0.5 1.4 1
v -0.5 1.5 1
v -0.4 2.7 1
v -0.4 2.8 1
v -0.3 1.4 1
v -0.3 1.5 1
v -0.3 1.6 1
v -0.0999999 1.5 1
v -0.0999999 1.6 1
v -0.0999999 1.7 1
v -0.0999999 2.7 1
v -0.0999999 2.8 1
v 1.19209e-07 1.6 1
v 1.19209e-07 1.7 1
v 0.7 2.7 1
v 0.7 2.8 1
v 0.8 2.7 1
v 0.8 2.8 1
v 0.9 3 1
v 0.9 3.1 1
v 1 0.1 1
v 1 0.2 1
v 1 1.7 1
v 1 1.8 1
v 1 1.9 1
v 1 2.1 1
v 1 3 1
v 1 3.1 1
v 1.4 0.1 1
v 1.4 0.2 1
v 1.4 1.8 1
v 1.4 1.9 1
v 1.4 3 1
v -1.1 0.9 0.9
v -1.1 1 0.9
v -1 0.1 0.9
v -1 0.2 0.9
v -1 1 0.9
v -1 1.1 0.9
v -1 1.2 0.9
v -1 1.3 0.9
v -1 1.8 0.9
v -0.9 1.1 0.9
v -0.9 1.2 0.9
v -0.9 1.3 0.9
v -0.9 1.7 0.9
v -0.9 1.8 0.9
v -0.7 1.2 0.9
v -0.7 1.3 0.9
v -0.7 1.4 0.9
v -0.6 2.7 0.9
v -0.6 2.8 0.9
v -0.6 2.9 0.9
v -0.5 1.3 0.9
v -0.5 1.4 0.9
v -0.5 1.5 0.9
v -0.4 2.7 0.9
v -0.4 2.8 0.9
v -0.3 1.4 0.9
v -0.3 1.5 0.9
v -0.3 1.6 0.9
v -0.0999999 1.5 0.9
v -0.0999999 1.6 0.9
v -0.0999999 1.7 0.9
v 1.19209e-07 0.1 0.9
v 1.19209e-07 0.2 0.9
v 1.19209e-07 0.9 0.9
v 1.19209e-07 1.6 0.9
v 0.8 2.7 0.9
v 0.8 2.8 0.9
v 0.8 2.9 0.9
v 1 1.8 0.9
v 1 1.9 0.9
v 1 2.7 0.9
v 1 2.8 0.9
v 1.3 1.8 0.9
v 1.3 1.9 0.9
v -0.7 1.7 0.8
v -0.7 2.8 0.8
v -0.7 2.9 0.8
v -0.6 2.7 0.8
v -0.6 2.8 0.8
v -0.6 2.9 0.8
v -0.6 3 0.8
v 0.8 2.9 0.8
v 0.8 3 0.8
v 1 1.7 0.8
v 1 2.7 0.8
v 1 3.2 0.8
v 1 4.1 0.8
v 1.1 3.1 0.8
v 1.1 3.2 0.8
v 1.2 3.1 0.8
v 1.2 4.1 0.8
v -0.7 0.2 0.7
v -0.7 0.9 0.7
v 1.19209e-07 0.2 0.7
v 1.19209e-07 0.9 0.7
v -0.8 0.2 0.6
v -0.8 0.9 0.6
v -0.8 2.7 0.6
v -0.8 2.8 0.6
v -0.7 0.2 0.6
v -0.7 0.9 0.6
v -0.7 2.7 0.6
v -0.7 2.8 0.6
v -0.9 2.7 0.5
v -0.9 2.8 0.5
v -0.8 2.7 0.5
v -0.8 2.8 0.5
v 0.3 3 0.3
v 0.3 3.1 0.3
v 0.5 3 0.3
v 0.5 3.1 0.3
v 0.1 2.8 0.2
v 0.1 3.1 0.2
v 0.3 3 0.2
v 0.3 3.1 0.2
v 0.5 2.8 0.2
v 0.5 3 0.2
v 0.2 3.1 0.0999999
v 0.2 3.4 0.0999999
v 0.5 3.1 0.0999999
v 0.5 3.4 0.0999999
v -1.1 0.1 -0.1
v -1.1 0.2 -0.1
v -1.1 0.9 -0.1
v -1 0.1 -0.1
v -1 0.2 -0.1
v -0.9 0.2 -0.1
v -0.9 0.9 -0.1
v -0.8 0.2 -0.1
v -0.8 0.9 -0.1
v -0.3 3 -0.1
v -0.3 3.1 -0.1
v 1.19209e-07 2.8 -0.1
v 1.19209e-07 3 -0.1
v 0.1 2.8 -0.1
v 0.1 3.1 -0.1
v -0.5 2.8 -0.7
v -0.5 3 -0.7
v 0.8 2.8 -0.7
v 0.8 3 -0.7
v -1.5 1.9 -0.8
v -1.5 2 -0.8
v -1.3 1.9 -0.8
v -1.3 2 -0.8
v -0.9 1.7 -0.8
v -0.9 1.8 -0.8
v -0.9 1.9 -0.8
v -0.9 2 -0.8
v -0.8 1.9 -0.8
v -0.8 2 -0.8
v 0.9 2.7 -0.8
v 0.9 2.8 -0.8
v 1 1.7 -0.8
v 1 1.8 -0.8
v 1 1.9 -0.8
v 1 2.7 -0.8
v 1 2.8 -0.8
v -1.4 1.7 -0.9
v -1.4 1.9 -0.9
v -1.2 1.8 -0.9
v -1.2 1.9 -0.9
v -1.1 1.7 -0.9
v -1.1 1.8 -0.9
v -0.8 1.9 -0.9
v -0.8 2 -0.9
v 0.8 1.9 -0.9
v 0.8 2 -0.9
v -1.1 1.7 -1
v -1.1 1.8 -1
v -1 1.7 -1
v -1 1.8 -1
v 0.8 1.9 -1
v 0.8 2 -1
v 0.9 1.9 -1
v 0.9 2 -1
v 1.2 1.8 -1
v 1.2 2.3 -1
v 1.3 1.8 -1
v 1.3 2.3 -1
v 0.1 1.5 1.5
v 0.1 1.7 1.5
v 0.9 1.5 1.5
v 0.9 1.7 1.5
v -1.2 2 1
v -1.2 2.1 1
v 1 2 1
v 1 2.1 1
v -0.9 1.8 0.9
v -0.9 1.9 0.9
v -0.9 2 0.9
v 1 1.8 0.9
v 1 1.9 0.9
v 1 2 0.9
v -0.5 2.8 0.7
v -0.5 3 0.7
v 0.8 2.8 0.7
v 0.8 3 0.7
v -0.3 3 -0.2
v -0.3 3.1 -0.2
v -0.2 3 -0.2
v -0.2 3.1 -0.2
v 0.2 3.1 -0.2
v 0.2 3.4 -0.2
v 0.5 3.1 -0.2
v 0.5 3.4 -0.2
v -0.2 3 -0.3
v -0.2 3.1 -0.3
v 1.19209e-07 3 -0.3
v 1.19209e-07 3.1 -0.3
v 1.19209e-07 2.8 -0.4
v 1.19209e-07 3.1 -0.4
v 0.5 2.8 -0.4
v 0.5 3.1 -0.4
v -0.9 2.7 -0.5
v -0.9 2.8 -0.5
v -0.8 2.7 -0.5
v -0.8 2.8 -0.5
v -0.5 1.7 -0.5
v -0.5 2.4 -0.5
v -0.3 1.7 -0.5
v -0.3 2.4 -0.5
v -0.8 2.7 -0.6
v -0.8 2.8 -0.6
v -0.7 1.7 -0.6
v -0.7 2.7 -0.6
v -0.7 2.8 -0.6
v -0.6 1.7 -0.6
v -0.6 2.5 -0.6
v -0.5 1.7 -0.6
v -0.5 2.4 -0.6
v -0.3 1.7 -0.6
v -0.3 2.4 -0.6
v -0.2 1.7 -0.6
v -0.2 2.5 -0.6
v 0.4 2.1 -0.6
v 0.4 2.6 -0.6
v 0.5 2.2 -0.6
v 0.5 2.3 -0.6
v 0.5 2.4 -0.6
v 0.5 2.5 -0.6
v 0.6 2.1 -0.6
v 0.6 2.2 -0.6
v 0.7 2.1 -0.6
v 0.7 2.2 -0.6
v 0.8 2.2 -0.6
v 0.8 2.3 -0.6
v 0.8 2.4 -0.6
v 0.8 2.5 -0.6
v 0.9 2.1 -0.6
v 0.9 2.6 -0.6
v 1 1.7 -0.6
v 1 2.7 -0.6
v 0.7 0.2 -0.7
v 0.7 0.9 -0.7
v 0.9 2.7 -0.7
v 0.9 2.8 -0.7
v 1 0.2 -0.7
v 1 0.9 -0.7
v 1 2.7 -0.7
v 1 2.8 -0.7
v -0.7 2.7 -0.8
v -0.7 2.8 -0.8
v -0.7 2.9 -0.8
v -0.6 2.7 -0.8
v -0.6 2.8 -0.8
v -0.6 2.9 -0.8
v -0.6 3 -0.8
v 0.4 2.1 -0.8
v 0.4 2.6 -0.8
v 0.5 2.1 -0.8
v 0.5 2.2 -0.8
v 0.5 2.3 -0.8
v 0.5 2.4 -0.8
v 0.5 2.5 -0.8
v 0.8 2.1 -0.8
v 0.8 2.2 -0.8
v 0.8 2.3 -0.8
v 0.8 2.4 -0.8
v 0.8 2.5 -0.8
v 0.8 2.9 -0.8
v 0.8 3 -0.8
v 0.9 2.1 -0.8
v 0.9 2.6 -0.8
v 1 3.2 -0.8
v 1 4.1 -0.8
v 1.1 3.1 -0.8
v 1.1 3.2 -0.8
v 1.2 3.1 -0.8
v 1.2 4.1 -0.8
v -0.6 2.7 -0.9
v -0.6 2.8 -0.9
v -0.6 2.9 -0.9
v -0.4 2.7 -0.9
v -0.4 2.8 -0.9
v 0.8 2.7 -0.9
v 0.8 2.8 -0.9
v 0.8 2.9 -0.9
v 0.9 1.8 -0.9
v 0.9 1.9 -0.9
v 0.9 3 -0.9
v 0.9 3.1 -0.9
v 1 1.8 -0.9
v 1 1.9 -0.9
v 1 2.7 -0.9
v 1 2.8 -0.9
v 1 3 -0.9
v 1 3.1 -0.9
v 1.2 2.3 -0.9
v 1.2 2.4 -0.9
v 1.2 2.5 -0.9
v 1.3 1.8 -0.9
v 1.3 1.9 -0.9
v 1.3 2.3 -0.9
v 1.3 2.4 -0.9
v 1.3 2.5 -0.9
v 1.4 1.9 -0.9
v 1.4 3 -0.9
v 1.7 1.9 -0.9
v 1.7 3 -0.9
v 1.7 3.1 -0.9
v 1.8 3 -0.9
v 1.8 3.1 -0.9
v -1.7 1 -1
v -1.7 1.1 -1
v -1.5 1.1 -1
v -1.5 1.2 -1
v -1.2 1.2 -1
v -1.2 1.3 -1
v -1.1 0.1 -1
v -1.1 0.2 -1
v -1.1 1 -1
v -1 0.1 -1
v -1 0.2 -1
v -1 1 -1
v -1 1.1 -1
v -1 1.2 -1
v -1 1.3 -1
v -1 1.7 -1
v -0.9 1.2 -1
v -0.9 1.3 -1
v -0.8 1.2 -1
v -0.8 1.3 -1
v -0.8 1.4 -1
v -0.8 1.7 -1
v -0.8 1.8 -1
v -0.8 1.9 -1
v -0.7 1.3 -1
v -0.7 1.4 -1
v -0.7 1.5 -1
v -0.6 1.4 -1
v -0.6 1.5 -1
v -0.6 1.6 -1
v -0.5 1.5 -1
v -0.5 1.6 -1
v -0.5 1.7 -1
v -0.4 1.6 -1
v -0.4 1.7 -1
v -0.4 1.8 -1
v -0.4 2.7 -1
v -0.4 2.8 -1
v -0.3 1.1 -1
v -0.3 1.2 -1
v -0.3 1.7 -1
v -0.3 1.8 -1
v -0.3 1.9 -1
v -0.2 0.1 -1
v -0.2 0.2 -1
v -0.2 1.1 -1
v -0.2 1.8 -1
v -0.0999999 2.7 -1
v -0.0999999 2.8 -1
v 0.6 0.1 -1
v 0.6 0.2 -1
v 0.6 1 -1
v 0.7 0.2 -1
v 0.7 0.9 -1
v 0.7 2.7 -1
v 0.7 2.8 -1
v 0.8 1.1 -1
v 0.8 1.8 -1
v 0.8 1.9 -1
v 0.8 2.7 -1
v 0.8 2.8 -1
v 0.9 1.8 -1
v 0.9 1.9 -1
v 1 0.2 -1
v 1 0.9 -1
v 1 1 -1
v 1 1.8 -1
v 1 3 -1
v 1 3.1 -1
v 1.1 0.1 -1
v 1.1 0.2 -1
v 1.1 1 -1
v 1.2 0.6 -1
v 1.2 0.7 -1
v 1.2 1.8 -1
v 1.3 0.6 -1
v 1.3 0.7 -1
v 1.3 1.8 -1
v 1.4 0.1 -1
v 1.4 0.2 -1
v 1.4 1.8 -1
v 1.7 0.2 -1
v 1.7 1.8 -1
v 1.7 3 -1
v 1.7 3.1 -1
v -1 1.1 -1.1
v -1 1.2 -1.1
v -0.9 1.1 -1.1
v -0.9 1.2 -1.1
v -0.9 1.3 -1.1
v -0.8 1.2 -1.1
v -0.8 1.3 -1.1
v -0.8 1.4 -1.1
v -0.8 1.9 -1.1
v -0.8 2 -1.1
v -0.7 1.3 -1.1
v -0.7 1.4 -1.1
v -0.7 1.5 -1.1
v -0.6 1.4 -1.1
v -0.6 1.5 -1.1
v -0.6 1.6 -1.1
v -0.5 1.5 -1.1
v -0.5 1.6 -1.1
v -0.5 1.7 -1.1
v -0.4 1.6 -1.1
v -0.4 1.7 -1.1
v -0.4 1.8 -1.1
v -0.3 1.7 -1.1
v -0.3 1.8 -1.1
v -0.3 1.9 -1.1
v -0.2 1.8 -1.1
v -0.2 2 -1.1
v -0.0999999 2.7 -1.1
v -0.0999999 2.8 -1.1
v 1.19209e-07 1.3 -1.1
v 1.19209e-07 1.7 -1.1
v 0.6 0.1 -1.1
v 0.6 0.2 -1.1
v 0.6 1.3 -1.1
v 0.6 1.7 -1.1
v 0.7 0.1 -1.1
v 0.7 0.2 -1.1
v 0.7 2.7 -1.1
v 0.7 2.8 -1.1
v 1 0.1 -1.1
v 1 0.2 -1.1
v 1.1 0.1 -1.1
v 1.1 0.2 -1.1
v -1.5 1.9 -1.2
v -1.5 2 -1.2
v -1.4 1.7 -1.2
v -1.4 1.9 -1.2
v -1.4 2 -1.2
v -1.1 1.7 -1.2
v -1.1 1.9 -1.2
v -0.2 1.1 -1.2
v -0.2 1.9 -1.2
v -0.0999999 1.2 -1.2
v -0.0999999 1.8 -1.2
v 1.19209e-07 1.3 -1.2
v 1.19209e-07 1.7 -1.2
v 0.6 1.3 -1.2
v 0.6 1.7 -1.2
v 0.7 0.1 -1.2
v 0.7 0.2 -1.2
v 0.7 1.2 -1.2
v 0.7 1.8 -1.2
v 0.8 0.1 -1.2
v 0.8 0.2 -1.2
v 0.8 1.1 -1.2
v 0.8 1.9 -1.2
v 0.8 2 -1.2
v 0.9 0.1 -1.2
v 0.9 0.2 -1.2
v 0.9 1.9 -1.2
v 0.9 2 -1.2
v 1 0.1 -1.2
v 1 0.2 -1.2
v -1.4 1.9 -1.3
v -1.4 2 -1.3
v -1.1 1.7 -1.3
v -1.1 1.9 -1.3
v -1.1 2 -1.3
v -1 0.1 -1.3
v -1 1.1 -1.3
v -0.9 0.2 -1.3
v -0.9 1.1 -1.3
v -0.9 1.2 -1.3
v -0.8 0.1 -1.3
v -0.8 0.2 -1.3
v -0.8 1 -1.3
v -0.8 1.7 -1.3
v -0.8 1.9 -1.3
v -0.4 0.1 -1.3
v -0.4 0.2 -1.3
v -0.4 1 -1.3
v -0.3 0.2 -1.3
v -0.3 1.1 -1.3
v -0.3 1.2 -1.3
v -0.2 0.1 -1.3
v -0.2 1.1 -1.3
v -0.2 1.9 -1.3
v -0.2 2 -1.3
v 0.8 0.1 -1.3
v 0.8 0.2 -1.3
v 0.8 1.9 -1.3
v 0.8 2 -1.3
v 0.9 0.1 -1.3
v 0.9 0.2 -1.3
v -1.1 1.9 -1.4
v -1.1 2 -1.4
v -0.8 0.1 -1.4
v -0.8 0.2 -1.4
v -0.8 1 -1.4
v -0.8 1.9 -1.4
v -0.8 2 -1.4
v -0.4 0.1 -1.4
v -0.4 0.2 -1.4
v -0.4 1 -1.4
v 1.2 0.6 -1.8
v 1.2 2.5 -1.8
v 1.3 0.6 -1.8
v 1.3 2.5 -1.8
v 0.3 0.1 1.7
v 0.8 0.1 1.7
v 1.19209e-07 0.1 1.6
v 0.3 0.1 1.6
v 0.8 0.1 1.6
v 1 0.1 1.6
v 0.3 0.1 1.3
v 0.8 0.1 1.3
v 0.3 0.1 1.2
v 0.8 0.1 1.2
v 1 0.1 1
v 1.4 0.1 1
v -1 0.1 0.9
v 1.19209e-07 0.1 0.9
v 1 0.1 0.9
v 1.3 0.1 0.9
v -0.8 0.1 0.8
v 1.19209e-07 0.1 0.8
v -0.9 0.1 0.7
v -0.8 0.1 0.7
v -0.7 0.1 0.7
v 1.19209e-07 0.1 0.7
v -0.8 0.1 0.6
v -0.7 0.1 0.6
v -1.1 0.1 -0.1
v -1 0.1 -0.1
v -0.9 0.1 -0.1
v -0.8 0.1 -0.1
v 1 0.1 -0.6
v 1.2 0.1 -0.6
v -1 0.1 -0.7
v 0.6 0.1 -0.7
v 1.1 0.1 -0.9
v 1.2 0.1 -0.9
v 1.3 0.1 -0.9
v -1.1 0.1 -1
v -1 0.1 -1
v -0.2 0.1 -1
v 0.6 0.1 -1
v 1.1 0.1 -1
v 1.4 0.1 -1
v 0.6 0.1 -1.1
v 0.7 0.1 -1.1
v 1 0.1 -1.1
v 1.1 0.1 -1.1
v 0.7 0.1 -1.2
v 0.8 0.1 -1.2
v 0.9 0.1 -1.2
v 1 0.1 -1.2
v -1 0.1 -1.3
v -0.8 0.1 -1.3
v -0.4 0.1 -1.3
v -0.2 0.1 -1.3
v 0.8 0.1 -1.3
v 0.9 0.1 -1.3
v -0.8 0.1 -1.4
v -0.4 0.1 -1.4
v 1.4 0.2 1.1
v 1.7 0.2 1.1
v 1.4 0.2 1
v 1.4 0.2 -1
v 1.7 0.2 -1
v 1.2 0.6 -1
v 1.3 0.6 -1
v 1.2 0.6 -1.8
v 1.3 0.6 -1.8
v -1.1 0.9 0.9
v 1.19209e-07 0.9 0.9
v -0.7 0.9 0.8
v 1.19209e-07 0.9 0.8
v -0.9 0.9 0.7
v -0.7 0.9 0.7
v 1.19209e-07 0.9 0.7
v -0.8 0.9 0.6
v -0.7 0.9 0.6
v -1.1 0.9 -0.1
v -0.9 0.9 -0.1
v -0.8 0.9 -0.1
v 0.7 0.9 -0.7
v 1 0.9 -0.7
v 0.7 0.9 -1
v 1 0.9 -1
v -1.7 1 1
v -1 1 1
v -1.1 1 0.9
v -1 1 0.9
v -1.7 1 -1
v -1.1 1 -1
v -1 1.1 1
v -0.9 1.1 1
v -1 1.1 0.9
v -0.9 1.1 0.9
v -0.2 1.1 -1
v 0.8 1.1 -1
v -0.2 1.1 -1.2
v 0.8 1.1 -1.2
v 0.3 1.2 1.6
v 0.8 1.2 1.6
v 0.3 1.2 1.5
v 0.8 1.2 1.5
v 0.3 1.2 1.3
v 0.8 1.2 1.3
v -0.9 1.2 1
v -0.7 1.2 1
v -0.9 1.2 0.9
v -0.7 1.2 0.9
v -0.7 1.3 1
v -0.5 1.3 1
v -0.7 1.3 0.9
v -0.5 1.3 0.9
v -0.8 1.3 -1
v -0.7 1.3 -1
v -0.8 1.3 -1.1
v -0.7 1.3 -1.1
v -0.5 1.4 1
v -0.3 1.4 1
v -0.5 1.4 0.9
v -0.3 1.4 0.9
v -0.7 1.4 -1
v -0.6 1.4 -1
v -0.7 1.4 -1.1
v -0.6 1.4 -1.1
v -0.3 1.5 1
v -0.0999999 1.5 1
v -0.3 1.5 0.9
v -0.0999999 1.5 0.9
v -0.6 1.5 -1
v -0.5 1.5 -1
v -0.6 1.5 -1.1
v -0.5 1.5 -1.1
v -0.0999999 1.6 1
v 1.19209e-07 1.6 1
v -0.0999999 1.6 0.9
v 1.19209e-07 1.6 0.9
v -0.5 1.6 -1
v -0.4 1.6 -1
v -0.5 1.6 -1.1
v -0.4 1.6 -1.1
v -1.4 1.7 -0.9
v -1.1 1.7 -0.9
v -1.1 1.7 -1
v -1 1.7 -1
v -0.8 1.7 -1
v -0.4 1.7 -1
v -0.3 1.7 -1
v -0.4 1.7 -1.1
v -0.3 1.7 -1.1
v 1.19209e-07 1.7 -1.1
v 0.6 1.7 -1.1
v -1.4 1.7 -1.2
v -1.1 1.7 -1.2
v 1.19209e-07 1.7 -1.2
v 0.6 1.7 -1.2
v -1.1 1.7 -1.3
v -0.8 1.7 -1.3
v -1.2 1.8 1.2
v -0.3 1.8 1.2
v -0.3 1.8 1.1
v 1 1.8 1.1
v -1 1.8 1
v 1 1.8 1
v -1 1.8 0.9
v -0.9 1.8 0.9
v 1 1.8 0.9
v -1 1.8 0.8
v -1 1.8 -0.8
v -1.2 1.8 -0.9
v -1.1 1.8 -0.9
v -1.1 1.8 -1
v -1 1.8 -1
v -0.3 1.8 -1
v -0.2 1.8 -1
v -0.3 1.8 -1.1
v -0.2 1.8 -1.1
v -1.2 1.9 1.3
v -0.0999999 1.9 1.3
v -1.3 1.9 1.2
v -1.2 1.9 1.2
v -0.3 1.9 1.2
v -0.0999999 1.9 1.2
v 1 1.9 1.2
v -0.3 1.9 1.1
v 1 1.9 1.1
v 1.4 1.9 1.1
v 1.7 1.9 1.1
v 1 1.9 1
v 1.4 1.9 1
v 1 1.9 0.9
v 1.3 1.9 0.9
v -1.5 1.9 -0.8
v -1.3 1.9 -0.8
v -1.4 1.9 -0.9
v -1.2 1.9 -0.9
v 1.3 1.9 -0.9
v 1.4 1.9 -0.9
v 1.7 1.9 -0.9
v -0.8 1.9 -1
v -0.3 1.9 -1
v 0.8 1.9 -1
v 0.9 1.9 -1
v -0.8 1.9 -1.1
v -0.3 1.9 -1.1
v -1.5 1.9 -1.2
v -1.4 1.9 -1.2
v -1.1 1.9 -1.2
v -0.2 1.9 -1.2
v 0.8 1.9 -1.2
v 0.9 1.9 -1.2
v -1.4 1.9 -1.3
v -1.1 1.9 -1.3
v -0.8 1.9 -1.3
v -0.2 1.9 -1.3
v 0.8 1.9 -1.3
v -1.1 1.9 -1.4
v -0.8 1.9 -1.4
v -0.0999999 2 1.3
v 1 2 1.3
v -0.0999999 2 1.2
v 1 2 1.2
v 0.4 2.1 -0.6
v 0.6 2.1 -0.6
v 0.7 2.1 -0.6
v 0.9 2.1 -0.6
v 0.5 2.1 -0.7
v 0.6 2.1 -0.7
v 0.7 2.1 -0.7
v 0.8 2.1 -0.7
v 0.4 2.1 -0.8
v 0.5 2.1 -0.8
v 0.8 2.1 -0.8
v 0.9 2.1 -0.8
v 0.5 2.3 -0.6
v 0.8 2.3 -0.6
v 0.5 2.3 -0.7
v 0.8 2.3 -0.7
v 0.5 2.3 -0.8
v 0.8 2.3 -0.8
v 1.2 2.3 -0.9
v 1.3 2.3 -0.9
v 1.2 2.3 -1
v 1.3 2.3 -1
v -0.5 2.4 -0.5
v -0.3 2.4 -0.5
v -0.5 2.4 -0.6
v -0.3 2.4 -0.6
v 0.5 2.5 -0.6
v 0.8 2.5 -0.6
v 0.5 2.5 -0.8
v 0.8 2.5 -0.8
v -0.0999999 2.7 1.1
v 0.7 2.7 1.1
v -0.4 2.7 1
v -0.0999999 2.7 1
v 0.7 2.7 1
v 0.8 2.7 1
v -0.6 2.7 0.9
v -0.4 2.7 0.9
v 0.8 2.7 0.9
v 1 2.7 0.9
v -0.6 2.7 0.8
v 1 2.7 0.8
v -0.8 2.7 0.6
v -0.7 2.7 0.6
v -0.9 2.7 0.5
v -0.8 2.7 0.5
v -0.9 2.7 -0.5
v -0.8 2.7 -0.5
v -0.7 2.7 -0.5
v -0.8 2.7 -0.6
v -0.7 2.7 -0.6
v 1 2.7 -0.6
v 0.9 2.7 -0.7
v 1 2.7 -0.7
v -0.7 2.7 -0.8
v -0.6 2.7 -0.8
v 0.9 2.7 -0.8
v 1 2.7 -0.8
v -0.6 2.7 -0.9
v -0.4 2.7 -0.9
v 0.8 2.7 -0.9
v 1 2.7 -0.9
v -0.4 2.7 -1
v -0.0999999 2.7 -1
v 0.7 2.7 -1
v 0.8 2.7 -1
v -0.0999999 2.7 -1.1
v 0.7 2.7 -1.1
v 1.4 3 1.2
v 1.7 3 1.2
v 1 3 1.1
v 1.4 3 1.1
v 1.7 3 1.1
v 1.8 3 1.1
v 0.9 3 1
v 1 3 1
v 1.4 3 1
v 0.3 3 0.3
v 0.5 3 0.3
v 0.3 3 0.2
v 0.5 3 0.2
v -0.3 3 -0.1
v 1.19209e-07 3 -0.1
v -0.3 3 -0.2
v -0.2 3 -0.2
v -0.2 3 -0.3
v 1.19209e-07 3 -0.3
v 0.9 3 -0.9
v 1 3 -0.9
v 1.4 3 -0.9
v 1.7 3 -0.9
v 1.8 3 -0.9
v 1 3 -1
v 1.7 3 -1
v 1 3.2 0.8
v 1.1 3.2 0.8
v 1 3.2 0.7
v 1.1 3.2 0.7
v 1 3.2 -0.7
v 1.1 3.2 -0.7
v 1 3.2 -0.8
v 1.1 3.2 -0.8
v 0.3 0.2 1.7
v 0.8 0.2 1.7
v 0.3 0.2 1.6
v 0.8 0.2 1.6
v 0.3 0.2 1.5
v 0.8 0.2 1.5
v 0.3 0.2 1.4
v 0.8 0.2 1.4
v -1 0.2 0.9
v 1.19209e-07 0.2 0.9
v -0.8 0.2 0.8
v 1.19209e-07 0.2 0.8
v -0.9 0.2 0.7
v -0.8 0.2 0.7
v -0.7 0.2 0.7
v 1.19209e-07 0.2 0.7
v -0.8 0.2 0.6
v -0.7 0.2 0.6
v -1 0.2 -0.1
v -0.9 0.2 -0.1
v -0.8 0.2 -0.1
v 0.7 0.2 -0.7
v 1 0.2 -0.7
v 0.6 0.2 -1
v 0.7 0.2 -1
v 1 0.2 -1
v 1.1 0.2 -1
v 0.6 0.2 -1.1
v 0.7 0.2 -1.1
v 1 0.2 -1.1
v 1.1 0.2 -1.1
v 0.7 0.2 -1.2
v 0.8 0.2 -1.2
v 0.9 0.2 -1.2
v 1 0.2 -1.2
v 0.8 0.2 -1.3
v 0.9 0.2 -1.3
v 0.3 0.3 1.4
v 0.8 0.3 1.4
v 0.3 0.3 1.3
v 0.8 0.3 1.3
v -0.8 1 -1.3
v -0.4 1 -1.3
v -0.8 1 -1.4
v -0.4 1 -1.4
v -1.7 1.1 1
v -1.5 1.1 1
v -1.7 1.1 -1
v -1.5 1.1 -1
v -0.3 1.1 -1
v -0.2 1.1 -1
v -1 1.1 -1.1
v -0.9 1.1 -1.1
v -0.2 1.1 -1.2
v -1 1.1 -1.3
v -0.9 1.1 -1.3
v -0.3 1.1 -1.3
v -0.2 1.1 -1.3
v -1.5 1.2 1
v -1.2 1.2 1
v -1 1.2 1
v -0.9 1.2 1
v -1 1.2 0.9
v -0.9 1.2 0.9
v -1.5 1.2 -1
v -1.2 1.2 -1
v -1 1.2 -1
v -0.9 1.2 -1
v -0.8 1.2 -1
v -0.3 1.2 -1
v -1 1.2 -1.1
v -0.9 1.2 -1.1
v -0.8 1.2 -1.1
v -0.9 1.2 -1.3
v -0.3 1.2 -1.3
v -1.2 1.3 1
v -1 1.3 1
v -0.9 1.3 1
v -0.7 1.3 1
v -1 1.3 0.9
v -0.9 1.3 0.9
v -0.7 1.3 0.9
v -1 1.3 0.8
v -1 1.3 -0.8
v -1.2 1.3 -1
v -1 1.3 -1
v -0.9 1.3 -1
v -0.8 1.3 -1
v -0.9 1.3 -1.1
v -0.8 1.3 -1.1
v 1.19209e-07 1.3 -1.1
v 0.6 1.3 -1.1
v 1.19209e-07 1.3 -1.2
v 0.6 1.3 -1.2
v -0.7 1.4 1
v -0.5 1.4 1
v -0.7 1.4 0.9
v -0.5 1.4 0.9
v -0.8 1.4 -1
v -0.7 1.4 -1
v -0.8 1.4 -1.1
v -0.7 1.4 -1.1
v 0.1 1.5 1.5
v 0.9 1.5 1.5
v 0.1 1.5 1.1
v 0.9 1.5 1.1
v -0.5 1.5 1
v -0.3 1.5 1
v -0.5 1.5 0.9
v -0.3 1.5 0.9
v -0.7 1.5 -1
v -0.6 1.5 -1
v -0.7 1.5 -1.1
v -0.6 1.5 -1.1
v -0.3 1.6 1
v -0.0999999 1.6 1
v -0.3 1.6 0.9
v -0.0999999 1.6 0.9
v -0.6 1.6 -1
v -0.5 1.6 -1
v -0.6 1.6 -1.1
v -0.5 1.6 -1.1
v 1.19209e-07 1.7 1.6
v 1 1.7 1.6
v 0.1 1.7 1.5
v 0.9 1.7 1.5
v 0.1 1.7 1.1
v 0.9 1.7 1.1
v -0.0999999 1.7 1
v 1.19209e-07 1.7 1
v 1 1.7 1
v -0.9 1.7 0.9
v -0.0999999 1.7 0.9
v 1.19209e-07 1.7 0.9
v -0.9 1.7 0.8
v -0.7 1.7 0.8
v 1 1.7 0.8
v -0.5 1.7 -0.5
v -0.3 1.7 -0.5
v -0.7 1.7 -0.6
v -0.6 1.7 -0.6
v -0.5 1.7 -0.6
v -0.3 1.7 -0.6
v -0.2 1.7 -0.6
v 1 1.7 -0.6
v -0.9 1.7 -0.8
v 1 1.7 -0.8
v -0.5 1.7 -1
v -0.4 1.7 -1
v -0.5 1.7 -1.1
v -0.4 1.7 -1.1
v 1.4 1.8 1.1
v 1.7 1.8 1.1
v 1 1.8 1
v 1.4 1.8 1
v 1 1.8 0.9
v 1.3 1.8 0.9
v 0.9 1.8 -0.9
v 1 1.8 -0.9
v 1.3 1.8 -0.9
v -0.4 1.8 -1
v -0.3 1.8 -1
v 0.9 1.8 -1
v 1 1.8 -1
v 1.2 1.8 -1
v 1.3 1.8 -1
v 1.4 1.8 -1
v 1.7 1.8 -1
v -0.4 1.8 -1.1
v -0.3 1.8 -1.1
v -0.8 1.9 -0.8
v 1 1.9 -0.8
v -0.8 1.9 -0.9
v 0.8 1.9 -0.9
v 0.9 1.9 -0.9
v 1 1.9 -0.9
v 0.8 1.9 -1
v 0.9 1.9 -1
v -1.2 2 1.3
v -0.0999999 2 1.3
v -1.3 2 1.2
v -1.2 2 1.2
v -0.0999999 2 1.2
v -1.2 2 1
v 1 2 1
v -0.9 2 0.9
v 1 2 0.9
v -1.5 2 -0.8
v -1.3 2 -0.8
v -1 2 -0.8
v -0.9 2 -0.8
v -0.8 2 -0.8
v -1.4 2 -0.9
v -1.2 2 -0.9
v -0.8 2 -0.9
v 0.8 2 -0.9
v -1 2 -1
v -0.8 2 -1
v -0.2 2 -1
v 0.8 2 -1
v 0.9 2 -1
v -0.8 2 -1.1
v -0.2 2 -1.1
v -1.5 2 -1.2
v -1.4 2 -1.2
v -1.1 2 -1.2
v -0.2 2 -1.2
v 0.8 2 -1.2
v 0.9 2 -1.2
v -1.4 2 -1.3
v -1.1 2 -1.3
v -0.8 2 -1.3
v -0.2 2 -1.3
v 0.8 2 -1.3
v -1.1 2 -1.4
v -0.8 2 -1.4
v -0.0999999 2.1 1.3
v 1 2.1 1.3
v -1.2 2.1 1.2
v -0.0999999 2.1 1.2
v 1 2.1 1.2
v -1.2 2.1 1
v 1 2.1 1
v 0.5 2.2 -0.6
v 0.6 2.2 -0.6
v 0.7 2.2 -0.6
v 0.8 2.2 -0.6
v 0.5 2.2 -0.7
v 0.6 2.2 -0.7
v 0.7 2.2 -0.7
v 0.8 2.2 -0.7
v 0.5 2.2 -0.8
v 0.8 2.2 -0.8
v 0.5 2.4 -0.6
v 0.8 2.4 -0.6
v 0.5 2.4 -0.7
v 0.8 2.4 -0.7
v 0.5 2.4 -0.8
v 0.8 2.4 -0.8
v 1.2 2.5 -0.9
v 1.3 2.5 -0.9
v 1.2 2.5 -1.8
v 1.3 2.5 -1.8
v 0.4 2.6 -0.6
v 0.9 2.6 -0.6
v 0.4 2.6 -0.8
v 0.9 2.6 -0.8
v -0.0999999 2.8 1.1
v 0.7 2.8 1.1
v -0.4 2.8 1
v -0.0999999 2.8 1
v 0.7 2.8 1
v 0.8 2.8 1
v -0.4 2.8 0.9
v 0.8 2.8 0.9
v 1 2.8 0.9
v 0.8 2.8 0.8
v -0.5 2.8 0.7
v 0.8 2.8 0.7
v -0.8 2.8 0.6
v -0.7 2.8 0.6
v -0.9 2.8 0.5
v -0.8 2.8 0.5
v 0.1 2.8 0.2
v 0.5 2.8 0.2
v 1.19209e-07 2.8 -0.1
v 0.1 2.8 -0.1
v 1.19209e-07 2.8 -0.4
v 0.5 2.8 -0.4
v -0.9 2.8 -0.5
v -0.8 2.8 -0.5
v -0.8 2.8 -0.6
v -0.7 2.8 -0.6
v -0.5 2.8 -0.7
v 0.8 2.8 -0.7
v 0.9 2.8 -0.7
v 1 2.8 -0.7
v 0.8 2.8 -0.8
v 0.9 2.8 -0.8
v 1 2.8 -0.8
v -0.4 2.8 -0.9
v 0.8 2.8 -0.9
v 1 2.8 -0.9
v -0.4 2.8 -1
v -0.0999999 2.8 -1
v 0.7 2.8 -1
v 0.8 2.8 -1
v -0.0999999 2.8 -1.1
v 0.7 2.8 -1.1
v -0.6 2.9 0.9
v 0.8 2.9 0.9
v -0.7 2.9 0.8
v -0.6 2.9 0.8
v 0.8 2.9 0.8
v -0.7 2.9 -0.8
v -0.6 2.9 -0.8
v 0.8 2.9 -0.8
v -0.6 2.9 -0.9
v 0.8 2.9 -0.9
v -0.6 3 0.8
v 0.8 3 0.8
v -0.5 3 0.7
v 0.8 3 0.7
v -0.5 3 -0.7
v 0.8 3 -0.7
v -0.6 3 -0.8
v 0.8 3 -0.8
v 1.4 3.1 1.2
v 1.7 3.1 1.2
v 1 3.1 1.1
v 1.4 3.1 1.1
v 1.7 3.1 1.1
v 1.8 3.1 1.1
v 0.9 3.1 1
v 1 3.1 1
v 1.4 3.1 1
v 1.1 3.1 0.8
v 1.2 3.1 0.8
v 0.3 3.1 0.3
v 0.5 3.1 0.3
v 0.1 3.1 0.2
v 0.3 3.1 0.2
v 0.2 3.1 0.0999999
v 0.5 3.1 0.0999999
v -0.3 3.1 -0.1
v 0.1 3.1 -0.1
v -0.3 3.1 -0.2
v -0.2 3.1 -0.2
v 0.2 3.1 -0.2
v 0.5 3.1 -0.2
v -0.2 3.1 -0.3
v 1.19209e-07 3.1 -0.3
v 1.19209e-07 3.1 -0.4
v 0.5 3.1 -0.4
v 1.1 3.1 -0.8
v 1.2 3.1 -0.8
v 0.9 3.1 -0.9
v 1 3.1 -0.9
v 1.4 3.1 -0.9
v 1.7 3.1 -0.9
v 1.8 3.1 -0.9
v 1 3.1 -1
v 1.7 3.1 -1
v 0.2 3.4 0.0999999
v 0.5 3.4 0.0999999
v 0.2 3.4 -0.2
v 0.5 3.4 -0.2
v 1 4.1 0.8
v 1.2 4.1 0.8
v 1 4.1 -0.8
v 1.2 4.1 -0.8

# faces
f 3/4/1 2/4/1 1/4/1
f 4/4/1 2/4/1 3/4/1
f 7/4/1 6/4/1 5/4/1
f 8/4/1 6/4/1 7/4/1
f 11/5/1 10/5/1 9/5/1
f 12/5/1 10/5/1 11/5/1
f 15/1/1 14/1/1 13/1/1
f 16/1/1 14/1/1 15/1/1
f 18/5/1 17/5/1 16/5/1
f 19/5/1 17/5/1 18/5/1
f 22/5/1 21/5/1 20/5/1
f 23/5/1 21/5/1 22/5/1
f 26/4/1 25/4/1 24/4/1
f 27/4/1 25/4/1 26/4/1
f 31/1/1 29/1/1 28/1/1
f 32/1/1 29/1/1 31/1/1
f 33/5/1 31/5/1 30/5/1
f 34/5/1 31/5/1 33/5/1
f 36/1/1 35/1/1 34/1/1
f 37/1/1 35/1/1 36/1/1
f 40/3/1 39/3/1 38/3/1
f 41/3/1 39/3/1 40/3/1
f 43/1/1 41/1/1 40/1/1
f 44/1/1 43/1/1 42/1/1
f 45/1/1 41/1/1 43/1/1
f 45/1/1 43/1/1 44/1/1
f 48/1/1 47/1/1 46/1/1
f 49/1/1 47/1/1 48/1/1
f 51/5/1 50/5/1 49/5/1
f 52/5/1 50/5/1 51/5/1
f 57/1/1 54/1/1 53/1/1
f 58/1/1 54/1/1 57/1/1
f 59/3/1 56/3/1 55/3/1
f 60/3/1 56/3/1 59/3/1
f 61/3/1 56/3/1 60/3/1
f 62/3/1 56/3/1 61/3/1
f 63/3/1 56/3/1 62/3/1
f 64/5/1 62/5/1 61/5/1
f 65/5/1 62/5/1 64/5/1
f 70/3/1 68/3/1 67/3/1
f 71/3/1 68/3/1 70/3/1
f 72/3/1 70/3/1 67/3/1
f 72/7/1 71/7/1 70/7/1
f 73/3/1 68/3/1 71/3/1
f 73/7/1 71/7/1 72/7/1
f 74/1/1 69/1/1 68/1/1
f 75/1/1 67/1/1 66/1/1
f 76/3/1 72/3/1 67/3/1
f 76/1/1 67/1/1 75/1/1
f 76/3/1 73/3/1 72/3/1
f 77/3/1 68/3/1 73/3/1
f 77/3/1 73/3/1 76/3/1
f 77/1/1 74/1/1 68/1/1
f 78/1/1 74/1/1 77/1/1
f 84/3/1 80/3/1 79/3/1
f 85/3/1 80/3/1 84/3/1
f 86/5/1 82/5/1 81/5/1
f 87/5/1 82/5/1 86/5/1
f 88/5/1 84/5/1 83/5/1
f 89/5/1 84/5/1 88/5/1
f 92/1/1 91/1/1 90/1/1
f 93/1/1 91/1/1 92/1/1
f 98/3/1 95/3/1 94/3/1
f 99/3/1 95/3/1 98/3/1
f 100/7/1 97/7/1 96/7/1
f 101/7/1 97/7/1 100/7/1
f 102/7/1 99/7/1 98/7/1
f 103/7/1 99/7/1 102/7/1
f 106/5/1 105/5/1 104/5/1
f 107/5/1 105/5/1 106/5/1
f 112/1/1 109/1/1 108/1/1
f 113/1/1 109/1/1 112/1/1
f 114/1/1 111/1/1 110/1/1
f 115/1/1 111/1/1 114/1/1
f 118/7/1 117/7/1 116/7/1
f 119/7/1 117/7/1 118/7/1
f 122/5/1 121/5/1 120/5/1
f 123/5/1 121/5/1 122/5/1
f 126/5/1 125/5/1 124/5/1
f 127/5/1 125/5/1 126/5/1
f 130/1/1 129/1/1 128/1/1
f 131/1/1 129/1/1 130/1/1
f 132/3/1 131/3/1 130/3/1
f 133/3/1 131/3/1 132/3/1
f 134/3/1 132/3/1 130/3/1
f 134/6/1 133/6/1 132/6/1
f 135/3/1 131/3/1 133/3/1
f 135/6/1 133/6/1 134/6/1
f 136/1/1 130/1/1 128/1/1
f 136/3/1 134/3/1 130/3/1
f 136/3/1 135/3/1 134/3/1
f 137/3/1 135/3/1 136/3/1
f 138/3/1 131/3/1 135/3/1
f 138/3/1 135/3/1 137/3/1
f 138/1/1 129/1/1 131/1/1
f 139/1/1 129/1/1 138/1/1
f 141/1/1 137/1/1 136/1/1
f 141/1/1 136/1/1 128/1/1
f 142/1/1 137/1/1 141/1/1
f 143/1/1 140/1/1 139/1/1
f 144/1/1 140/1/1 143/1/1
f 145/5/1 142/5/1 141/5/1
f 145/5/1 143/5/1 142/5/1
f 145/5/1 144/5/1 143/5/1
f 146/5/1 144/5/1 145/5/1
f 149/5/1 148/5/1 147/5/1
f 150/5/1 148/5/1 149/5/1
f 155/1/1 152/1/1 151/1/1
f 156/1/1 152/1/1 155/1/1
f 157/1/1 154/1/1 153/1/1
f 158/1/1 154/1/1 157/1/1
f 159/5/1 156/5/1 155/5/1
f 160/5/1 156/5/1 159/5/1
f 161/5/1 158/5/1 157/5/1
f 162/5/1 158/5/1 161/5/1
f 163/1/1 161/1/1 160/1/1
f 164/1/1 161/1/1 163/1/1
f 167/5/1 166/5/1 165/5/1
f 168/5/1 166/5/1 167/5/1
f 171/5/1 170/5/1 169/5/1
f 172/5/1 170/5/1 171/5/1
f 175/5/1 174/5/1 173/5/1
f 176/5/1 174/5/1 175/5/1
f 181/1/1 178/1/1 177/1/1
f 182/1/1 178/1/1 181/1/1
f 183/1/1 180/1/1 179/1/1
f 184/1/1 180/1/1 183/1/1
f 187/5/1 186/5/1 185/5/1
f 188/5/1 186/5/1 187/5/1
f 193/5/1 192/5/1 191/5/1
f 194/5/1 192/5/1 193/5/1
f 195/3/1 190/3/1 189/3/1
f 196/3/1 190/3/1 195/3/1
f 199/1/1 198/1/1 197/1/1
f 200/1/1 198/1/1 199/1/1
f 203/8/1 202/8/1 201/8/1
f 204/8/1 202/8/1 203/8/1
f 205/8/1 202/8/1 204/8/1
f 207/8/1 205/8/1 204/8/1
f 208/5/1 206/5/1 205/5/1
f 208/8/1 205/8/1 207/8/1
f 209/5/1 206/5/1 208/5/1
f 212/1/1 211/1/1 210/1/1
f 213/1/1 211/1/1 212/1/1
f 216/5/1 215/5/1 214/5/1
f 217/5/1 215/5/1 216/5/1
f 220/5/1 219/5/1 218/5/1
f 221/5/1 219/5/1 220/5/1
f 226/1/1 223/1/1 222/1/1
f 227/1/1 223/1/1 226/1/1
f 228/1/1 225/1/1 224/1/1
f 229/1/1 225/1/1 228/1/1
f 232/1/1 231/1/1 230/1/1
f 235/1/1 232/1/1 230/1/1
f 235/1/1 233/1/1 232/1/1
f 236/3/1 234/3/1 233/3/1
f 236/1/1 233/1/1 235/1/1
f 237/3/1 234/3/1 236/3/1
f 238/1/1 235/1/1 230/1/1
f 239/1/1 235/1/1 238/1/1
f 240/1/1 238/1/1 230/1/1
f 241/1/1 238/1/1 240/1/1
f 244/1/1 243/1/1 242/1/1
f 245/1/1 243/1/1 244/1/1
f 246/1/1 243/1/1 245/1/1
f 247/1/1 243/1/1 246/1/1
f 250/1/1 249/1/1 248/1/1
f 251/1/1 249/1/1 250/1/1
f 254/1/1 253/1/1 252/1/1
f 255/1/1 253/1/1 254/1/1
f 258/1/1 257/1/1 256/1/1
f 259/1/1 257/1/1 258/1/1
f 262/1/1 261/1/1 260/1/1
f 263/1/1 261/1/1 262/1/1
f 266/2/1 265/2/1 264/2/1
f 267/2/1 265/2/1 266/2/1
f 270/1/1 269/1/1 268/1/1
f 271/1/1 269/1/1 270/1/1
f 274/3/1 273/3/1 272/3/1
f 275/3/1 273/3/1 274/3/1
f 278/1/1 277/1/1 276/1/1
f 279/1/1 277/1/1 278/1/1
f 285/1/1 281/1/1 280/1/1
f 286/1/1 281/1/1 285/1/1
f 287/3/1 284/3/1 283/3/1
f 289/1/1 283/1/1 282/1/1
f 290/3/1 288/3/1 287/3/1
f 290/1/1 283/1/1 289/1/1
f 290/3/1 287/3/1 283/3/1
f 291/3/1 288/3/1 290/3/1
f 295/2/1 293/2/1 292/2/1
f 295/2/1 294/2/1 293/2/1
f 296/2/1 294/2/1 295/2/1
f 297/2/1 294/2/1 296/2/1
f 301/2/1 299/2/1 298/2/1
f 301/2/1 300/2/1 299/2/1
f 302/2/1 300/2/1 301/2/1
f 305/1/1 304/1/1 303/1/1
f 306/1/1 304/1/1 305/1/1
f 309/5/1 308/5/1 307/5/1
f 310/5/1 308/5/1 309/5/1
f 313/3/1 312/3/1 311/3/1
f 314/3/1 312/3/1 313/3/1
f 319/8/1 316/8/1 315/8/1
f 320/8/1 316/8/1 319/8/1
f 321/8/1 318/8/1 317/8/1
f 322/8/1 316/8/1 320/8/1
f 323/8/1 321/8/1 317/8/1
f 326/8/1 316/8/1 322/8/1
f 327/8/1 326/8/1 325/8/1
f 328/8/1 316/8/1 326/8/1
f 328/8/1 326/8/1 327/8/1
f 329/8/1 316/8/1 328/8/1
f 330/8/1 323/8/1 317/8/1
f 330/8/1 324/8/1 323/8/1
f 331/8/1 324/8/1 330/8/1
f 332/8/1 324/8/1 331/8/1
f 333/8/1 324/8/1 332/8/1
f 334/8/1 328/8/1 327/8/1
f 335/8/1 332/8/1 331/8/1
f 336/8/1 332/8/1 335/8/1
f 339/8/1 334/8/1 327/8/1
f 339/8/1 337/8/1 336/8/1
f 339/8/1 336/8/1 335/8/1
f 339/8/1 335/8/1 334/8/1
f 340/8/1 337/8/1 339/8/1
f 342/5/1 339/5/1 338/5/1
f 343/5/1 339/5/1 342/5/1
f 344/5/1 341/5/1 340/5/1
f 345/5/1 341/5/1 344/5/1
f 350/6/1 348/6/1 347/6/1
f 351/6/1 348/6/1 350/6/1
f 352/3/1 351/3/1 350/3/1
f 353/3/1 351/3/1 352/3/1
f 354/3/1 351/3/1 353/3/1
f 355/3/1 351/3/1 354/3/1
f 356/3/1 351/3/1 355/3/1
f 357/3/1 351/3/1 356/3/1
f 358/3/1 354/3/1 353/3/1
f 359/6/1 355/6/1 354/6/1
f 359/3/1 354/3/1 358/3/1
f 360/3/1 356/3/1 355/3/1
f 360/6/1 355/6/1 359/6/1
f 361/3/1 356/3/1 360/3/1
f 362/6/1 353/6/1 352/6/1
f 362/3/1 358/3/1 353/3/1
f 363/6/1 359/6/1 358/6/1
f 363/3/1 358/3/1 362/3/1
f 364/3/1 360/3/1 359/3/1
f 364/6/1 359/6/1 363/6/1
f 365/6/1 361/6/1 360/6/1
f 365/3/1 360/3/1 364/3/1
f 366/3/1 356/3/1 361/3/1
f 366/6/1 361/6/1 365/6/1
f 367/6/1 357/6/1 356/6/1
f 367/3/1 356/3/1 366/3/1
f 368/6/1 362/6/1 352/6/1
f 368/6/1 363/6/1 362/6/1
f 369/3/1 365/3/1 364/3/1
f 369/6/1 363/6/1 368/6/1
f 369/3/1 364/3/1 363/3/1
f 369/3/1 366/3/1 365/3/1
f 370/3/1 366/3/1 369/3/1
f 371/3/1 366/3/1 370/3/1
f 372/6/1 367/6/1 366/6/1
f 372/3/1 366/3/1 371/3/1
f 373/6/1 357/6/1 367/6/1
f 373/6/1 367/6/1 372/6/1
f 374/3/1 352/3/1 350/3/1
f 374/6/1 368/6/1 352/6/1
f 375/3/1 369/3/1 368/3/1
f 375/6/1 368/6/1 374/6/1
f 375/3/1 370/3/1 369/3/1
f 376/3/1 370/3/1 375/3/1
f 377/6/1 371/6/1 370/6/1
f 377/3/1 370/3/1 376/3/1
f 378/3/1 373/3/1 372/3/1
f 378/6/1 371/6/1 377/6/1
f 378/3/1 372/3/1 371/3/1
f 379/3/1 373/3/1 378/3/1
f 380/6/1 357/6/1 373/6/1
f 380/3/1 373/3/1 379/3/1
f 381/3/1 351/3/1 357/3/1
f 381/6/1 357/6/1 380/6/1
f 382/6/1 350/6/1 347/6/1
f 382/3/1 375/3/1 374/3/1
f 382/3/1 374/3/1 350/3/1
f 383/6/1 376/6/1 375/6/1
f 383/3/1 375/3/1 382/3/1
f 384/3/1 379/3/1 378/3/1
f 384/6/1 376/6/1 383/6/1
f 384/3/1 377/3/1 376/3/1
f 384/3/1 378/3/1 377/3/1
f 385/6/1 380/6/1 379/6/1
f 385/3/1 379/3/1 384/3/1
f 386/3/1 381/3/1 380/3/1
f 386/6/1 380/6/1 385/6/1
f 387/3/1 351/3/1 381/3/1
f 387/3/1 381/3/1 386/3/1
f 387/6/1 348/6/1 351/6/1
f 388/3/1 347/3/1 346/3/1
f 388/6/1 386/6/1 385/6/1
f 388/6/1 387/6/1 386/6/1
f 388/6/1 384/6/1 383/6/1
f 388/6/1 385/6/1 384/6/1
f 388/6/1 383/6/1 382/6/1
f 388/6/1 382/6/1 347/6/1
f 389/6/1 348/6/1 387/6/1
f 389/6/1 387/6/1 388/6/1
f 389/3/1 349/3/1 348/3/1
f 390/3/1 388/3/1 346/3/1
f 390/3/1 389/3/1 388/3/1
f 391/3/1 349/3/1 389/3/1
f 391/3/1 389/3/1 390/3/1
f 394/3/1 393/3/1 392/3/1
f 395/3/1 393/3/1 394/3/1
f 396/3/1 393/3/1 395/3/1
f 397/3/1 393/3/1 396/3/1
f 400/3/1 399/3/1 398/3/1
f 401/3/1 399/3/1 400/3/1
f 402/5/1 401/5/1 400/5/1
f 403/5/1 401/5/1 402/5/1
f 404/5/1 401/5/1 403/5/1
f 405/5/1 401/5/1 404/5/1
f 406/5/1 401/5/1 405/5/1
f 407/5/1 401/5/1 406/5/1
f 408/3/1 403/3/1 402/3/1
f 408/2/1 404/2/1 403/2/1
f 409/3/1 405/3/1 404/3/1
f 409/2/1 404/2/1 408/2/1
f 410/2/1 406/2/1 405/2/1
f 410/3/1 405/3/1 409/3/1
f 411/3/1 407/3/1 406/3/1
f 411/2/1 406/2/1 410/2/1
f 412/3/1 408/3/1 402/3/1
f 412/3/1 409/3/1 408/3/1
f 413/2/1 410/2/1 409/2/1
f 413/3/1 409/3/1 412/3/1
f 414/3/1 411/3/1 410/3/1
f 414/2/1 410/2/1 413/2/1
f 415/3/1 407/3/1 411/3/1
f 415/3/1 411/3/1 414/3/1
f 416/3/1 412/3/1 402/3/1
f 416/2/1 413/2/1 412/2/1
f 417/3/1 414/3/1 413/3/1
f 417/2/1 413/2/1 416/2/1
f 418/2/1 415/2/1 414/2/1
f 418/3/1 414/3/1 417/3/1
f 419/3/1 407/3/1 415/3/1
f 419/2/1 415/2/1 418/2/1
f 420/3/1 418/3/1 417/3/1
f 420/3/1 416/3/1 402/3/1
f 420/3/1 419/3/1 418/3/1
f 420/3/1 417/3/1 416/3/1
f 421/3/1 419/3/1 420/3/1
f 422/3/1 420/3/1 402/3/1
f 422/2/1 421/2/1 420/2/1
f 423/3/1 419/3/1 421/3/1
f 423/2/1 421/2/1 422/2/1
f 424/3/1 407/3/1 419/3/1
f 424/3/1 419/3/1 423/3/1
f 425/5/1 401/5/1 407/5/1
f 425/3/1 407/3/1 424/3/1
f 426/5/1 402/5/1 400/5/1
f 426/3/1 424/3/1 423/3/1
f 426/3/1 423/3/1 422/3/1
f 426/3/1 422/3/1 402/3/1
f 427/3/1 424/3/1 426/3/1
f 428/3/1 424/3/1 427/3/1
f 429/2/1 425/2/1 424/2/1
f 429/3/1 424/3/1 428/3/1
f 430/5/1 401/5/1 425/5/1
f 430/2/1 425/2/1 429/2/1
f 431/2/1 427/2/1 426/2/1
f 432/3/1 428/3/1 427/3/1
f 432/2/1 427/2/1 431/2/1
f 433/2/1 429/2/1 428/2/1
f 433/3/1 428/3/1 432/3/1
f 434/3/1 430/3/1 429/3/1
f 434/2/1 429/2/1 433/2/1
f 435/2/1 431/2/1 426/2/1
f 435/5/1 426/5/1 400/5/1
f 436/3/1 432/3/1 431/3/1
f 436/2/1 431/2/1 435/2/1
f 437/2/1 433/2/1 432/2/1
f 437/3/1 432/3/1 436/3/1
f 438/3/1 434/3/1 433/3/1
f 438/2/1 433/2/1 437/2/1
f 439/3/1 430/3/1 434/3/1
f 439/3/1 434/3/1 438/3/1
f 440/2/1 437/2/1 436/2/1
f 440/3/1 436/3/1 435/3/1
f 441/3/1 438/3/1 437/3/1
f 441/2/1 437/2/1 440/2/1
f 442/2/1 439/2/1 438/2/1
f 442/3/1 438/3/1 441/3/1
f 443/3/1 430/3/1 439/3/1
f 443/2/1 439/2/1 442/2/1
f 444/5/1 435/5/1 400/5/1
f 445/3/1 442/3/1 441/3/1
f 445/3/1 441/3/1 440/3/1
f 445/3/1 443/3/1 442/3/1
f 446/3/1 430/3/1 443/3/1
f 446/3/1 443/3/1 445/3/1
f 447/3/1 445/3/1 440/3/1
f 448/2/1 446/2/1 445/2/1
f 448/3/1 445/3/1 447/3/1
f 449/3/1 430/3/1 446/3/1
f 449/2/1 446/2/1 448/2/1
f 450/3/1 440/3/1 435/3/1
f 450/3/1 447/3/1 440/3/1
f 451/2/1 448/2/1 447/2/1
f 451/3/1 447/3/1 450/3/1
f 452/3/1 449/3/1 448/3/1
f 452/2/1 448/2/1 451/2/1
f 453/3/1 430/3/1 449/3/1
f 453/3/1 449/3/1 452/3/1
f 454/3/1 450/3/1 435/3/1
f 454/2/1 452/2/1 451/2/1
f 454/2/1 453/2/1 452/2/1
f 454/2/1 451/2/1 450/2/1
f 455/2/1 453/2/1 454/2/1
f 456/2/1 453/2/1 455/2/1
f 457/3/1 430/3/1 453/3/1
f 457/2/1 453/2/1 456/2/1
f 458/5/1 435/5/1 444/5/1
f 458/3/1 454/3/1 435/3/1
f 458/3/1 455/3/1 454/3/1
f 459/2/1 456/2/1 455/2/1
f 459/3/1 455/3/1 458/3/1
f 460/3/1 457/3/1 456/3/1
f 460/2/1 456/2/1 459/2/1
f 461/3/1 430/3/1 457/3/1
f 461/3/1 457/3/1 460/3/1
f 463/5/1 458/5/1 444/5/1
f 464/2/1 460/2/1 459/2/1
f 464/2/1 459/2/1 458/2/1
f 464/5/1 458/5/1 463/5/1
f 464/2/1 461/2/1 460/2/1
f 465/3/1 430/3/1 461/3/1
f 465/2/1 461/2/1 464/2/1
f 466/5/1 401/5/1 430/5/1
f 466/3/1 430/3/1 465/3/1
f 467/5/1 464/5/1 463/5/1
f 467/5/1 463/5/1 462/5/1
f 467/5/1 466/5/1 465/5/1
f 467/5/1 465/5/1 464/5/1
f 468/3/1 399/3/1 401/3/1
f 468/5/1 466/5/1 467/5/1
f 468/5/1 401/5/1 466/5/1
f 469/3/1 468/3/1 467/3/1
f 470/3/1 399/3/1 468/3/1
f 470/3/1 468/3/1 469/3/1
f 473/1/1 472/1/1 471/1/1
f 474/1/1 472/1/1 473/1/1
f 478/1/1 476/1/1 475/1/1
f 479/1/1 476/1/1 478/1/1
f 480/5/1 478/5/1 477/5/1
f 481/5/1 478/5/1 480/5/1
f 482/1/2 483/1/2 484/1/2
f 484/1/2 483/1/2 485/1/2
f 486/4/2 487/4/2 488/4/2
f 488/4/2 487/4/2 489/4/2
f 490/4/2 491/4/2 492/4/2
f 492/4/2 491/4/2 493/4/2
f 494/5/2 495/5/2 496/5/2
f 496/5/2 495/5/2 497/5/2
f 498/1/2 499/1/2 501/1/2
f 499/3/2 500/3/2 502/3/2
f 501/1/2 499/1/2 502/1/2
f 502/3/2 500/3/2 503/3/2
f 501/8/2 502/8/2 504/8/2
f 502/8/2 503/8/2 504/8/2
f 504/8/2 503/8/2 505/8/2
f 504/1/2 505/1/2 506/1/2
f 506/1/2 505/1/2 507/1/2
f 508/5/2 509/5/2 510/5/2
f 510/5/2 509/5/2 511/5/2
f 512/1/2 513/1/2 514/1/2
f 514/1/2 513/1/2 517/1/2
f 517/1/2 513/1/2 518/1/2
f 518/1/2 513/1/2 519/1/2
f 515/8/2 516/8/2 521/8/2
f 521/8/2 516/8/2 522/8/2
f 518/1/2 519/1/2 523/1/2
f 519/5/2 520/5/2 524/5/2
f 523/1/2 519/1/2 524/1/2
f 524/5/2 520/5/2 525/5/2
f 526/5/2 527/5/2 528/5/2
f 528/5/2 527/5/2 529/5/2
f 530/5/2 531/5/2 532/5/2
f 532/5/2 531/5/2 533/5/2
f 534/5/2 535/5/2 536/5/2
f 536/5/2 535/5/2 537/5/2
f 538/5/2 539/5/2 540/5/2
f 540/5/2 539/5/2 541/5/2
f 542/5/2 543/5/2 544/5/2
f 544/5/2 543/5/2 545/5/2
f 546/3/2 547/3/2 548/3/2
f 548/3/2 547/3/2 549/3/2
f 550/1/2 551/1/2 552/1/2
f 552/1/2 551/1/2 553/1/2
f 554/3/2 555/3/2 556/3/2
f 556/3/2 555/3/2 557/3/2
f 556/7/2 557/7/2 558/7/2
f 558/7/2 557/7/2 559/7/2
f 560/5/2 561/5/2 562/5/2
f 562/5/2 561/5/2 563/5/2
f 564/3/2 565/3/2 566/3/2
f 566/3/2 565/3/2 567/3/2
f 568/5/2 569/5/2 570/5/2
f 570/5/2 569/5/2 571/5/2
f 572/5/2 573/5/2 576/5/2
f 576/5/2 573/5/2 577/5/2
f 574/1/2 575/1/2 578/1/2
f 578/1/2 575/1/2 579/1/2
f 580/3/2 581/3/2 582/3/2
f 582/3/2 581/3/2 583/3/2
f 583/3/2 581/3/2 584/3/2
f 584/3/2 581/3/2 585/3/2
f 586/5/2 587/5/2 588/5/2
f 588/5/2 587/5/2 589/5/2
f 590/5/2 591/5/2 592/5/2
f 592/5/2 591/5/2 593/5/2
f 594/3/2 595/3/2 596/3/2
f 596/3/2 595/3/2 597/3/2
f 598/1/2 599/1/2 600/1/2
f 600/1/2 599/1/2 601/1/2
f 603/3/2 604/3/2 605/3/2
f 602/1/2 603/1/2 607/1/2
f 605/3/2 606/3/2 608/3/2
f 607/1/2 603/1/2 608/1/2
f 603/3/2 605/3/2 608/3/2
f 608/3/2 606/3/2 609/3/2
f 610/2/2 611/2/2 613/2/2
f 611/2/2 612/2/2 613/2/2
f 613/2/2 612/2/2 614/2/2
f 614/2/2 612/2/2 615/2/2
f 616/2/2 617/2/2 619/2/2
f 617/2/2 618/2/2 619/2/2
f 619/2/2 618/2/2 620/2/2
f 621/1/2 622/1/2 624/1/2
f 623/1/2 624/1/2 625/1/2
f 624/1/2 622/1/2 626/1/2
f 625/1/2 624/1/2 626/1/2
f 626/1/2 622/1/2 627/1/2
f 627/1/2 622/1/2 628/1/2
f 626/1/2 627/1/2 629/1/2
f 629/1/2 627/1/2 630/1/2
f 631/3/2 632/3/2 633/3/2
f 633/3/2 632/3/2 634/3/2
f 635/1/2 636/1/2 639/1/2
f 639/1/2 636/1/2 640/1/2
f 637/1/2 638/1/2 641/1/2
f 641/1/2 638/1/2 642/1/2
f 643/1/2 644/1/2 645/1/2
f 645/1/2 644/1/2 646/1/2
f 647/8/2 648/8/2 649/8/2
f 649/8/2 648/8/2 651/8/2
f 651/8/2 648/8/2 652/8/2
f 650/8/2 651/8/2 654/8/2
f 654/8/2 651/8/2 655/8/2
f 652/5/2 653/5/2 656/5/2
f 656/5/2 653/5/2 657/5/2
f 658/1/2 659/1/2 662/1/2
f 662/1/2 659/1/2 663/1/2
f 660/1/2 661/1/2 668/1/2
f 668/1/2 661/1/2 669/1/2
f 663/5/2 664/5/2 670/5/2
f 664/1/2 665/1/2 671/1/2
f 670/5/2 664/5/2 671/5/2
f 666/1/2 667/1/2 672/1/2
f 667/5/2 668/5/2 672/5/2
f 672/5/2 668/5/2 673/5/2
f 671/1/2 665/1/2 674/1/2
f 674/1/2 665/1/2 675/1/2
f 666/1/2 672/1/2 676/1/2
f 676/1/2 672/1/2 677/1/2
f 678/1/2 679/1/2 680/1/2
f 680/1/2 679/1/2 681/1/2
f 682/5/2 683/5/2 684/5/2
f 684/5/2 683/5/2 685/5/2
f 685/5/2 686/5/2 687/5/2
f 687/5/2 686/5/2 688/5/2
f 689/2/2 690/2/2 691/2/2
f 691/2/2 690/2/2 692/2/2
f 693/1/2 694/1/2 695/1/2
f 695/1/2 694/1/2 696/1/2
f 697/1/2 698/1/2 701/1/2
f 699/1/2 700/1/2 702/1/2
f 702/1/2 700/1/2 703/1/2
f 697/1/2 701/1/2 704/1/2
f 704/1/2 701/1/2 705/1/2
f 706/1/2 707/1/2 710/1/2
f 707/8/2 708/8/2 711/8/2
f 710/1/2 707/1/2 711/1/2
f 711/8/2 708/8/2 712/8/2
f 709/1/2 710/1/2 714/1/2
f 710/1/2 711/1/2 714/1/2
f 713/5/2 714/5/2 715/5/2
f 714/1/2 711/1/2 716/1/2
f 715/5/2 714/5/2 716/5/2
f 716/1/2 711/1/2 717/1/2
f 718/1/2 719/1/2 720/1/2
f 720/1/2 719/1/2 721/1/2
f 722/3/2 723/3/2 724/3/2
f 724/3/2 723/3/2 725/3/2
f 726/3/2 727/3/2 728/3/2
f 728/3/2 727/3/2 729/3/2
f 728/5/2 729/5/2 730/5/2
f 730/5/2 729/5/2 731/5/2
f 731/5/2 729/5/2 732/5/2
f 732/5/2 729/5/2 733/5/2
f 733/5/2 729/5/2 734/5/2
f 734/5/2 729/5/2 735/5/2
f 730/3/2 731/3/2 736/3/2
f 731/2/2 732/2/2 736/2/2
f 732/3/2 733/3/2 737/3/2
f 736/2/2 732/2/2 737/2/2
f 733/2/2 734/2/2 738/2/2
f 737/3/2 733/3/2 738/3/2
f 734/3/2 735/3/2 739/3/2
f 738/2/2 734/2/2 739/2/2
f 730/3/2 736/3/2 740/3/2
f 736/3/2 737/3/2 740/3/2
f 737/2/2 738/2/2 741/2/2
f 740/3/2 737/3/2 741/3/2
f 738/3/2 739/3/2 742/3/2
f 741/2/2 738/2/2 742/2/2
f 739/3/2 735/3/2 743/3/2
f 742/3/2 739/3/2 743/3/2
f 730/3/2 740/3/2 744/3/2
f 740/2/2 741/2/2 744/2/2
f 741/3/2 742/3/2 745/3/2
f 744/2/2 741/2/2 745/2/2
f 742/2/2 743/2/2 746/2/2
f 745/3/2 742/3/2 746/3/2
f 743/3/2 735/3/2 747/3/2
f 746/2/2 743/2/2 747/2/2
f 745/3/2 746/3/2 748/3/2
f 730/3/2 744/3/2 748/3/2
f 746/3/2 747/3/2 748/3/2
f 744/3/2 745/3/2 748/3/2
f 748/3/2 747/3/2 749/3/2
f 730/3/2 748/3/2 750/3/2
f 748/2/2 749/2/2 750/2/2
f 749/3/2 747/3/2 751/3/2
f 750/2/2 749/2/2 751/2/2
f 747/3/2 735/3/2 752/3/2
f 751/3/2 747/3/2 752/3/2
f 735/5/2 729/5/2 753/5/2
f 752/3/2 735/3/2 753/3/2
f 728/5/2 730/5/2 754/5/2
f 751/3/2 752/3/2 754/3/2
f 750/3/2 751/3/2 754/3/2
f 730/3/2 750/3/2 754/3/2
f 754/3/2 752/3/2 755/3/2
f 755/3/2 752/3/2 756/3/2
f 752/2/2 753/2/2 757/2/2
f 756/3/2 752/3/2 757/3/2
f 753/5/2 729/5/2 758/5/2
f 757/2/2 753/2/2 758/2/2
f 754/2/2 755/2/2 759/2/2
f 755/3/2 756/3/2 760/3/2
f 759/2/2 755/2/2 760/2/2
f 756/2/2 757/2/2 761/2/2
f 760/3/2 756/3/2 761/3/2
f 757/3/2 758/3/2 762/3/2
f 761/2/2 757/2/2 762/2/2
f 754/2/2 759/2/2 763/2/2
f 728/5/2 754/5/2 763/5/2
f 759/3/2 760/3/2 764/3/2
f 763/2/2 759/2/2 764/2/2
f 760/2/2 761/2/2 765/2/2
f 764/3/2 760/3/2 765/3/2
f 761/3/2 762/3/2 766/3/2
f 765/2/2 761/2/2 766/2/2
f 762/3/2 758/3/2 767/3/2
f 766/3/2 762/3/2 767/3/2
f 764/2/2 765/2/2 768/2/2
f 763/3/2 764/3/2 768/3/2
f 765/3/2 766/3/2 769/3/2
f 768/2/2 765/2/2 769/2/2
f 766/2/2 767/2/2 770/2/2
f 769/3/2 766/3/2 770/3/2
f 767/3/2 758/3/2 771/3/2
f 770/2/2 767/2/2 771/2/2
f 728/5/2 763/5/2 774/5/2
f 769/3/2 770/3/2 775/3/2
f 768/3/2 769/3/2 775/3/2
f 770/3/2 771/3/2 775/3/2
f 771/3/2 758/3/2 776/3/2
f 775/3/2 771/3/2 776/3/2
f 772/8/2 773/8/2 777/8/2
f 777/8/2 773/8/2 778/8/2
f 768/3/2 775/3/2 779/3/2
f 775/2/2 776/2/2 780/2/2
f 779/3/2 775/3/2 780/3/2
f 776/3/2 758/3/2 781/3/2
f 780/2/2 776/2/2 781/2/2
f 763/3/2 768/3/2 782/3/2
f 768/3/2 779/3/2 782/3/2
f 779/2/2 780/2/2 783/2/2
f 782/3/2 779/3/2 783/3/2
f 780/3/2 781/3/2 784/3/2
f 783/2/2 780/2/2 784/2/2
f 781/3/2 758/3/2 785/3/2
f 784/3/2 781/3/2 785/3/2
f 763/3/2 782/3/2 786/3/2
f 783/2/2 784/2/2 786/2/2
f 784/2/2 785/2/2 786/2/2
f 782/2/2 783/2/2 786/2/2
f 786/2/2 785/2/2 787/2/2
f 787/2/2 785/2/2 788/2/2
f 785/3/2 758/3/2 789/3/2
f 788/2/2 785/2/2 789/2/2
f 774/5/2 763/5/2 790/5/2
f 763/3/2 786/3/2 790/3/2
f 786/3/2 787/3/2 790/3/2
f 787/2/2 788/2/2 791/2/2
f 790/3/2 787/3/2 791/3/2
f 788/3/2 789/3/2 792/3/2
f 791/2/2 788/2/2 792/2/2
f 789/3/2 758/3/2 793/3/2
f 792/3/2 789/3/2 793/3/2
f 774/5/2 790/5/2 795/5/2
f 791/2/2 792/2/2 796/2/2
f 790/2/2 791/2/2 796/2/2
f 795/5/2 790/5/2 796/5/2
f 792/2/2 793/2/2 796/2/2
f 793/3/2 758/3/2 797/3/2
f 796/2/2 793/2/2 797/2/2
f 758/5/2 729/5/2 798/5/2
f 797/3/2 758/3/2 798/3/2
f 795/5/2 796/5/2 799/5/2
f 794/5/2 795/5/2 799/5/2
f 797/5/2 798/5/2 799/5/2
f 796/5/2 797/5/2 799/5/2
f 729/3/2 727/3/2 800/3/2
f 799/5/2 798/5/2 800/5/2
f 798/5/2 729/5/2 800/5/2
f 799/3/2 800/3/2 801/3/2
f 800/3/2 727/3/2 802/3/2
f 801/3/2 800/3/2 802/3/2
f 803/3/2 804/3/2 805/3/2
f 805/3/2 804/3/2 806/3/2
f 807/1/2 808/1/2 809/1/2
f 809/1/2 808/1/2 810/1/2
f 811/1/2 812/1/2 814/1/2
f 814/1/2 812/1/2 815/1/2
f 813/5/2 814/5/2 817/5/2
f 817/5/2 814/5/2 818/5/2
f 815/5/2 816/5/2 819/5/2
f 819/5/2 816/5/2 820/5/2
f 821/5/2 822/5/2 823/5/2
f 823/5/2 822/5/2 824/5/2
f 827/1/3 826/1/3 825/1/3
f 828/1/3 826/1/3 827/1/3
f 831/1/3 830/1/3 829/1/3
f 832/1/3 830/1/3 831/1/3
f 833/1/3 830/1/3 832/1/3
f 834/1/3 830/1/3 833/1/3
f 837/3/3 834/3/3 833/3/3
f 838/1/3 830/1/3 834/1/3
f 838/3/3 834/3/3 837/3/3
f 839/1/3 837/1/3 836/1/3
f 839/1/3 836/1/3 835/1/3
f 839/1/3 838/1/3 837/1/3
f 840/1/3 830/1/3 838/1/3
f 840/1/3 838/1/3 839/1/3
f 843/1/3 842/1/3 841/1/3
f 844/1/3 842/1/3 843/1/3
f 847/5/3 846/5/3 845/5/3
f 848/5/3 846/5/3 847/5/3
f 852/4/3 851/4/3 850/4/3
f 853/4/3 851/4/3 852/4/3
f 854/5/3 849/5/3 848/5/3
f 855/5/3 849/5/3 854/5/3
f 859/5/3 857/5/3 856/5/3
f 860/5/3 857/5/3 859/5/3
f 862/1/3 859/1/3 858/1/3
f 863/1/3 859/1/3 862/1/3
f 865/1/3 861/1/3 860/1/3
f 866/1/3 861/1/3 865/1/3
f 867/1/3 865/1/3 864/1/3
f 868/1/3 865/1/3 867/1/3
f 871/5/3 870/5/3 869/5/3
f 872/5/3 870/5/3 871/5/3
f 879/1/3 876/1/3 875/1/3
f 880/1/3 876/1/3 879/1/3
f 881/1/3 878/1/3 877/1/3
f 882/1/3 878/1/3 881/1/3
f 883/1/3 874/1/3 873/1/3
f 884/1/3 874/1/3 883/1/3
f 890/5/3 886/5/3 885/5/3
f 891/5/3 886/5/3 890/5/3
f 892/1/3 888/1/3 887/1/3
f 893/1/3 888/1/3 892/1/3
f 894/1/3 890/1/3 889/1/3
f 895/1/3 890/1/3 894/1/3
f 897/5/3 896/5/3 895/5/3
f 898/5/3 896/5/3 897/5/3
f 901/4/3 900/4/3 899/4/3
f 903/4/3 902/4/3 901/4/3
f 905/4/3 901/4/3 899/4/3
f 905/4/3 904/4/3 903/4/3
f 905/4/3 903/4/3 901/4/3
f 906/4/3 904/4/3 905/4/3
f 907/4/3 904/4/3 906/4/3
f 908/4/3 904/4/3 907/4/3
f 909/5/3 907/5/3 906/5/3
f 910/5/3 907/5/3 909/5/3
f 912/5/3 911/5/3 910/5/3
f 913/5/3 911/5/3 912/5/3
f 915/5/3 914/5/3 913/5/3
f 916/5/3 914/5/3 915/5/3
f 920/5/3 917/5/3 916/5/3
f 921/5/3 917/5/3 920/5/3
f 923/5/3 922/5/3 921/5/3
f 924/5/3 922/5/3 923/5/3
f 926/1/3 919/1/3 918/1/3
f 927/1/3 919/1/3 926/1/3
f 928/5/3 925/5/3 924/5/3
f 929/5/3 925/5/3 928/5/3
f 932/1/3 931/1/3 930/1/3
f 933/1/3 931/1/3 932/1/3
f 942/5/3 935/5/3 934/5/3
f 943/5/3 935/5/3 942/5/3
f 944/3/3 937/3/3 936/3/3
f 945/8/3 938/8/3 937/8/3
f 945/3/3 937/3/3 944/3/3
f 945/8/3 939/8/3 938/8/3
f 946/8/3 939/8/3 945/8/3
f 947/8/3 941/8/3 940/8/3
f 947/8/3 942/8/3 941/8/3
f 948/8/3 942/8/3 947/8/3
f 953/1/3 950/1/3 949/1/3
f 958/1/3 954/1/3 953/1/3
f 959/1/3 957/1/3 956/1/3
f 959/1/3 956/1/3 955/1/3
f 960/1/3 957/1/3 959/1/3
f 961/1/3 957/1/3 960/1/3
f 962/1/3 957/1/3 961/1/3
f 963/1/3 959/1/3 958/1/3
f 964/1/3 961/1/3 960/1/3
f 965/1/3 961/1/3 964/1/3
f 969/1/3 964/1/3 963/1/3
f 970/1/3 961/1/3 965/1/3
f 971/1/3 961/1/3 970/1/3
f 972/1/3 967/1/3 966/1/3
f 973/5/3 968/5/3 967/5/3
f 973/1/3 967/1/3 972/1/3
f 974/1/3 970/1/3 969/1/3
f 975/1/3 961/1/3 971/1/3
f 976/1/3 961/1/3 975/1/3
f 977/1/3 975/1/3 974/1/3
f 978/1/3 961/1/3 976/1/3
f 979/1/3 961/1/3 978/1/3
f 980/1/3 952/1/3 951/1/3
f 981/1/3 952/1/3 980/1/3
f 982/1/3 953/1/3 949/1/3
f 982/1/3 958/1/3 953/1/3
f 982/1/3 969/1/3 963/1/3
f 982/1/3 978/1/3 977/1/3
f 982/1/3 963/1/3 958/1/3
f 982/1/3 977/1/3 974/1/3
f 982/1/3 974/1/3 969/1/3
f 983/1/3 978/1/3 982/1/3
f 985/5/3 968/5/3 973/5/3
f 986/5/3 968/5/3 985/5/3
f 989/1/3 985/1/3 984/1/3
f 990/1/3 985/1/3 989/1/3
f 991/8/3 988/8/3 987/8/3
f 992/8/3 988/8/3 991/8/3
f 996/1/3 994/1/3 993/1/3
f 997/5/3 995/5/3 994/5/3
f 997/1/3 994/1/3 996/1/3
f 998/5/3 995/5/3 997/5/3
f 1000/1/3 999/1/3 998/1/3
f 1001/1/3 999/1/3 1000/1/3
f 1002/1/3 996/1/3 993/1/3
f 1003/1/3 996/1/3 1002/1/3
f 1007/3/3 1005/3/3 1004/3/3
f 1008/3/3 1007/3/3 1006/3/3
f 1009/3/3 1005/3/3 1007/3/3
f 1009/3/3 1007/3/3 1008/3/3
f 1012/7/3 1011/7/3 1010/7/3
f 1013/7/3 1011/7/3 1012/7/3
f 1018/7/3 1015/7/3 1014/7/3
f 1019/7/3 1015/7/3 1018/7/3
f 1020/1/3 1017/1/3 1016/1/3
f 1021/1/3 1017/1/3 1020/1/3
f 1024/1/3 1023/1/3 1022/1/3
f 1025/1/3 1023/1/3 1024/1/3
f 1028/1/3 1027/1/3 1026/1/3
f 1029/1/3 1027/1/3 1028/1/3
f 1032/1/3 1031/1/3 1030/1/3
f 1033/1/3 1031/1/3 1032/1/3
f 1034/1/3 1032/1/3 1030/1/3
f 1035/1/3 1032/1/3 1034/1/3
f 1038/1/3 1037/1/3 1036/1/3
f 1039/1/3 1037/1/3 1038/1/3
f 1043/3/3 1041/3/3 1040/3/3
f 1044/1/3 1042/1/3 1041/1/3
f 1044/3/3 1041/3/3 1043/3/3
f 1045/1/3 1042/1/3 1044/1/3
f 1046/1/3 1042/1/3 1045/1/3
f 1047/3/3 1046/3/3 1045/3/3
f 1048/3/3 1046/3/3 1047/3/3
f 1052/1/3 1050/1/3 1049/1/3
f 1053/1/3 1052/1/3 1051/1/3
f 1054/1/3 1050/1/3 1052/1/3
f 1054/1/3 1052/1/3 1053/1/3
f 1057/1/3 1056/1/3 1055/1/3
f 1058/1/3 1056/1/3 1057/1/3
f 1061/5/3 1060/5/3 1059/5/3
f 1062/5/3 1060/5/3 1061/5/3
f 1067/8/3 1065/8/3 1064/8/3
f 1067/8/3 1066/8/3 1065/8/3
f 1068/8/3 1066/8/3 1067/8/3
f 1071/1/3 1064/1/3 1063/1/3
f 1072/8/3 1067/8/3 1064/8/3
f 1072/1/3 1064/1/3 1071/1/3
f 1073/8/3 1067/8/3 1072/8/3
f 1074/1/3 1070/1/3 1069/1/3
f 1075/1/3 1070/1/3 1074/1/3
f 1078/1/3 1077/1/3 1076/1/3
f 1079/1/3 1077/1/3 1078/1/3
f 1080/1/3 1078/1/3 1076/1/3
f 1081/1/3 1078/1/3 1080/1/3
f 1084/8/3 1083/8/3 1082/8/3
f 1085/8/3 1083/8/3 1084/8/3
f 1088/1/3 1087/1/3 1086/1/3
f 1089/1/3 1087/1/3 1088/1/3
f 1092/5/3 1091/5/3 1090/5/3
f 1093/5/3 1091/5/3 1092/5/3
f 1096/5/3 1095/5/3 1094/5/3
f 1097/5/3 1095/5/3 1096/5/3
f 1098/1/4 1099/1/4 1100/1/4
f 1100/1/4 1099/1/4 1101/1/4
f 1102/1/4 1103/1/4 1104/1/4
f 1104/1/4 1103/1/4 1105/1/4
f 1106/8/4 1107/8/4 1109/8/4
f 1107/1/4 1108/1/4 1110/1/4
f 1109/8/4 1107/8/4 1110/8/4
f 1110/1/4 1108/1/4 1111/1/4
f 1112/1/4 1113/1/4 1114/1/4
f 1114/1/4 1113/1/4 1115/1/4
f 1116/1/4 1117/1/4 1118/1/4
f 1118/1/4 1117/1/4 1119/1/4
f 1120/1/4 1121/1/4 1122/1/4
f 1122/1/4 1121/1/4 1123/1/4
f 1124/1/4 1125/1/4 1126/1/4
f 1126/1/4 1125/1/4 1127/1/4
f 1128/1/4 1129/1/4 1130/1/4
f 1130/1/4 1129/1/4 1131/1/4
f 1132/1/4 1133/1/4 1134/1/4
f 1134/1/4 1133/1/4 1135/1/4
f 1136/4/4 1137/4/4 1138/4/4
f 1138/4/4 1137/4/4 1139/4/4
f 1140/1/4 1141/1/4 1143/1/4
f 1143/1/4 1141/1/4 1144/1/4
f 1142/1/4 1143/1/4 1145/1/4
f 1145/1/4 1143/1/4 1146/1/4
f 1145/3/4 1146/3/4 1147/3/4
f 1147/3/4 1146/3/4 1148/3/4
f 1148/3/4 1146/3/4 1150/3/4
f 1149/3/4 1150/3/4 1151/3/4
f 1146/1/4 1143/1/4 1152/1/4
f 1151/3/4 1150/3/4 1152/3/4
f 1150/3/4 1146/3/4 1152/3/4
f 1151/1/4 1152/1/4 1153/1/4
f 1152/1/4 1143/1/4 1154/1/4
f 1153/1/4 1152/1/4 1154/1/4
f 1151/1/4 1153/1/4 1159/1/4
f 1155/1/4 1156/1/4 1160/1/4
f 1151/1/4 1159/1/4 1161/1/4
f 1160/1/4 1156/1/4 1162/1/4
f 1162/1/4 1156/1/4 1163/1/4
f 1163/1/4 1156/1/4 1164/1/4
f 1157/1/4 1158/1/4 1165/1/4
f 1165/1/4 1158/1/4 1166/1/4
f 1151/1/4 1161/1/4 1167/1/4
f 1154/1/4 1143/1/4 1168/1/4
f 1151/1/4 1167/1/4 1169/1/4
f 1167/1/4 1168/1/4 1169/1/4
f 1168/1/4 1143/1/4 1170/1/4
f 1169/1/4 1168/1/4 1170/1/4
f 1171/7/4 1172/7/4 1175/7/4
f 1175/7/4 1172/7/4 1176/7/4
f 1173/1/4 1174/1/4 1177/1/4
f 1177/1/4 1174/1/4 1178/1/4
f 1179/1/4 1180/1/4 1182/1/4
f 1180/5/4 1181/5/4 1183/5/4
f 1182/1/4 1180/1/4 1183/1/4
f 1183/5/4 1181/5/4 1184/5/4
f 1186/2/4 1187/2/4 1188/2/4
f 1188/2/4 1187/2/4 1189/2/4
f 1189/2/4 1187/2/4 1190/2/4
f 1190/2/4 1187/2/4 1191/2/4
f 1191/2/4 1187/2/4 1192/2/4
f 1188/5/4 1189/5/4 1193/5/4
f 1193/5/4 1189/5/4 1194/5/4
f 1190/5/4 1191/5/4 1195/5/4
f 1195/5/4 1191/5/4 1196/5/4
f 1192/2/4 1187/2/4 1197/2/4
f 1184/1/4 1185/1/4 1198/1/4
f 1198/1/4 1185/1/4 1199/1/4
f 1196/2/4 1197/2/4 1200/2/4
f 1195/2/4 1196/2/4 1200/2/4
f 1193/2/4 1194/2/4 1200/2/4
f 1194/2/4 1195/2/4 1200/2/4
f 1197/2/4 1187/2/4 1201/2/4
f 1200/2/4 1197/2/4 1201/2/4
f 1202/3/4 1203/3/4 1205/3/4
f 1204/3/4 1205/3/4 1206/3/4
f 1205/3/4 1203/3/4 1207/3/4
f 1206/3/4 1205/3/4 1207/3/4
f 1208/1/4 1209/1/4 1211/1/4
f 1209/5/4 1210/5/4 1212/5/4
f 1211/1/4 1209/1/4 1212/1/4
f 1212/5/4 1210/5/4 1214/5/4
f 1214/5/4 1210/5/4 1215/5/4
f 1216/8/4 1217/8/4 1220/8/4
f 1220/8/4 1217/8/4 1221/8/4
f 1213/1/4 1214/1/4 1222/1/4
f 1222/1/4 1214/1/4 1223/1/4
f 1218/5/4 1219/5/4 1224/5/4
f 1224/5/4 1219/5/4 1225/5/4
f 1220/8/4 1221/8/4 1226/8/4
f 1222/8/4 1223/8/4 1226/8/4
f 1223/8/4 1224/8/4 1226/8/4
f 1221/8/4 1222/8/4 1226/8/4
f 1226/8/4 1224/8/4 1227/8/4
f 1227/8/4 1224/8/4 1228/8/4
f 1220/8/4 1226/8/4 1229/8/4
f 1229/8/4 1226/8/4 1230/8/4
f 1230/8/4 1226/8/4 1231/8/4
f 1228/8/4 1224/8/4 1233/8/4
f 1231/8/4 1232/8/4 1234/8/4
f 1232/8/4 1233/8/4 1234/8/4
f 1230/8/4 1231/8/4 1234/8/4
f 1233/8/4 1224/8/4 1235/8/4
f 1234/8/4 1233/8/4 1235/8/4
f 1234/1/4 1235/1/4 1236/1/4
f 1236/1/4 1235/1/4 1237/1/4
f 1237/5/4 1238/5/4 1239/5/4
f 1239/5/4 1238/5/4 1240/5/4
f 1241/4/4 1242/4/4 1243/4/4
f 1243/4/4 1244/4/4 1245/4/4
f 1241/4/4 1243/4/4 1249/4/4
f 1243/4/4 1245/4/4 1249/4/4
f 1245/4/4 1246/4/4 1249/4/4
f 1247/3/4 1248/3/4 1250/3/4
f 1248/1/4 1249/1/4 1251/1/4
f 1250/3/4 1248/3/4 1251/3/4
f 1249/4/4 1246/4/4 1252/4/4
f 1251/1/4 1249/1/4 1252/1/4
f 1252/4/4 1246/4/4 1253/4/4
f 1253/4/4 1246/4/4 1254/4/4
f 1254/4/4 1246/4/4 1255/4/4
f 1255/1/4 1256/1/4 1257/1/4
f 1254/1/4 1255/1/4 1257/1/4
f 1257/1/4 1256/1/4 1258/1/4
f 1258/1/4 1256/1/4 1260/1/4
f 1260/1/4 1256/1/4 1261/1/4
f 1261/1/4 1256/1/4 1262/1/4
f 1259/1/4 1260/1/4 1265/1/4
f 1262/1/4 1263/1/4 1266/1/4
f 1261/1/4 1262/1/4 1266/1/4
f 1266/1/4 1263/1/4 1267/1/4
f 1265/1/4 1266/1/4 1268/1/4
f 1267/1/4 1263/1/4 1269/1/4
f 1269/1/4 1263/1/4 1270/1/4
f 1268/1/4 1269/1/4 1271/1/4
f 1270/1/4 1263/1/4 1272/1/4
f 1272/1/4 1263/1/4 1273/1/4
f 1271/1/4 1272/1/4 1274/1/4
f 1273/1/4 1263/1/4 1275/1/4
f 1263/8/4 1264/8/4 1276/8/4
f 1275/1/4 1263/1/4 1276/1/4
f 1274/1/4 1275/1/4 1280/1/4
f 1259/1/4 1265/1/4 1280/1/4
f 1265/1/4 1268/1/4 1280/1/4
f 1268/1/4 1271/1/4 1280/1/4
f 1271/1/4 1274/1/4 1280/1/4
f 1280/1/4 1275/1/4 1281/1/4
f 1276/8/4 1264/8/4 1282/8/4
f 1282/8/4 1264/8/4 1283/8/4
f 1280/1/4 1281/1/4 1286/1/4
f 1279/1/4 1280/1/4 1286/1/4
f 1281/1/4 1282/1/4 1286/1/4
f 1286/1/4 1282/1/4 1287/1/4
f 1277/1/4 1278/1/4 1288/1/4
f 1288/1/4 1278/1/4 1289/1/4
f 1284/3/4 1285/3/4 1290/3/4
f 1285/1/4 1286/1/4 1291/1/4
f 1290/3/4 1285/3/4 1291/3/4
f 1291/1/4 1286/1/4 1292/1/4
f 1291/3/4 1292/3/4 1293/3/4
f 1293/3/4 1292/3/4 1294/3/4
f 1292/1/4 1286/1/4 1297/1/4
f 1295/1/4 1296/1/4 1300/1/4
f 1300/1/4 1296/1/4 1301/1/4
f 1298/5/4 1299/5/4 1302/5/4
f 1297/1/4 1298/1/4 1302/1/4
f 1302/5/4 1299/5/4 1303/5/4
f 1294/3/4 1292/3/4 1305/3/4
f 1292/1/4 1297/1/4 1306/1/4
f 1297/1/4 1302/1/4 1306/1/4
f 1305/3/4 1292/3/4 1306/3/4
f 1306/1/4 1302/1/4 1307/1/4
f 1305/3/4 1306/3/4 1311/3/4
f 1304/3/4 1305/3/4 1311/3/4
f 1306/8/4 1307/8/4 1312/8/4
f 1311/3/4 1306/3/4 1312/3/4
f 1311/8/4 1312/8/4 1313/8/4
f 1313/8/4 1312/8/4 1314/8/4
f 1312/8/4 1307/8/4 1315/8/4
f 1314/8/4 1312/8/4 1315/8/4
f 1311/8/4 1313/8/4 1316/8/4
f 1310/3/4 1311/3/4 1319/3/4
f 1317/8/4 1318/8/4 1320/8/4
f 1319/3/4 1311/3/4 1320/3/4
f 1311/8/4 1316/8/4 1320/8/4
f 1316/8/4 1317/8/4 1320/8/4
f 1320/8/4 1318/8/4 1321/8/4
f 1320/1/4 1321/1/4 1322/1/4
f 1322/1/4 1321/1/4 1323/1/4
f 1308/5/4 1309/5/4 1324/5/4
f 1324/5/4 1309/5/4 1325/5/4
f 1326/5/4 1327/5/4 1328/5/4
f 1328/5/4 1327/5/4 1329/5/4
f 1329/5/4 1330/5/4 1331/5/4
f 1331/5/4 1330/5/4 1332/5/4
f 1332/5/4 1333/5/4 1336/5/4
f 1336/5/4 1333/5/4 1337/5/4
f 1337/5/4 1338/5/4 1339/5/4
f 1339/5/4 1338/5/4 1340/5/4
f 1340/5/4 1341/5/4 1342/5/4
f 1342/5/4 1341/5/4 1343/5/4
f 1343/5/4 1344/5/4 1345/5/4
f 1345/5/4 1344/5/4 1346/5/4
f 1346/5/4 1347/5/4 1348/5/4
f 1348/5/4 1347/5/4 1349/5/4
f 1334/5/4 1335/5/4 1350/5/4
f 1349/5/4 1350/5/4 1351/5/4
f 1350/5/4 1335/5/4 1352/5/4
f 1351/5/4 1350/5/4 1352/5/4
f 1355/7/4 1356/7/4 1359/7/4
f 1359/7/4 1356/7/4 1360/7/4
f 1357/1/4 1358/1/4 1361/1/4
f 1361/1/4 1358/1/4 1362/1/4
f 1353/1/4 1354/1/4 1363/1/4
f 1363/1/4 1354/1/4 1364/1/4
f 1365/1/4 1366/1/4 1367/1/4
f 1367/1/4 1366/1/4 1368/1/4
f 1369/5/4 1370/5/4 1372/5/4
f 1372/5/4 1370/5/4 1373/5/4
f 1371/1/4 1372/1/4 1374/1/4
f 1374/1/4 1372/1/4 1375/1/4
f 1376/8/4 1377/8/4 1378/8/4
f 1378/8/4 1377/8/4 1379/8/4
f 1378/3/4 1379/3/4 1380/3/4
f 1380/3/4 1379/3/4 1381/3/4
f 1378/3/4 1380/3/4 1382/3/4
f 1381/3/4 1379/3/4 1383/3/4
f 1376/8/4 1378/8/4 1386/8/4
f 1378/3/4 1382/3/4 1386/3/4
f 1382/3/4 1383/3/4 1386/3/4
f 1379/8/4 1377/8/4 1387/8/4
f 1386/3/4 1383/3/4 1387/3/4
f 1383/3/4 1379/3/4 1387/3/4
f 1384/1/4 1385/1/4 1388/1/4
f 1388/1/4 1385/1/4 1389/1/4
f 1376/8/4 1386/8/4 1390/8/4
f 1386/8/4 1387/8/4 1390/8/4
f 1387/8/4 1377/8/4 1391/8/4
f 1390/8/4 1387/8/4 1391/8/4
f 1391/5/4 1392/5/4 1395/5/4
f 1395/5/4 1392/5/4 1396/5/4
f 1393/1/4 1394/1/4 1397/1/4
f 1397/1/4 1394/1/4 1398/1/4
f 1399/5/4 1400/5/4 1402/5/4
f 1402/5/4 1400/5/4 1403/5/4
f 1404/3/4 1405/3/4 1406/3/4
f 1406/3/4 1405/3/4 1407/3/4
f 1404/3/4 1406/3/4 1409/3/4
f 1406/6/4 1407/6/4 1410/6/4
f 1409/3/4 1406/3/4 1410/3/4
f 1410/6/4 1407/6/4 1411/6/4
f 1401/1/4 1402/1/4 1412/1/4
f 1412/1/4 1402/1/4 1413/1/4
f 1411/6/4 1407/6/4 1416/6/4
f 1414/3/4 1415/3/4 1417/3/4
f 1415/6/4 1416/6/4 1417/6/4
f 1416/6/4 1407/6/4 1418/6/4
f 1417/6/4 1416/6/4 1418/6/4
f 1407/3/4 1408/3/4 1418/3/4
f 1418/3/4 1408/3/4 1419/3/4
f 1414/3/4 1417/3/4 1420/3/4
f 1417/3/4 1418/3/4 1420/3/4
f 1420/3/4 1418/3/4 1421/3/4
f 1422/5/4 1423/5/4 1426/5/4
f 1426/5/4 1423/5/4 1427/5/4
f 1424/1/4 1425/1/4 1428/1/4
f 1428/1/4 1425/1/4 1429/1/4
f 1430/5/4 1431/5/4 1435/5/4
f 1435/5/4 1431/5/4 1436/5/4
f 1432/3/4 1433/3/4 1437/3/4
f 1433/7/4 1434/7/4 1438/7/4
f 1437/3/4 1433/3/4 1438/3/4
f 1438/7/4 1434/7/4 1439/7/4
f 1440/3/4 1441/3/4 1442/3/4
f 1442/3/4 1441/3/4 1443/3/4
f 1447/1/5 1445/1/5 1444/1/5
f 1448/1/5 1445/1/5 1447/1/5
f 1450/1/5 1447/1/5 1446/1/5
f 1450/1/5 1449/1/5 1448/1/5
f 1450/1/5 1448/1/5 1447/1/5
f 1451/1/5 1449/1/5 1450/1/5
f 1452/1/5 1450/1/5 1446/1/5
f 1452/4/5 1451/4/5 1450/4/5
f 1453/1/5 1449/1/5 1451/1/5
f 1453/4/5 1451/4/5 1452/4/5
f 1454/1/5 1453/1/5 1452/1/5
f 1454/1/5 1449/1/5 1453/1/5
f 1457/1/5 1452/1/5 1446/1/5
f 1457/1/5 1454/1/5 1452/1/5
f 1458/3/5 1455/3/5 1454/3/5
f 1458/1/5 1454/1/5 1457/1/5
f 1459/3/5 1455/3/5 1458/3/5
f 1460/1/5 1457/1/5 1456/1/5
f 1460/1/5 1458/1/5 1457/1/5
f 1461/1/5 1458/1/5 1460/1/5
f 1462/1/5 1460/1/5 1456/1/5
f 1463/3/5 1461/3/5 1460/3/5
f 1463/1/5 1460/1/5 1462/1/5
f 1464/3/5 1461/3/5 1463/3/5
f 1465/1/5 1458/1/5 1461/1/5
f 1465/3/5 1461/3/5 1464/3/5
f 1466/3/5 1464/3/5 1463/3/5
f 1466/3/5 1463/3/5 1462/3/5
f 1467/1/5 1465/1/5 1464/1/5
f 1467/3/5 1464/3/5 1466/3/5
f 1469/1/5 1462/1/5 1456/1/5
f 1470/3/5 1466/3/5 1462/3/5
f 1470/1/5 1462/1/5 1469/1/5
f 1471/1/5 1467/1/5 1466/1/5
f 1471/3/5 1466/3/5 1470/3/5
f 1472/8/5 1459/8/5 1458/8/5
f 1472/1/5 1467/1/5 1471/1/5
f 1472/1/5 1471/1/5 1470/1/5
f 1472/1/5 1458/1/5 1465/1/5
f 1472/1/5 1470/1/5 1469/1/5
f 1472/1/5 1465/1/5 1467/1/5
f 1473/8/5 1459/8/5 1472/8/5
f 1474/3/5 1469/3/5 1468/3/5
f 1474/1/5 1472/1/5 1469/1/5
f 1474/1/5 1473/1/5 1472/1/5
f 1475/1/5 1473/1/5 1474/1/5
f 1476/1/5 1473/1/5 1475/1/5
f 1477/8/5 1459/8/5 1473/8/5
f 1477/1/5 1473/1/5 1476/1/5
f 1478/3/5 1455/3/5 1459/3/5
f 1478/8/5 1459/8/5 1477/8/5
f 1479/3/5 1474/3/5 1468/3/5
f 1479/3/5 1475/3/5 1474/3/5
f 1480/3/5 1475/3/5 1479/3/5
f 1481/3/5 1475/3/5 1480/3/5
f 1482/1/5 1476/1/5 1475/1/5
f 1482/3/5 1475/3/5 1481/3/5
f 1483/3/5 1477/3/5 1476/3/5
f 1483/1/5 1476/1/5 1482/1/5
f 1483/3/5 1478/3/5 1477/3/5
f 1484/3/5 1455/3/5 1478/3/5
f 1484/3/5 1478/3/5 1483/3/5
f 1485/1/5 1483/1/5 1482/1/5
f 1486/1/5 1483/1/5 1485/1/5
f 1487/1/5 1483/1/5 1486/1/5
f 1488/1/5 1483/1/5 1487/1/5
f 1489/1/5 1487/1/5 1486/1/5
f 1490/1/5 1487/1/5 1489/1/5
f 1491/1/5 1487/1/5 1490/1/5
f 1492/1/5 1487/1/5 1491/1/5
f 1493/3/5 1481/3/5 1480/3/5
f 1494/3/5 1481/3/5 1493/3/5
f 1495/3/5 1481/3/5 1494/3/5
f 1496/3/5 1481/3/5 1495/3/5
f 1497/1/5 1491/1/5 1490/1/5
f 1498/1/5 1491/1/5 1497/1/5
f 1499/3/5 1495/3/5 1494/3/5
f 1500/3/5 1495/3/5 1499/3/5
f 1503/1/5 1502/1/5 1501/1/5
f 1504/1/5 1502/1/5 1503/1/5
f 1505/1/5 1502/1/5 1504/1/5
f 1508/3/5 1507/3/5 1506/3/5
f 1509/3/5 1507/3/5 1508/3/5
f 1512/1/5 1511/1/5 1510/1/5
f 1513/1/5 1511/1/5 1512/1/5
f 1514/1/5 1512/1/5 1510/1/5
f 1515/3/5 1513/3/5 1512/3/5
f 1515/1/5 1512/1/5 1514/1/5
f 1516/3/5 1513/3/5 1515/3/5
f 1517/3/5 1515/3/5 1514/3/5
f 1518/3/5 1515/3/5 1517/3/5
f 1519/1/5 1514/1/5 1510/1/5
f 1520/3/5 1517/3/5 1514/3/5
f 1520/1/5 1514/1/5 1519/1/5
f 1521/3/5 1517/3/5 1520/3/5
f 1524/3/5 1523/3/5 1522/3/5
f 1525/3/5 1523/3/5 1524/3/5
f 1528/4/5 1527/4/5 1526/4/5
f 1529/4/5 1527/4/5 1528/4/5
f 1530/4/5 1528/4/5 1526/4/5
f 1531/4/5 1528/4/5 1530/4/5
f 1534/5/5 1533/5/5 1532/5/5
f 1535/5/5 1533/5/5 1534/5/5
f 1538/8/5 1537/8/5 1536/8/5
f 1539/8/5 1537/8/5 1538/8/5
f 1542/3/5 1541/3/5 1540/3/5
f 1543/3/5 1541/3/5 1542/3/5
f 1544/3/5 1543/3/5 1542/3/5
f 1545/3/5 1543/3/5 1544/3/5
f 1548/5/5 1547/5/5 1546/5/5
f 1549/5/5 1547/5/5 1548/5/5
f 1552/5/5 1551/5/5 1550/5/5
f 1553/5/5 1551/5/5 1552/5/5
f 1556/5/5 1555/5/5 1554/5/5
f 1557/5/5 1555/5/5 1556/5/5
f 1560/5/5 1559/5/5 1558/5/5
f 1561/5/5 1559/5/5 1560/5/5
f 1564/5/5 1563/5/5 1562/5/5
f 1565/5/5 1563/5/5 1564/5/5
f 1568/5/5 1567/5/5 1566/5/5
f 1569/5/5 1567/5/5 1568/5/5
f 1572/5/5 1571/5/5 1570/5/5
f 1573/5/5 1571/5/5 1572/5/5
f 1576/5/5 1575/5/5 1574/5/5
f 1577/5/5 1575/5/5 1576/5/5
f 1580/5/5 1579/5/5 1578/5/5
f 1581/5/5 1579/5/5 1580/5/5
f 1584/1/5 1583/1/5 1582/1/5
f 1589/5/5 1588/5/5 1587/5/5
f 1590/5/5 1588/5/5 1589/5/5
f 1593/1/5 1584/1/5 1582/1/5
f 1593/1/5 1585/1/5 1584/1/5
f 1593/1/5 1586/1/5 1585/1/5
f 1594/1/5 1586/1/5 1593/1/5
f 1595/3/5 1592/3/5 1591/3/5
f 1596/3/5 1592/3/5 1595/3/5
f 1597/1/5 1586/1/5 1594/1/5
f 1598/1/5 1586/1/5 1597/1/5
f 1601/1/5 1600/1/5 1599/1/5
f 1603/1/5 1601/1/5 1599/1/5
f 1603/1/5 1602/1/5 1601/1/5
f 1604/1/5 1602/1/5 1603/1/5
f 1605/1/5 1603/1/5 1599/1/5
f 1605/8/5 1604/8/5 1603/8/5
f 1606/8/5 1604/8/5 1605/8/5
f 1607/8/5 1604/8/5 1606/8/5
f 1608/1/5 1605/1/5 1599/1/5
f 1609/1/5 1608/1/5 1599/1/5
f 1610/1/5 1609/1/5 1599/1/5
f 1611/1/5 1609/1/5 1610/1/5
f 1612/1/5 1609/1/5 1611/1/5
f 1613/1/5 1609/1/5 1612/1/5
f 1616/5/5 1615/5/5 1614/5/5
f 1617/5/5 1615/5/5 1616/5/5
f 1621/5/5 1619/5/5 1618/5/5
f 1622/5/5 1619/5/5 1621/5/5
f 1623/5/5 1619/5/5 1622/5/5
f 1625/1/5 1624/1/5 1623/1/5
f 1625/1/5 1623/1/5 1622/1/5
f 1626/1/5 1624/1/5 1625/1/5
f 1630/1/5 1628/1/5 1627/1/5
f 1631/8/5 1630/8/5 1629/8/5
f 1632/8/5 1630/8/5 1631/8/5
f 1634/5/5 1621/5/5 1620/5/5
f 1635/5/5 1634/5/5 1633/5/5
f 1636/5/5 1621/5/5 1634/5/5
f 1636/5/5 1634/5/5 1635/5/5
f 1637/8/5 1630/8/5 1632/8/5
f 1638/1/5 1628/1/5 1630/1/5
f 1638/8/5 1630/8/5 1637/8/5
f 1639/1/5 1628/1/5 1638/1/5
f 1644/5/5 1641/5/5 1640/5/5
f 1645/5/5 1641/5/5 1644/5/5
f 1646/5/5 1635/5/5 1633/5/5
f 1647/5/5 1635/5/5 1646/5/5
f 1650/5/5 1643/5/5 1642/5/5
f 1651/5/5 1643/5/5 1650/5/5
f 1652/5/5 1648/5/5 1647/5/5
f 1653/5/5 1648/5/5 1652/5/5
f 1655/5/5 1650/5/5 1649/5/5
f 1656/5/5 1650/5/5 1655/5/5
f 1657/5/5 1654/5/5 1653/5/5
f 1658/5/5 1654/5/5 1657/5/5
f 1661/5/5 1660/5/5 1659/5/5
f 1662/5/5 1660/5/5 1661/5/5
f 1667/2/5 1664/2/5 1663/2/5
f 1668/5/5 1665/5/5 1664/5/5
f 1668/2/5 1664/2/5 1667/2/5
f 1669/2/5 1666/2/5 1665/2/5
f 1669/5/5 1665/5/5 1668/5/5
f 1670/2/5 1666/2/5 1669/2/5
f 1671/2/5 1667/2/5 1663/2/5
f 1672/5/5 1668/5/5 1667/5/5
f 1672/2/5 1667/2/5 1671/2/5
f 1672/5/5 1669/5/5 1668/5/5
f 1672/5/5 1670/5/5 1669/5/5
f 1673/2/5 1666/2/5 1670/2/5
f 1673/5/5 1670/5/5 1672/5/5
f 1674/2/5 1666/2/5 1673/2/5
f 1677/2/5 1676/2/5 1675/2/5
f 1678/2/5 1676/2/5 1677/2/5
f 1679/5/5 1678/5/5 1677/5/5
f 1680/5/5 1678/5/5 1679/5/5
f 1683/5/5 1682/5/5 1681/5/5
f 1684/5/5 1682/5/5 1683/5/5
f 1687/3/5 1686/3/5 1685/3/5
f 1688/3/5 1686/3/5 1687/3/5
f 1691/2/5 1690/2/5 1689/2/5
f 1692/2/5 1690/2/5 1691/2/5
f 1696/1/5 1694/1/5 1693/1/5
f 1697/1/5 1694/1/5 1696/1/5
f 1700/1/5 1696/1/5 1695/1/5
f 1700/1/5 1698/1/5 1697/1/5
f 1700/1/5 1697/1/5 1696/1/5
f 1701/1/5 1698/1/5 1700/1/5
f 1703/1/5 1700/1/5 1699/1/5
f 1703/1/5 1702/1/5 1701/1/5
f 1703/1/5 1701/1/5 1700/1/5
f 1704/1/5 1702/1/5 1703/1/5
f 1708/1/5 1706/1/5 1705/1/5
f 1709/1/5 1708/1/5 1707/1/5
f 1710/1/5 1706/1/5 1708/1/5
f 1710/1/5 1708/1/5 1709/1/5
f 1711/1/5 1706/1/5 1710/1/5
f 1712/1/5 1711/1/5 1710/1/5
f 1713/1/5 1711/1/5 1712/1/5
f 1715/1/5 1714/1/5 1713/1/5
f 1716/1/5 1714/1/5 1715/1/5
f 1717/1/5 1715/1/5 1713/1/5
f 1718/1/5 1715/1/5 1717/1/5
f 1719/1/5 1715/1/5 1718/1/5
f 1721/1/5 1720/1/5 1719/1/5
f 1721/1/5 1719/1/5 1718/1/5
f 1722/1/5 1720/1/5 1721/1/5
f 1723/1/5 1720/1/5 1722/1/5
f 1724/1/5 1720/1/5 1723/1/5
f 1725/1/5 1723/1/5 1722/1/5
f 1726/1/5 1723/1/5 1725/1/5
f 1727/1/5 1723/1/5 1726/1/5
f 1728/1/5 1723/1/5 1727/1/5
f 1729/1/5 1727/1/5 1726/1/5
f 1730/1/5 1727/1/5 1729/1/5
f 1734/5/5 1732/5/5 1731/5/5
f 1735/5/5 1732/5/5 1734/5/5
f 1738/5/5 1734/5/5 1733/5/5
f 1739/5/5 1734/5/5 1738/5/5
f 1742/1/5 1741/1/5 1740/1/5
f 1743/1/5 1741/1/5 1742/1/5
f 1746/1/5 1745/1/5 1744/1/5
f 1747/1/5 1745/1/5 1746/1/5
f 1748/1/5 1745/1/5 1747/1/5
f 1749/1/5 1745/1/5 1748/1/5
f 1750/5/5 1738/5/5 1737/5/5
f 1751/5/5 1738/5/5 1750/5/5
f 1753/5/5 1736/5/5 1735/5/5
f 1754/5/5 1736/5/5 1753/5/5
f 1755/5/5 1752/5/5 1751/5/5
f 1755/5/5 1753/5/5 1752/5/5
f 1756/5/5 1753/5/5 1755/5/5
f 1759/3/5 1758/3/5 1757/3/5
f 1760/3/5 1758/3/5 1759/3/5
f 1761/6/5 1760/6/5 1759/6/5
f 1762/6/5 1760/6/5 1761/6/5
f 1763/3/5 1762/3/5 1761/3/5
f 1764/3/5 1762/3/5 1763/3/5
f 1765/1/6 1766/1/6 1767/1/6
f 1767/1/6 1766/1/6 1768/1/6
f 1767/1/6 1768/1/6 1769/1/6
f 1769/1/6 1768/1/6 1770/1/6
f 1769/1/6 1770/1/6 1771/1/6
f 1771/1/6 1770/1/6 1772/1/6
f 1773/1/6 1774/1/6 1775/1/6
f 1775/1/6 1774/1/6 1776/1/6
f 1773/1/6 1775/1/6 1777/1/6
f 1775/3/6 1776/3/6 1778/3/6
f 1777/1/6 1775/1/6 1778/1/6
f 1778/3/6 1776/3/6 1779/3/6
f 1779/3/6 1776/3/6 1780/3/6
f 1777/3/6 1778/3/6 1781/3/6
f 1778/3/6 1779/3/6 1781/3/6
f 1781/3/6 1779/3/6 1782/3/6
f 1773/1/6 1777/1/6 1783/1/6
f 1777/3/6 1781/3/6 1784/3/6
f 1783/1/6 1777/1/6 1784/1/6
f 1784/3/6 1781/3/6 1785/3/6
f 1786/1/6 1787/1/6 1789/1/6
f 1789/1/6 1787/1/6 1790/1/6
f 1788/1/6 1789/1/6 1792/1/6
f 1790/1/6 1791/1/6 1792/1/6
f 1789/1/6 1790/1/6 1792/1/6
f 1792/1/6 1791/1/6 1793/1/6
f 1793/1/6 1791/1/6 1794/1/6
f 1794/1/6 1791/1/6 1795/1/6
f 1793/1/6 1794/1/6 1796/1/6
f 1796/1/6 1794/1/6 1797/1/6
f 1797/1/6 1794/1/6 1798/1/6
f 1798/1/6 1794/1/6 1799/1/6
f 1797/1/6 1798/1/6 1800/1/6
f 1800/1/6 1798/1/6 1801/1/6
f 1802/1/6 1803/1/6 1804/1/6
f 1804/1/6 1803/1/6 1805/1/6
f 1806/7/6 1807/7/6 1808/7/6
f 1808/7/6 1807/7/6 1809/7/6
f 1810/4/6 1811/4/6 1812/4/6
f 1812/4/6 1811/4/6 1813/4/6
f 1814/3/6 1815/3/6 1818/3/6
f 1816/3/6 1817/3/6 1819/3/6
f 1819/3/6 1817/3/6 1820/3/6
f 1814/3/6 1818/3/6 1821/3/6
f 1821/3/6 1818/3/6 1822/3/6
f 1825/5/6 1826/5/6 1827/5/6
f 1827/5/6 1826/5/6 1828/5/6
f 1823/4/6 1824/4/6 1829/4/6
f 1829/4/6 1824/4/6 1830/4/6
f 1831/5/6 1832/5/6 1835/5/6
f 1835/5/6 1832/5/6 1836/5/6
f 1833/3/6 1834/3/6 1837/3/6
f 1836/3/6 1837/3/6 1838/3/6
f 1837/3/6 1834/3/6 1839/3/6
f 1838/3/6 1837/3/6 1839/3/6
f 1840/4/6 1841/4/6 1844/4/6
f 1842/5/6 1843/5/6 1845/5/6
f 1845/5/6 1843/5/6 1846/5/6
f 1840/4/6 1844/4/6 1847/4/6
f 1840/4/6 1847/4/6 1848/4/6
f 1840/4/6 1848/4/6 1849/4/6
f 1849/4/6 1848/4/6 1850/4/6
f 1851/5/6 1852/5/6 1853/5/6
f 1853/5/6 1852/5/6 1854/5/6
f 1855/3/6 1856/3/6 1857/3/6
f 1857/3/6 1856/3/6 1858/3/6
f 1859/5/6 1860/5/6 1861/5/6
f 1861/5/6 1860/5/6 1862/5/6
f 1863/5/6 1864/5/6 1865/5/6
f 1865/5/6 1864/5/6 1866/5/6
f 1867/1/6 1868/1/6 1869/1/6
f 1869/1/6 1868/1/6 1870/1/6
f 1871/5/6 1872/5/6 1873/5/6
f 1873/5/6 1872/5/6 1874/5/6
f 1875/5/6 1876/5/6 1877/5/6
f 1877/5/6 1876/5/6 1878/5/6
f 1879/5/6 1880/5/6 1881/5/6
f 1881/5/6 1880/5/6 1882/5/6
f 1883/5/6 1884/5/6 1885/5/6
f 1885/5/6 1884/5/6 1886/5/6
f 1887/1/6 1888/1/6 1889/1/6
f 1889/1/6 1888/1/6 1890/1/6
f 1887/1/6 1889/1/6 1891/1/6
f 1890/1/6 1888/1/6 1892/1/6
f 1887/1/6 1891/1/6 1894/1/6
f 1891/1/6 1892/1/6 1894/1/6
f 1892/1/6 1888/1/6 1895/1/6
f 1894/1/6 1892/1/6 1895/1/6
f 1893/5/6 1894/5/6 1897/5/6
f 1894/1/6 1895/1/6 1898/1/6
f 1897/5/6 1894/5/6 1898/5/6
f 1896/1/6 1897/1/6 1899/1/6
f 1897/1/6 1898/1/6 1899/1/6
f 1899/1/6 1898/1/6 1900/1/6
f 1898/1/6 1895/1/6 1901/1/6
f 1900/1/6 1898/1/6 1901/1/6
f 1899/1/6 1900/1/6 1904/1/6
f 1902/1/6 1903/1/6 1906/1/6
f 1906/1/6 1903/1/6 1907/1/6
f 1904/1/6 1905/1/6 1910/1/6
f 1908/1/6 1909/1/6 1910/1/6
f 1907/1/6 1908/1/6 1910/1/6
f 1906/1/6 1907/1/6 1910/1/6
f 1905/1/6 1906/1/6 1910/1/6
f 1899/1/6 1904/1/6 1910/1/6
f 1910/1/6 1909/1/6 1911/1/6
f 1912/5/6 1913/5/6 1914/5/6
f 1914/5/6 1913/5/6 1915/5/6
f 1916/1/6 1917/1/6 1919/1/6
f 1918/8/6 1919/8/6 1920/8/6
f 1920/8/6 1919/8/6 1921/8/6
f 1921/8/6 1919/8/6 1924/8/6
f 1922/1/6 1923/1/6 1927/1/6
f 1923/8/6 1924/8/6 1928/8/6
f 1927/1/6 1923/1/6 1928/1/6
f 1928/8/6 1924/8/6 1929/8/6
f 1924/8/6 1919/8/6 1930/8/6
f 1929/8/6 1924/8/6 1930/8/6
f 1919/1/6 1917/1/6 1931/1/6
f 1930/8/6 1919/8/6 1931/8/6
f 1931/1/6 1917/1/6 1932/1/6
f 1925/5/6 1926/5/6 1933/5/6
f 1933/5/6 1926/5/6 1934/5/6
f 1935/8/6 1936/8/6 1937/8/6
f 1937/8/6 1936/8/6 1938/8/6
f 1938/8/6 1936/8/6 1939/8/6
f 1939/8/6 1936/8/6 1940/8/6
f 1938/5/6 1939/5/6 1941/5/6
f 1941/5/6 1939/5/6 1942/5/6
f 1943/5/6 1944/5/6 1946/5/6
f 1946/5/6 1944/5/6 1947/5/6
f 1945/5/6 1946/5/6 1948/5/6
f 1948/1/6 1949/1/6 1950/1/6
f 1950/1/6 1949/1/6 1951/1/6
f 1945/5/6 1948/5/6 1953/5/6
f 1948/1/6 1950/1/6 1954/1/6
f 1954/1/6 1950/1/6 1955/1/6
f 1952/5/6 1953/5/6 1957/5/6
f 1953/5/6 1948/5/6 1958/5/6
f 1957/5/6 1953/5/6 1958/5/6
f 1948/1/6 1954/1/6 1958/1/6
f 1955/8/6 1956/8/6 1959/8/6
f 1954/8/6 1955/8/6 1959/8/6
f 1958/1/6 1954/1/6 1961/1/6
f 1959/8/6 1960/8/6 1961/8/6
f 1954/8/6 1959/8/6 1961/8/6
f 1957/1/6 1958/1/6 1961/1/6
f 1961/8/6 1960/8/6 1962/8/6
f 1962/8/6 1960/8/6 1963/8/6
f 1963/8/6 1960/8/6 1964/8/6
f 1961/1/6 1962/1/6 1966/1/6
f 1962/5/6 1963/5/6 1966/5/6
f 1963/8/6 1964/8/6 1967/8/6
f 1966/5/6 1963/5/6 1967/5/6
f 1952/5/6 1957/5/6 1968/5/6
f 1957/1/6 1961/1/6 1969/1/6
f 1968/5/6 1957/5/6 1969/5/6
f 1961/1/6 1966/1/6 1969/1/6
f 1969/1/6 1966/1/6 1970/1/6
f 1967/8/6 1964/8/6 1971/8/6
f 1964/5/6 1965/5/6 1972/5/6
f 1971/8/6 1964/8/6 1972/8/6
f 1972/5/6 1965/5/6 1973/5/6
f 1969/5/6 1970/5/6 1974/5/6
f 1970/1/6 1966/1/6 1975/1/6
f 1974/5/6 1970/5/6 1975/5/6
f 1975/1/6 1966/1/6 1976/1/6
f 1971/5/6 1972/5/6 1977/5/6
f 1977/5/6 1972/5/6 1978/5/6
f 1975/5/6 1976/5/6 1979/5/6
f 1979/5/6 1976/5/6 1980/5/6
f 1981/5/6 1982/5/6 1984/5/6
f 1984/5/6 1982/5/6 1985/5/6
f 1983/1/6 1984/1/6 1986/1/6
f 1984/1/6 1985/1/6 1986/1/6
f 1986/1/6 1985/1/6 1987/1/6
f 1988/2/6 1989/2/6 1992/2/6
f 1989/5/6 1990/5/6 1993/5/6
f 1992/2/6 1989/2/6 1993/2/6
f 1990/2/6 1991/2/6 1994/2/6
f 1993/5/6 1990/5/6 1994/5/6
f 1994/2/6 1991/2/6 1995/2/6
f 1992/5/6 1993/5/6 1996/5/6
f 1993/5/6 1994/5/6 1996/5/6
f 1994/5/6 1995/5/6 1996/5/6
f 1996/5/6 1995/5/6 1997/5/6
f 1998/2/6 1999/2/6 2000/2/6
f 2000/2/6 1999/2/6 2001/2/6
f 2000/5/6 2001/5/6 2002/5/6
f 2002/5/6 2001/5/6 2003/5/6
f 2004/3/6 2005/3/6 2006/3/6
f 2006/3/6 2005/3/6 2007/3/6
f 2008/2/6 2009/2/6 2010/2/6
f 2010/2/6 2009/2/6 2011/2/6
f 2012/1/6 2013/1/6 2015/1/6
f 2015/1/6 2013/1/6 2016/1/6
f 2014/1/6 2015/1/6 2018/1/6
f 2016/1/6 2017/1/6 2018/1/6
f 2015/1/6 2016/1/6 2018/1/6
f 2018/1/6 2017/1/6 2019/1/6
f 2019/1/6 2020/1/6 2021/1/6
f 2021/1/6 2020/1/6 2023/1/6
f 2024/1/6 2025/1/6 2027/1/6
f 2022/1/6 2023/1/6 2028/1/6
f 2028/1/6 2023/1/6 2029/1/6
f 2022/1/6 2028/1/6 2030/1/6
f 2030/1/6 2028/1/6 2031/1/6
f 2022/1/6 2030/1/6 2032/1/6
f 2029/1/6 2023/1/6 2033/1/6
f 2026/1/6 2027/1/6 2034/1/6
f 2027/1/6 2025/1/6 2035/1/6
f 2034/1/6 2027/1/6 2035/1/6
f 2035/1/6 2025/1/6 2036/1/6
f 2036/1/6 2025/1/6 2037/1/6
f 2032/1/6 2033/1/6 2038/1/6
f 2022/1/6 2032/1/6 2038/1/6
f 2023/1/6 2020/1/6 2039/1/6
f 2038/1/6 2033/1/6 2039/1/6
f 2033/1/6 2023/1/6 2039/1/6
f 2039/1/6 2020/1/6 2040/1/6
f 2040/1/6 2020/1/6 2041/1/6
f 2039/1/6 2040/1/6 2042/1/6
f 2042/1/6 2040/1/6 2043/1/6
f 2042/1/6 2043/1/6 2046/1/6
f 2043/1/6 2044/1/6 2046/1/6
f 2046/1/6 2044/1/6 2047/1/6
f 2045/1/6 2046/1/6 2048/1/6
f 2048/1/6 2046/1/6 2049/1/6
f 2049/1/6 2046/1/6 2050/1/6
f 2050/1/6 2046/1/6 2051/1/6
f 2049/1/6 2050/1/6 2052/1/6
f 2052/1/6 2050/1/6 2053/1/6
f 2054/5/6 2055/5/6 2057/5/6
f 2057/5/6 2055/5/6 2058/5/6
f 2056/5/6 2057/5/6 2059/5/6
f 2059/5/6 2057/5/6 2060/5/6
f 2060/5/6 2061/5/6 2062/5/6
f 2062/5/6 2061/5/6 2063/5/6
f 2064/1/6 2065/1/6 2066/1/6
f 2066/1/6 2065/1/6 2067/1/6
f 2064/1/6 2066/1/6 2068/1/6
f 2064/1/6 2068/1/6 2070/1/6
f 2068/1/6 2069/1/6 2070/1/6
f 2070/1/6 2069/1/6 2071/1/6
f 2072/5/6 2073/5/6 2075/5/6
f 2075/5/6 2073/5/6 2076/5/6
f 2074/5/6 2075/5/6 2079/5/6
f 2075/1/6 2076/1/6 2080/1/6
f 2079/5/6 2075/5/6 2080/5/6
f 2079/8/6 2080/8/6 2081/8/6
f 2081/8/6 2080/8/6 2082/8/6
f 2083/1/6 2084/1/6 2086/1/6
f 2085/1/6 2086/1/6 2087/1/6
f 2086/1/6 2084/1/6 2088/1/6
f 2087/1/6 2086/1/6 2088/1/6
f 2085/1/6 2087/1/6 2090/1/6
f 2089/1/6 2090/1/6 2091/1/6
f 2091/1/6 2090/1/6 2092/1/6
f 2090/1/6 2087/1/6 2093/1/6
f 2092/1/6 2090/1/6 2093/1/6
f 2093/1/6 2094/1/6 2095/1/6
f 2092/1/6 2093/1/6 2095/1/6
f 2095/1/6 2094/1/6 2096/1/6
f 2096/1/6 2094/1/6 2097/1/6
f 2097/1/6 2094/1/6 2098/1/6
f 2079/8/6 2081/8/6 2099/8/6
f 2082/8/6 2080/8/6 2100/8/6
f 2078/5/6 2079/5/6 2101/5/6
f 2099/8/6 2100/8/6 2102/8/6
f 2101/5/6 2079/5/6 2102/5/6
f 2079/8/6 2099/8/6 2102/8/6
f 2080/1/6 2076/1/6 2103/1/6
f 2102/8/6 2100/8/6 2103/8/6
f 2100/8/6 2080/8/6 2103/8/6
f 2076/5/6 2077/5/6 2104/5/6
f 2103/1/6 2076/1/6 2104/1/6
f 2104/5/6 2077/5/6 2105/5/6
f 2102/5/6 2103/5/6 2106/5/6
f 2103/5/6 2104/5/6 2106/5/6
f 2106/5/6 2104/5/6 2107/5/6
f 2108/1/6 2109/1/6 2110/1/6
f 2110/1/6 2109/1/6 2111/1/6
f 2112/3/6 2113/3/6 2114/3/6
f 2114/3/6 2113/3/6 2115/3/6
