# MagicaVoxel @ Ephtracy

# group
o 

# material
mtllib terrno-1.mtl
usemtl palette

# normals
vn -1 0 0
vn 1 0 0
vn 0 0 1
vn 0 0 -1
vn 0 -1 0
vn 0 1 0

# texcoords
vt 0.880859 0.5
vt 0.982422 0.5
vt 0.994141 0.5

# verts
v -0.2 0.3 -2
v -0.2 0.3 -2.2
v -0.2 2.6 2.2
v -0.2 2.6 -2
v -0.2 2.8 2.2
v -0.2 2.8 -2.2
v 0 2.5 0.7
v 0 2.5 -0.5
v 0 2.6 0.7
v 0 2.6 -0.5
v 0 2.8 0.7
v 0 2.8 -0.5
v 0 2.9 0.7
v 0 2.9 -0.5
v 0 0.3 -2
v 0 0.3 -2.2
v 0 2.6 2.2
v 0 2.6 0.7
v 0 2.6 -0.5
v 0 2.6 -2
v 0 2.8 2.2
v 0 2.8 0.7
v 0 2.8 -0.5
v 0 2.8 -2.2
v 0.1 2.5 0.7
v 0.1 2.5 -0.5
v 0.1 2.6 0.6
v 0.1 2.6 0.4
v 0.1 2.6 0.2
v 0.1 2.6 0
v 0.1 2.6 -0.2
v 0.1 2.6 -0.4
v 0.1 2.8 0.6
v 0.1 2.8 0.4
v 0.1 2.8 0.2
v 0.1 2.8 0
v 0.1 2.8 -0.2
v 0.1 2.8 -0.4
v 0.1 2.9 0.7
v 0.1 2.9 -0.5
v 0.2 2.6 0.6
v 0.2 2.6 0.4
v 0.2 2.6 0.2
v 0.2 2.6 0
v 0.2 2.6 -0.2
v 0.2 2.6 -0.4
v 0.2 2.8 0.6
v 0.2 2.8 0.4
v 0.2 2.8 0.2
v 0.2 2.8 0
v 0.2 2.8 -0.2
v 0.2 2.8 -0.4
v -0.2 2.6 2.2
v -0.2 2.8 2.2
v 0 2.6 2.2
v 0 2.8 2.2
v 0 2.5 0.7
v 0 2.6 0.7
v 0 2.8 0.7
v 0 2.9 0.7
v 0.1 2.5 0.7
v 0.1 2.9 0.7
v 0.1 2.6 0.6
v 0.1 2.8 0.6
v 0.2 2.6 0.6
v 0.2 2.8 0.6
v 0.1 2.6 0.2
v 0.1 2.8 0.2
v 0.2 2.6 0.2
v 0.2 2.8 0.2
v 0.1 2.6 -0.2
v 0.1 2.8 -0.2
v 0.2 2.6 -0.2
v 0.2 2.8 -0.2
v -0.2 0.3 -2
v -0.2 2.6 -2
v 0 0.3 -2
v 0 2.6 -2
v 0.1 2.6 0.4
v 0.1 2.8 0.4
v 0.2 2.6 0.4
v 0.2 2.8 0.4
v 0.1 2.6 0
v 0.1 2.8 0
v 0.2 2.6 0
v 0.2 2.8 0
v 0.1 2.6 -0.4
v 0.1 2.8 -0.4
v 0.2 2.6 -0.4
v 0.2 2.8 -0.4
v 0 2.5 -0.5
v 0 2.6 -0.5
v 0 2.8 -0.5
v 0 2.9 -0.5
v 0.1 2.5 -0.5
v 0.1 2.9 -0.5
v -0.2 0.3 -2.2
v -0.2 2.8 -2.2
v 0 0.3 -2.2
v 0 2.8 -2.2
v -0.2 0.3 -2
v 0 0.3 -2
v -0.2 0.3 -2.2
v 0 0.3 -2.2
v 0 2.5 0.7
v 0.1 2.5 0.7
v 0 2.5 -0.5
v 0.1 2.5 -0.5
v -0.2 2.6 2.2
v 0 2.6 2.2
v 0 2.6 0.7
v 0.1 2.6 0.6
v 0.2 2.6 0.6
v 0.1 2.6 0.4
v 0.2 2.6 0.4
v 0.1 2.6 0.2
v 0.2 2.6 0.2
v 0.1 2.6 0
v 0.2 2.6 0
v 0.1 2.6 -0.2
v 0.2 2.6 -0.2
v 0.1 2.6 -0.4
v 0.2 2.6 -0.4
v 0 2.6 -0.5
v -0.2 2.6 -2
v 0 2.6 -2
v -0.2 2.8 2.2
v 0 2.8 2.2
v 0 2.8 0.7
v 0.1 2.8 0.6
v 0.2 2.8 0.6
v 0.1 2.8 0.4
v 0.2 2.8 0.4
v 0.1 2.8 0.2
v 0.2 2.8 0.2
v 0.1 2.8 0
v 0.2 2.8 0
v 0.1 2.8 -0.2
v 0.2 2.8 -0.2
v 0.1 2.8 -0.4
v 0.2 2.8 -0.4
v 0 2.8 -0.5
v -0.2 2.8 -2.2
v 0 2.8 -2.2
v 0 2.9 0.7
v 0.1 2.9 0.7
v 0 2.9 -0.5
v 0.1 2.9 -0.5

# faces
f 4/3/1 2/3/1 1/3/1
f 5/3/1 4/3/1 3/3/1
f 6/3/1 2/3/1 4/3/1
f 6/3/1 4/3/1 5/3/1
f 9/2/1 8/2/1 7/2/1
f 10/2/1 8/2/1 9/2/1
f 13/2/1 12/2/1 11/2/1
f 14/2/1 12/2/1 13/2/1
f 15/3/2 16/3/2 20/3/2
f 17/3/2 18/3/2 21/3/2
f 21/3/2 18/3/2 22/3/2
f 19/3/2 20/3/2 23/3/2
f 20/3/2 16/3/2 24/3/2
f 23/3/2 20/3/2 24/3/2
f 25/2/2 26/2/2 27/2/2
f 27/2/2 26/2/2 28/2/2
f 28/2/2 26/2/2 29/2/2
f 29/2/2 26/2/2 30/2/2
f 30/2/2 26/2/2 31/2/2
f 31/2/2 26/2/2 32/2/2
f 25/2/2 27/2/2 33/2/2
f 28/2/2 29/2/2 34/2/2
f 34/2/2 29/2/2 35/2/2
f 30/2/2 31/2/2 36/2/2
f 36/2/2 31/2/2 37/2/2
f 32/2/2 26/2/2 38/2/2
f 36/2/2 37/2/2 39/2/2
f 37/2/2 38/2/2 39/2/2
f 34/2/2 35/2/2 39/2/2
f 25/2/2 33/2/2 39/2/2
f 35/2/2 36/2/2 39/2/2
f 33/2/2 34/2/2 39/2/2
f 38/2/2 26/2/2 40/2/2
f 39/2/2 38/2/2 40/2/2
f 41/1/2 42/1/2 47/1/2
f 47/1/2 42/1/2 48/1/2
f 43/1/2 44/1/2 49/1/2
f 49/1/2 44/1/2 50/1/2
f 45/1/2 46/1/2 51/1/2
f 51/1/2 46/1/2 52/1/2
f 55/3/3 54/3/3 53/3/3
f 56/3/3 54/3/3 55/3/3
f 61/2/3 58/2/3 57/2/3
f 61/2/3 60/2/3 59/2/3
f 61/2/3 59/2/3 58/2/3
f 62/2/3 60/2/3 61/2/3
f 65/1/3 64/1/3 63/1/3
f 66/1/3 64/1/3 65/1/3
f 69/1/3 68/1/3 67/1/3
f 70/1/3 68/1/3 69/1/3
f 73/1/3 72/1/3 71/1/3
f 74/1/3 72/1/3 73/1/3
f 77/3/3 76/3/3 75/3/3
f 78/3/3 76/3/3 77/3/3
f 79/1/4 80/1/4 81/1/4
f 81/1/4 80/1/4 82/1/4
f 83/1/4 84/1/4 85/1/4
f 85/1/4 84/1/4 86/1/4
f 87/1/4 88/1/4 89/1/4
f 89/1/4 88/1/4 90/1/4
f 91/2/4 92/2/4 95/2/4
f 93/2/4 94/2/4 95/2/4
f 92/2/4 93/2/4 95/2/4
f 95/2/4 94/2/4 96/2/4
f 97/3/4 98/3/4 99/3/4
f 99/3/4 98/3/4 100/3/4
f 103/3/5 102/3/5 101/3/5
f 104/3/5 102/3/5 103/3/5
f 107/2/5 106/2/5 105/2/5
f 108/2/5 106/2/5 107/2/5
f 111/3/5 110/3/5 109/3/5
f 114/1/5 113/1/5 112/1/5
f 115/1/5 113/1/5 114/1/5
f 118/1/5 117/1/5 116/1/5
f 119/1/5 117/1/5 118/1/5
f 122/1/5 121/1/5 120/1/5
f 123/1/5 121/1/5 122/1/5
f 124/3/5 111/3/5 109/3/5
f 125/3/5 124/3/5 109/3/5
f 126/3/5 124/3/5 125/3/5
f 127/3/6 128/3/6 129/3/6
f 130/1/6 131/1/6 132/1/6
f 132/1/6 131/1/6 133/1/6
f 134/1/6 135/1/6 136/1/6
f 136/1/6 135/1/6 137/1/6
f 138/1/6 139/1/6 140/1/6
f 140/1/6 139/1/6 141/1/6
f 127/3/6 129/3/6 142/3/6
f 127/3/6 142/3/6 143/3/6
f 143/3/6 142/3/6 144/3/6
f 145/2/6 146/2/6 147/2/6
f 147/2/6 146/2/6 148/2/6
