# MagicaVoxel @ Ephtracy

# group
o 

# material
mtllib escopet-0.mtl
usemtl palette

# normals
vn -1 0 0
vn 1 0 0
vn 0 0 1
vn 0 0 -1
vn 0 -1 0
vn 0 1 0

# texcoords
vt 0.0136719 0.5
vt 0.0683594 0.5
vt 0.373047 0.5
vt 0.841797 0.5
vt 0.986328 0.5
vt 0.990234 0.5

# verts
v -1.2 2.3 2.3
v -1.2 2.3 2.2
v -1.2 2.4 2.5
v -1.2 2.4 2.3
v -1.2 2.8 2.5
v -1.2 2.8 2.2
v -1.1 2.2 2.5
v -1.1 2.2 2.2
v -1.1 2.3 2.6
v -1.1 2.3 2.5
v -1.1 2.3 2.3
v -1.1 2.3 2.2
v -1.1 2.4 2.5
v -1.1 2.4 2.3
v -1.1 2.8 2.6
v -1.1 2.8 2.5
v -1.1 2.8 2.2
v -1.1 2.9 2.5
v -1.1 2.9 2.2
v -1 2.1 2.5
v -1 2.1 2.2
v -1 2.2 2.6
v -1 2.2 2.5
v -1 2.2 2.2
v -1 2.3 2.6
v -1 2.3 2.5
v -1 2.4 2.7
v -1 2.4 2.6
v -1 2.7 2.7
v -1 2.7 2.6
v -1 2.8 2.6
v -1 2.8 2.5
v -1 2.9 2.6
v -1 2.9 2.5
v -1 2.9 2.2
v -1 3 2.5
v -1 3 2.2
v -0.9 0.5 5.3
v -0.9 0.5 5
v -0.9 0.7 4.6
v -0.9 0.7 4.3
v -0.9 1 5.3
v -0.9 1 5
v -0.9 1 4
v -0.9 1 3.7
v -0.9 1.1 5.3
v -0.9 1.1 5
v -0.9 1.2 4.6
v -0.9 1.2 4.3
v -0.9 1.3 4.6
v -0.9 1.3 4.3
v -0.9 1.5 4
v -0.9 1.5 3.7
v -0.9 1.6 4
v -0.9 1.6 3.7
v -0.9 2 2.5
v -0.9 2 2.2
v -0.9 2.1 2.6
v -0.9 2.1 2.5
v -0.9 2.1 2.2
v -0.9 2.2 2.6
v -0.9 2.2 2.5
v -0.9 2.3 2.7
v -0.9 2.3 2.6
v -0.9 2.4 2.7
v -0.9 2.4 2.6
v -0.9 2.7 2.7
v -0.9 2.7 2.6
v -0.9 2.8 2.7
v -0.9 2.8 2.6
v -0.9 2.9 2.6
v -0.9 2.9 2.5
v -0.9 3 2.6
v -0.9 3 2.5
v -0.9 3 2.2
v -0.9 3.1 2.5
v -0.9 3.1 2.2
v -0.8 0.5 5.4
v -0.8 0.5 5.3
v -0.8 0.5 5
v -0.8 0.5 4.9
v -0.8 0.7 4.7
v -0.8 0.7 4.6
v -0.8 0.7 4.3
v -0.8 0.7 4.2
v -0.8 1 5.4
v -0.8 1 5.3
v -0.8 1 5
v -0.8 1 4.9
v -0.8 1 4.1
v -0.8 1 4
v -0.8 1 3.7
v -0.8 1 3.6
v -0.8 1.1 5.4
v -0.8 1.1 5.3
v -0.8 1.1 5
v -0.8 1.1 4.9
v -0.8 1.2 4.7
v -0.8 1.2 4.6
v -0.8 1.2 4.3
v -0.8 1.2 4.2
v -0.8 1.3 4.7
v -0.8 1.3 4.6
v -0.8 1.3 4.3
v -0.8 1.3 4.2
v -0.8 1.5 4.1
v -0.8 1.5 4
v -0.8 1.5 3.7
v -0.8 1.5 3.6
v -0.8 1.6 4.1
v -0.8 1.6 4
v -0.8 1.6 3.7
v -0.8 1.6 3.6
v -0.8 2.2 2.7
v -0.8 2.2 2.6
v -0.8 2.3 2.7
v -0.8 2.3 2.6
v -0.8 2.4 2.8
v -0.8 2.4 2.7
v -0.8 2.7 2.8
v -0.8 2.7 2.7
v -0.8 2.8 2.7
v -0.8 2.8 2.6
v -0.8 2.9 2.7
v -0.8 2.9 2.6
v -0.7 2.5 2.9
v -0.7 2.5 2.8
v -0.7 2.6 2.9
v -0.7 2.6 2.8
v -0.5 0.1 4.3
v -0.5 0.1 3.9
v -0.5 0.2 4.7
v -0.5 0.2 4.3
v -0.5 0.2 3.9
v -0.5 0.2 3.8
v -0.5 0.3 5.4
v -0.5 0.3 4.7
v -0.5 0.4 3.8
v -0.5 0.4 3.7
v -0.5 0.5 5.4
v -0.5 0.5 4.9
v -0.5 0.5 3.7
v -0.5 0.5 3.6
v -0.5 0.7 4.7
v -0.5 0.7 4.2
v -0.5 1 4.9
v -0.5 1 4.1
v -0.5 1 3.6
v -0.5 1.1 5.4
v -0.5 1.1 4.9
v -0.5 1.2 5.4
v -0.5 1.2 5.2
v -0.5 1.2 4.7
v -0.5 1.2 4.2
v -0.5 1.3 5.2
v -0.5 1.3 5.1
v -0.5 1.3 4.7
v -0.5 1.3 4.2
v -0.5 1.4 5.1
v -0.5 1.4 4.2
v -0.5 1.5 4.2
v -0.5 1.5 4.1
v -0.5 1.6 4
v -0.5 1.6 3.6
v -0.5 1.7 4
v -0.5 1.7 3.9
v -0.5 1.7 2.3
v -0.5 1.7 2.2
v -0.5 1.8 3.9
v -0.5 1.8 3.8
v -0.5 1.9 3.8
v -0.5 1.9 3.7
v -0.5 2 3.7
v -0.5 2 3.6
v -0.5 2 2.3
v -0.5 2 2.2
v -0.4 0 4.3
v -0.4 0 3.8
v -0.4 0.1 4.7
v -0.4 0.1 4.3
v -0.4 0.1 3.9
v -0.4 0.2 6.1
v -0.4 0.2 4.7
v -0.4 0.2 4.3
v -0.4 0.2 3.9
v -0.4 0.2 3.8
v -0.4 0.2 3.7
v -0.4 0.3 6
v -0.4 0.3 5.4
v -0.4 0.3 4.7
v -0.4 0.4 3.8
v -0.4 0.4 3.7
v -0.4 0.4 3.6
v -0.4 0.5 3.7
v -0.4 0.5 3.6
v -0.4 0.5 3.5
v -0.4 0.6 3.6
v -0.4 0.6 3.5
v -0.4 0.6 3.4
v -0.4 0.8 3.5
v -0.4 0.8 3.4
v -0.4 0.8 3.3
v -0.4 0.9 3.4
v -0.4 0.9 3.3
v -0.4 0.9 3.2
v -0.4 1 6
v -0.4 1 5.8
v -0.4 1 3.3
v -0.4 1 3.2
v -0.4 1 3.1
v -0.4 1.1 6.1
v -0.4 1.1 5.8
v -0.4 1.1 5.5
v -0.4 1.1 3.2
v -0.4 1.1 3.1
v -0.4 1.1 3
v -0.4 1.2 5.8
v -0.4 1.2 5.5
v -0.4 1.2 5.4
v -0.4 1.2 5.2
v -0.4 1.2 3.1
v -0.4 1.2 3
v -0.4 1.2 2.9
v -0.4 1.3 5.5
v -0.4 1.3 5.2
v -0.4 1.3 5.1
v -0.4 1.4 5.1
v -0.4 1.4 4.2
v -0.4 1.4 2.9
v -0.4 1.4 2.2
v -0.4 1.5 5.2
v -0.4 1.5 4.2
v -0.4 1.5 4.1
v -0.4 1.6 4.2
v -0.4 1.6 4.1
v -0.4 1.6 4
v -0.4 1.7 4.1
v -0.4 1.7 4
v -0.4 1.7 3.9
v -0.4 1.7 2.3
v -0.4 1.7 2.2
v -0.4 1.8 4
v -0.4 1.8 3.9
v -0.4 1.8 3.8
v -0.4 1.8 2.9
v -0.4 1.8 2.3
v -0.4 1.9 3.9
v -0.4 1.9 3.8
v -0.4 1.9 3.7
v -0.4 2 3.8
v -0.4 2 3.7
v -0.4 2 3.6
v -0.4 2 3
v -0.4 2.1 3.7
v -0.4 2.1 2.9
v -0.4 2.1 2.4
v -0.4 2.1 2.2
v -0.4 2.2 2.4
v -0.4 2.2 2.2
v -0.4 2.9 2.4
v -0.4 2.9 2.2
v -0.4 3 2.4
v -0.4 3 2.2
v -0.3 0 3.8
v -0.3 0 3.7
v -0.3 0.1 3.8
v -0.3 0.1 3.7
v -0.3 0.1 3.6
v -0.3 0.2 3.8
v -0.3 0.2 3.7
v -0.3 0.3 3.6
v -0.3 0.3 3.5
v -0.3 0.4 3.7
v -0.3 0.4 3.6
v -0.3 0.4 3.5
v -0.3 0.4 3.4
v -0.3 0.5 3.6
v -0.3 0.5 3.5
v -0.3 0.5 3.4
v -0.3 0.5 3.3
v -0.3 0.6 3.5
v -0.3 0.6 3.4
v -0.3 0.7 3.3
v -0.3 0.7 3.2
v -0.3 0.8 3.4
v -0.3 0.8 3.3
v -0.3 0.8 3.2
v -0.3 0.8 3.1
v -0.3 0.9 3.3
v -0.3 0.9 3.2
v -0.3 0.9 3.1
v -0.3 0.9 3
v -0.3 1 3.2
v -0.3 1 3.1
v -0.3 1 3
v -0.3 1 2.9
v -0.3 1.1 3.1
v -0.3 1.1 3
v -0.3 1.2 3
v -0.3 1.2 2.9
v -0.3 1.3 2.9
v -0.3 1.3 2.2
v -0.3 1.4 2.9
v -0.3 1.4 2.2
v -0.3 1.8 2.9
v -0.3 1.8 2.3
v -0.3 1.9 2.9
v -0.3 1.9 2.3
v -0.3 2 2.5
v -0.3 2 2.4
v -0.3 2.1 2.5
v -0.3 2.1 2.4
v -0.3 2.2 2.4
v -0.3 2.2 2.2
v -0.3 2.3 2.4
v -0.3 2.3 2.2
v -0.3 2.8 2.4
v -0.3 2.8 2.2
v -0.3 2.9 2.4
v -0.3 2.9 2.2
v -0.2 1.2 2.9
v -0.2 1.2 2.2
v -0.2 1.3 2.9
v -0.2 1.3 2.2
v -0.2 1.9 2.9
v -0.2 1.9 2.3
v -0.2 2 2.9
v -0.2 2 2.5
v -0.2 2 2.3
v -0.2 2.3 2.4
v -0.2 2.3 2.2
v -0.2 2.8 2.4
v -0.2 2.8 2.2
v -0.1 2 2.9
v -0.1 2 2.3
v -0.1 2.1 3.3
v -0.1 2.1 3
v -0.1 2.1 2.9
v -0.1 2.1 2.4
v -0.1 2.1 2.3
v -0.1 2.2 3.3
v -0.1 2.2 3
v -0.1 2.2 2.4
v 0.0999999 2.3 2.5
v 0.0999999 2.3 2.4
v 0.0999999 2.6 2.4
v 0.0999999 2.6 2.2
v 0.0999999 2.8 2.5
v 0.0999999 2.8 2.2
v 0.2 2 2.5
v 0.2 2 2.3
v 0.2 2.1 2.5
v 0.2 2.1 2.4
v 0.2 2.1 2.3
v 0.2 2.2 2.5
v 0.2 2.2 2.4
v 0.2 2.3 2.6
v 0.2 2.3 2.5
v 0.2 2.3 2.4
v 0.2 2.8 2.6
v 0.2 2.8 2.5
v 0.2 2.8 2.2
v 0.2 2.9 2.5
v 0.2 2.9 2.2
v 0.3 2.1 2.5
v 0.3 2.1 2.4
v 0.3 2.2 2.6
v 0.3 2.2 2.5
v 0.3 2.2 2.4
v 0.3 2.3 2.6
v 0.3 2.3 2.5
v 0.3 2.4 2.7
v 0.3 2.4 2.6
v 0.3 2.7 2.7
v 0.3 2.7 2.6
v 0.3 2.8 2.6
v 0.3 2.8 2.5
v 0.3 2.9 2.6
v 0.3 2.9 2.5
v 0.3 2.9 2.2
v 0.3 3 2.5
v 0.3 3 2.2
v 0.4 2 2.5
v 0.4 2 2.4
v 0.4 2.1 2.6
v 0.4 2.1 2.5
v 0.4 2.1 2.4
v 0.4 2.2 2.6
v 0.4 2.2 2.5
v 0.4 2.3 2.7
v 0.4 2.3 2.6
v 0.4 2.4 2.7
v 0.4 2.4 2.6
v 0.4 2.7 2.7
v 0.4 2.7 2.6
v 0.4 2.8 2.7
v 0.4 2.8 2.6
v 0.4 2.9 2.6
v 0.4 2.9 2.5
v 0.4 3 2.6
v 0.4 3 2.5
v 0.4 3 2.2
v 0.4 3.1 2.5
v 0.4 3.1 2.2
v 0.5 2.2 2.7
v 0.5 2.2 2.6
v 0.5 2.3 2.7
v 0.5 2.3 2.6
v 0.5 2.4 2.8
v 0.5 2.4 2.7
v 0.5 2.7 2.8
v 0.5 2.7 2.7
v 0.5 2.8 2.7
v 0.5 2.8 2.6
v 0.5 2.9 2.7
v 0.5 2.9 2.6
v 0.6 2.5 2.9
v 0.6 2.5 2.8
v 0.6 2.6 2.9
v 0.6 2.6 2.8
v 0.8 2.9 2.4
v 0.8 2.9 2.2
v 0.8 3 2.4
v 0.8 3 2.2
v 0.9 2.1 2.4
v 0.9 2.1 2.2
v 0.9 2.2 2.4
v 0.9 2.2 2.2
v 1 2.2 2.4
v 1 2.2 2.2
v 1 2.4 2.4
v 1 2.4 2.2
v 1 2.8 2.4
v 1 2.8 2.2
v 1 2.9 2.4
v 1 2.9 2.2
v 1.1 2.4 2.4
v 1.1 2.4 2.2
v 1.1 2.8 2.4
v 1.1 2.8 2.2
v -1.1 2.4 2.4
v -1.1 2.4 2.2
v -1.1 2.8 2.4
v -1.1 2.8 2.2
v -1 2.2 2.4
v -1 2.2 2.2
v -1 2.4 2.4
v -1 2.4 2.2
v -1 2.8 2.4
v -1 2.8 2.2
v -1 2.9 2.4
v -1 2.9 2.2
v -0.9 2.1 2.4
v -0.9 2.1 2.2
v -0.9 2.2 2.4
v -0.9 2.2 2.2
v -0.8 2.9 2.4
v -0.8 2.9 2.2
v -0.8 3 2.4
v -0.8 3 2.2
v -0.6 2.5 2.9
v -0.6 2.5 2.8
v -0.6 2.6 2.9
v -0.6 2.6 2.8
v -0.5 2.2 2.7
v -0.5 2.2 2.6
v -0.5 2.3 2.7
v -0.5 2.3 2.6
v -0.5 2.4 2.8
v -0.5 2.4 2.7
v -0.5 2.7 2.8
v -0.5 2.7 2.7
v -0.5 2.8 2.7
v -0.5 2.8 2.6
v -0.5 2.9 2.7
v -0.5 2.9 2.6
v -0.4 2 2.5
v -0.4 2 2.4
v -0.4 2.1 2.6
v -0.4 2.1 2.5
v -0.4 2.1 2.4
v -0.4 2.2 2.6
v -0.4 2.2 2.5
v -0.4 2.3 2.7
v -0.4 2.3 2.6
v -0.4 2.4 2.7
v -0.4 2.4 2.6
v -0.4 2.7 2.7
v -0.4 2.7 2.6
v -0.4 2.8 2.7
v -0.4 2.8 2.6
v -0.4 2.9 2.6
v -0.4 2.9 2.5
v -0.4 3 2.6
v -0.4 3 2.5
v -0.4 3 2.2
v -0.4 3.1 2.5
v -0.4 3.1 2.2
v -0.3 2.1 2.5
v -0.3 2.1 2.4
v -0.3 2.2 2.6
v -0.3 2.2 2.5
v -0.3 2.2 2.4
v -0.3 2.3 2.6
v -0.3 2.3 2.5
v -0.3 2.4 2.7
v -0.3 2.4 2.6
v -0.3 2.7 2.7
v -0.3 2.7 2.6
v -0.3 2.8 2.6
v -0.3 2.8 2.5
v -0.3 2.9 2.6
v -0.3 2.9 2.5
v -0.3 2.9 2.2
v -0.3 3 2.5
v -0.3 3 2.2
v -0.2 2 2.5
v -0.2 2 2.3
v -0.2 2.1 2.5
v -0.2 2.1 2.4
v -0.2 2.1 2.3
v -0.2 2.2 2.5
v -0.2 2.2 2.4
v -0.2 2.3 2.6
v -0.2 2.3 2.5
v -0.2 2.3 2.4
v -0.2 2.8 2.6
v -0.2 2.8 2.5
v -0.2 2.8 2.2
v -0.2 2.9 2.5
v -0.2 2.9 2.2
v -0.1 2.3 2.5
v -0.1 2.3 2.4
v -0.1 2.6 2.4
v -0.1 2.6 2.2
v -0.1 2.8 2.5
v -0.1 2.8 2.2
v 0.0999999 2 2.9
v 0.0999999 2 2.3
v 0.0999999 2.1 3.3
v 0.0999999 2.1 3
v 0.0999999 2.1 2.9
v 0.0999999 2.1 2.4
v 0.0999999 2.1 2.3
v 0.0999999 2.2 3.3
v 0.0999999 2.2 3
v 0.0999999 2.2 2.4
v 0.2 1.2 2.9
v 0.2 1.2 2.2
v 0.2 1.3 2.9
v 0.2 1.3 2.2
v 0.2 1.9 2.9
v 0.2 1.9 2.3
v 0.2 2 2.9
v 0.2 2 2.5
v 0.2 2 2.3
v 0.2 2.3 2.4
v 0.2 2.3 2.2
v 0.2 2.8 2.4
v 0.2 2.8 2.2
v 0.3 0 3.8
v 0.3 0 3.7
v 0.3 0.1 3.8
v 0.3 0.1 3.7
v 0.3 0.1 3.6
v 0.3 0.2 3.8
v 0.3 0.2 3.7
v 0.3 0.3 3.6
v 0.3 0.3 3.5
v 0.3 0.4 3.7
v 0.3 0.4 3.6
v 0.3 0.4 3.5
v 0.3 0.4 3.4
v 0.3 0.5 3.6
v 0.3 0.5 3.5
v 0.3 0.5 3.4
v 0.3 0.5 3.3
v 0.3 0.6 3.5
v 0.3 0.6 3.4
v 0.3 0.7 3.3
v 0.3 0.7 3.2
v 0.3 0.8 3.4
v 0.3 0.8 3.3
v 0.3 0.8 3.2
v 0.3 0.8 3.1
v 0.3 0.9 3.3
v 0.3 0.9 3.2
v 0.3 0.9 3.1
v 0.3 0.9 3
v 0.3 1 3.2
v 0.3 1 3.1
v 0.3 1 3
v 0.3 1 2.9
v 0.3 1.1 3.1
v 0.3 1.1 3
v 0.3 1.2 3
v 0.3 1.2 2.9
v 0.3 1.3 2.9
v 0.3 1.3 2.2
v 0.3 1.4 2.9
v 0.3 1.4 2.2
v 0.3 1.8 2.9
v 0.3 1.8 2.3
v 0.3 1.9 2.9
v 0.3 1.9 2.3
v 0.3 2 2.5
v 0.3 2 2.4
v 0.3 2.1 2.5
v 0.3 2.1 2.4
v 0.3 2.2 2.4
v 0.3 2.2 2.2
v 0.3 2.3 2.4
v 0.3 2.3 2.2
v 0.3 2.8 2.4
v 0.3 2.8 2.2
v 0.3 2.9 2.4
v 0.3 2.9 2.2
v 0.4 0 4.3
v 0.4 0 3.8
v 0.4 0.1 4.7
v 0.4 0.1 4.3
v 0.4 0.1 3.9
v 0.4 0.2 6.1
v 0.4 0.2 4.7
v 0.4 0.2 4.3
v 0.4 0.2 3.9
v 0.4 0.2 3.8
v 0.4 0.2 3.7
v 0.4 0.3 6
v 0.4 0.3 5.4
v 0.4 0.3 4.7
v 0.4 0.4 3.8
v 0.4 0.4 3.7
v 0.4 0.4 3.6
v 0.4 0.5 3.7
v 0.4 0.5 3.6
v 0.4 0.5 3.5
v 0.4 0.6 3.6
v 0.4 0.6 3.5
v 0.4 0.6 3.4
v 0.4 0.8 3.5
v 0.4 0.8 3.4
v 0.4 0.8 3.3
v 0.4 0.9 3.4
v 0.4 0.9 3.3
v 0.4 0.9 3.2
v 0.4 1 6
v 0.4 1 5.8
v 0.4 1 3.3
v 0.4 1 3.2
v 0.4 1 3.1
v 0.4 1.1 6.1
v 0.4 1.1 5.8
v 0.4 1.1 5.5
v 0.4 1.1 3.2
v 0.4 1.1 3.1
v 0.4 1.1 3
v 0.4 1.2 5.8
v 0.4 1.2 5.5
v 0.4 1.2 5.4
v 0.4 1.2 5.2
v 0.4 1.2 3.1
v 0.4 1.2 3
v 0.4 1.2 2.9
v 0.4 1.3 5.5
v 0.4 1.3 5.2
v 0.4 1.3 5.1
v 0.4 1.4 5.1
v 0.4 1.4 4.2
v 0.4 1.4 2.9
v 0.4 1.4 2.2
v 0.4 1.5 5.2
v 0.4 1.5 4.2
v 0.4 1.5 4.1
v 0.4 1.6 4.2
v 0.4 1.6 4.1
v 0.4 1.6 4
v 0.4 1.7 4.1
v 0.4 1.7 4
v 0.4 1.7 3.9
v 0.4 1.7 2.3
v 0.4 1.7 2.2
v 0.4 1.8 4
v 0.4 1.8 3.9
v 0.4 1.8 3.8
v 0.4 1.8 2.9
v 0.4 1.8 2.3
v 0.4 1.9 3.9
v 0.4 1.9 3.8
v 0.4 1.9 3.7
v 0.4 2 3.8
v 0.4 2 3.7
v 0.4 2 3.6
v 0.4 2 3
v 0.4 2.1 3.7
v 0.4 2.1 2.9
v 0.4 2.1 2.4
v 0.4 2.1 2.2
v 0.4 2.2 2.4
v 0.4 2.2 2.2
v 0.4 2.9 2.4
v 0.4 2.9 2.2
v 0.4 3 2.4
v 0.4 3 2.2
v 0.5 0.1 4.3
v 0.5 0.1 3.9
v 0.5 0.2 4.7
v 0.5 0.2 4.3
v 0.5 0.2 3.9
v 0.5 0.2 3.8
v 0.5 0.3 5.4
v 0.5 0.3 4.7
v 0.5 0.4 3.8
v 0.5 0.4 3.7
v 0.5 0.5 5.4
v 0.5 0.5 4.9
v 0.5 0.5 3.7
v 0.5 0.5 3.6
v 0.5 0.7 4.7
v 0.5 0.7 4.2
v 0.5 1 4.9
v 0.5 1 4.1
v 0.5 1 3.6
v 0.5 1.1 5.4
v 0.5 1.1 4.9
v 0.5 1.2 5.4
v 0.5 1.2 5.2
v 0.5 1.2 4.7
v 0.5 1.2 4.2
v 0.5 1.3 5.2
v 0.5 1.3 5.1
v 0.5 1.3 4.7
v 0.5 1.3 4.2
v 0.5 1.4 5.1
v 0.5 1.4 4.2
v 0.5 1.5 4.2
v 0.5 1.5 4.1
v 0.5 1.6 4
v 0.5 1.6 3.6
v 0.5 1.7 4
v 0.5 1.7 3.9
v 0.5 1.7 2.3
v 0.5 1.7 2.2
v 0.5 1.8 3.9
v 0.5 1.8 3.8
v 0.5 1.9 3.8
v 0.5 1.9 3.7
v 0.5 2 3.7
v 0.5 2 3.6
v 0.5 2 2.3
v 0.5 2 2.2
v 0.7 2.5 2.9
v 0.7 2.5 2.8
v 0.7 2.6 2.9
v 0.7 2.6 2.8
v 0.8 0.5 5.4
v 0.8 0.5 5.3
v 0.8 0.5 5
v 0.8 0.5 4.9
v 0.8 0.7 4.7
v 0.8 0.7 4.6
v 0.8 0.7 4.3
v 0.8 0.7 4.2
v 0.8 1 5.4
v 0.8 1 5.3
v 0.8 1 5
v 0.8 1 4.9
v 0.8 1 4.1
v 0.8 1 4
v 0.8 1 3.7
v 0.8 1 3.6
v 0.8 1.1 5.4
v 0.8 1.1 5.3
v 0.8 1.1 5
v 0.8 1.1 4.9
v 0.8 1.2 4.7
v 0.8 1.2 4.6
v 0.8 1.2 4.3
v 0.8 1.2 4.2
v 0.8 1.3 4.7
v 0.8 1.3 4.6
v 0.8 1.3 4.3
v 0.8 1.3 4.2
v 0.8 1.5 4.1
v 0.8 1.5 4
v 0.8 1.5 3.7
v 0.8 1.5 3.6
v 0.8 1.6 4.1
v 0.8 1.6 4
v 0.8 1.6 3.7
v 0.8 1.6 3.6
v 0.8 2.2 2.7
v 0.8 2.2 2.6
v 0.8 2.3 2.7
v 0.8 2.3 2.6
v 0.8 2.4 2.8
v 0.8 2.4 2.7
v 0.8 2.7 2.8
v 0.8 2.7 2.7
v 0.8 2.8 2.7
v 0.8 2.8 2.6
v 0.8 2.9 2.7
v 0.8 2.9 2.6
v 0.9 0.5 5.3
v 0.9 0.5 5
v 0.9 0.7 4.6
v 0.9 0.7 4.3
v 0.9 1 5.3
v 0.9 1 5
v 0.9 1 4
v 0.9 1 3.7
v 0.9 1.1 5.3
v 0.9 1.1 5
v 0.9 1.2 4.6
v 0.9 1.2 4.3
v 0.9 1.3 4.6
v 0.9 1.3 4.3
v 0.9 1.5 4
v 0.9 1.5 3.7
v 0.9 1.6 4
v 0.9 1.6 3.7
v 0.9 2 2.5
v 0.9 2 2.2
v 0.9 2.1 2.6
v 0.9 2.1 2.5
v 0.9 2.1 2.2
v 0.9 2.2 2.6
v 0.9 2.2 2.5
v 0.9 2.3 2.7
v 0.9 2.3 2.6
v 0.9 2.4 2.7
v 0.9 2.4 2.6
v 0.9 2.7 2.7
v 0.9 2.7 2.6
v 0.9 2.8 2.7
v 0.9 2.8 2.6
v 0.9 2.9 2.6
v 0.9 2.9 2.5
v 0.9 3 2.6
v 0.9 3 2.5
v 0.9 3 2.2
v 0.9 3.1 2.5
v 0.9 3.1 2.2
v 1 2.1 2.5
v 1 2.1 2.2
v 1 2.2 2.6
v 1 2.2 2.5
v 1 2.2 2.2
v 1 2.3 2.6
v 1 2.3 2.5
v 1 2.4 2.7
v 1 2.4 2.6
v 1 2.7 2.7
v 1 2.7 2.6
v 1 2.8 2.6
v 1 2.8 2.5
v 1 2.9 2.6
v 1 2.9 2.5
v 1 2.9 2.2
v 1 3 2.5
v 1 3 2.2
v 1.1 2.2 2.5
v 1.1 2.2 2.2
v 1.1 2.3 2.6
v 1.1 2.3 2.5
v 1.1 2.3 2.3
v 1.1 2.3 2.2
v 1.1 2.4 2.5
v 1.1 2.4 2.3
v 1.1 2.8 2.6
v 1.1 2.8 2.5
v 1.1 2.8 2.2
v 1.1 2.9 2.5
v 1.1 2.9 2.2
v 1.2 2.3 2.3
v 1.2 2.3 2.2
v 1.2 2.4 2.5
v 1.2 2.4 2.3
v 1.2 2.8 2.5
v 1.2 2.8 2.2
v -0.4 0.2 6.1
v -0.4 1.1 6.1
v 0.4 0.2 6.1
v 0.4 1.1 6.1
v -0.4 1.1 5.8
v -0.4 1.2 5.8
v -0.3 1.1 5.8
v -0.3 1.2 5.8
v 0.3 1.1 5.8
v 0.3 1.2 5.8
v 0.4 1.1 5.8
v 0.4 1.2 5.8
v -0.4 1.2 5.5
v -0.4 1.3 5.5
v -0.3 1.2 5.5
v -0.3 1.3 5.5
v 0.3 1.2 5.5
v 0.3 1.3 5.5
v 0.4 1.2 5.5
v 0.4 1.3 5.5
v -0.8 0.5 5.4
v -0.8 1 5.4
v -0.8 1.1 5.4
v -0.5 0.3 5.4
v -0.5 0.5 5.4
v -0.5 1 5.4
v -0.5 1.1 5.4
v -0.5 1.2 5.4
v -0.4 0.3 5.4
v -0.4 1.2 5.4
v 0.4 0.3 5.4
v 0.4 1.2 5.4
v 0.5 0.3 5.4
v 0.5 0.5 5.4
v 0.5 1 5.4
v 0.5 1.1 5.4
v 0.5 1.2 5.4
v 0.8 0.5 5.4
v 0.8 1 5.4
v 0.8 1.1 5.4
v -0.9 0.5 5.3
v -0.9 1 5.3
v -0.9 1.1 5.3
v -0.8 0.5 5.3
v -0.8 1 5.3
v -0.8 1.1 5.3
v 0.8 0.5 5.3
v 0.8 1 5.3
v 0.8 1.1 5.3
v 0.9 0.5 5.3
v 0.9 1 5.3
v 0.9 1.1 5.3
v -0.5 1.2 5.2
v -0.5 1.3 5.2
v -0.4 1.2 5.2
v -0.4 1.3 5.2
v -0.4 1.5 5.2
v -0.3 1.3 5.2
v -0.3 1.5 5.2
v 0.3 1.3 5.2
v 0.3 1.5 5.2
v 0.4 1.2 5.2
v 0.4 1.3 5.2
v 0.4 1.5 5.2
v 0.5 1.2 5.2
v 0.5 1.3 5.2
v -0.5 1.3 5.1
v -0.5 1.4 5.1
v -0.4 1.3 5.1
v -0.4 1.4 5.1
v 0.4 1.3 5.1
v 0.4 1.4 5.1
v 0.5 1.3 5.1
v 0.5 1.4 5.1
v -0.8 0.7 4.7
v -0.8 1.2 4.7
v -0.8 1.3 4.7
v -0.5 0.2 4.7
v -0.5 0.3 4.7
v -0.5 0.7 4.7
v -0.5 1.2 4.7
v -0.5 1.3 4.7
v -0.4 0.1 4.7
v -0.4 0.2 4.7
v -0.4 0.3 4.7
v -0.3 0.1 4.7
v -0.3 0.2 4.7
v 0.3 0.1 4.7
v 0.3 0.2 4.7
v 0.4 0.1 4.7
v 0.4 0.2 4.7
v 0.4 0.3 4.7
v 0.5 0.2 4.7
v 0.5 0.3 4.7
v 0.5 0.7 4.7
v 0.5 1.2 4.7
v 0.5 1.3 4.7
v 0.8 0.7 4.7
v 0.8 1.2 4.7
v 0.8 1.3 4.7
v -0.9 0.7 4.6
v -0.9 1.2 4.6
v -0.9 1.3 4.6
v -0.8 0.7 4.6
v -0.8 1.2 4.6
v -0.8 1.3 4.6
v 0.8 0.7 4.6
v 0.8 1.2 4.6
v 0.8 1.3 4.6
v 0.9 0.7 4.6
v 0.9 1.2 4.6
v 0.9 1.3 4.6
v -0.5 0.1 4.3
v -0.5 0.2 4.3
v -0.4 0 4.3
v -0.4 0.1 4.3
v -0.4 0.2 4.3
v -0.3 0 4.3
v -0.3 0.1 4.3
v 0.3 0 4.3
v 0.3 0.1 4.3
v 0.4 0 4.3
v 0.4 0.1 4.3
v 0.4 0.2 4.3
v 0.5 0.1 4.3
v 0.5 0.2 4.3
v -0.5 1.4 4.2
v -0.5 1.5 4.2
v -0.4 1.4 4.2
v -0.4 1.5 4.2
v -0.4 1.6 4.2
v -0.3 1.5 4.2
v -0.3 1.6 4.2
v 0.3 1.5 4.2
v 0.3 1.6 4.2
v 0.4 1.4 4.2
v 0.4 1.5 4.2
v 0.4 1.6 4.2
v 0.5 1.4 4.2
v 0.5 1.5 4.2
v -0.8 1 4.1
v -0.8 1.5 4.1
v -0.8 1.6 4.1
v -0.5 1 4.1
v -0.5 1.5 4.1
v -0.5 1.6 4.1
v -0.4 1.5 4.1
v -0.4 1.6 4.1
v -0.4 1.7 4.1
v -0.3 1.6 4.1
v -0.3 1.7 4.1
v 0.3 1.6 4.1
v 0.3 1.7 4.1
v 0.4 1.5 4.1
v 0.4 1.6 4.1
v 0.4 1.7 4.1
v 0.5 1 4.1
v 0.5 1.5 4.1
v 0.5 1.6 4.1
v 0.8 1 4.1
v 0.8 1.5 4.1
v 0.8 1.6 4.1
v -0.9 1 4
v -0.9 1.5 4
v -0.9 1.6 4
v -0.8 1 4
v -0.8 1.5 4
v -0.8 1.6 4
v -0.5 1.6 4
v -0.5 1.7 4
v -0.4 1.6 4
v -0.4 1.7 4
v -0.4 1.8 4
v -0.3 1.7 4
v -0.3 1.8 4
v 0.3 1.7 4
v 0.3 1.8 4
v 0.4 1.6 4
v 0.4 1.7 4
v 0.4 1.8 4
v 0.5 1.6 4
v 0.5 1.7 4
v 0.8 1 4
v 0.8 1.5 4
v 0.8 1.6 4
v 0.9 1 4
v 0.9 1.5 4
v 0.9 1.6 4
v -0.5 1.7 3.9
v -0.5 1.8 3.9
v -0.4 1.7 3.9
v -0.4 1.8 3.9
v -0.4 1.9 3.9
v -0.3 1.8 3.9
v -0.3 1.9 3.9
v 0.3 1.8 3.9
v 0.3 1.9 3.9
v 0.4 1.7 3.9
v 0.4 1.8 3.9
v 0.4 1.9 3.9
v 0.5 1.7 3.9
v 0.5 1.8 3.9
v -0.5 1.8 3.8
v -0.5 1.9 3.8
v -0.4 1.8 3.8
v -0.4 1.9 3.8
v -0.4 2 3.8
v -0.3 1.9 3.8
v -0.3 2 3.8
v 0.3 1.9 3.8
v 0.3 2 3.8
v 0.4 1.8 3.8
v 0.4 1.9 3.8
v 0.4 2 3.8
v 0.5 1.8 3.8
v 0.5 1.9 3.8
v -0.5 1.9 3.7
v -0.5 2 3.7
v -0.4 1.9 3.7
v -0.4 2 3.7
v -0.4 2.1 3.7
v -0.3 2 3.7
v -0.3 2.1 3.7
v 0.3 2 3.7
v 0.3 2.1 3.7
v 0.4 1.9 3.7
v 0.4 2 3.7
v 0.4 2.1 3.7
v 0.5 1.9 3.7
v 0.5 2 3.7
v -0.1 2.1 3.3
v -0.1 2.2 3.3
v 0.0999999 2.1 3.3
v 0.0999999 2.2 3.3
v -0.7 2.5 2.9
v -0.7 2.6 2.9
v -0.6 2.5 2.9
v -0.6 2.6 2.9
v 0.6 2.5 2.9
v 0.6 2.6 2.9
v 0.7 2.5 2.9
v 0.7 2.6 2.9
v -0.8 2.4 2.8
v -0.8 2.7 2.8
v -0.7 2.5 2.8
v -0.7 2.6 2.8
v -0.6 2.5 2.8
v -0.6 2.6 2.8
v -0.5 2.4 2.8
v -0.5 2.7 2.8
v 0.5 2.4 2.8
v 0.5 2.7 2.8
v 0.6 2.5 2.8
v 0.6 2.6 2.8
v 0.7 2.5 2.8
v 0.7 2.6 2.8
v 0.8 2.4 2.8
v 0.8 2.7 2.8
v -1 2.4 2.7
v -1 2.7 2.7
v -0.9 2.3 2.7
v -0.9 2.4 2.7
v -0.9 2.7 2.7
v -0.9 2.8 2.7
v -0.8 2.2 2.7
v -0.8 2.3 2.7
v -0.8 2.4 2.7
v -0.8 2.7 2.7
v -0.8 2.8 2.7
v -0.8 2.9 2.7
v -0.5 2.2 2.7
v -0.5 2.3 2.7
v -0.5 2.4 2.7
v -0.5 2.7 2.7
v -0.5 2.8 2.7
v -0.5 2.9 2.7
v -0.4 2.3 2.7
v -0.4 2.4 2.7
v -0.4 2.7 2.7
v -0.4 2.8 2.7
v -0.3 2.4 2.7
v -0.3 2.7 2.7
v 0.3 2.4 2.7
v 0.3 2.7 2.7
v 0.4 2.3 2.7
v 0.4 2.4 2.7
v 0.4 2.7 2.7
v 0.4 2.8 2.7
v 0.5 2.2 2.7
v 0.5 2.3 2.7
v 0.5 2.4 2.7
v 0.5 2.7 2.7
v 0.5 2.8 2.7
v 0.5 2.9 2.7
v 0.8 2.2 2.7
v 0.8 2.3 2.7
v 0.8 2.4 2.7
v 0.8 2.7 2.7
v 0.8 2.8 2.7
v 0.8 2.9 2.7
v 0.9 2.3 2.7
v 0.9 2.4 2.7
v 0.9 2.7 2.7
v 0.9 2.8 2.7
v 1 2.4 2.7
v 1 2.7 2.7
v -1.1 2.3 2.6
v -1.1 2.8 2.6
v -1 2.2 2.6
v -1 2.3 2.6
v -1 2.4 2.6
v -1 2.7 2.6
v -1 2.8 2.6
v -1 2.9 2.6
v -0.9 2.1 2.6
v -0.9 2.2 2.6
v -0.9 2.3 2.6
v -0.9 2.4 2.6
v -0.9 2.7 2.6
v -0.9 2.8 2.6
v -0.9 2.9 2.6
v -0.9 3 2.6
v -0.8 2.2 2.6
v -0.8 2.3 2.6
v -0.8 2.8 2.6
v -0.8 2.9 2.6
v -0.5 2.2 2.6
v -0.5 2.3 2.6
v -0.5 2.8 2.6
v -0.5 2.9 2.6
v -0.4 2.1 2.6
v -0.4 2.2 2.6
v -0.4 2.3 2.6
v -0.4 2.4 2.6
v -0.4 2.7 2.6
v -0.4 2.8 2.6
v -0.4 2.9 2.6
v -0.4 3 2.6
v -0.3 2.2 2.6
v -0.3 2.3 2.6
v -0.3 2.4 2.6
v -0.3 2.7 2.6
v -0.3 2.8 2.6
v -0.3 2.9 2.6
v -0.2 2.3 2.6
v -0.2 2.8 2.6
v 0.2 2.3 2.6
v 0.2 2.8 2.6
v 0.3 2.2 2.6
v 0.3 2.3 2.6
v 0.3 2.4 2.6
v 0.3 2.7 2.6
v 0.3 2.8 2.6
v 0.3 2.9 2.6
v 0.4 2.1 2.6
v 0.4 2.2 2.6
v 0.4 2.3 2.6
v 0.4 2.4 2.6
v 0.4 2.7 2.6
v 0.4 2.8 2.6
v 0.4 2.9 2.6
v 0.4 3 2.6
v 0.5 2.2 2.6
v 0.5 2.3 2.6
v 0.5 2.8 2.6
v 0.5 2.9 2.6
v 0.8 2.2 2.6
v 0.8 2.3 2.6
v 0.8 2.8 2.6
v 0.8 2.9 2.6
v 0.9 2.1 2.6
v 0.9 2.2 2.6
v 0.9 2.3 2.6
v 0.9 2.4 2.6
v 0.9 2.7 2.6
v 0.9 2.8 2.6
v 0.9 2.9 2.6
v 0.9 3 2.6
v 1 2.2 2.6
v 1 2.3 2.6
v 1 2.4 2.6
v 1 2.7 2.6
v 1 2.8 2.6
v 1 2.9 2.6
v 1.1 2.3 2.6
v 1.1 2.8 2.6
v -1.2 2.4 2.5
v -1.2 2.8 2.5
v -1.1 2.2 2.5
v -1.1 2.3 2.5
v -1.1 2.4 2.5
v -1.1 2.8 2.5
v -1.1 2.9 2.5
v -1 2.1 2.5
v -1 2.2 2.5
v -1 2.3 2.5
v -1 2.8 2.5
v -1 2.9 2.5
v -1 3 2.5
v -0.9 2 2.5
v -0.9 2.1 2.5
v -0.9 2.2 2.5
v -0.9 2.9 2.5
v -0.9 3 2.5
v -0.9 3.1 2.5
v -0.4 2 2.5
v -0.4 2.1 2.5
v -0.4 2.2 2.5
v -0.4 2.9 2.5
v -0.4 3 2.5
v -0.4 3.1 2.5
v -0.3 2 2.5
v -0.3 2.1 2.5
v -0.3 2.2 2.5
v -0.3 2.3 2.5
v -0.3 2.8 2.5
v -0.3 2.9 2.5
v -0.3 3 2.5
v -0.2 2 2.5
v -0.2 2.1 2.5
v -0.2 2.2 2.5
v -0.2 2.3 2.5
v -0.2 2.8 2.5
v -0.2 2.9 2.5
v -0.1 2.3 2.5
v -0.1 2.8 2.5
v 0.0999999 2.3 2.5
v 0.0999999 2.8 2.5
v 0.2 2 2.5
v 0.2 2.1 2.5
v 0.2 2.2 2.5
v 0.2 2.3 2.5
v 0.2 2.8 2.5
v 0.2 2.9 2.5
v 0.3 2 2.5
v 0.3 2.1 2.5
v 0.3 2.2 2.5
v 0.3 2.3 2.5
v 0.3 2.8 2.5
v 0.3 2.9 2.5
v 0.3 3 2.5
v 0.4 2 2.5
v 0.4 2.1 2.5
v 0.4 2.2 2.5
v 0.4 2.9 2.5
v 0.4 3 2.5
v 0.4 3.1 2.5
v 0.9 2 2.5
v 0.9 2.1 2.5
v 0.9 2.2 2.5
v 0.9 2.9 2.5
v 0.9 3 2.5
v 0.9 3.1 2.5
v 1 2.1 2.5
v 1 2.2 2.5
v 1 2.3 2.5
v 1 2.8 2.5
v 1 2.9 2.5
v 1 3 2.5
v 1.1 2.2 2.5
v 1.1 2.3 2.5
v 1.1 2.4 2.5
v 1.1 2.8 2.5
v 1.1 2.9 2.5
v 1.2 2.4 2.5
v 1.2 2.8 2.5
v -0.4 2 2.4
v -0.4 2.1 2.4
v -0.3 2 2.4
v -0.3 2.1 2.4
v -0.3 2.2 2.4
v -0.2 2.1 2.4
v -0.2 2.2 2.4
v -0.2 2.3 2.4
v -0.1 2.1 2.4
v -0.1 2.2 2.4
v -0.1 2.3 2.4
v -0.1 2.6 2.4
v 0.0999999 2.1 2.4
v 0.0999999 2.2 2.4
v 0.0999999 2.3 2.4
v 0.0999999 2.6 2.4
v 0.2 2.1 2.4
v 0.2 2.2 2.4
v 0.2 2.3 2.4
v 0.3 2 2.4
v 0.3 2.1 2.4
v 0.3 2.2 2.4
v 0.4 2 2.4
v 0.4 2.1 2.4
v -1.2 2.3 2.3
v -1.2 2.4 2.3
v -1.1 2.3 2.3
v -1.1 2.4 2.3
v -0.5 1.7 2.3
v -0.5 2 2.3
v -0.4 1.7 2.3
v -0.4 1.8 2.3
v -0.3 1.8 2.3
v -0.3 1.9 2.3
v -0.2 1.9 2.3
v -0.2 2 2.3
v -0.2 2.1 2.3
v -0.1 2 2.3
v -0.1 2.1 2.3
v 0.0999999 2 2.3
v 0.0999999 2.1 2.3
v 0.2 1.9 2.3
v 0.2 2 2.3
v 0.2 2.1 2.3
v 0.3 1.8 2.3
v 0.3 1.9 2.3
v 0.4 1.7 2.3
v 0.4 1.8 2.3
v 0.5 1.7 2.3
v 0.5 2 2.3
v 1.1 2.3 2.3
v 1.1 2.4 2.3
v 1.2 2.3 2.3
v 1.2 2.4 2.3
v -0.9 0.5 5
v -0.9 1 5
v -0.9 1.1 5
v -0.8 0.5 5
v -0.8 1 5
v -0.8 1.1 5
v 0.8 0.5 5
v 0.8 1 5
v 0.8 1.1 5
v 0.9 0.5 5
v 0.9 1 5
v 0.9 1.1 5
v -0.8 0.5 4.9
v -0.8 1 4.9
v -0.8 1.1 4.9
v -0.5 0.5 4.9
v -0.5 1 4.9
v -0.5 1.1 4.9
v 0.5 0.5 4.9
v 0.5 1 4.9
v 0.5 1.1 4.9
v 0.8 0.5 4.9
v 0.8 1 4.9
v 0.8 1.1 4.9
v -0.9 0.7 4.3
v -0.9 1.2 4.3
v -0.9 1.3 4.3
v -0.8 0.7 4.3
v -0.8 1.2 4.3
v -0.8 1.3 4.3
v 0.8 0.7 4.3
v 0.8 1.2 4.3
v 0.8 1.3 4.3
v 0.9 0.7 4.3
v 0.9 1.2 4.3
v 0.9 1.3 4.3
v -0.8 0.7 4.2
v -0.8 1.2 4.2
v -0.8 1.3 4.2
v -0.5 0.7 4.2
v -0.5 1.2 4.2
v -0.5 1.3 4.2
v 0.5 0.7 4.2
v 0.5 1.2 4.2
v 0.5 1.3 4.2
v 0.8 0.7 4.2
v 0.8 1.2 4.2
v 0.8 1.3 4.2
v -0.5 0.1 3.9
v -0.5 0.2 3.9
v -0.4 0.1 3.9
v -0.4 0.2 3.9
v 0.4 0.1 3.9
v 0.4 0.2 3.9
v 0.5 0.1 3.9
v 0.5 0.2 3.9
v -0.5 0.2 3.8
v -0.5 0.4 3.8
v -0.4 0 3.8
v -0.4 0.2 3.8
v -0.4 0.4 3.8
v -0.3 0 3.8
v -0.3 0.1 3.8
v -0.3 0.2 3.8
v 0.3 0 3.8
v 0.3 0.1 3.8
v 0.3 0.2 3.8
v 0.4 0 3.8
v 0.4 0.2 3.8
v 0.4 0.4 3.8
v 0.5 0.2 3.8
v 0.5 0.4 3.8
v -0.9 1 3.7
v -0.9 1.5 3.7
v -0.9 1.6 3.7
v -0.8 1 3.7
v -0.8 1.5 3.7
v -0.8 1.6 3.7
v -0.5 0.4 3.7
v -0.5 0.5 3.7
v -0.4 0.2 3.7
v -0.4 0.4 3.7
v -0.4 0.5 3.7
v -0.3 0 3.7
v -0.3 0.1 3.7
v -0.3 0.2 3.7
v -0.3 0.4 3.7
v 0.3 0 3.7
v 0.3 0.1 3.7
v 0.3 0.2 3.7
v 0.3 0.4 3.7
v 0.4 0.2 3.7
v 0.4 0.4 3.7
v 0.4 0.5 3.7
v 0.5 0.4 3.7
v 0.5 0.5 3.7
v 0.8 1 3.7
v 0.8 1.5 3.7
v 0.8 1.6 3.7
v 0.9 1 3.7
v 0.9 1.5 3.7
v 0.9 1.6 3.7
v -0.8 1 3.6
v -0.8 1.5 3.6
v -0.8 1.6 3.6
v -0.5 0.5 3.6
v -0.5 1 3.6
v -0.5 1.5 3.6
v -0.5 1.6 3.6
v -0.5 2 3.6
v -0.4 0.4 3.6
v -0.4 0.5 3.6
v -0.4 0.6 3.6
v -0.4 2 3.6
v -0.3 0.1 3.6
v -0.3 0.3 3.6
v -0.3 0.4 3.6
v -0.3 0.5 3.6
v 0.3 0.1 3.6
v 0.3 0.3 3.6
v 0.3 0.4 3.6
v 0.3 0.5 3.6
v 0.4 0.4 3.6
v 0.4 0.5 3.6
v 0.4 0.6 3.6
v 0.4 2 3.6
v 0.5 0.5 3.6
v 0.5 1 3.6
v 0.5 1.5 3.6
v 0.5 1.6 3.6
v 0.5 2 3.6
v 0.8 1 3.6
v 0.8 1.5 3.6
v 0.8 1.6 3.6
v -0.4 0.5 3.5
v -0.4 0.6 3.5
v -0.3 0.3 3.5
v -0.3 0.4 3.5
v -0.3 0.5 3.5
v -0.3 0.6 3.5
v 0.3 0.3 3.5
v 0.3 0.4 3.5
v 0.3 0.5 3.5
v 0.3 0.6 3.5
v 0.4 0.5 3.5
v 0.4 0.6 3.5
v -0.4 0.6 3.4
v -0.4 0.8 3.4
v -0.3 0.4 3.4
v -0.3 0.5 3.4
v -0.3 0.6 3.4
v -0.3 0.8 3.4
v 0.3 0.4 3.4
v 0.3 0.5 3.4
v 0.3 0.6 3.4
v 0.3 0.8 3.4
v 0.4 0.6 3.4
v 0.4 0.8 3.4
v -0.4 0.8 3.3
v -0.4 0.9 3.3
v -0.3 0.5 3.3
v -0.3 0.7 3.3
v -0.3 0.8 3.3
v -0.3 0.9 3.3
v 0.3 0.5 3.3
v 0.3 0.7 3.3
v 0.3 0.8 3.3
v 0.3 0.9 3.3
v 0.4 0.8 3.3
v 0.4 0.9 3.3
v -0.4 0.9 3.2
v -0.4 1 3.2
v -0.3 0.7 3.2
v -0.3 0.8 3.2
v -0.3 0.9 3.2
v -0.3 1 3.2
v 0.3 0.7 3.2
v 0.3 0.8 3.2
v 0.3 0.9 3.2
v 0.3 1 3.2
v 0.4 0.9 3.2
v 0.4 1 3.2
v -0.4 1 3.1
v -0.4 1.1 3.1
v -0.3 0.8 3.1
v -0.3 0.9 3.1
v -0.3 1 3.1
v -0.3 1.1 3.1
v 0.3 0.8 3.1
v 0.3 0.9 3.1
v 0.3 1 3.1
v 0.3 1.1 3.1
v 0.4 1 3.1
v 0.4 1.1 3.1
v -0.4 1.1 3
v -0.4 1.2 3
v -0.3 0.9 3
v -0.3 1 3
v -0.3 1.1 3
v -0.3 1.2 3
v 0.3 0.9 3
v 0.3 1 3
v 0.3 1.1 3
v 0.3 1.2 3
v 0.4 1.1 3
v 0.4 1.2 3
v -0.4 1.2 2.9
v -0.4 1.4 2.9
v -0.4 1.8 2.9
v -0.4 2.1 2.9
v -0.3 1 2.9
v -0.3 1.2 2.9
v -0.3 1.3 2.9
v -0.3 1.4 2.9
v -0.3 1.8 2.9
v -0.3 1.9 2.9
v -0.2 1.2 2.9
v -0.2 1.3 2.9
v -0.2 1.9 2.9
v -0.2 2 2.9
v -0.1 2 2.9
v -0.1 2.1 2.9
v 0.0999999 2 2.9
v 0.0999999 2.1 2.9
v 0.2 1.2 2.9
v 0.2 1.3 2.9
v 0.2 1.9 2.9
v 0.2 2 2.9
v 0.3 1 2.9
v 0.3 1.2 2.9
v 0.3 1.3 2.9
v 0.3 1.4 2.9
v 0.3 1.8 2.9
v 0.3 1.9 2.9
v 0.4 1.2 2.9
v 0.4 1.4 2.9
v 0.4 1.8 2.9
v 0.4 2.1 2.9
v -1.1 2.4 2.4
v -1.1 2.8 2.4
v -1 2.2 2.4
v -1 2.4 2.4
v -1 2.8 2.4
v -1 2.9 2.4
v -0.9 2.1 2.4
v -0.9 2.2 2.4
v -0.8 2.9 2.4
v -0.8 3 2.4
v -0.4 2.1 2.4
v -0.4 2.2 2.4
v -0.4 2.9 2.4
v -0.4 3 2.4
v -0.3 2.2 2.4
v -0.3 2.3 2.4
v -0.3 2.8 2.4
v -0.3 2.9 2.4
v -0.2 2.3 2.4
v -0.2 2.8 2.4
v 0.2 2.3 2.4
v 0.2 2.8 2.4
v 0.3 2.2 2.4
v 0.3 2.3 2.4
v 0.3 2.8 2.4
v 0.3 2.9 2.4
v 0.4 2.1 2.4
v 0.4 2.2 2.4
v 0.4 2.9 2.4
v 0.4 3 2.4
v 0.8 2.9 2.4
v 0.8 3 2.4
v 0.9 2.1 2.4
v 0.9 2.2 2.4
v 1 2.2 2.4
v 1 2.4 2.4
v 1 2.8 2.4
v 1 2.9 2.4
v 1.1 2.4 2.4
v 1.1 2.8 2.4
v -1.2 2.3 2.2
v -1.2 2.8 2.2
v -1.1 2.2 2.2
v -1.1 2.3 2.2
v -1.1 2.4 2.2
v -1.1 2.8 2.2
v -1.1 2.9 2.2
v -1 2.1 2.2
v -1 2.2 2.2
v -1 2.4 2.2
v -1 2.8 2.2
v -1 2.9 2.2
v -1 3 2.2
v -0.9 2 2.2
v -0.9 2.1 2.2
v -0.9 2.2 2.2
v -0.9 3 2.2
v -0.9 3.1 2.2
v -0.8 2.9 2.2
v -0.8 3 2.2
v -0.5 1.7 2.2
v -0.5 2 2.2
v -0.4 1.4 2.2
v -0.4 1.7 2.2
v -0.4 2.1 2.2
v -0.4 2.2 2.2
v -0.4 2.9 2.2
v -0.4 3 2.2
v -0.4 3.1 2.2
v -0.3 1.3 2.2
v -0.3 1.4 2.2
v -0.3 2.2 2.2
v -0.3 2.3 2.2
v -0.3 2.8 2.2
v -0.3 2.9 2.2
v -0.3 3 2.2
v -0.2 1.2 2.2
v -0.2 1.3 2.2
v -0.2 2.3 2.2
v -0.2 2.8 2.2
v -0.2 2.9 2.2
v -0.1 2.1 2.2
v -0.1 2.2 2.2
v -0.1 2.6 2.2
v -0.1 2.8 2.2
v 0.0999999 2.1 2.2
v 0.0999999 2.2 2.2
v 0.0999999 2.6 2.2
v 0.0999999 2.8 2.2
v 0.2 1.2 2.2
v 0.2 1.3 2.2
v 0.2 2.3 2.2
v 0.2 2.8 2.2
v 0.2 2.9 2.2
v 0.3 1.3 2.2
v 0.3 1.4 2.2
v 0.3 2.2 2.2
v 0.3 2.3 2.2
v 0.3 2.8 2.2
v 0.3 2.9 2.2
v 0.3 3 2.2
v 0.4 1.4 2.2
v 0.4 1.7 2.2
v 0.4 2.1 2.2
v 0.4 2.2 2.2
v 0.4 2.9 2.2
v 0.4 3 2.2
v 0.4 3.1 2.2
v 0.5 1.7 2.2
v 0.5 2 2.2
v 0.8 2.9 2.2
v 0.8 3 2.2
v 0.9 2 2.2
v 0.9 2.1 2.2
v 0.9 2.2 2.2
v 0.9 3 2.2
v 0.9 3.1 2.2
v 1 2.1 2.2
v 1 2.2 2.2
v 1 2.4 2.2
v 1 2.8 2.2
v 1 2.9 2.2
v 1 3 2.2
v 1.1 2.2 2.2
v 1.1 2.3 2.2
v 1.1 2.4 2.2
v 1.1 2.8 2.2
v 1.1 2.9 2.2
v 1.2 2.3 2.2
v 1.2 2.8 2.2
v -0.4 0 4.3
v -0.3 0 4.3
v 0.3 0 4.3
v 0.4 0 4.3
v -0.4 0 3.8
v -0.3 0 3.8
v 0.3 0 3.8
v 0.4 0 3.8
v -0.3 0 3.7
v 0.3 0 3.7
v -0.4 0.1 4.7
v -0.3 0.1 4.7
v 0.3 0.1 4.7
v 0.4 0.1 4.7
v -0.5 0.1 4.3
v -0.4 0.1 4.3
v -0.3 0.1 4.3
v 0.3 0.1 4.3
v 0.4 0.1 4.3
v 0.5 0.1 4.3
v -0.5 0.1 3.9
v -0.4 0.1 3.9
v 0.4 0.1 3.9
v 0.5 0.1 3.9
v -0.3 0.1 3.7
v 0.3 0.1 3.7
v -0.3 0.1 3.6
v 0.3 0.1 3.6
v -0.4 0.2 6.1
v 0.4 0.2 6.1
v -0.3 0.2 6
v 0.3 0.2 6
v -0.5 0.2 4.7
v -0.4 0.2 4.7
v -0.3 0.2 4.7
v 0.3 0.2 4.7
v 0.4 0.2 4.7
v 0.5 0.2 4.7
v -0.5 0.2 4.3
v -0.4 0.2 4.3
v 0.4 0.2 4.3
v 0.5 0.2 4.3
v -0.5 0.2 3.9
v -0.4 0.2 3.9
v 0.4 0.2 3.9
v 0.5 0.2 3.9
v -0.5 0.2 3.8
v -0.4 0.2 3.8
v -0.3 0.2 3.8
v 0.3 0.2 3.8
v 0.4 0.2 3.8
v 0.5 0.2 3.8
v -0.4 0.2 3.7
v -0.3 0.2 3.7
v 0.3 0.2 3.7
v 0.4 0.2 3.7
v -0.5 0.3 5.4
v -0.4 0.3 5.4
v 0.4 0.3 5.4
v 0.5 0.3 5.4
v -0.5 0.3 4.7
v -0.4 0.3 4.7
v 0.4 0.3 4.7
v 0.5 0.3 4.7
v -0.3 0.3 3.6
v 0.3 0.3 3.6
v -0.3 0.3 3.5
v 0.3 0.3 3.5
v -0.5 0.4 3.8
v -0.4 0.4 3.8
v 0.4 0.4 3.8
v 0.5 0.4 3.8
v -0.5 0.4 3.7
v -0.4 0.4 3.7
v -0.3 0.4 3.7
v 0.3 0.4 3.7
v 0.4 0.4 3.7
v 0.5 0.4 3.7
v -0.4 0.4 3.6
v -0.3 0.4 3.6
v 0.3 0.4 3.6
v 0.4 0.4 3.6
v -0.3 0.4 3.5
v 0.3 0.4 3.5
v -0.3 0.4 3.4
v 0.3 0.4 3.4
v -0.8 0.5 5.4
v -0.5 0.5 5.4
v 0.5 0.5 5.4
v 0.8 0.5 5.4
v -0.9 0.5 5.3
v -0.8 0.5 5.3
v 0.8 0.5 5.3
v 0.9 0.5 5.3
v -0.9 0.5 5
v -0.8 0.5 5
v 0.8 0.5 5
v 0.9 0.5 5
v -0.8 0.5 4.9
v -0.5 0.5 4.9
v 0.5 0.5 4.9
v 0.8 0.5 4.9
v -0.5 0.5 3.7
v -0.4 0.5 3.7
v 0.4 0.5 3.7
v 0.5 0.5 3.7
v -0.5 0.5 3.6
v -0.4 0.5 3.6
v -0.3 0.5 3.6
v 0.3 0.5 3.6
v 0.4 0.5 3.6
v 0.5 0.5 3.6
v -0.4 0.5 3.5
v -0.3 0.5 3.5
v 0.3 0.5 3.5
v 0.4 0.5 3.5
v -0.3 0.5 3.4
v 0.3 0.5 3.4
v -0.3 0.5 3.3
v 0.3 0.5 3.3
v -0.4 0.6 3.5
v -0.3 0.6 3.5
v 0.3 0.6 3.5
v 0.4 0.6 3.5
v -0.4 0.6 3.4
v -0.3 0.6 3.4
v 0.3 0.6 3.4
v 0.4 0.6 3.4
v -0.8 0.7 4.7
v -0.5 0.7 4.7
v 0.5 0.7 4.7
v 0.8 0.7 4.7
v -0.9 0.7 4.6
v -0.8 0.7 4.6
v 0.8 0.7 4.6
v 0.9 0.7 4.6
v -0.9 0.7 4.3
v -0.8 0.7 4.3
v 0.8 0.7 4.3
v 0.9 0.7 4.3
v -0.8 0.7 4.2
v -0.5 0.7 4.2
v 0.5 0.7 4.2
v 0.8 0.7 4.2
v -0.3 0.7 3.3
v 0.3 0.7 3.3
v -0.3 0.7 3.2
v 0.3 0.7 3.2
v -0.4 0.8 3.4
v -0.3 0.8 3.4
v 0.3 0.8 3.4
v 0.4 0.8 3.4
v -0.4 0.8 3.3
v -0.3 0.8 3.3
v 0.3 0.8 3.3
v 0.4 0.8 3.3
v -0.3 0.8 3.2
v 0.3 0.8 3.2
v -0.3 0.8 3.1
v 0.3 0.8 3.1
v -0.4 0.9 3.3
v -0.3 0.9 3.3
v 0.3 0.9 3.3
v 0.4 0.9 3.3
v -0.4 0.9 3.2
v -0.3 0.9 3.2
v 0.3 0.9 3.2
v 0.4 0.9 3.2
v -0.3 0.9 3.1
v 0.3 0.9 3.1
v -0.3 0.9 3
v 0.3 0.9 3
v -0.8 1 4.1
v -0.5 1 4.1
v 0.5 1 4.1
v 0.8 1 4.1
v -0.9 1 4
v -0.8 1 4
v 0.8 1 4
v 0.9 1 4
v -0.9 1 3.7
v -0.8 1 3.7
v 0.8 1 3.7
v 0.9 1 3.7
v -0.8 1 3.6
v -0.5 1 3.6
v 0.5 1 3.6
v 0.8 1 3.6
v -0.4 1 3.2
v -0.3 1 3.2
v 0.3 1 3.2
v 0.4 1 3.2
v -0.4 1 3.1
v -0.3 1 3.1
v 0.3 1 3.1
v 0.4 1 3.1
v -0.3 1 3
v 0.3 1 3
v -0.3 1 2.9
v 0.3 1 2.9
v -0.4 1.1 3.1
v -0.3 1.1 3.1
v 0.3 1.1 3.1
v 0.4 1.1 3.1
v -0.4 1.1 3
v -0.3 1.1 3
v 0.3 1.1 3
v 0.4 1.1 3
v -0.4 1.2 3
v -0.3 1.2 3
v 0.3 1.2 3
v 0.4 1.2 3
v -0.4 1.2 2.9
v -0.3 1.2 2.9
v -0.2 1.2 2.9
v 0.2 1.2 2.9
v 0.3 1.2 2.9
v 0.4 1.2 2.9
v -0.2 1.2 2.2
v 0.2 1.2 2.2
v -0.3 1.3 2.9
v -0.2 1.3 2.9
v 0.2 1.3 2.9
v 0.3 1.3 2.9
v -0.3 1.3 2.2
v -0.2 1.3 2.2
v 0.2 1.3 2.2
v 0.3 1.3 2.2
v -0.4 1.4 2.9
v -0.3 1.4 2.9
v 0.3 1.4 2.9
v 0.4 1.4 2.9
v -0.4 1.4 2.2
v -0.3 1.4 2.2
v 0.3 1.4 2.2
v 0.4 1.4 2.2
v -0.5 1.7 2.3
v -0.4 1.7 2.3
v 0.4 1.7 2.3
v 0.5 1.7 2.3
v -0.5 1.7 2.2
v -0.4 1.7 2.2
v 0.4 1.7 2.2
v 0.5 1.7 2.2
v -0.9 2 2.5
v -0.4 2 2.5
v -0.3 2 2.5
v -0.2 2 2.5
v 0.2 2 2.5
v 0.3 2 2.5
v 0.4 2 2.5
v 0.9 2 2.5
v -0.4 2 2.4
v -0.3 2 2.4
v 0.3 2 2.4
v 0.4 2 2.4
v -0.5 2 2.3
v -0.2 2 2.3
v 0.2 2 2.3
v 0.5 2 2.3
v -0.9 2 2.2
v -0.5 2 2.2
v 0.5 2 2.2
v 0.9 2 2.2
v -0.9 2.1 2.6
v -0.4 2.1 2.6
v 0.4 2.1 2.6
v 0.9 2.1 2.6
v -1 2.1 2.5
v -0.9 2.1 2.5
v -0.4 2.1 2.5
v -0.3 2.1 2.5
v 0.3 2.1 2.5
v 0.4 2.1 2.5
v 0.9 2.1 2.5
v 1 2.1 2.5
v -0.4 2.1 2.4
v -0.3 2.1 2.4
v -0.2 2.1 2.4
v -0.1 2.1 2.4
v 0.0999999 2.1 2.4
v 0.2 2.1 2.4
v 0.3 2.1 2.4
v 0.4 2.1 2.4
v -0.2 2.1 2.3
v -0.1 2.1 2.3
v 0.0999999 2.1 2.3
v 0.2 2.1 2.3
v -1 2.1 2.2
v -0.9 2.1 2.2
v 0.9 2.1 2.2
v 1 2.1 2.2
v -0.8 2.2 2.7
v -0.5 2.2 2.7
v 0.5 2.2 2.7
v 0.8 2.2 2.7
v -1 2.2 2.6
v -0.9 2.2 2.6
v -0.8 2.2 2.6
v -0.5 2.2 2.6
v -0.4 2.2 2.6
v -0.3 2.2 2.6
v 0.3 2.2 2.6
v 0.4 2.2 2.6
v 0.5 2.2 2.6
v 0.8 2.2 2.6
v 0.9 2.2 2.6
v 1 2.2 2.6
v -1.1 2.2 2.5
v -1 2.2 2.5
v -0.9 2.2 2.5
v -0.4 2.2 2.5
v -0.3 2.2 2.5
v -0.2 2.2 2.5
v 0.2 2.2 2.5
v 0.3 2.2 2.5
v 0.4 2.2 2.5
v 0.9 2.2 2.5
v 1 2.2 2.5
v 1.1 2.2 2.5
v -0.3 2.2 2.4
v -0.2 2.2 2.4
v 0.2 2.2 2.4
v 0.3 2.2 2.4
v -1.1 2.2 2.2
v -1 2.2 2.2
v 1 2.2 2.2
v 1.1 2.2 2.2
v -0.9 2.3 2.7
v -0.8 2.3 2.7
v -0.5 2.3 2.7
v -0.4 2.3 2.7
v 0.4 2.3 2.7
v 0.5 2.3 2.7
v 0.8 2.3 2.7
v 0.9 2.3 2.7
v -1.1 2.3 2.6
v -1 2.3 2.6
v -0.9 2.3 2.6
v -0.8 2.3 2.6
v -0.5 2.3 2.6
v -0.4 2.3 2.6
v -0.3 2.3 2.6
v -0.2 2.3 2.6
v 0.2 2.3 2.6
v 0.3 2.3 2.6
v 0.4 2.3 2.6
v 0.5 2.3 2.6
v 0.8 2.3 2.6
v 0.9 2.3 2.6
v 1 2.3 2.6
v 1.1 2.3 2.6
v -1.1 2.3 2.5
v -1 2.3 2.5
v -0.3 2.3 2.5
v -0.2 2.3 2.5
v -0.1 2.3 2.5
v 0.0999999 2.3 2.5
v 0.2 2.3 2.5
v 0.3 2.3 2.5
v 1 2.3 2.5
v 1.1 2.3 2.5
v -0.2 2.3 2.4
v -0.1 2.3 2.4
v 0.0999999 2.3 2.4
v 0.2 2.3 2.4
v -1.2 2.3 2.3
v -1.1 2.3 2.3
v 1.1 2.3 2.3
v 1.2 2.3 2.3
v -1.2 2.3 2.2
v -1.1 2.3 2.2
v 1.1 2.3 2.2
v 1.2 2.3 2.2
v -0.8 2.4 2.8
v -0.5 2.4 2.8
v 0.5 2.4 2.8
v 0.8 2.4 2.8
v -1 2.4 2.7
v -0.9 2.4 2.7
v -0.8 2.4 2.7
v -0.5 2.4 2.7
v -0.4 2.4 2.7
v -0.3 2.4 2.7
v 0.3 2.4 2.7
v 0.4 2.4 2.7
v 0.5 2.4 2.7
v 0.8 2.4 2.7
v 0.9 2.4 2.7
v 1 2.4 2.7
v -1 2.4 2.6
v -0.9 2.4 2.6
v -0.4 2.4 2.6
v -0.3 2.4 2.6
v 0.3 2.4 2.6
v 0.4 2.4 2.6
v 0.9 2.4 2.6
v 1 2.4 2.6
v -1.2 2.4 2.5
v -1.1 2.4 2.5
v 1.1 2.4 2.5
v 1.2 2.4 2.5
v -1.2 2.4 2.3
v -1.1 2.4 2.3
v 1.1 2.4 2.3
v 1.2 2.4 2.3
v -0.7 2.5 2.9
v -0.6 2.5 2.9
v 0.6 2.5 2.9
v 0.7 2.5 2.9
v -0.7 2.5 2.8
v -0.6 2.5 2.8
v 0.6 2.5 2.8
v 0.7 2.5 2.8
v -1.1 2.8 2.4
v -1 2.8 2.4
v -0.3 2.8 2.4
v -0.2 2.8 2.4
v 0.2 2.8 2.4
v 0.3 2.8 2.4
v 1 2.8 2.4
v 1.1 2.8 2.4
v -1.1 2.8 2.2
v -1 2.8 2.2
v -0.3 2.8 2.2
v -0.2 2.8 2.2
v 0.2 2.8 2.2
v 0.3 2.8 2.2
v 1 2.8 2.2
v 1.1 2.8 2.2
v -1 2.9 2.4
v -0.8 2.9 2.4
v -0.4 2.9 2.4
v -0.3 2.9 2.4
v 0.3 2.9 2.4
v 0.4 2.9 2.4
v 0.8 2.9 2.4
v 1 2.9 2.4
v -1 2.9 2.2
v -0.8 2.9 2.2
v -0.4 2.9 2.2
v -0.3 2.9 2.2
v 0.3 2.9 2.2
v 0.4 2.9 2.2
v 0.8 2.9 2.2
v 1 2.9 2.2
v -0.8 3 2.4
v -0.4 3 2.4
v 0.4 3 2.4
v 0.8 3 2.4
v -0.8 3 2.2
v -0.4 3 2.2
v 0.4 3 2.2
v 0.8 3 2.2
v -0.4 1.1 6.1
v 0.4 1.1 6.1
v -0.4 1.1 5.8
v -0.3 1.1 5.8
v 0.3 1.1 5.8
v 0.4 1.1 5.8
v -0.8 1.1 5.4
v -0.5 1.1 5.4
v 0.5 1.1 5.4
v 0.8 1.1 5.4
v -0.9 1.1 5.3
v -0.8 1.1 5.3
v 0.8 1.1 5.3
v 0.9 1.1 5.3
v -0.9 1.1 5
v -0.8 1.1 5
v 0.8 1.1 5
v 0.9 1.1 5
v -0.8 1.1 4.9
v -0.5 1.1 4.9
v 0.5 1.1 4.9
v 0.8 1.1 4.9
v -0.4 1.2 5.8
v -0.3 1.2 5.8
v 0.3 1.2 5.8
v 0.4 1.2 5.8
v -0.4 1.2 5.5
v -0.3 1.2 5.5
v 0.3 1.2 5.5
v 0.4 1.2 5.5
v -0.5 1.2 5.4
v -0.4 1.2 5.4
v 0.4 1.2 5.4
v 0.5 1.2 5.4
v -0.5 1.2 5.2
v -0.4 1.2 5.2
v 0.4 1.2 5.2
v 0.5 1.2 5.2
v -0.4 1.3 5.5
v -0.3 1.3 5.5
v 0.3 1.3 5.5
v 0.4 1.3 5.5
v -0.5 1.3 5.2
v -0.4 1.3 5.2
v -0.3 1.3 5.2
v 0.3 1.3 5.2
v 0.4 1.3 5.2
v 0.5 1.3 5.2
v -0.5 1.3 5.1
v -0.4 1.3 5.1
v 0.4 1.3 5.1
v 0.5 1.3 5.1
v -0.8 1.3 4.7
v -0.5 1.3 4.7
v 0.5 1.3 4.7
v 0.8 1.3 4.7
v -0.9 1.3 4.6
v -0.8 1.3 4.6
v 0.8 1.3 4.6
v 0.9 1.3 4.6
v -0.9 1.3 4.3
v -0.8 1.3 4.3
v 0.8 1.3 4.3
v 0.9 1.3 4.3
v -0.8 1.3 4.2
v -0.5 1.3 4.2
v 0.5 1.3 4.2
v 0.8 1.3 4.2
v -0.5 1.4 5.1
v -0.4 1.4 5.1
v 0.4 1.4 5.1
v 0.5 1.4 5.1
v -0.5 1.4 4.2
v -0.4 1.4 4.2
v 0.4 1.4 4.2
v 0.5 1.4 4.2
v -0.4 1.5 5.2
v -0.3 1.5 5.2
v 0.3 1.5 5.2
v 0.4 1.5 5.2
v -0.5 1.5 4.2
v -0.4 1.5 4.2
v -0.3 1.5 4.2
v 0.3 1.5 4.2
v 0.4 1.5 4.2
v 0.5 1.5 4.2
v -0.5 1.5 4.1
v -0.4 1.5 4.1
v 0.4 1.5 4.1
v 0.5 1.5 4.1
v -0.4 1.6 4.2
v -0.3 1.6 4.2
v 0.3 1.6 4.2
v 0.4 1.6 4.2
v -0.8 1.6 4.1
v -0.5 1.6 4.1
v -0.4 1.6 4.1
v -0.3 1.6 4.1
v 0.3 1.6 4.1
v 0.4 1.6 4.1
v 0.5 1.6 4.1
v 0.8 1.6 4.1
v -0.9 1.6 4
v -0.8 1.6 4
v -0.5 1.6 4
v -0.4 1.6 4
v 0.4 1.6 4
v 0.5 1.6 4
v 0.8 1.6 4
v 0.9 1.6 4
v -0.9 1.6 3.7
v -0.8 1.6 3.7
v 0.8 1.6 3.7
v 0.9 1.6 3.7
v -0.8 1.6 3.6
v -0.5 1.6 3.6
v 0.5 1.6 3.6
v 0.8 1.6 3.6
v -0.4 1.7 4.1
v -0.3 1.7 4.1
v 0.3 1.7 4.1
v 0.4 1.7 4.1
v -0.5 1.7 4
v -0.4 1.7 4
v -0.3 1.7 4
v 0.3 1.7 4
v 0.4 1.7 4
v 0.5 1.7 4
v -0.5 1.7 3.9
v -0.4 1.7 3.9
v 0.4 1.7 3.9
v 0.5 1.7 3.9
v -0.4 1.8 4
v -0.3 1.8 4
v 0.3 1.8 4
v 0.4 1.8 4
v -0.5 1.8 3.9
v -0.4 1.8 3.9
v -0.3 1.8 3.9
v 0.3 1.8 3.9
v 0.4 1.8 3.9
v 0.5 1.8 3.9
v -0.5 1.8 3.8
v -0.4 1.8 3.8
v 0.4 1.8 3.8
v 0.5 1.8 3.8
v -0.4 1.8 2.9
v -0.3 1.8 2.9
v 0.3 1.8 2.9
v 0.4 1.8 2.9
v -0.4 1.8 2.3
v -0.3 1.8 2.3
v 0.3 1.8 2.3
v 0.4 1.8 2.3
v -0.4 1.9 3.9
v -0.3 1.9 3.9
v 0.3 1.9 3.9
v 0.4 1.9 3.9
v -0.5 1.9 3.8
v -0.4 1.9 3.8
v -0.3 1.9 3.8
v 0.3 1.9 3.8
v 0.4 1.9 3.8
v 0.5 1.9 3.8
v -0.5 1.9 3.7
v -0.4 1.9 3.7
v 0.4 1.9 3.7
v 0.5 1.9 3.7
v -0.3 1.9 2.9
v -0.2 1.9 2.9
v 0.2 1.9 2.9
v 0.3 1.9 2.9
v -0.3 1.9 2.3
v -0.2 1.9 2.3
v 0.2 1.9 2.3
v 0.3 1.9 2.3
v -0.4 2 3.8
v -0.3 2 3.8
v 0.3 2 3.8
v 0.4 2 3.8
v -0.5 2 3.7
v -0.4 2 3.7
v -0.3 2 3.7
v 0.3 2 3.7
v 0.4 2 3.7
v 0.5 2 3.7
v -0.5 2 3.6
v -0.4 2 3.6
v 0.4 2 3.6
v 0.5 2 3.6
v -0.2 2 2.9
v -0.1 2 2.9
v 0.0999999 2 2.9
v 0.2 2 2.9
v -0.2 2 2.5
v 0.2 2 2.5
v -0.2 2 2.3
v -0.1 2 2.3
v 0.0999999 2 2.3
v 0.2 2 2.3
v -0.4 2.1 3.7
v -0.3 2.1 3.7
v 0.3 2.1 3.7
v 0.4 2.1 3.7
v -0.1 2.1 3.3
v 0.0999999 2.1 3.3
v -0.3 2.1 3
v -0.1 2.1 3
v 0.0999999 2.1 3
v 0.3 2.1 3
v -0.4 2.1 2.9
v -0.1 2.1 2.9
v 0.0999999 2.1 2.9
v 0.4 2.1 2.9
v -0.3 2.1 2.5
v -0.2 2.1 2.5
v 0.2 2.1 2.5
v 0.3 2.1 2.5
v -0.9 2.1 2.4
v -0.4 2.1 2.4
v -0.3 2.1 2.4
v -0.2 2.1 2.4
v 0.2 2.1 2.4
v 0.3 2.1 2.4
v 0.4 2.1 2.4
v 0.9 2.1 2.4
v -0.9 2.1 2.2
v -0.4 2.1 2.2
v 0.4 2.1 2.2
v 0.9 2.1 2.2
v -0.1 2.2 3.3
v 0.0999999 2.2 3.3
v -0.1 2.2 3
v 0.0999999 2.2 3
v -1 2.2 2.4
v -0.9 2.2 2.4
v -0.4 2.2 2.4
v -0.3 2.2 2.4
v -0.1 2.2 2.4
v 0.0999999 2.2 2.4
v 0.3 2.2 2.4
v 0.4 2.2 2.4
v 0.9 2.2 2.4
v 1 2.2 2.4
v -1 2.2 2.2
v -0.9 2.2 2.2
v -0.4 2.2 2.2
v -0.3 2.2 2.2
v 0.3 2.2 2.2
v 0.4 2.2 2.2
v 0.9 2.2 2.2
v 1 2.2 2.2
v -0.3 2.3 2.4
v -0.2 2.3 2.4
v 0.2 2.3 2.4
v 0.3 2.3 2.4
v -0.3 2.3 2.2
v -0.2 2.3 2.2
v 0.2 2.3 2.2
v 0.3 2.3 2.2
v -1.1 2.4 2.4
v -1 2.4 2.4
v 1 2.4 2.4
v 1.1 2.4 2.4
v -1.1 2.4 2.2
v -1 2.4 2.2
v 1 2.4 2.2
v 1.1 2.4 2.2
v -0.7 2.6 2.9
v -0.6 2.6 2.9
v 0.6 2.6 2.9
v 0.7 2.6 2.9
v -0.7 2.6 2.8
v -0.6 2.6 2.8
v 0.6 2.6 2.8
v 0.7 2.6 2.8
v -0.1 2.6 2.4
v 0.0999999 2.6 2.4
v -0.1 2.6 2.2
v 0.0999999 2.6 2.2
v -0.8 2.7 2.8
v -0.5 2.7 2.8
v 0.5 2.7 2.8
v 0.8 2.7 2.8
v -1 2.7 2.7
v -0.9 2.7 2.7
v -0.8 2.7 2.7
v -0.5 2.7 2.7
v -0.4 2.7 2.7
v -0.3 2.7 2.7
v 0.3 2.7 2.7
v 0.4 2.7 2.7
v 0.5 2.7 2.7
v 0.8 2.7 2.7
v 0.9 2.7 2.7
v 1 2.7 2.7
v -1 2.7 2.6
v -0.9 2.7 2.6
v -0.4 2.7 2.6
v -0.3 2.7 2.6
v 0.3 2.7 2.6
v 0.4 2.7 2.6
v 0.9 2.7 2.6
v 1 2.7 2.6
v -0.9 2.8 2.7
v -0.8 2.8 2.7
v -0.5 2.8 2.7
v -0.4 2.8 2.7
v 0.4 2.8 2.7
v 0.5 2.8 2.7
v 0.8 2.8 2.7
v 0.9 2.8 2.7
v -1.1 2.8 2.6
v -1 2.8 2.6
v -0.9 2.8 2.6
v -0.8 2.8 2.6
v -0.5 2.8 2.6
v -0.4 2.8 2.6
v -0.3 2.8 2.6
v -0.2 2.8 2.6
v 0.2 2.8 2.6
v 0.3 2.8 2.6
v 0.4 2.8 2.6
v 0.5 2.8 2.6
v 0.8 2.8 2.6
v 0.9 2.8 2.6
v 1 2.8 2.6
v 1.1 2.8 2.6
v -1.2 2.8 2.5
v -1.1 2.8 2.5
v -1 2.8 2.5
v -0.3 2.8 2.5
v -0.2 2.8 2.5
v -0.1 2.8 2.5
v 0.0999999 2.8 2.5
v 0.2 2.8 2.5
v 0.3 2.8 2.5
v 1 2.8 2.5
v 1.1 2.8 2.5
v 1.2 2.8 2.5
v -1.2 2.8 2.2
v -1.1 2.8 2.2
v -0.2 2.8 2.2
v -0.1 2.8 2.2
v 0.0999999 2.8 2.2
v 0.2 2.8 2.2
v 1.1 2.8 2.2
v 1.2 2.8 2.2
v -0.8 2.9 2.7
v -0.5 2.9 2.7
v 0.5 2.9 2.7
v 0.8 2.9 2.7
v -1 2.9 2.6
v -0.9 2.9 2.6
v -0.8 2.9 2.6
v -0.5 2.9 2.6
v -0.4 2.9 2.6
v -0.3 2.9 2.6
v 0.3 2.9 2.6
v 0.4 2.9 2.6
v 0.5 2.9 2.6
v 0.8 2.9 2.6
v 0.9 2.9 2.6
v 1 2.9 2.6
v -1.1 2.9 2.5
v -1 2.9 2.5
v -0.9 2.9 2.5
v -0.4 2.9 2.5
v -0.3 2.9 2.5
v -0.2 2.9 2.5
v 0.2 2.9 2.5
v 0.3 2.9 2.5
v 0.4 2.9 2.5
v 0.9 2.9 2.5
v 1 2.9 2.5
v 1.1 2.9 2.5
v -1.1 2.9 2.2
v -1 2.9 2.2
v -0.3 2.9 2.2
v -0.2 2.9 2.2
v 0.2 2.9 2.2
v 0.3 2.9 2.2
v 1 2.9 2.2
v 1.1 2.9 2.2
v -0.9 3 2.6
v -0.4 3 2.6
v 0.4 3 2.6
v 0.9 3 2.6
v -1 3 2.5
v -0.9 3 2.5
v -0.4 3 2.5
v -0.3 3 2.5
v 0.3 3 2.5
v 0.4 3 2.5
v 0.9 3 2.5
v 1 3 2.5
v -1 3 2.2
v -0.9 3 2.2
v -0.4 3 2.2
v -0.3 3 2.2
v 0.3 3 2.2
v 0.4 3 2.2
v 0.9 3 2.2
v 1 3 2.2
v -0.9 3.1 2.5
v -0.4 3.1 2.5
v 0.4 3.1 2.5
v 0.9 3.1 2.5
v -0.9 3.1 2.2
v -0.4 3.1 2.2
v 0.4 3.1 2.2
v 0.9 3.1 2.2

# faces
f 4/5/1 2/5/1 1/5/1
f 5/5/1 4/5/1 3/5/1
f 6/5/1 2/5/1 4/5/1
f 6/5/1 4/5/1 5/5/1
f 10/5/1 8/5/1 7/5/1
f 11/5/1 8/5/1 10/5/1
f 12/5/1 8/5/1 11/5/1
f 13/5/1 10/5/1 9/5/1
f 13/5/1 11/5/1 10/5/1
f 14/5/1 11/5/1 13/5/1
f 15/5/1 13/5/1 9/5/1
f 16/5/1 13/5/1 15/5/1
f 18/5/1 17/5/1 16/5/1
f 19/5/1 17/5/1 18/5/1
f 23/5/1 21/5/1 20/5/1
f 24/5/1 21/5/1 23/5/1
f 25/5/1 23/5/1 22/5/1
f 26/5/1 23/5/1 25/5/1
f 29/5/1 28/5/1 27/5/1
f 30/5/1 28/5/1 29/5/1
f 33/5/1 32/5/1 31/5/1
f 34/5/1 32/5/1 33/5/1
f 36/5/1 35/5/1 34/5/1
f 37/5/1 35/5/1 36/5/1
f 42/4/1 39/4/1 38/4/1
f 43/4/1 39/4/1 42/4/1
f 46/1/1 43/1/1 42/1/1
f 47/1/1 43/1/1 46/1/1
f 48/4/1 41/4/1 40/4/1
f 49/4/1 41/4/1 48/4/1
f 50/1/1 49/1/1 48/1/1
f 51/1/1 49/1/1 50/1/1
f 52/4/1 45/4/1 44/4/1
f 53/4/1 45/4/1 52/4/1
f 54/1/1 53/1/1 52/1/1
f 55/1/1 53/1/1 54/1/1
f 59/5/1 57/5/1 56/5/1
f 60/5/1 57/5/1 59/5/1
f 61/5/1 59/5/1 58/5/1
f 62/5/1 59/5/1 61/5/1
f 65/5/1 64/5/1 63/5/1
f 66/5/1 64/5/1 65/5/1
f 69/5/1 68/5/1 67/5/1
f 70/5/1 68/5/1 69/5/1
f 73/5/1 72/5/1 71/5/1
f 74/5/1 72/5/1 73/5/1
f 76/5/1 75/5/1 74/5/1
f 77/5/1 75/5/1 76/5/1
f 86/4/1 79/4/1 78/4/1
f 87/4/1 79/4/1 86/4/1
f 88/4/1 81/4/1 80/4/1
f 89/4/1 81/4/1 88/4/1
f 94/1/1 87/1/1 86/1/1
f 95/1/1 87/1/1 94/1/1
f 96/1/1 89/1/1 88/1/1
f 97/1/1 89/1/1 96/1/1
f 98/4/1 83/4/1 82/4/1
f 99/4/1 83/4/1 98/4/1
f 100/4/1 85/4/1 84/4/1
f 101/4/1 85/4/1 100/4/1
f 102/1/1 99/1/1 98/1/1
f 103/1/1 99/1/1 102/1/1
f 104/1/1 101/1/1 100/1/1
f 105/1/1 101/1/1 104/1/1
f 106/4/1 91/4/1 90/4/1
f 107/4/1 91/4/1 106/4/1
f 108/4/1 93/4/1 92/4/1
f 109/4/1 93/4/1 108/4/1
f 110/1/1 107/1/1 106/1/1
f 111/1/1 107/1/1 110/1/1
f 112/1/1 109/1/1 108/1/1
f 113/1/1 109/1/1 112/1/1
f 116/5/1 115/5/1 114/5/1
f 117/5/1 115/5/1 116/5/1
f 120/5/1 119/5/1 118/5/1
f 121/5/1 119/5/1 120/5/1
f 124/5/1 123/5/1 122/5/1
f 125/5/1 123/5/1 124/5/1
f 128/5/1 127/5/1 126/5/1
f 129/5/1 127/5/1 128/5/1
f 133/3/1 131/3/1 130/3/1
f 134/3/1 131/3/1 133/3/1
f 137/3/1 133/3/1 132/3/1
f 137/3/1 135/3/1 134/3/1
f 137/3/1 134/3/1 133/3/1
f 138/3/1 135/3/1 137/3/1
f 138/3/1 137/3/1 136/3/1
f 140/3/1 138/3/1 136/3/1
f 140/3/1 139/3/1 138/3/1
f 141/3/1 139/3/1 140/3/1
f 142/3/1 139/3/1 141/3/1
f 144/3/1 143/3/1 142/3/1
f 144/3/1 142/3/1 141/3/1
f 145/3/1 143/3/1 144/3/1
f 146/3/1 144/3/1 141/3/1
f 147/3/1 143/3/1 145/3/1
f 148/3/1 143/3/1 147/3/1
f 150/3/1 144/3/1 146/3/1
f 151/3/1 150/3/1 149/3/1
f 152/3/1 150/3/1 151/3/1
f 153/3/1 144/3/1 150/3/1
f 153/3/1 150/3/1 152/3/1
f 154/3/1 147/3/1 145/3/1
f 155/3/1 153/3/1 152/3/1
f 156/3/1 153/3/1 155/3/1
f 157/3/1 153/3/1 156/3/1
f 158/3/1 147/3/1 154/3/1
f 159/3/1 157/3/1 156/3/1
f 159/3/1 158/3/1 157/3/1
f 160/3/1 147/3/1 158/3/1
f 160/3/1 158/3/1 159/3/1
f 161/3/1 147/3/1 160/3/1
f 162/3/1 147/3/1 161/3/1
f 165/3/1 164/3/1 163/3/1
f 166/3/1 164/3/1 165/3/1
f 169/3/1 164/3/1 166/3/1
f 170/3/1 164/3/1 169/3/1
f 171/3/1 164/3/1 170/3/1
f 172/3/1 164/3/1 171/3/1
f 173/3/1 164/3/1 172/3/1
f 174/3/1 164/3/1 173/3/1
f 175/5/1 168/5/1 167/5/1
f 176/5/1 168/5/1 175/5/1
f 180/6/1 178/6/1 177/6/1
f 181/6/1 178/6/1 180/6/1
f 183/6/1 180/6/1 179/6/1
f 184/6/1 180/6/1 183/6/1
f 185/6/1 178/6/1 181/6/1
f 186/6/1 178/6/1 185/6/1
f 188/6/1 183/6/1 182/6/1
f 189/6/1 183/6/1 188/6/1
f 190/6/1 183/6/1 189/6/1
f 191/6/1 187/6/1 186/6/1
f 192/6/1 187/6/1 191/6/1
f 194/6/1 193/6/1 192/6/1
f 195/6/1 193/6/1 194/6/1
f 197/6/1 196/6/1 195/6/1
f 198/6/1 196/6/1 197/6/1
f 200/2/1 198/2/1 197/2/1
f 200/6/1 199/6/1 198/6/1
f 201/6/1 199/6/1 200/6/1
f 203/2/1 201/2/1 200/2/1
f 203/6/1 202/6/1 201/6/1
f 204/6/1 202/6/1 203/6/1
f 206/2/1 189/2/1 188/2/1
f 206/6/1 188/6/1 182/6/1
f 207/2/1 189/2/1 206/2/1
f 208/6/1 205/6/1 204/6/1
f 208/2/1 204/2/1 203/2/1
f 209/6/1 205/6/1 208/6/1
f 211/6/1 207/6/1 206/6/1
f 211/6/1 206/6/1 182/6/1
f 212/2/1 189/2/1 207/2/1
f 212/6/1 207/6/1 211/6/1
f 213/2/1 189/2/1 212/2/1
f 214/6/1 210/6/1 209/6/1
f 214/2/1 209/2/1 208/2/1
f 215/6/1 210/6/1 214/6/1
f 217/6/1 213/6/1 212/6/1
f 218/2/1 189/2/1 213/2/1
f 218/6/1 213/6/1 217/6/1
f 219/2/1 189/2/1 218/2/1
f 221/6/1 216/6/1 215/6/1
f 221/2/1 215/2/1 214/2/1
f 222/6/1 216/6/1 221/6/1
f 224/6/1 220/6/1 219/6/1
f 224/6/1 219/6/1 218/6/1
f 225/6/1 220/6/1 224/6/1
f 227/6/1 226/6/1 225/6/1
f 229/6/1 223/6/1 222/6/1
f 231/6/1 228/6/1 227/6/1
f 231/6/1 227/6/1 225/6/1
f 232/6/1 228/6/1 231/6/1
f 234/6/1 233/6/1 232/6/1
f 235/6/1 233/6/1 234/6/1
f 237/6/1 236/6/1 235/6/1
f 238/6/1 236/6/1 237/6/1
f 240/5/1 230/5/1 229/5/1
f 241/5/1 230/5/1 240/5/1
f 242/6/1 239/6/1 238/6/1
f 243/6/1 239/6/1 242/6/1
f 245/6/1 229/6/1 222/6/1
f 245/5/1 240/5/1 229/5/1
f 246/5/1 240/5/1 245/5/1
f 247/6/1 244/6/1 243/6/1
f 248/6/1 244/6/1 247/6/1
f 250/6/1 249/6/1 248/6/1
f 251/6/1 249/6/1 250/6/1
f 252/2/1 200/2/1 197/2/1
f 252/2/1 203/2/1 200/2/1
f 252/2/1 208/2/1 203/2/1
f 252/2/1 222/2/1 221/2/1
f 252/2/1 214/2/1 208/2/1
f 252/2/1 221/2/1 214/2/1
f 253/6/1 245/6/1 222/6/1
f 253/2/1 222/2/1 252/2/1
f 254/6/1 252/6/1 251/6/1
f 254/6/1 253/6/1 252/6/1
f 255/6/1 245/6/1 253/6/1
f 255/6/1 253/6/1 254/6/1
f 258/5/1 257/5/1 256/5/1
f 259/5/1 257/5/1 258/5/1
f 262/5/1 261/5/1 260/5/1
f 263/5/1 261/5/1 262/5/1
f 266/6/1 265/6/1 264/6/1
f 267/6/1 265/6/1 266/6/1
f 269/2/1 267/2/1 266/2/1
f 269/2/1 268/2/1 267/2/1
f 270/2/1 268/2/1 269/2/1
f 271/2/1 268/2/1 270/2/1
f 273/2/1 271/2/1 270/2/1
f 273/2/1 272/2/1 271/2/1
f 274/2/1 272/2/1 273/2/1
f 275/2/1 272/2/1 274/2/1
f 277/2/1 276/2/1 275/2/1
f 277/2/1 275/2/1 274/2/1
f 278/2/1 276/2/1 277/2/1
f 279/2/1 276/2/1 278/2/1
f 281/2/1 280/2/1 279/2/1
f 281/2/1 279/2/1 278/2/1
f 282/2/1 280/2/1 281/2/1
f 283/2/1 280/2/1 282/2/1
f 285/2/1 283/2/1 282/2/1
f 285/2/1 284/2/1 283/2/1
f 286/2/1 284/2/1 285/2/1
f 287/2/1 284/2/1 286/2/1
f 289/2/1 288/2/1 287/2/1
f 289/2/1 287/2/1 286/2/1
f 290/2/1 288/2/1 289/2/1
f 291/2/1 288/2/1 290/2/1
f 293/2/1 292/2/1 291/2/1
f 293/2/1 291/2/1 290/2/1
f 294/2/1 292/2/1 293/2/1
f 295/2/1 292/2/1 294/2/1
f 297/2/1 296/2/1 295/2/1
f 297/2/1 295/2/1 294/2/1
f 298/2/1 296/2/1 297/2/1
f 299/2/1 296/2/1 298/2/1
f 300/2/1 296/2/1 299/2/1
f 303/5/1 302/5/1 301/5/1
f 304/5/1 302/5/1 303/5/1
f 307/5/1 306/5/1 305/5/1
f 308/5/1 306/5/1 307/5/1
f 311/5/1 310/5/1 309/5/1
f 312/5/1 310/5/1 311/5/1
f 315/5/1 314/5/1 313/5/1
f 316/5/1 314/5/1 315/5/1
f 319/5/1 318/5/1 317/5/1
f 320/5/1 318/5/1 319/5/1
f 323/6/1 322/6/1 321/6/1
f 324/6/1 322/6/1 323/6/1
f 327/5/1 326/5/1 325/5/1
f 328/5/1 326/5/1 327/5/1
f 329/5/1 326/5/1 328/5/1
f 332/5/1 331/5/1 330/5/1
f 333/5/1 331/5/1 332/5/1
f 338/5/1 335/5/1 334/5/1
f 339/5/1 335/5/1 338/5/1
f 340/5/1 335/5/1 339/5/1
f 341/2/1 337/2/1 336/2/1
f 342/6/1 338/6/1 337/6/1
f 342/2/1 337/2/1 341/2/1
f 342/6/1 339/6/1 338/6/1
f 343/6/1 339/6/1 342/6/1
f 346/5/1 345/5/1 344/5/1
f 348/5/1 346/5/1 344/5/1
f 348/5/1 347/5/1 346/5/1
f 349/5/1 347/5/1 348/5/1
f 352/5/1 351/5/1 350/5/1
f 353/5/1 351/5/1 352/5/1
f 354/5/1 351/5/1 353/5/1
f 358/5/1 356/5/1 355/5/1
f 359/5/1 356/5/1 358/5/1
f 360/5/1 358/5/1 357/5/1
f 361/5/1 358/5/1 360/5/1
f 363/5/1 362/5/1 361/5/1
f 364/5/1 362/5/1 363/5/1
f 368/5/1 366/5/1 365/5/1
f 369/5/1 366/5/1 368/5/1
f 370/5/1 368/5/1 367/5/1
f 371/5/1 368/5/1 370/5/1
f 374/5/1 373/5/1 372/5/1
f 375/5/1 373/5/1 374/5/1
f 378/5/1 377/5/1 376/5/1
f 379/5/1 377/5/1 378/5/1
f 381/5/1 380/5/1 379/5/1
f 382/5/1 380/5/1 381/5/1
f 386/5/1 384/5/1 383/5/1
f 387/5/1 384/5/1 386/5/1
f 388/5/1 386/5/1 385/5/1
f 389/5/1 386/5/1 388/5/1
f 392/5/1 391/5/1 390/5/1
f 393/5/1 391/5/1 392/5/1
f 396/5/1 395/5/1 394/5/1
f 397/5/1 395/5/1 396/5/1
f 400/5/1 399/5/1 398/5/1
f 401/5/1 399/5/1 400/5/1
f 403/5/1 402/5/1 401/5/1
f 404/5/1 402/5/1 403/5/1
f 407/5/1 406/5/1 405/5/1
f 408/5/1 406/5/1 407/5/1
f 411/5/1 410/5/1 409/5/1
f 412/5/1 410/5/1 411/5/1
f 415/5/1 414/5/1 413/5/1
f 416/5/1 414/5/1 415/5/1
f 419/5/1 418/5/1 417/5/1
f 420/5/1 418/5/1 419/5/1
f 423/5/1 422/5/1 421/5/1
f 424/5/1 422/5/1 423/5/1
f 427/5/1 426/5/1 425/5/1
f 428/5/1 426/5/1 427/5/1
f 431/5/1 430/5/1 429/5/1
f 432/5/1 430/5/1 431/5/1
f 435/5/1 434/5/1 433/5/1
f 436/5/1 434/5/1 435/5/1
f 439/5/1 438/5/1 437/5/1
f 440/5/1 438/5/1 439/5/1
f 441/5/2 442/5/2 443/5/2
f 443/5/2 442/5/2 444/5/2
f 445/5/2 446/5/2 447/5/2
f 447/5/2 446/5/2 448/5/2
f 449/5/2 450/5/2 451/5/2
f 451/5/2 450/5/2 452/5/2
f 453/5/2 454/5/2 455/5/2
f 455/5/2 454/5/2 456/5/2
f 457/5/2 458/5/2 459/5/2
f 459/5/2 458/5/2 460/5/2
f 461/5/2 462/5/2 463/5/2
f 463/5/2 462/5/2 464/5/2
f 465/5/2 466/5/2 467/5/2
f 467/5/2 466/5/2 468/5/2
f 469/5/2 470/5/2 471/5/2
f 471/5/2 470/5/2 472/5/2
f 473/5/2 474/5/2 475/5/2
f 475/5/2 474/5/2 476/5/2
f 477/5/2 478/5/2 480/5/2
f 480/5/2 478/5/2 481/5/2
f 479/5/2 480/5/2 482/5/2
f 482/5/2 480/5/2 483/5/2
f 484/5/2 485/5/2 486/5/2
f 486/5/2 485/5/2 487/5/2
f 488/5/2 489/5/2 490/5/2
f 490/5/2 489/5/2 491/5/2
f 492/5/2 493/5/2 494/5/2
f 494/5/2 493/5/2 495/5/2
f 495/5/2 496/5/2 497/5/2
f 497/5/2 496/5/2 498/5/2
f 499/5/2 500/5/2 502/5/2
f 502/5/2 500/5/2 503/5/2
f 501/5/2 502/5/2 504/5/2
f 504/5/2 502/5/2 505/5/2
f 506/5/2 507/5/2 508/5/2
f 508/5/2 507/5/2 509/5/2
f 510/5/2 511/5/2 512/5/2
f 512/5/2 511/5/2 513/5/2
f 513/5/2 514/5/2 515/5/2
f 515/5/2 514/5/2 516/5/2
f 517/5/2 518/5/2 519/5/2
f 519/5/2 518/5/2 520/5/2
f 520/5/2 518/5/2 521/5/2
f 522/5/2 523/5/2 525/5/2
f 525/5/2 523/5/2 526/5/2
f 524/5/2 525/5/2 527/5/2
f 527/5/2 525/5/2 528/5/2
f 528/5/2 529/5/2 530/5/2
f 530/5/2 529/5/2 531/5/2
f 532/5/2 533/5/2 534/5/2
f 532/5/2 534/5/2 536/5/2
f 534/5/2 535/5/2 536/5/2
f 536/5/2 535/5/2 537/5/2
f 538/5/2 539/5/2 542/5/2
f 542/5/2 539/5/2 543/5/2
f 543/5/2 539/5/2 544/5/2
f 540/2/2 541/2/2 545/2/2
f 541/6/2 542/6/2 546/6/2
f 545/2/2 541/2/2 546/2/2
f 542/6/2 543/6/2 546/6/2
f 546/6/2 543/6/2 547/6/2
f 548/6/2 549/6/2 550/6/2
f 550/6/2 549/6/2 551/6/2
f 552/5/2 553/5/2 554/5/2
f 554/5/2 553/5/2 555/5/2
f 555/5/2 553/5/2 556/5/2
f 557/5/2 558/5/2 559/5/2
f 559/5/2 558/5/2 560/5/2
f 561/6/2 562/6/2 563/6/2
f 563/6/2 562/6/2 564/6/2
f 563/2/2 564/2/2 566/2/2
f 564/2/2 565/2/2 566/2/2
f 566/2/2 565/2/2 567/2/2
f 567/2/2 565/2/2 568/2/2
f 567/2/2 568/2/2 570/2/2
f 568/2/2 569/2/2 570/2/2
f 570/2/2 569/2/2 571/2/2
f 571/2/2 569/2/2 572/2/2
f 572/2/2 573/2/2 574/2/2
f 571/2/2 572/2/2 574/2/2
f 574/2/2 573/2/2 575/2/2
f 575/2/2 573/2/2 576/2/2
f 576/2/2 577/2/2 578/2/2
f 575/2/2 576/2/2 578/2/2
f 578/2/2 577/2/2 579/2/2
f 579/2/2 577/2/2 580/2/2
f 579/2/2 580/2/2 582/2/2
f 580/2/2 581/2/2 582/2/2
f 582/2/2 581/2/2 583/2/2
f 583/2/2 581/2/2 584/2/2
f 584/2/2 585/2/2 586/2/2
f 583/2/2 584/2/2 586/2/2
f 586/2/2 585/2/2 587/2/2
f 587/2/2 585/2/2 588/2/2
f 588/2/2 589/2/2 590/2/2
f 587/2/2 588/2/2 590/2/2
f 590/2/2 589/2/2 591/2/2
f 591/2/2 589/2/2 592/2/2
f 592/2/2 593/2/2 594/2/2
f 591/2/2 592/2/2 594/2/2
f 594/2/2 593/2/2 595/2/2
f 595/2/2 593/2/2 596/2/2
f 596/2/2 593/2/2 597/2/2
f 598/5/2 599/5/2 600/5/2
f 600/5/2 599/5/2 601/5/2
f 602/5/2 603/5/2 604/5/2
f 604/5/2 603/5/2 605/5/2
f 606/5/2 607/5/2 608/5/2
f 608/5/2 607/5/2 609/5/2
f 610/5/2 611/5/2 612/5/2
f 612/5/2 611/5/2 613/5/2
f 614/5/2 615/5/2 616/5/2
f 616/5/2 615/5/2 617/5/2
f 618/6/2 619/6/2 621/6/2
f 621/6/2 619/6/2 622/6/2
f 620/6/2 621/6/2 624/6/2
f 624/6/2 621/6/2 625/6/2
f 622/6/2 619/6/2 626/6/2
f 626/6/2 619/6/2 627/6/2
f 623/6/2 624/6/2 629/6/2
f 629/6/2 624/6/2 630/6/2
f 630/6/2 624/6/2 631/6/2
f 627/6/2 628/6/2 632/6/2
f 632/6/2 628/6/2 633/6/2
f 633/6/2 634/6/2 635/6/2
f 635/6/2 634/6/2 636/6/2
f 636/6/2 637/6/2 638/6/2
f 638/6/2 637/6/2 639/6/2
f 638/2/2 639/2/2 641/2/2
f 639/6/2 640/6/2 641/6/2
f 641/6/2 640/6/2 642/6/2
f 641/2/2 642/2/2 644/2/2
f 642/6/2 643/6/2 644/6/2
f 644/6/2 643/6/2 645/6/2
f 629/2/2 630/2/2 647/2/2
f 623/6/2 629/6/2 647/6/2
f 647/2/2 630/2/2 648/2/2
f 645/6/2 646/6/2 649/6/2
f 644/2/2 645/2/2 649/2/2
f 649/6/2 646/6/2 650/6/2
f 647/6/2 648/6/2 652/6/2
f 623/6/2 647/6/2 652/6/2
f 648/2/2 630/2/2 653/2/2
f 652/6/2 648/6/2 653/6/2
f 653/2/2 630/2/2 654/2/2
f 650/6/2 651/6/2 655/6/2
f 649/2/2 650/2/2 655/2/2
f 655/6/2 651/6/2 656/6/2
f 653/6/2 654/6/2 658/6/2
f 654/2/2 630/2/2 659/2/2
f 658/6/2 654/6/2 659/6/2
f 659/2/2 630/2/2 660/2/2
f 656/6/2 657/6/2 662/6/2
f 655/2/2 656/2/2 662/2/2
f 662/6/2 657/6/2 663/6/2
f 660/6/2 661/6/2 665/6/2
f 659/6/2 660/6/2 665/6/2
f 665/6/2 661/6/2 666/6/2
f 666/6/2 667/6/2 668/6/2
f 663/6/2 664/6/2 670/6/2
f 668/6/2 669/6/2 672/6/2
f 666/6/2 668/6/2 672/6/2
f 672/6/2 669/6/2 673/6/2
f 673/6/2 674/6/2 675/6/2
f 675/6/2 674/6/2 676/6/2
f 676/6/2 677/6/2 678/6/2
f 678/6/2 677/6/2 679/6/2
f 670/5/2 671/5/2 681/5/2
f 681/5/2 671/5/2 682/5/2
f 679/6/2 680/6/2 683/6/2
f 683/6/2 680/6/2 684/6/2
f 663/6/2 670/6/2 686/6/2
f 670/5/2 681/5/2 686/5/2
f 686/5/2 681/5/2 687/5/2
f 684/6/2 685/6/2 688/6/2
f 688/6/2 685/6/2 689/6/2
f 689/6/2 690/6/2 691/6/2
f 691/6/2 690/6/2 692/6/2
f 638/2/2 641/2/2 693/2/2
f 641/2/2 644/2/2 693/2/2
f 644/2/2 649/2/2 693/2/2
f 662/2/2 663/2/2 693/2/2
f 649/2/2 655/2/2 693/2/2
f 655/2/2 662/2/2 693/2/2
f 663/6/2 686/6/2 694/6/2
f 693/2/2 663/2/2 694/2/2
f 692/6/2 693/6/2 695/6/2
f 693/6/2 694/6/2 695/6/2
f 694/6/2 686/6/2 696/6/2
f 695/6/2 694/6/2 696/6/2
f 697/5/2 698/5/2 699/5/2
f 699/5/2 698/5/2 700/5/2
f 701/5/2 702/5/2 703/5/2
f 703/5/2 702/5/2 704/5/2
f 705/3/2 706/3/2 708/3/2
f 708/3/2 706/3/2 709/3/2
f 707/3/2 708/3/2 712/3/2
f 709/3/2 710/3/2 712/3/2
f 708/3/2 709/3/2 712/3/2
f 712/3/2 710/3/2 713/3/2
f 711/3/2 712/3/2 713/3/2
f 711/3/2 713/3/2 715/3/2
f 713/3/2 714/3/2 715/3/2
f 715/3/2 714/3/2 716/3/2
f 716/3/2 714/3/2 717/3/2
f 717/3/2 718/3/2 719/3/2
f 716/3/2 717/3/2 719/3/2
f 719/3/2 718/3/2 720/3/2
f 716/3/2 719/3/2 721/3/2
f 720/3/2 718/3/2 722/3/2
f 722/3/2 718/3/2 723/3/2
f 721/3/2 719/3/2 725/3/2
f 724/3/2 725/3/2 726/3/2
f 726/3/2 725/3/2 727/3/2
f 725/3/2 719/3/2 728/3/2
f 727/3/2 725/3/2 728/3/2
f 720/3/2 722/3/2 729/3/2
f 727/3/2 728/3/2 730/3/2
f 730/3/2 728/3/2 731/3/2
f 731/3/2 728/3/2 732/3/2
f 729/3/2 722/3/2 733/3/2
f 731/3/2 732/3/2 734/3/2
f 732/3/2 733/3/2 734/3/2
f 733/3/2 722/3/2 735/3/2
f 734/3/2 733/3/2 735/3/2
f 735/3/2 722/3/2 736/3/2
f 736/3/2 722/3/2 737/3/2
f 738/3/2 739/3/2 740/3/2
f 740/3/2 739/3/2 741/3/2
f 741/3/2 739/3/2 744/3/2
f 744/3/2 739/3/2 745/3/2
f 745/3/2 739/3/2 746/3/2
f 746/3/2 739/3/2 747/3/2
f 747/3/2 739/3/2 748/3/2
f 748/3/2 739/3/2 749/3/2
f 742/5/2 743/5/2 750/5/2
f 750/5/2 743/5/2 751/5/2
f 752/5/2 753/5/2 754/5/2
f 754/5/2 753/5/2 755/5/2
f 756/4/2 757/4/2 764/4/2
f 764/4/2 757/4/2 765/4/2
f 758/4/2 759/4/2 766/4/2
f 766/4/2 759/4/2 767/4/2
f 764/1/2 765/1/2 772/1/2
f 772/1/2 765/1/2 773/1/2
f 766/1/2 767/1/2 774/1/2
f 774/1/2 767/1/2 775/1/2
f 760/4/2 761/4/2 776/4/2
f 776/4/2 761/4/2 777/4/2
f 762/4/2 763/4/2 778/4/2
f 778/4/2 763/4/2 779/4/2
f 776/1/2 777/1/2 780/1/2
f 780/1/2 777/1/2 781/1/2
f 778/1/2 779/1/2 782/1/2
f 782/1/2 779/1/2 783/1/2
f 768/4/2 769/4/2 784/4/2
f 784/4/2 769/4/2 785/4/2
f 770/4/2 771/4/2 786/4/2
f 786/4/2 771/4/2 787/4/2
f 784/1/2 785/1/2 788/1/2
f 788/1/2 785/1/2 789/1/2
f 786/1/2 787/1/2 790/1/2
f 790/1/2 787/1/2 791/1/2
f 792/5/2 793/5/2 794/5/2
f 794/5/2 793/5/2 795/5/2
f 796/5/2 797/5/2 798/5/2
f 798/5/2 797/5/2 799/5/2
f 800/5/2 801/5/2 802/5/2
f 802/5/2 801/5/2 803/5/2
f 804/4/2 805/4/2 808/4/2
f 808/4/2 805/4/2 809/4/2
f 808/1/2 809/1/2 812/1/2
f 812/1/2 809/1/2 813/1/2
f 806/4/2 807/4/2 814/4/2
f 814/4/2 807/4/2 815/4/2
f 814/1/2 815/1/2 816/1/2
f 816/1/2 815/1/2 817/1/2
f 810/4/2 811/4/2 818/4/2
f 818/4/2 811/4/2 819/4/2
f 818/1/2 819/1/2 820/1/2
f 820/1/2 819/1/2 821/1/2
f 822/5/2 823/5/2 825/5/2
f 825/5/2 823/5/2 826/5/2
f 824/5/2 825/5/2 827/5/2
f 827/5/2 825/5/2 828/5/2
f 829/5/2 830/5/2 831/5/2
f 831/5/2 830/5/2 832/5/2
f 833/5/2 834/5/2 835/5/2
f 835/5/2 834/5/2 836/5/2
f 837/5/2 838/5/2 839/5/2
f 839/5/2 838/5/2 840/5/2
f 840/5/2 841/5/2 842/5/2
f 842/5/2 841/5/2 843/5/2
f 844/5/2 845/5/2 847/5/2
f 847/5/2 845/5/2 848/5/2
f 846/5/2 847/5/2 849/5/2
f 849/5/2 847/5/2 850/5/2
f 851/5/2 852/5/2 853/5/2
f 853/5/2 852/5/2 854/5/2
f 855/5/2 856/5/2 857/5/2
f 857/5/2 856/5/2 858/5/2
f 858/5/2 859/5/2 860/5/2
f 860/5/2 859/5/2 861/5/2
f 862/5/2 863/5/2 865/5/2
f 865/5/2 863/5/2 866/5/2
f 866/5/2 863/5/2 867/5/2
f 864/5/2 865/5/2 868/5/2
f 865/5/2 866/5/2 868/5/2
f 868/5/2 866/5/2 869/5/2
f 864/5/2 868/5/2 870/5/2
f 870/5/2 868/5/2 871/5/2
f 871/5/2 872/5/2 873/5/2
f 873/5/2 872/5/2 874/5/2
f 875/5/2 876/5/2 878/5/2
f 877/5/2 878/5/2 879/5/2
f 878/5/2 876/5/2 880/5/2
f 879/5/2 878/5/2 880/5/2
f 883/6/3 882/6/3 881/6/3
f 884/6/3 882/6/3 883/6/3
f 887/6/3 886/6/3 885/6/3
f 888/6/3 886/6/3 887/6/3
f 889/2/3 888/2/3 887/2/3
f 890/2/3 888/2/3 889/2/3
f 891/6/3 890/6/3 889/6/3
f 892/6/3 890/6/3 891/6/3
f 895/6/3 894/6/3 893/6/3
f 896/6/3 894/6/3 895/6/3
f 897/2/3 896/2/3 895/2/3
f 898/2/3 896/2/3 897/2/3
f 899/6/3 898/6/3 897/6/3
f 900/6/3 898/6/3 899/6/3
f 905/4/3 902/4/3 901/4/3
f 906/1/3 903/1/3 902/1/3
f 906/4/3 902/4/3 905/4/3
f 907/1/3 903/1/3 906/1/3
f 909/3/3 905/3/3 904/3/3
f 909/3/3 908/3/3 907/3/3
f 909/3/3 907/3/3 906/3/3
f 909/3/3 906/3/3 905/3/3
f 910/3/3 908/3/3 909/3/3
f 913/3/3 912/3/3 911/3/3
f 914/3/3 912/3/3 913/3/3
f 915/3/3 912/3/3 914/3/3
f 916/3/3 912/3/3 915/3/3
f 917/3/3 912/3/3 916/3/3
f 918/4/3 915/4/3 914/4/3
f 919/1/3 916/1/3 915/1/3
f 919/4/3 915/4/3 918/4/3
f 920/1/3 916/1/3 919/1/3
f 924/4/3 922/4/3 921/4/3
f 925/1/3 923/1/3 922/1/3
f 925/4/3 922/4/3 924/4/3
f 926/1/3 923/1/3 925/1/3
f 930/4/3 928/4/3 927/4/3
f 931/1/3 929/1/3 928/1/3
f 931/4/3 928/4/3 930/4/3
f 932/1/3 929/1/3 931/1/3
f 935/3/3 934/3/3 933/3/3
f 936/3/3 934/3/3 935/3/3
f 938/6/3 937/6/3 936/6/3
f 939/6/3 937/6/3 938/6/3
f 940/2/3 939/2/3 938/2/3
f 941/2/3 939/2/3 940/2/3
f 943/6/3 941/6/3 940/6/3
f 944/6/3 941/6/3 943/6/3
f 945/3/3 943/3/3 942/3/3
f 946/3/3 943/3/3 945/3/3
f 949/3/3 948/3/3 947/3/3
f 950/3/3 948/3/3 949/3/3
f 953/3/3 952/3/3 951/3/3
f 954/3/3 952/3/3 953/3/3
f 960/4/3 956/4/3 955/4/3
f 961/1/3 957/1/3 956/1/3
f 961/4/3 956/4/3 960/4/3
f 962/1/3 957/1/3 961/1/3
f 964/3/3 959/3/3 958/3/3
f 965/3/3 959/3/3 964/3/3
f 966/6/3 964/6/3 963/6/3
f 967/6/3 964/6/3 966/6/3
f 968/2/3 967/2/3 966/2/3
f 969/2/3 967/2/3 968/2/3
f 970/6/3 969/6/3 968/6/3
f 971/6/3 969/6/3 970/6/3
f 973/3/3 972/3/3 971/3/3
f 974/3/3 972/3/3 973/3/3
f 978/4/3 976/4/3 975/4/3
f 979/1/3 977/1/3 976/1/3
f 979/4/3 976/4/3 978/4/3
f 980/1/3 977/1/3 979/1/3
f 984/4/3 982/4/3 981/4/3
f 985/1/3 983/1/3 982/1/3
f 985/4/3 982/4/3 984/4/3
f 986/1/3 983/1/3 985/1/3
f 990/4/3 988/4/3 987/4/3
f 991/1/3 989/1/3 988/1/3
f 991/4/3 988/4/3 990/4/3
f 992/1/3 989/1/3 991/1/3
f 996/3/3 994/3/3 993/3/3
f 997/3/3 994/3/3 996/3/3
f 998/6/3 996/6/3 995/6/3
f 999/6/3 996/6/3 998/6/3
f 1000/2/3 999/2/3 998/2/3
f 1001/2/3 999/2/3 1000/2/3
f 1002/6/3 1001/6/3 1000/6/3
f 1003/6/3 1001/6/3 1002/6/3
f 1005/3/3 1004/3/3 1003/3/3
f 1006/3/3 1004/3/3 1005/3/3
f 1009/3/3 1008/3/3 1007/3/3
f 1010/3/3 1008/3/3 1009/3/3
f 1012/6/3 1011/6/3 1010/6/3
f 1013/6/3 1011/6/3 1012/6/3
f 1014/2/3 1013/2/3 1012/2/3
f 1015/2/3 1013/2/3 1014/2/3
f 1017/6/3 1015/6/3 1014/6/3
f 1018/6/3 1015/6/3 1017/6/3
f 1019/3/3 1017/3/3 1016/3/3
f 1020/3/3 1017/3/3 1019/3/3
f 1024/4/3 1022/4/3 1021/4/3
f 1025/1/3 1023/1/3 1022/1/3
f 1025/4/3 1022/4/3 1024/4/3
f 1026/1/3 1023/1/3 1025/1/3
f 1027/3/3 1026/3/3 1025/3/3
f 1028/3/3 1026/3/3 1027/3/3
f 1030/6/3 1029/6/3 1028/6/3
f 1031/6/3 1029/6/3 1030/6/3
f 1032/2/3 1031/2/3 1030/2/3
f 1033/2/3 1031/2/3 1032/2/3
f 1035/6/3 1033/6/3 1032/6/3
f 1036/6/3 1033/6/3 1035/6/3
f 1038/3/3 1035/3/3 1034/3/3
f 1039/3/3 1035/3/3 1038/3/3
f 1040/4/3 1038/4/3 1037/4/3
f 1041/1/3 1039/1/3 1038/1/3
f 1041/4/3 1038/4/3 1040/4/3
f 1042/1/3 1039/1/3 1041/1/3
f 1046/4/3 1044/4/3 1043/4/3
f 1047/1/3 1045/1/3 1044/1/3
f 1047/4/3 1044/4/3 1046/4/3
f 1048/1/3 1045/1/3 1047/1/3
f 1051/3/3 1050/3/3 1049/3/3
f 1052/3/3 1050/3/3 1051/3/3
f 1054/6/3 1053/6/3 1052/6/3
f 1055/6/3 1053/6/3 1054/6/3
f 1056/2/3 1055/2/3 1054/2/3
f 1057/2/3 1055/2/3 1056/2/3
f 1059/6/3 1057/6/3 1056/6/3
f 1060/6/3 1057/6/3 1059/6/3
f 1061/3/3 1059/3/3 1058/3/3
f 1062/3/3 1059/3/3 1061/3/3
f 1066/4/3 1064/4/3 1063/4/3
f 1067/1/3 1065/1/3 1064/1/3
f 1067/4/3 1064/4/3 1066/4/3
f 1068/1/3 1065/1/3 1067/1/3
f 1071/3/3 1070/3/3 1069/3/3
f 1072/3/3 1070/3/3 1071/3/3
f 1074/6/3 1073/6/3 1072/6/3
f 1075/6/3 1073/6/3 1074/6/3
f 1076/2/3 1075/2/3 1074/2/3
f 1077/2/3 1075/2/3 1076/2/3
f 1079/6/3 1077/6/3 1076/6/3
f 1080/6/3 1077/6/3 1079/6/3
f 1081/3/3 1079/3/3 1078/3/3
f 1082/3/3 1079/3/3 1081/3/3
f 1085/3/3 1084/3/3 1083/3/3
f 1086/3/3 1084/3/3 1085/3/3
f 1088/6/3 1087/6/3 1086/6/3
f 1089/6/3 1087/6/3 1088/6/3
f 1090/2/3 1089/2/3 1088/2/3
f 1091/2/3 1089/2/3 1090/2/3
f 1093/6/3 1091/6/3 1090/6/3
f 1094/6/3 1091/6/3 1093/6/3
f 1095/3/3 1093/3/3 1092/3/3
f 1096/3/3 1093/3/3 1095/3/3
f 1099/3/3 1098/3/3 1097/3/3
f 1100/3/3 1098/3/3 1099/3/3
f 1102/6/3 1101/6/3 1100/6/3
f 1103/6/3 1101/6/3 1102/6/3
f 1104/2/3 1103/2/3 1102/2/3
f 1105/2/3 1103/2/3 1104/2/3
f 1107/6/3 1105/6/3 1104/6/3
f 1108/6/3 1105/6/3 1107/6/3
f 1109/3/3 1107/3/3 1106/3/3
f 1110/3/3 1107/3/3 1109/3/3
f 1113/2/3 1112/2/3 1111/2/3
f 1114/2/3 1112/2/3 1113/2/3
f 1117/5/3 1116/5/3 1115/5/3
f 1118/5/3 1116/5/3 1117/5/3
f 1121/5/3 1120/5/3 1119/5/3
f 1122/5/3 1120/5/3 1121/5/3
f 1125/5/3 1124/5/3 1123/5/3
f 1126/5/3 1124/5/3 1125/5/3
f 1127/5/3 1125/5/3 1123/5/3
f 1128/5/3 1124/5/3 1126/5/3
f 1129/5/3 1127/5/3 1123/5/3
f 1129/5/3 1128/5/3 1127/5/3
f 1130/5/3 1124/5/3 1128/5/3
f 1130/5/3 1128/5/3 1129/5/3
f 1133/5/3 1132/5/3 1131/5/3
f 1134/5/3 1132/5/3 1133/5/3
f 1135/5/3 1133/5/3 1131/5/3
f 1136/5/3 1132/5/3 1134/5/3
f 1137/5/3 1135/5/3 1131/5/3
f 1137/5/3 1136/5/3 1135/5/3
f 1138/5/3 1132/5/3 1136/5/3
f 1138/5/3 1136/5/3 1137/5/3
f 1142/5/3 1140/5/3 1139/5/3
f 1143/5/3 1140/5/3 1142/5/3
f 1146/5/3 1142/5/3 1141/5/3
f 1146/5/3 1144/5/3 1143/5/3
f 1146/5/3 1143/5/3 1142/5/3
f 1147/5/3 1144/5/3 1146/5/3
f 1148/5/3 1144/5/3 1147/5/3
f 1149/5/3 1144/5/3 1148/5/3
f 1151/5/3 1146/5/3 1145/5/3
f 1151/5/3 1147/5/3 1146/5/3
f 1152/5/3 1147/5/3 1151/5/3
f 1153/5/3 1147/5/3 1152/5/3
f 1154/5/3 1150/5/3 1149/5/3
f 1154/5/3 1149/5/3 1148/5/3
f 1155/5/3 1150/5/3 1154/5/3
f 1156/5/3 1150/5/3 1155/5/3
f 1157/5/3 1153/5/3 1152/5/3
f 1157/5/3 1155/5/3 1154/5/3
f 1157/5/3 1154/5/3 1153/5/3
f 1158/5/3 1155/5/3 1157/5/3
f 1159/5/3 1155/5/3 1158/5/3
f 1160/5/3 1155/5/3 1159/5/3
f 1161/5/3 1159/5/3 1158/5/3
f 1162/5/3 1159/5/3 1161/5/3
f 1166/5/3 1164/5/3 1163/5/3
f 1167/5/3 1164/5/3 1166/5/3
f 1170/5/3 1167/5/3 1166/5/3
f 1170/5/3 1168/5/3 1167/5/3
f 1170/5/3 1166/5/3 1165/5/3
f 1171/5/3 1168/5/3 1170/5/3
f 1172/5/3 1168/5/3 1171/5/3
f 1173/5/3 1168/5/3 1172/5/3
f 1175/5/3 1170/5/3 1169/5/3
f 1175/5/3 1171/5/3 1170/5/3
f 1176/5/3 1171/5/3 1175/5/3
f 1177/5/3 1171/5/3 1176/5/3
f 1178/5/3 1173/5/3 1172/5/3
f 1178/5/3 1174/5/3 1173/5/3
f 1179/5/3 1174/5/3 1178/5/3
f 1180/5/3 1174/5/3 1179/5/3
f 1181/5/3 1177/5/3 1176/5/3
f 1181/5/3 1179/5/3 1178/5/3
f 1181/5/3 1178/5/3 1177/5/3
f 1182/5/3 1179/5/3 1181/5/3
f 1183/5/3 1179/5/3 1182/5/3
f 1184/5/3 1179/5/3 1183/5/3
f 1185/5/3 1183/5/3 1182/5/3
f 1186/5/3 1183/5/3 1185/5/3
f 1190/5/3 1188/5/3 1187/5/3
f 1191/5/3 1188/5/3 1190/5/3
f 1192/5/3 1188/5/3 1191/5/3
f 1193/5/3 1188/5/3 1192/5/3
f 1196/5/3 1190/5/3 1189/5/3
f 1196/5/3 1191/5/3 1190/5/3
f 1197/5/3 1191/5/3 1196/5/3
f 1198/5/3 1191/5/3 1197/5/3
f 1199/5/3 1193/5/3 1192/5/3
f 1199/5/3 1194/5/3 1193/5/3
f 1200/5/3 1194/5/3 1199/5/3
f 1201/5/3 1194/5/3 1200/5/3
f 1203/5/3 1197/5/3 1196/5/3
f 1203/5/3 1196/5/3 1195/5/3
f 1204/5/3 1197/5/3 1203/5/3
f 1205/5/3 1202/5/3 1201/5/3
f 1205/5/3 1201/5/3 1200/5/3
f 1206/5/3 1202/5/3 1205/5/3
f 1207/5/3 1203/5/3 1195/5/3
f 1210/5/3 1202/5/3 1206/5/3
f 1211/5/3 1208/5/3 1207/5/3
f 1211/5/3 1207/5/3 1195/5/3
f 1212/5/3 1208/5/3 1211/5/3
f 1213/5/3 1208/5/3 1212/5/3
f 1216/5/3 1210/5/3 1209/5/3
f 1217/5/3 1202/5/3 1210/5/3
f 1217/5/3 1210/5/3 1216/5/3
f 1218/5/3 1202/5/3 1217/5/3
f 1219/5/3 1214/5/3 1213/5/3
f 1219/5/3 1213/5/3 1212/5/3
f 1220/5/3 1214/5/3 1219/5/3
f 1221/5/3 1214/5/3 1220/5/3
f 1222/5/3 1216/5/3 1215/5/3
f 1222/5/3 1217/5/3 1216/5/3
f 1223/5/3 1217/5/3 1222/5/3
f 1224/5/3 1217/5/3 1223/5/3
f 1225/5/3 1221/5/3 1220/5/3
f 1225/5/3 1223/5/3 1222/5/3
f 1225/5/3 1222/5/3 1221/5/3
f 1226/5/3 1223/5/3 1225/5/3
f 1230/5/3 1228/5/3 1227/5/3
f 1231/5/3 1228/5/3 1230/5/3
f 1232/5/3 1228/5/3 1231/5/3
f 1233/5/3 1228/5/3 1232/5/3
f 1236/5/3 1230/5/3 1229/5/3
f 1236/5/3 1231/5/3 1230/5/3
f 1237/5/3 1231/5/3 1236/5/3
f 1238/5/3 1231/5/3 1237/5/3
f 1239/5/3 1233/5/3 1232/5/3
f 1239/5/3 1234/5/3 1233/5/3
f 1240/5/3 1234/5/3 1239/5/3
f 1241/5/3 1234/5/3 1240/5/3
f 1243/5/3 1237/5/3 1236/5/3
f 1243/5/3 1236/5/3 1235/5/3
f 1244/5/3 1237/5/3 1243/5/3
f 1245/5/3 1241/5/3 1240/5/3
f 1245/5/3 1242/5/3 1241/5/3
f 1246/5/3 1242/5/3 1245/5/3
f 1247/5/3 1243/5/3 1235/5/3
f 1250/5/3 1242/5/3 1246/5/3
f 1251/5/3 1248/5/3 1247/5/3
f 1251/5/3 1247/5/3 1235/5/3
f 1252/5/3 1248/5/3 1251/5/3
f 1253/5/3 1248/5/3 1252/5/3
f 1256/5/3 1250/5/3 1249/5/3
f 1257/5/3 1242/5/3 1250/5/3
f 1257/5/3 1250/5/3 1256/5/3
f 1258/5/3 1242/5/3 1257/5/3
f 1259/5/3 1254/5/3 1253/5/3
f 1259/5/3 1253/5/3 1252/5/3
f 1260/5/3 1254/5/3 1259/5/3
f 1261/5/3 1254/5/3 1260/5/3
f 1262/5/3 1256/5/3 1255/5/3
f 1262/5/3 1257/5/3 1256/5/3
f 1263/5/3 1257/5/3 1262/5/3
f 1264/5/3 1257/5/3 1263/5/3
f 1265/5/3 1261/5/3 1260/5/3
f 1265/5/3 1263/5/3 1262/5/3
f 1265/5/3 1262/5/3 1261/5/3
f 1266/5/3 1263/5/3 1265/5/3
f 1271/5/3 1268/5/3 1267/5/3
f 1272/5/3 1268/5/3 1271/5/3
f 1275/5/3 1270/5/3 1269/5/3
f 1276/5/3 1270/5/3 1275/5/3
f 1277/5/3 1273/5/3 1272/5/3
f 1278/5/3 1273/5/3 1277/5/3
f 1281/5/3 1275/5/3 1274/5/3
f 1282/5/3 1275/5/3 1281/5/3
f 1283/5/3 1279/5/3 1278/5/3
f 1284/5/3 1279/5/3 1283/5/3
f 1286/5/3 1281/5/3 1280/5/3
f 1287/5/3 1281/5/3 1286/5/3
f 1290/5/3 1285/5/3 1284/5/3
f 1291/5/3 1285/5/3 1290/5/3
f 1293/5/3 1288/5/3 1287/5/3
f 1294/5/3 1288/5/3 1293/5/3
f 1297/5/3 1290/5/3 1289/5/3
f 1298/5/3 1290/5/3 1297/5/3
f 1299/5/3 1293/5/3 1292/5/3
f 1300/5/3 1293/5/3 1299/5/3
f 1301/5/3 1295/5/3 1294/5/3
f 1302/5/3 1295/5/3 1301/5/3
f 1303/5/3 1297/5/3 1296/5/3
f 1304/5/3 1297/5/3 1303/5/3
f 1305/5/3 1303/5/3 1302/5/3
f 1306/5/3 1303/5/3 1305/5/3
f 1312/5/3 1308/5/3 1307/5/3
f 1313/5/3 1308/5/3 1312/5/3
f 1315/5/3 1310/5/3 1309/5/3
f 1316/5/3 1310/5/3 1315/5/3
f 1317/5/3 1312/5/3 1311/5/3
f 1318/5/3 1312/5/3 1317/5/3
f 1319/5/3 1314/5/3 1313/5/3
f 1320/5/3 1314/5/3 1319/5/3
f 1323/5/3 1317/5/3 1316/5/3
f 1324/5/3 1317/5/3 1323/5/3
f 1325/5/3 1321/5/3 1320/5/3
f 1326/5/3 1321/5/3 1325/5/3
f 1328/5/3 1323/5/3 1322/5/3
f 1329/5/3 1323/5/3 1328/5/3
f 1332/5/3 1327/5/3 1326/5/3
f 1333/5/3 1327/5/3 1332/5/3
f 1334/5/3 1330/5/3 1329/5/3
f 1335/5/3 1330/5/3 1334/5/3
f 1338/5/3 1332/5/3 1331/5/3
f 1339/5/3 1332/5/3 1338/5/3
f 1340/5/3 1336/5/3 1335/5/3
f 1341/5/3 1336/5/3 1340/5/3
f 1343/5/3 1338/5/3 1337/5/3
f 1344/5/3 1338/5/3 1343/5/3
f 1345/5/3 1343/5/3 1342/5/3
f 1346/5/3 1343/5/3 1345/5/3
f 1349/5/3 1348/5/3 1347/5/3
f 1350/5/3 1348/5/3 1349/5/3
f 1352/5/3 1351/5/3 1350/5/3
f 1353/5/3 1351/5/3 1352/5/3
f 1355/5/3 1353/5/3 1352/5/3
f 1355/5/3 1354/5/3 1353/5/3
f 1356/5/3 1354/5/3 1355/5/3
f 1357/5/3 1354/5/3 1356/5/3
f 1360/5/3 1358/5/3 1357/5/3
f 1360/5/3 1357/5/3 1356/5/3
f 1361/5/3 1358/5/3 1360/5/3
f 1362/5/3 1358/5/3 1361/5/3
f 1363/5/3 1360/5/3 1359/5/3
f 1363/5/3 1361/5/3 1360/5/3
f 1364/5/3 1361/5/3 1363/5/3
f 1365/5/3 1361/5/3 1364/5/3
f 1367/5/3 1364/5/3 1363/5/3
f 1368/5/3 1364/5/3 1367/5/3
f 1369/5/3 1367/5/3 1366/5/3
f 1370/5/3 1367/5/3 1369/5/3
f 1373/5/3 1372/5/3 1371/5/3
f 1374/5/3 1372/5/3 1373/5/3
f 1377/5/3 1376/5/3 1375/5/3
f 1378/5/3 1376/5/3 1377/5/3
f 1379/5/3 1376/5/3 1378/5/3
f 1380/5/3 1376/5/3 1379/5/3
f 1381/5/3 1376/5/3 1380/5/3
f 1382/5/3 1376/5/3 1381/5/3
f 1384/5/3 1383/5/3 1382/5/3
f 1385/5/3 1383/5/3 1384/5/3
f 1389/5/3 1387/5/3 1386/5/3
f 1390/5/3 1387/5/3 1389/5/3
f 1392/5/3 1389/5/3 1388/5/3
f 1394/5/3 1392/5/3 1391/5/3
f 1395/5/3 1394/5/3 1393/5/3
f 1396/5/3 1389/5/3 1392/5/3
f 1396/5/3 1394/5/3 1395/5/3
f 1396/5/3 1392/5/3 1394/5/3
f 1399/5/3 1398/5/3 1397/5/3
f 1400/5/3 1398/5/3 1399/5/3
f 1401/4/4 1402/4/4 1404/4/4
f 1402/1/4 1403/1/4 1405/1/4
f 1404/4/4 1402/4/4 1405/4/4
f 1405/1/4 1403/1/4 1406/1/4
f 1407/4/4 1408/4/4 1410/4/4
f 1408/1/4 1409/1/4 1411/1/4
f 1410/4/4 1408/4/4 1411/4/4
f 1411/1/4 1409/1/4 1412/1/4
f 1413/4/4 1414/4/4 1416/4/4
f 1414/1/4 1415/1/4 1417/1/4
f 1416/4/4 1414/4/4 1417/4/4
f 1417/1/4 1415/1/4 1418/1/4
f 1419/4/4 1420/4/4 1422/4/4
f 1420/1/4 1421/1/4 1423/1/4
f 1422/4/4 1420/4/4 1423/4/4
f 1423/1/4 1421/1/4 1424/1/4
f 1425/4/4 1426/4/4 1428/4/4
f 1426/1/4 1427/1/4 1429/1/4
f 1428/4/4 1426/4/4 1429/4/4
f 1429/1/4 1427/1/4 1430/1/4
f 1431/4/4 1432/4/4 1434/4/4
f 1432/1/4 1433/1/4 1435/1/4
f 1434/4/4 1432/4/4 1435/4/4
f 1435/1/4 1433/1/4 1436/1/4
f 1437/4/4 1438/4/4 1440/4/4
f 1438/1/4 1439/1/4 1441/1/4
f 1440/4/4 1438/4/4 1441/4/4
f 1441/1/4 1439/1/4 1442/1/4
f 1443/4/4 1444/4/4 1446/4/4
f 1444/1/4 1445/1/4 1447/1/4
f 1446/4/4 1444/4/4 1447/4/4
f 1447/1/4 1445/1/4 1448/1/4
f 1449/3/4 1450/3/4 1451/3/4
f 1451/3/4 1450/3/4 1452/3/4
f 1453/3/4 1454/3/4 1455/3/4
f 1455/3/4 1454/3/4 1456/3/4
f 1457/3/4 1458/3/4 1460/3/4
f 1460/3/4 1458/3/4 1461/3/4
f 1459/6/4 1460/6/4 1462/6/4
f 1462/6/4 1460/6/4 1463/6/4
f 1463/6/4 1460/6/4 1464/6/4
f 1465/6/4 1466/6/4 1468/6/4
f 1466/6/4 1467/6/4 1468/6/4
f 1468/6/4 1467/6/4 1469/6/4
f 1469/3/4 1470/3/4 1471/3/4
f 1471/3/4 1470/3/4 1472/3/4
f 1473/4/4 1474/4/4 1476/4/4
f 1474/1/4 1475/1/4 1477/1/4
f 1476/4/4 1474/4/4 1477/4/4
f 1477/1/4 1475/1/4 1478/1/4
f 1479/3/4 1480/3/4 1482/3/4
f 1482/3/4 1480/3/4 1483/3/4
f 1481/6/4 1482/6/4 1486/6/4
f 1486/6/4 1482/6/4 1487/6/4
f 1484/6/4 1485/6/4 1488/6/4
f 1488/6/4 1485/6/4 1489/6/4
f 1490/6/4 1491/6/4 1492/6/4
f 1492/6/4 1491/6/4 1493/6/4
f 1493/3/4 1494/3/4 1495/3/4
f 1495/3/4 1494/3/4 1496/3/4
f 1497/4/4 1498/4/4 1500/4/4
f 1498/1/4 1499/1/4 1501/1/4
f 1500/4/4 1498/4/4 1501/4/4
f 1501/1/4 1499/1/4 1502/1/4
f 1503/4/4 1504/4/4 1507/4/4
f 1504/1/4 1505/1/4 1508/1/4
f 1507/4/4 1504/4/4 1508/4/4
f 1508/1/4 1505/1/4 1509/1/4
f 1506/3/4 1507/3/4 1512/3/4
f 1509/3/4 1510/3/4 1512/3/4
f 1508/3/4 1509/3/4 1512/3/4
f 1507/3/4 1508/3/4 1512/3/4
f 1512/3/4 1510/3/4 1513/3/4
f 1513/3/4 1510/3/4 1514/3/4
f 1511/6/4 1512/6/4 1517/6/4
f 1517/6/4 1512/6/4 1518/6/4
f 1515/2/4 1516/2/4 1519/2/4
f 1519/2/4 1516/2/4 1520/2/4
f 1521/6/4 1522/6/4 1523/6/4
f 1523/6/4 1522/6/4 1524/6/4
f 1525/3/4 1526/3/4 1527/3/4
f 1524/3/4 1525/3/4 1527/3/4
f 1527/3/4 1526/3/4 1528/3/4
f 1528/3/4 1526/3/4 1529/3/4
f 1529/3/4 1526/3/4 1530/3/4
f 1530/3/4 1526/3/4 1531/3/4
f 1528/4/4 1529/4/4 1532/4/4
f 1529/1/4 1530/1/4 1533/1/4
f 1532/4/4 1529/4/4 1533/4/4
f 1533/1/4 1530/1/4 1534/1/4
f 1535/6/4 1536/6/4 1539/6/4
f 1539/6/4 1536/6/4 1540/6/4
f 1537/2/4 1538/2/4 1541/2/4
f 1541/2/4 1538/2/4 1542/2/4
f 1543/6/4 1544/6/4 1545/6/4
f 1545/6/4 1544/6/4 1546/6/4
f 1547/6/4 1548/6/4 1551/6/4
f 1551/6/4 1548/6/4 1552/6/4
f 1549/2/4 1550/2/4 1553/2/4
f 1553/2/4 1550/2/4 1554/2/4
f 1555/6/4 1556/6/4 1557/6/4
f 1557/6/4 1556/6/4 1558/6/4
f 1559/6/4 1560/6/4 1563/6/4
f 1563/6/4 1560/6/4 1564/6/4
f 1561/2/4 1562/2/4 1565/2/4
f 1565/2/4 1562/2/4 1566/2/4
f 1567/6/4 1568/6/4 1569/6/4
f 1569/6/4 1568/6/4 1570/6/4
f 1571/6/4 1572/6/4 1575/6/4
f 1575/6/4 1572/6/4 1576/6/4
f 1573/2/4 1574/2/4 1577/2/4
f 1577/2/4 1574/2/4 1578/2/4
f 1579/6/4 1580/6/4 1581/6/4
f 1581/6/4 1580/6/4 1582/6/4
f 1583/6/4 1584/6/4 1587/6/4
f 1587/6/4 1584/6/4 1588/6/4
f 1585/2/4 1586/2/4 1589/2/4
f 1589/2/4 1586/2/4 1590/2/4
f 1591/6/4 1592/6/4 1593/6/4
f 1593/6/4 1592/6/4 1594/6/4
f 1595/6/4 1596/6/4 1599/6/4
f 1599/6/4 1596/6/4 1600/6/4
f 1597/2/4 1598/2/4 1601/2/4
f 1601/2/4 1598/2/4 1602/2/4
f 1603/6/4 1604/6/4 1605/6/4
f 1605/6/4 1604/6/4 1606/6/4
f 1607/6/4 1608/6/4 1612/6/4
f 1612/6/4 1608/6/4 1613/6/4
f 1613/6/4 1608/6/4 1614/6/4
f 1609/6/4 1610/6/4 1615/6/4
f 1615/6/4 1610/6/4 1616/6/4
f 1611/2/4 1612/2/4 1617/2/4
f 1612/6/4 1613/6/4 1617/6/4
f 1617/6/4 1613/6/4 1618/6/4
f 1616/6/4 1610/6/4 1619/6/4
f 1619/6/4 1610/6/4 1620/6/4
f 1620/6/4 1610/6/4 1621/6/4
f 1621/6/4 1610/6/4 1622/6/4
f 1611/2/4 1617/2/4 1625/2/4
f 1623/6/4 1624/6/4 1628/6/4
f 1611/2/4 1625/2/4 1629/2/4
f 1625/6/4 1626/6/4 1630/6/4
f 1629/2/4 1625/2/4 1630/2/4
f 1630/6/4 1626/6/4 1631/6/4
f 1627/6/4 1628/6/4 1634/6/4
f 1631/6/4 1632/6/4 1635/6/4
f 1630/6/4 1631/6/4 1635/6/4
f 1635/6/4 1632/6/4 1636/6/4
f 1633/6/4 1634/6/4 1637/6/4
f 1628/6/4 1624/6/4 1638/6/4
f 1637/6/4 1634/6/4 1638/6/4
f 1634/6/4 1628/6/4 1638/6/4
f 1639/5/4 1640/5/4 1642/5/4
f 1642/5/4 1640/5/4 1643/5/4
f 1641/5/4 1642/5/4 1646/5/4
f 1643/5/4 1644/5/4 1646/5/4
f 1642/5/4 1643/5/4 1646/5/4
f 1646/5/4 1644/5/4 1647/5/4
f 1645/5/4 1646/5/4 1647/5/4
f 1645/5/4 1647/5/4 1649/5/4
f 1647/5/4 1648/5/4 1649/5/4
f 1649/5/4 1648/5/4 1650/5/4
f 1650/5/4 1648/5/4 1651/5/4
f 1651/5/4 1648/5/4 1652/5/4
f 1650/5/4 1651/5/4 1653/5/4
f 1653/5/4 1651/5/4 1654/5/4
f 1654/5/4 1651/5/4 1655/5/4
f 1655/5/4 1651/5/4 1656/5/4
f 1654/5/4 1655/5/4 1657/5/4
f 1657/5/4 1655/5/4 1658/5/4
f 1659/5/4 1660/5/4 1662/5/4
f 1662/5/4 1660/5/4 1663/5/4
f 1662/5/4 1663/5/4 1666/5/4
f 1663/5/4 1664/5/4 1666/5/4
f 1661/5/4 1662/5/4 1666/5/4
f 1666/5/4 1664/5/4 1667/5/4
f 1666/5/4 1667/5/4 1669/5/4
f 1667/5/4 1668/5/4 1669/5/4
f 1665/5/4 1666/5/4 1669/5/4
f 1669/5/4 1668/5/4 1670/5/4
f 1665/5/4 1669/5/4 1671/5/4
f 1671/5/4 1669/5/4 1672/5/4
f 1672/5/4 1669/5/4 1673/5/4
f 1673/5/4 1669/5/4 1674/5/4
f 1674/5/4 1669/5/4 1675/5/4
f 1675/5/4 1669/5/4 1676/5/4
f 1674/5/4 1675/5/4 1677/5/4
f 1677/5/4 1675/5/4 1678/5/4
f 1679/5/4 1680/5/4 1682/5/4
f 1682/5/4 1680/5/4 1683/5/4
f 1683/5/4 1680/5/4 1684/5/4
f 1681/5/4 1682/5/4 1687/5/4
f 1682/5/4 1683/5/4 1687/5/4
f 1687/5/4 1683/5/4 1688/5/4
f 1684/5/4 1685/5/4 1689/5/4
f 1689/5/4 1685/5/4 1690/5/4
f 1686/5/4 1687/5/4 1693/5/4
f 1693/5/4 1687/5/4 1694/5/4
f 1690/5/4 1691/5/4 1695/5/4
f 1695/5/4 1696/5/4 1697/5/4
f 1690/5/4 1695/5/4 1697/5/4
f 1697/5/4 1696/5/4 1698/5/4
f 1692/5/4 1693/5/4 1700/5/4
f 1699/5/4 1700/5/4 1702/5/4
f 1700/5/4 1693/5/4 1703/5/4
f 1702/5/4 1700/5/4 1703/5/4
f 1698/5/4 1696/5/4 1706/5/4
f 1706/5/4 1696/5/4 1707/5/4
f 1703/5/4 1704/5/4 1709/5/4
f 1701/5/4 1702/5/4 1709/5/4
f 1702/5/4 1703/5/4 1709/5/4
f 1709/5/4 1704/5/4 1710/5/4
f 1705/5/4 1706/5/4 1713/5/4
f 1713/5/4 1706/5/4 1714/5/4
f 1710/5/4 1711/5/4 1716/5/4
f 1708/5/4 1709/5/4 1716/5/4
f 1709/5/4 1710/5/4 1716/5/4
f 1716/5/4 1711/5/4 1717/5/4
f 1712/5/4 1713/5/4 1718/5/4
f 1718/5/4 1713/5/4 1719/5/4
f 1716/5/4 1717/5/4 1720/5/4
f 1717/5/4 1718/5/4 1720/5/4
f 1720/5/4 1718/5/4 1721/5/4
f 1721/5/4 1718/5/4 1722/5/4
f 1722/5/4 1718/5/4 1723/5/4
f 1716/5/4 1720/5/4 1724/5/4
f 1720/6/4 1721/6/4 1724/6/4
f 1721/5/4 1722/5/4 1725/5/4
f 1724/6/4 1721/6/4 1725/6/4
f 1725/5/4 1722/5/4 1726/5/4
f 1715/6/4 1716/6/4 1728/6/4
f 1726/5/4 1727/5/4 1729/5/4
f 1728/6/4 1716/6/4 1729/6/4
f 1716/5/4 1724/5/4 1729/5/4
f 1725/5/4 1726/5/4 1729/5/4
f 1724/5/4 1725/5/4 1729/5/4
f 1729/5/4 1727/5/4 1730/5/4
f 1730/5/4 1727/5/4 1731/5/4
f 1729/5/4 1730/5/4 1733/5/4
f 1733/5/4 1730/5/4 1734/5/4
f 1734/5/4 1730/5/4 1735/5/4
f 1735/5/4 1730/5/4 1736/5/4
f 1731/5/4 1732/5/4 1737/5/4
f 1737/5/4 1732/5/4 1738/5/4
f 1734/5/4 1735/5/4 1740/5/4
f 1740/5/4 1735/5/4 1741/5/4
f 1741/5/4 1735/5/4 1742/5/4
f 1742/5/4 1735/5/4 1743/5/4
f 1738/5/4 1739/5/4 1744/5/4
f 1744/5/4 1739/5/4 1745/5/4
f 1741/5/4 1742/5/4 1747/5/4
f 1747/5/4 1742/5/4 1748/5/4
f 1745/5/4 1746/5/4 1750/5/4
f 1748/5/4 1742/5/4 1751/5/4
f 1751/5/4 1742/5/4 1752/5/4
f 1749/5/4 1750/5/4 1754/5/4
f 1750/5/4 1746/5/4 1754/5/4
f 1754/5/4 1746/5/4 1755/5/4
f 1752/5/4 1753/5/4 1756/5/4
f 1756/5/4 1753/5/4 1757/5/4
f 1749/5/4 1754/5/4 1760/5/4
f 1760/5/4 1754/5/4 1761/5/4
f 1757/5/4 1758/5/4 1762/5/4
f 1762/5/4 1758/5/4 1763/5/4
f 1763/5/4 1758/5/4 1764/5/4
f 1759/5/4 1760/5/4 1765/5/4
f 1765/5/4 1760/5/4 1766/5/4
f 1763/5/4 1764/5/4 1767/5/4
f 1764/5/4 1765/5/4 1767/5/4
f 1767/5/4 1765/5/4 1768/5/4
f 1773/6/5 1770/6/5 1769/6/5
f 1774/2/5 1771/2/5 1770/2/5
f 1774/6/5 1770/6/5 1773/6/5
f 1775/6/5 1772/6/5 1771/6/5
f 1775/2/5 1771/2/5 1774/2/5
f 1776/6/5 1772/6/5 1775/6/5
f 1777/6/5 1775/6/5 1774/6/5
f 1778/6/5 1775/6/5 1777/6/5
f 1784/6/5 1780/6/5 1779/6/5
f 1785/2/5 1781/2/5 1780/2/5
f 1785/6/5 1780/6/5 1784/6/5
f 1786/6/5 1782/6/5 1781/6/5
f 1786/2/5 1781/2/5 1785/2/5
f 1787/6/5 1782/6/5 1786/6/5
f 1789/3/5 1784/3/5 1783/3/5
f 1790/3/5 1784/3/5 1789/3/5
f 1791/3/5 1788/3/5 1787/3/5
f 1792/3/5 1788/3/5 1791/3/5
f 1795/2/5 1794/2/5 1793/2/5
f 1796/2/5 1794/2/5 1795/2/5
f 1799/6/5 1798/6/5 1797/6/5
f 1800/6/5 1798/6/5 1799/6/5
f 1802/6/5 1799/6/5 1797/6/5
f 1803/2/5 1800/2/5 1799/2/5
f 1803/6/5 1799/6/5 1802/6/5
f 1804/6/5 1798/6/5 1800/6/5
f 1804/2/5 1800/2/5 1803/2/5
f 1805/6/5 1798/6/5 1804/6/5
f 1807/3/5 1802/3/5 1801/3/5
f 1808/3/5 1802/3/5 1807/3/5
f 1809/3/5 1806/3/5 1805/3/5
f 1810/3/5 1806/3/5 1809/3/5
f 1815/3/5 1812/3/5 1811/3/5
f 1816/3/5 1812/3/5 1815/3/5
f 1819/3/5 1814/3/5 1813/3/5
f 1820/3/5 1814/3/5 1819/3/5
f 1821/6/5 1817/6/5 1816/6/5
f 1822/6/5 1817/6/5 1821/6/5
f 1823/6/5 1819/6/5 1818/6/5
f 1824/6/5 1819/6/5 1823/6/5
f 1829/3/5 1826/3/5 1825/3/5
f 1830/3/5 1826/3/5 1829/3/5
f 1831/3/5 1828/3/5 1827/3/5
f 1832/3/5 1828/3/5 1831/3/5
f 1835/2/5 1834/2/5 1833/2/5
f 1836/2/5 1834/2/5 1835/2/5
f 1841/3/5 1838/3/5 1837/3/5
f 1842/3/5 1838/3/5 1841/3/5
f 1845/3/5 1840/3/5 1839/3/5
f 1846/3/5 1840/3/5 1845/3/5
f 1847/6/5 1843/6/5 1842/6/5
f 1848/6/5 1843/6/5 1847/6/5
f 1849/6/5 1845/6/5 1844/6/5
f 1850/6/5 1845/6/5 1849/6/5
f 1853/2/5 1852/2/5 1851/2/5
f 1854/2/5 1852/2/5 1853/2/5
f 1860/4/5 1856/4/5 1855/4/5
f 1861/4/5 1858/4/5 1857/4/5
f 1863/4/5 1860/4/5 1859/4/5
f 1864/4/5 1856/4/5 1860/4/5
f 1864/4/5 1860/4/5 1863/4/5
f 1865/4/5 1862/4/5 1861/4/5
f 1865/4/5 1861/4/5 1857/4/5
f 1866/4/5 1862/4/5 1865/4/5
f 1867/4/5 1856/4/5 1864/4/5
f 1868/4/5 1856/4/5 1867/4/5
f 1869/4/5 1865/4/5 1857/4/5
f 1870/4/5 1865/4/5 1869/4/5
f 1875/3/5 1872/3/5 1871/3/5
f 1876/3/5 1872/3/5 1875/3/5
f 1879/3/5 1874/3/5 1873/3/5
f 1880/3/5 1874/3/5 1879/3/5
f 1881/6/5 1877/6/5 1876/6/5
f 1882/6/5 1877/6/5 1881/6/5
f 1883/6/5 1879/6/5 1878/6/5
f 1884/6/5 1879/6/5 1883/6/5
f 1887/2/5 1886/2/5 1885/2/5
f 1888/2/5 1886/2/5 1887/2/5
f 1893/6/5 1890/6/5 1889/6/5
f 1894/6/5 1890/6/5 1893/6/5
f 1895/6/5 1892/6/5 1891/6/5
f 1896/6/5 1892/6/5 1895/6/5
f 1902/4/5 1898/4/5 1897/4/5
f 1903/4/5 1900/4/5 1899/4/5
f 1905/4/5 1902/4/5 1901/4/5
f 1906/4/5 1898/4/5 1902/4/5
f 1906/4/5 1902/4/5 1905/4/5
f 1907/4/5 1904/4/5 1903/4/5
f 1907/4/5 1903/4/5 1899/4/5
f 1908/4/5 1904/4/5 1907/4/5
f 1909/4/5 1898/4/5 1906/4/5
f 1910/4/5 1898/4/5 1909/4/5
f 1911/4/5 1907/4/5 1899/4/5
f 1912/4/5 1907/4/5 1911/4/5
f 1915/2/5 1914/2/5 1913/2/5
f 1916/2/5 1914/2/5 1915/2/5
f 1921/6/5 1918/6/5 1917/6/5
f 1922/6/5 1918/6/5 1921/6/5
f 1923/6/5 1920/6/5 1919/6/5
f 1924/6/5 1920/6/5 1923/6/5
f 1927/2/5 1926/2/5 1925/2/5
f 1928/2/5 1926/2/5 1927/2/5
f 1933/6/5 1930/6/5 1929/6/5
f 1934/6/5 1930/6/5 1933/6/5
f 1935/6/5 1932/6/5 1931/6/5
f 1936/6/5 1932/6/5 1935/6/5
f 1939/2/5 1938/2/5 1937/2/5
f 1940/2/5 1938/2/5 1939/2/5
f 1946/4/5 1942/4/5 1941/4/5
f 1947/4/5 1944/4/5 1943/4/5
f 1949/4/5 1946/4/5 1945/4/5
f 1950/4/5 1942/4/5 1946/4/5
f 1950/4/5 1946/4/5 1949/4/5
f 1951/4/5 1948/4/5 1947/4/5
f 1951/4/5 1947/4/5 1943/4/5
f 1952/4/5 1948/4/5 1951/4/5
f 1953/4/5 1942/4/5 1950/4/5
f 1954/4/5 1942/4/5 1953/4/5
f 1955/4/5 1951/4/5 1943/4/5
f 1956/4/5 1951/4/5 1955/4/5
f 1961/6/5 1958/6/5 1957/6/5
f 1962/6/5 1958/6/5 1961/6/5
f 1963/6/5 1960/6/5 1959/6/5
f 1964/6/5 1960/6/5 1963/6/5
f 1967/2/5 1966/2/5 1965/2/5
f 1968/2/5 1966/2/5 1967/2/5
f 1973/6/5 1970/6/5 1969/6/5
f 1974/6/5 1970/6/5 1973/6/5
f 1975/6/5 1972/6/5 1971/6/5
f 1976/6/5 1972/6/5 1975/6/5
f 1981/6/5 1978/6/5 1977/6/5
f 1982/6/5 1978/6/5 1981/6/5
f 1985/6/5 1980/6/5 1979/6/5
f 1986/6/5 1980/6/5 1985/6/5
f 1987/6/5 1984/6/5 1983/6/5
f 1988/6/5 1984/6/5 1987/6/5
f 1993/5/5 1990/5/5 1989/5/5
f 1994/5/5 1990/5/5 1993/5/5
f 1995/5/5 1992/5/5 1991/5/5
f 1996/5/5 1992/5/5 1995/5/5
f 2001/5/5 1998/5/5 1997/5/5
f 2002/5/5 1998/5/5 2001/5/5
f 2003/5/5 2000/5/5 1999/5/5
f 2004/5/5 2000/5/5 2003/5/5
f 2009/5/5 2006/5/5 2005/5/5
f 2010/5/5 2006/5/5 2009/5/5
f 2011/5/5 2008/5/5 2007/5/5
f 2012/5/5 2008/5/5 2011/5/5
f 2021/5/5 2014/5/5 2013/5/5
f 2022/5/5 2016/5/5 2015/5/5
f 2023/5/5 2018/5/5 2017/5/5
f 2024/5/5 2020/5/5 2019/5/5
f 2025/5/5 2021/5/5 2013/5/5
f 2025/5/5 2022/5/5 2021/5/5
f 2026/5/5 2016/5/5 2022/5/5
f 2026/5/5 2022/5/5 2025/5/5
f 2027/5/5 2023/5/5 2017/5/5
f 2027/5/5 2024/5/5 2023/5/5
f 2028/5/5 2020/5/5 2024/5/5
f 2028/5/5 2024/5/5 2027/5/5
f 2029/5/5 2025/5/5 2013/5/5
f 2030/5/5 2025/5/5 2029/5/5
f 2031/5/5 2020/5/5 2028/5/5
f 2032/5/5 2020/5/5 2031/5/5
f 2038/5/5 2034/5/5 2033/5/5
f 2039/5/5 2034/5/5 2038/5/5
f 2042/5/5 2036/5/5 2035/5/5
f 2043/5/5 2036/5/5 2042/5/5
f 2045/5/5 2040/5/5 2039/5/5
f 2046/5/5 2040/5/5 2045/5/5
f 2051/5/5 2042/5/5 2041/5/5
f 2052/5/5 2042/5/5 2051/5/5
f 2053/5/5 2048/5/5 2047/5/5
f 2054/5/5 2048/5/5 2053/5/5
f 2055/5/5 2050/5/5 2049/5/5
f 2056/5/5 2050/5/5 2055/5/5
f 2057/5/5 2038/5/5 2037/5/5
f 2058/5/5 2038/5/5 2057/5/5
f 2059/5/5 2044/5/5 2043/5/5
f 2060/5/5 2044/5/5 2059/5/5
f 2067/5/5 2062/5/5 2061/5/5
f 2068/5/5 2062/5/5 2067/5/5
f 2073/5/5 2064/5/5 2063/5/5
f 2074/5/5 2064/5/5 2073/5/5
f 2078/5/5 2066/5/5 2065/5/5
f 2079/5/5 2066/5/5 2078/5/5
f 2080/5/5 2070/5/5 2069/5/5
f 2081/5/5 2070/5/5 2080/5/5
f 2084/5/5 2072/5/5 2071/5/5
f 2085/5/5 2072/5/5 2084/5/5
f 2086/5/5 2076/5/5 2075/5/5
f 2087/5/5 2076/5/5 2086/5/5
f 2089/5/5 2082/5/5 2081/5/5
f 2090/5/5 2082/5/5 2089/5/5
f 2091/5/5 2084/5/5 2083/5/5
f 2092/5/5 2084/5/5 2091/5/5
f 2093/5/5 2078/5/5 2077/5/5
f 2094/5/5 2078/5/5 2093/5/5
f 2095/5/5 2088/5/5 2087/5/5
f 2096/5/5 2088/5/5 2095/5/5
f 2107/5/5 2098/5/5 2097/5/5
f 2108/5/5 2098/5/5 2107/5/5
f 2109/5/5 2100/5/5 2099/5/5
f 2110/5/5 2100/5/5 2109/5/5
f 2115/5/5 2102/5/5 2101/5/5
f 2116/5/5 2102/5/5 2115/5/5
f 2117/5/5 2104/5/5 2103/5/5
f 2118/5/5 2104/5/5 2117/5/5
f 2121/5/5 2106/5/5 2105/5/5
f 2122/5/5 2106/5/5 2121/5/5
f 2123/5/5 2112/5/5 2111/5/5
f 2124/5/5 2112/5/5 2123/5/5
f 2127/5/5 2114/5/5 2113/5/5
f 2128/5/5 2114/5/5 2127/5/5
f 2129/5/5 2120/5/5 2119/5/5
f 2130/5/5 2120/5/5 2129/5/5
f 2131/5/5 2125/5/5 2124/5/5
f 2132/5/5 2125/5/5 2131/5/5
f 2133/5/5 2127/5/5 2126/5/5
f 2134/5/5 2127/5/5 2133/5/5
f 2139/5/5 2136/5/5 2135/5/5
f 2140/5/5 2136/5/5 2139/5/5
f 2141/5/5 2138/5/5 2137/5/5
f 2142/5/5 2138/5/5 2141/5/5
f 2149/5/5 2144/5/5 2143/5/5
f 2150/5/5 2144/5/5 2149/5/5
f 2155/5/5 2146/5/5 2145/5/5
f 2156/5/5 2146/5/5 2155/5/5
f 2159/5/5 2148/5/5 2147/5/5
f 2160/5/5 2148/5/5 2159/5/5
f 2161/5/5 2152/5/5 2151/5/5
f 2162/5/5 2152/5/5 2161/5/5
f 2163/5/5 2154/5/5 2153/5/5
f 2164/5/5 2154/5/5 2163/5/5
f 2165/5/5 2158/5/5 2157/5/5
f 2166/5/5 2158/5/5 2165/5/5
f 2171/5/5 2168/5/5 2167/5/5
f 2172/5/5 2168/5/5 2171/5/5
f 2173/5/5 2170/5/5 2169/5/5
f 2174/5/5 2170/5/5 2173/5/5
f 2179/5/5 2176/5/5 2175/5/5
f 2180/5/5 2176/5/5 2179/5/5
f 2181/5/5 2178/5/5 2177/5/5
f 2182/5/5 2178/5/5 2181/5/5
f 2191/5/5 2184/5/5 2183/5/5
f 2192/5/5 2184/5/5 2191/5/5
f 2193/5/5 2186/5/5 2185/5/5
f 2194/5/5 2186/5/5 2193/5/5
f 2195/5/5 2188/5/5 2187/5/5
f 2196/5/5 2188/5/5 2195/5/5
f 2197/5/5 2190/5/5 2189/5/5
f 2198/5/5 2190/5/5 2197/5/5
f 2207/5/5 2200/5/5 2199/5/5
f 2208/5/5 2200/5/5 2207/5/5
f 2209/5/5 2202/5/5 2201/5/5
f 2210/5/5 2202/5/5 2209/5/5
f 2211/5/5 2204/5/5 2203/5/5
f 2212/5/5 2204/5/5 2211/5/5
f 2213/5/5 2206/5/5 2205/5/5
f 2214/5/5 2206/5/5 2213/5/5
f 2219/5/5 2216/5/5 2215/5/5
f 2220/5/5 2216/5/5 2219/5/5
f 2221/5/5 2218/5/5 2217/5/5
f 2222/5/5 2218/5/5 2221/5/5
f 2223/6/6 2224/6/6 2225/6/6
f 2225/6/6 2224/6/6 2226/6/6
f 2226/6/6 2224/6/6 2227/6/6
f 2227/6/6 2224/6/6 2228/6/6
f 2229/1/6 2230/1/6 2234/1/6
f 2231/1/6 2232/1/6 2235/1/6
f 2233/1/6 2234/1/6 2237/1/6
f 2234/1/6 2230/1/6 2238/1/6
f 2237/1/6 2234/1/6 2238/1/6
f 2235/1/6 2236/1/6 2239/1/6
f 2231/1/6 2235/1/6 2239/1/6
f 2239/1/6 2236/1/6 2240/1/6
f 2238/1/6 2230/1/6 2241/1/6
f 2241/1/6 2230/1/6 2242/1/6
f 2231/1/6 2239/1/6 2243/1/6
f 2243/1/6 2239/1/6 2244/1/6
f 2245/6/6 2246/6/6 2249/6/6
f 2246/2/6 2247/2/6 2250/2/6
f 2249/6/6 2246/6/6 2250/6/6
f 2247/6/6 2248/6/6 2251/6/6
f 2250/2/6 2247/2/6 2251/2/6
f 2251/6/6 2248/6/6 2252/6/6
f 2253/3/6 2254/3/6 2257/3/6
f 2257/3/6 2254/3/6 2258/3/6
f 2255/3/6 2256/3/6 2259/3/6
f 2259/3/6 2256/3/6 2260/3/6
f 2261/6/6 2262/6/6 2266/6/6
f 2262/2/6 2263/2/6 2267/2/6
f 2266/6/6 2262/6/6 2267/6/6
f 2263/6/6 2264/6/6 2268/6/6
f 2267/2/6 2263/2/6 2268/2/6
f 2268/6/6 2264/6/6 2269/6/6
f 2265/3/6 2266/3/6 2271/3/6
f 2271/3/6 2266/3/6 2272/3/6
f 2269/3/6 2270/3/6 2273/3/6
f 2273/3/6 2270/3/6 2274/3/6
f 2275/1/6 2276/1/6 2280/1/6
f 2277/1/6 2278/1/6 2281/1/6
f 2279/1/6 2280/1/6 2283/1/6
f 2280/1/6 2276/1/6 2284/1/6
f 2283/1/6 2280/1/6 2284/1/6
f 2281/1/6 2282/1/6 2285/1/6
f 2277/1/6 2281/1/6 2285/1/6
f 2285/1/6 2282/1/6 2286/1/6
f 2284/1/6 2276/1/6 2287/1/6
f 2287/1/6 2276/1/6 2288/1/6
f 2277/1/6 2285/1/6 2289/1/6
f 2289/1/6 2285/1/6 2290/1/6
f 2291/3/6 2292/3/6 2295/3/6
f 2295/3/6 2292/3/6 2296/3/6
f 2293/3/6 2294/3/6 2297/3/6
f 2297/3/6 2294/3/6 2298/3/6
f 2299/6/6 2300/6/6 2304/6/6
f 2300/2/6 2301/2/6 2305/2/6
f 2304/6/6 2300/6/6 2305/6/6
f 2301/6/6 2302/6/6 2306/6/6
f 2305/2/6 2301/2/6 2306/2/6
f 2306/6/6 2302/6/6 2307/6/6
f 2303/3/6 2304/3/6 2309/3/6
f 2309/3/6 2304/3/6 2310/3/6
f 2307/3/6 2308/3/6 2311/3/6
f 2311/3/6 2308/3/6 2312/3/6
f 2313/6/6 2314/6/6 2319/6/6
f 2314/2/6 2315/2/6 2320/2/6
f 2319/6/6 2314/6/6 2320/6/6
f 2315/6/6 2316/6/6 2321/6/6
f 2320/2/6 2315/2/6 2321/2/6
f 2321/6/6 2316/6/6 2322/6/6
f 2317/1/6 2318/1/6 2326/1/6
f 2318/3/6 2319/3/6 2327/3/6
f 2326/1/6 2318/1/6 2327/1/6
f 2327/3/6 2319/3/6 2328/3/6
f 2322/3/6 2323/3/6 2329/3/6
f 2323/1/6 2324/1/6 2330/1/6
f 2329/3/6 2323/3/6 2330/3/6
f 2330/1/6 2324/1/6 2331/1/6
f 2325/1/6 2326/1/6 2333/1/6
f 2326/1/6 2327/1/6 2333/1/6
f 2333/1/6 2327/1/6 2334/1/6
f 2331/1/6 2332/1/6 2335/1/6
f 2330/1/6 2331/1/6 2335/1/6
f 2335/1/6 2332/1/6 2336/1/6
f 2334/1/6 2327/1/6 2337/1/6
f 2337/1/6 2327/1/6 2338/1/6
f 2330/1/6 2335/1/6 2339/1/6
f 2339/1/6 2335/1/6 2340/1/6
f 2341/6/6 2342/6/6 2346/6/6
f 2342/2/6 2343/2/6 2347/2/6
f 2346/6/6 2342/6/6 2347/6/6
f 2343/6/6 2344/6/6 2348/6/6
f 2347/2/6 2343/2/6 2348/2/6
f 2348/6/6 2344/6/6 2349/6/6
f 2345/3/6 2346/3/6 2351/3/6
f 2351/3/6 2346/3/6 2352/3/6
f 2349/3/6 2350/3/6 2353/3/6
f 2353/3/6 2350/3/6 2354/3/6
f 2355/6/6 2356/6/6 2360/6/6
f 2356/2/6 2357/2/6 2361/2/6
f 2360/6/6 2356/6/6 2361/6/6
f 2357/6/6 2358/6/6 2362/6/6
f 2361/2/6 2357/2/6 2362/2/6
f 2362/6/6 2358/6/6 2363/6/6
f 2359/3/6 2360/3/6 2365/3/6
f 2365/3/6 2360/3/6 2366/3/6
f 2363/3/6 2364/3/6 2367/3/6
f 2367/3/6 2364/3/6 2368/3/6
f 2369/5/6 2370/5/6 2373/5/6
f 2373/5/6 2370/5/6 2374/5/6
f 2371/5/6 2372/5/6 2375/5/6
f 2375/5/6 2372/5/6 2376/5/6
f 2377/6/6 2378/6/6 2382/6/6
f 2378/2/6 2379/2/6 2383/2/6
f 2382/6/6 2378/6/6 2383/6/6
f 2379/6/6 2380/6/6 2384/6/6
f 2383/2/6 2379/2/6 2384/2/6
f 2384/6/6 2380/6/6 2385/6/6
f 2381/3/6 2382/3/6 2387/3/6
f 2387/3/6 2382/3/6 2388/3/6
f 2385/3/6 2386/3/6 2389/3/6
f 2389/3/6 2386/3/6 2390/3/6
f 2391/5/6 2392/5/6 2395/5/6
f 2395/5/6 2392/5/6 2396/5/6
f 2393/5/6 2394/5/6 2397/5/6
f 2397/5/6 2394/5/6 2398/5/6
f 2399/6/6 2400/6/6 2404/6/6
f 2400/2/6 2401/2/6 2405/2/6
f 2404/6/6 2400/6/6 2405/6/6
f 2401/6/6 2402/6/6 2406/6/6
f 2405/2/6 2401/2/6 2406/2/6
f 2406/6/6 2402/6/6 2407/6/6
f 2403/3/6 2404/3/6 2409/3/6
f 2409/3/6 2404/3/6 2410/3/6
f 2407/3/6 2408/3/6 2411/3/6
f 2411/3/6 2408/3/6 2412/3/6
f 2413/5/6 2414/5/6 2417/5/6
f 2415/5/6 2416/5/6 2418/5/6
f 2417/5/6 2414/5/6 2419/5/6
f 2419/5/6 2414/5/6 2420/5/6
f 2415/5/6 2418/5/6 2421/5/6
f 2421/5/6 2418/5/6 2422/5/6
f 2424/2/6 2425/2/6 2427/2/6
f 2427/2/6 2425/2/6 2428/2/6
f 2423/6/6 2424/6/6 2429/6/6
f 2424/2/6 2427/2/6 2429/2/6
f 2429/2/6 2427/2/6 2430/2/6
f 2428/2/6 2425/2/6 2431/2/6
f 2425/6/6 2426/6/6 2432/6/6
f 2431/2/6 2425/2/6 2432/2/6
f 2429/6/6 2430/6/6 2433/6/6
f 2423/6/6 2429/6/6 2433/6/6
f 2433/6/6 2430/6/6 2434/6/6
f 2431/6/6 2432/6/6 2435/6/6
f 2432/6/6 2426/6/6 2436/6/6
f 2435/6/6 2432/6/6 2436/6/6
f 2437/5/6 2438/5/6 2443/5/6
f 2443/5/6 2438/5/6 2444/5/6
f 2439/5/6 2440/5/6 2445/5/6
f 2445/5/6 2440/5/6 2446/5/6
f 2441/5/6 2442/5/6 2449/5/6
f 2449/5/6 2442/5/6 2450/5/6
f 2447/5/6 2448/5/6 2451/5/6
f 2451/5/6 2448/5/6 2452/5/6
f 2453/2/6 2454/2/6 2455/2/6
f 2455/2/6 2454/2/6 2456/2/6
f 2455/6/6 2456/6/6 2461/6/6
f 2461/6/6 2456/6/6 2462/6/6
f 2457/5/6 2458/5/6 2467/5/6
f 2467/5/6 2458/5/6 2468/5/6
f 2459/5/6 2460/5/6 2469/5/6
f 2469/5/6 2460/5/6 2470/5/6
f 2463/5/6 2464/5/6 2471/5/6
f 2471/5/6 2464/5/6 2472/5/6
f 2465/5/6 2466/5/6 2473/5/6
f 2473/5/6 2466/5/6 2474/5/6
f 2475/5/6 2476/5/6 2479/5/6
f 2479/5/6 2476/5/6 2480/5/6
f 2477/5/6 2478/5/6 2481/5/6
f 2481/5/6 2478/5/6 2482/5/6
f 2483/5/6 2484/5/6 2487/5/6
f 2487/5/6 2484/5/6 2488/5/6
f 2485/5/6 2486/5/6 2489/5/6
f 2489/5/6 2486/5/6 2490/5/6
f 2491/5/6 2492/5/6 2495/5/6
f 2495/5/6 2492/5/6 2496/5/6
f 2493/5/6 2494/5/6 2497/5/6
f 2497/5/6 2494/5/6 2498/5/6
f 2499/5/6 2500/5/6 2501/5/6
f 2501/5/6 2500/5/6 2502/5/6
f 2503/5/6 2504/5/6 2509/5/6
f 2509/5/6 2504/5/6 2510/5/6
f 2505/5/6 2506/5/6 2515/5/6
f 2515/5/6 2506/5/6 2516/5/6
f 2507/5/6 2508/5/6 2519/5/6
f 2519/5/6 2508/5/6 2520/5/6
f 2511/5/6 2512/5/6 2521/5/6
f 2521/5/6 2512/5/6 2522/5/6
f 2513/5/6 2514/5/6 2523/5/6
f 2523/5/6 2514/5/6 2524/5/6
f 2517/5/6 2518/5/6 2525/5/6
f 2525/5/6 2518/5/6 2526/5/6
f 2527/5/6 2528/5/6 2537/5/6
f 2537/5/6 2528/5/6 2538/5/6
f 2529/5/6 2530/5/6 2539/5/6
f 2539/5/6 2530/5/6 2540/5/6
f 2531/5/6 2532/5/6 2545/5/6
f 2545/5/6 2532/5/6 2546/5/6
f 2533/5/6 2534/5/6 2547/5/6
f 2547/5/6 2534/5/6 2548/5/6
f 2535/5/6 2536/5/6 2552/5/6
f 2552/5/6 2536/5/6 2553/5/6
f 2541/5/6 2542/5/6 2554/5/6
f 2554/5/6 2542/5/6 2555/5/6
f 2543/5/6 2544/5/6 2558/5/6
f 2558/5/6 2544/5/6 2559/5/6
f 2549/5/6 2550/5/6 2560/5/6
f 2560/5/6 2550/5/6 2561/5/6
f 2551/5/6 2552/5/6 2563/5/6
f 2563/5/6 2552/5/6 2564/5/6
f 2555/5/6 2556/5/6 2565/5/6
f 2565/5/6 2556/5/6 2566/5/6
f 2557/5/6 2558/5/6 2567/5/6
f 2567/5/6 2558/5/6 2568/5/6
f 2561/5/6 2562/5/6 2569/5/6
f 2569/5/6 2562/5/6 2570/5/6
f 2571/5/6 2572/5/6 2577/5/6
f 2577/5/6 2572/5/6 2578/5/6
f 2573/5/6 2574/5/6 2583/5/6
f 2583/5/6 2574/5/6 2584/5/6
f 2575/5/6 2576/5/6 2588/5/6
f 2588/5/6 2576/5/6 2589/5/6
f 2579/5/6 2580/5/6 2590/5/6
f 2590/5/6 2580/5/6 2591/5/6
f 2581/5/6 2582/5/6 2594/5/6
f 2594/5/6 2582/5/6 2595/5/6
f 2585/5/6 2586/5/6 2596/5/6
f 2596/5/6 2586/5/6 2597/5/6
f 2587/5/6 2588/5/6 2599/5/6
f 2599/5/6 2588/5/6 2600/5/6
f 2591/5/6 2592/5/6 2601/5/6
f 2601/5/6 2592/5/6 2602/5/6
f 2593/5/6 2594/5/6 2603/5/6
f 2603/5/6 2594/5/6 2604/5/6
f 2597/5/6 2598/5/6 2605/5/6
f 2605/5/6 2598/5/6 2606/5/6
f 2607/5/6 2608/5/6 2612/5/6
f 2612/5/6 2608/5/6 2613/5/6
f 2609/5/6 2610/5/6 2616/5/6
f 2616/5/6 2610/5/6 2617/5/6
f 2611/5/6 2612/5/6 2619/5/6
f 2619/5/6 2612/5/6 2620/5/6
f 2613/5/6 2614/5/6 2621/5/6
f 2621/5/6 2614/5/6 2622/5/6
f 2615/5/6 2616/5/6 2623/5/6
f 2623/5/6 2616/5/6 2624/5/6
f 2617/5/6 2618/5/6 2625/5/6
f 2625/5/6 2618/5/6 2626/5/6
f 2627/5/6 2628/5/6 2631/5/6
f 2631/5/6 2628/5/6 2632/5/6
f 2629/5/6 2630/5/6 2633/5/6
f 2633/5/6 2630/5/6 2634/5/6
